%TF.GenerationSoftware,KiCad,Pcbnew,8.0.6*%
%TF.CreationDate,2025-04-05T09:24:30-04:00*%
%TF.ProjectId,BlindsPanel,426c696e-6473-4506-916e-656c2e6b6963,rev?*%
%TF.SameCoordinates,Original*%
%TF.FileFunction,Drillmap*%
%TF.FilePolarity,Positive*%
%FSLAX45Y45*%
G04 Gerber Fmt 4.5, Leading zero omitted, Abs format (unit mm)*
G04 Created by KiCad (PCBNEW 8.0.6) date 2025-04-05 09:24:30*
%MOMM*%
%LPD*%
G01*
G04 APERTURE LIST*
%ADD10C,0.200000*%
%ADD11C,0.100000*%
%ADD12C,0.434000*%
%ADD13C,0.500000*%
%ADD14C,0.700000*%
G04 APERTURE END LIST*
D10*
X8900000Y-1727500D02*
X16500000Y-1727500D01*
X16500000Y-19227500D01*
X8900000Y-19227500D01*
X8900000Y-1727500D01*
D11*
X12382500Y-4060110D02*
X12382500Y-3559370D01*
X13017500Y-3559870D02*
X13017500Y-4060630D01*
X12382500Y-3559370D02*
G75*
G02*
X12396000Y-3525200I49998J-2D01*
G01*
X12396000Y-3525200D02*
G75*
G02*
X13004000Y-3525200I304000J-284800D01*
G01*
X12396000Y-4094800D02*
G75*
G02*
X12382500Y-4060110I36522J34185D01*
G01*
X13004000Y-3525200D02*
G75*
G02*
X13017501Y-3559870I-36480J-34170D01*
G01*
X13004000Y-4094800D02*
G75*
G02*
X12396000Y-4094800I-304000J284800D01*
G01*
X13017500Y-4060630D02*
G75*
G02*
X13004000Y-4094800I-49989J-2D01*
G01*
D10*
X14996250Y-2080000D02*
X14996250Y-1975000D01*
X15096250Y-1875000D02*
X15396250Y-1875000D01*
X15396250Y-2180000D02*
X15096250Y-2180000D01*
X15496250Y-1975000D02*
X15496250Y-2080000D01*
X14996250Y-1975000D02*
G75*
G02*
X15096250Y-1875000I100000J0D01*
G01*
X15096250Y-2180000D02*
G75*
G02*
X14996250Y-2080000I0J100000D01*
G01*
X15396250Y-1875000D02*
G75*
G02*
X15496250Y-1975000I0J-100000D01*
G01*
X15496250Y-2080000D02*
G75*
G02*
X15396250Y-2180000I-100000J0D01*
G01*
D11*
X9842500Y-11680110D02*
X9842500Y-11179370D01*
X10477500Y-11179870D02*
X10477500Y-11680630D01*
X9842500Y-11179370D02*
G75*
G02*
X9856000Y-11145200I49998J-2D01*
G01*
X9856000Y-11145200D02*
G75*
G02*
X10464000Y-11145200I304000J-284800D01*
G01*
X9856000Y-11714800D02*
G75*
G02*
X9842500Y-11680110I36522J34185D01*
G01*
X10464000Y-11145200D02*
G75*
G02*
X10477501Y-11179870I-36480J-34170D01*
G01*
X10464000Y-11714800D02*
G75*
G02*
X9856000Y-11714800I-304000J284800D01*
G01*
X10477500Y-11680630D02*
G75*
G02*
X10464000Y-11714800I-49989J-2D01*
G01*
D10*
X9916250Y-18980000D02*
X9916250Y-18875000D01*
X10016250Y-18775000D02*
X10316250Y-18775000D01*
X10316250Y-19080000D02*
X10016250Y-19080000D01*
X10416250Y-18875000D02*
X10416250Y-18980000D01*
X9916250Y-18875000D02*
G75*
G02*
X10016250Y-18775000I100000J0D01*
G01*
X10016250Y-19080000D02*
G75*
G02*
X9916250Y-18980000I0J100000D01*
G01*
X10316250Y-18775000D02*
G75*
G02*
X10416250Y-18875000I0J-100000D01*
G01*
X10416250Y-18980000D02*
G75*
G02*
X10316250Y-19080000I-100000J0D01*
G01*
D11*
X14922500Y-4060110D02*
X14922500Y-3559370D01*
X15557500Y-3559870D02*
X15557500Y-4060630D01*
X14922500Y-3559370D02*
G75*
G02*
X14936000Y-3525200I49998J-2D01*
G01*
X14936000Y-3525200D02*
G75*
G02*
X15544000Y-3525200I304000J-284800D01*
G01*
X14936000Y-4094800D02*
G75*
G02*
X14922500Y-4060110I36522J34185D01*
G01*
X15544000Y-3525200D02*
G75*
G02*
X15557501Y-3559870I-36480J-34170D01*
G01*
X15544000Y-4094800D02*
G75*
G02*
X14936000Y-4094800I-304000J284800D01*
G01*
X15557500Y-4060630D02*
G75*
G02*
X15544000Y-4094800I-49989J-2D01*
G01*
X9842500Y-7870110D02*
X9842500Y-7369370D01*
X10477500Y-7369870D02*
X10477500Y-7870630D01*
X9842500Y-7369370D02*
G75*
G02*
X9856000Y-7335200I49998J-2D01*
G01*
X9856000Y-7335200D02*
G75*
G02*
X10464000Y-7335200I304000J-284800D01*
G01*
X9856000Y-7904800D02*
G75*
G02*
X9842500Y-7870110I36522J34185D01*
G01*
X10464000Y-7335200D02*
G75*
G02*
X10477501Y-7369870I-36480J-34170D01*
G01*
X10464000Y-7904800D02*
G75*
G02*
X9856000Y-7904800I-304000J284800D01*
G01*
X10477500Y-7870630D02*
G75*
G02*
X10464000Y-7904800I-49989J-2D01*
G01*
D10*
X9916250Y-2080000D02*
X9916250Y-1975000D01*
X10016250Y-1875000D02*
X10316250Y-1875000D01*
X10316250Y-2180000D02*
X10016250Y-2180000D01*
X10416250Y-1975000D02*
X10416250Y-2080000D01*
X9916250Y-1975000D02*
G75*
G02*
X10016250Y-1875000I100000J0D01*
G01*
X10016250Y-2180000D02*
G75*
G02*
X9916250Y-2080000I0J100000D01*
G01*
X10316250Y-1875000D02*
G75*
G02*
X10416250Y-1975000I0J-100000D01*
G01*
X10416250Y-2080000D02*
G75*
G02*
X10316250Y-2180000I-100000J0D01*
G01*
D11*
X9842500Y-15490110D02*
X9842500Y-14989370D01*
X10477500Y-14989870D02*
X10477500Y-15490630D01*
X9842500Y-14989370D02*
G75*
G02*
X9856000Y-14955200I49998J-2D01*
G01*
X9856000Y-14955200D02*
G75*
G02*
X10464000Y-14955200I304000J-284800D01*
G01*
X9856000Y-15524800D02*
G75*
G02*
X9842500Y-15490110I36522J34185D01*
G01*
X10464000Y-14955200D02*
G75*
G02*
X10477501Y-14989870I-36480J-34170D01*
G01*
X10464000Y-15524800D02*
G75*
G02*
X9856000Y-15524800I-304000J284800D01*
G01*
X10477500Y-15490630D02*
G75*
G02*
X10464000Y-15524800I-49989J-2D01*
G01*
X14922500Y-15490110D02*
X14922500Y-14989370D01*
X15557500Y-14989870D02*
X15557500Y-15490630D01*
X14922500Y-14989370D02*
G75*
G02*
X14936000Y-14955200I49998J-2D01*
G01*
X14936000Y-14955200D02*
G75*
G02*
X15544000Y-14955200I304000J-284800D01*
G01*
X14936000Y-15524800D02*
G75*
G02*
X14922500Y-15490110I36522J34185D01*
G01*
X15544000Y-14955200D02*
G75*
G02*
X15557501Y-14989870I-36480J-34170D01*
G01*
X15544000Y-15524800D02*
G75*
G02*
X14936000Y-15524800I-304000J284800D01*
G01*
X15557500Y-15490630D02*
G75*
G02*
X15544000Y-15524800I-49989J-2D01*
G01*
D10*
X14996250Y-18980000D02*
X14996250Y-18875000D01*
X15096250Y-18775000D02*
X15396250Y-18775000D01*
X15396250Y-19080000D02*
X15096250Y-19080000D01*
X15496250Y-18875000D02*
X15496250Y-18980000D01*
X14996250Y-18875000D02*
G75*
G02*
X15096250Y-18775000I100000J0D01*
G01*
X15096250Y-19080000D02*
G75*
G02*
X14996250Y-18980000I0J100000D01*
G01*
X15396250Y-18775000D02*
G75*
G02*
X15496250Y-18875000I0J-100000D01*
G01*
X15496250Y-18980000D02*
G75*
G02*
X15396250Y-19080000I-100000J0D01*
G01*
D11*
X14922500Y-7870110D02*
X14922500Y-7369370D01*
X15557500Y-7369870D02*
X15557500Y-7870630D01*
X14922500Y-7369370D02*
G75*
G02*
X14936000Y-7335200I49998J-2D01*
G01*
X14936000Y-7335200D02*
G75*
G02*
X15544000Y-7335200I304000J-284800D01*
G01*
X14936000Y-7904800D02*
G75*
G02*
X14922500Y-7870110I36522J34185D01*
G01*
X15544000Y-7335200D02*
G75*
G02*
X15557501Y-7369870I-36480J-34170D01*
G01*
X15544000Y-7904800D02*
G75*
G02*
X14936000Y-7904800I-304000J284800D01*
G01*
X15557500Y-7870630D02*
G75*
G02*
X15544000Y-7904800I-49989J-2D01*
G01*
X12382500Y-15490110D02*
X12382500Y-14989370D01*
X13017500Y-14989870D02*
X13017500Y-15490630D01*
X12382500Y-14989370D02*
G75*
G02*
X12396000Y-14955200I49998J-2D01*
G01*
X12396000Y-14955200D02*
G75*
G02*
X13004000Y-14955200I304000J-284800D01*
G01*
X12396000Y-15524800D02*
G75*
G02*
X12382500Y-15490110I36522J34185D01*
G01*
X13004000Y-14955200D02*
G75*
G02*
X13017501Y-14989870I-36480J-34170D01*
G01*
X13004000Y-15524800D02*
G75*
G02*
X12396000Y-15524800I-304000J284800D01*
G01*
X13017500Y-15490630D02*
G75*
G02*
X13004000Y-15524800I-49989J-2D01*
G01*
X12382500Y-11680110D02*
X12382500Y-11179370D01*
X13017500Y-11179870D02*
X13017500Y-11680630D01*
X12382500Y-11179370D02*
G75*
G02*
X12396000Y-11145200I49998J-2D01*
G01*
X12396000Y-11145200D02*
G75*
G02*
X13004000Y-11145200I304000J-284800D01*
G01*
X12396000Y-11714800D02*
G75*
G02*
X12382500Y-11680110I36522J34185D01*
G01*
X13004000Y-11145200D02*
G75*
G02*
X13017501Y-11179870I-36480J-34170D01*
G01*
X13004000Y-11714800D02*
G75*
G02*
X12396000Y-11714800I-304000J284800D01*
G01*
X13017500Y-11680630D02*
G75*
G02*
X13004000Y-11714800I-49989J-2D01*
G01*
X9842500Y-4060110D02*
X9842500Y-3559370D01*
X10477500Y-3559870D02*
X10477500Y-4060630D01*
X9842500Y-3559370D02*
G75*
G02*
X9856000Y-3525200I49998J-2D01*
G01*
X9856000Y-3525200D02*
G75*
G02*
X10464000Y-3525200I304000J-284800D01*
G01*
X9856000Y-4094800D02*
G75*
G02*
X9842500Y-4060110I36522J34185D01*
G01*
X10464000Y-3525200D02*
G75*
G02*
X10477501Y-3559870I-36480J-34170D01*
G01*
X10464000Y-4094800D02*
G75*
G02*
X9856000Y-4094800I-304000J284800D01*
G01*
X10477500Y-4060630D02*
G75*
G02*
X10464000Y-4094800I-49989J-2D01*
G01*
X12382500Y-7870110D02*
X12382500Y-7369370D01*
X13017500Y-7369870D02*
X13017500Y-7870630D01*
X12382500Y-7369370D02*
G75*
G02*
X12396000Y-7335200I49998J-2D01*
G01*
X12396000Y-7335200D02*
G75*
G02*
X13004000Y-7335200I304000J-284800D01*
G01*
X12396000Y-7904800D02*
G75*
G02*
X12382500Y-7870110I36522J34185D01*
G01*
X13004000Y-7335200D02*
G75*
G02*
X13017501Y-7369870I-36480J-34170D01*
G01*
X13004000Y-7904800D02*
G75*
G02*
X12396000Y-7904800I-304000J284800D01*
G01*
X13017500Y-7870630D02*
G75*
G02*
X13004000Y-7904800I-49989J-2D01*
G01*
X14922500Y-11680110D02*
X14922500Y-11179370D01*
X15557500Y-11179870D02*
X15557500Y-11680630D01*
X14922500Y-11179370D02*
G75*
G02*
X14936000Y-11145200I49998J-2D01*
G01*
X14936000Y-11145200D02*
G75*
G02*
X15544000Y-11145200I304000J-284800D01*
G01*
X14936000Y-11714800D02*
G75*
G02*
X14922500Y-11680110I36522J34185D01*
G01*
X15544000Y-11145200D02*
G75*
G02*
X15557501Y-11179870I-36480J-34170D01*
G01*
X15544000Y-11714800D02*
G75*
G02*
X14936000Y-11714800I-304000J284800D01*
G01*
X15557500Y-11680630D02*
G75*
G02*
X15544000Y-11714800I-49989J-2D01*
G01*
D10*
D12*
X13118000Y-4228000D02*
X13552000Y-4662000D01*
X13552000Y-4228000D02*
X13118000Y-4662000D01*
X13118000Y-8038000D02*
X13552000Y-8472000D01*
X13552000Y-8038000D02*
X13118000Y-8472000D01*
X13118000Y-11848000D02*
X13552000Y-12282000D01*
X13552000Y-11848000D02*
X13118000Y-12282000D01*
X13118000Y-15658000D02*
X13552000Y-16092000D01*
X13552000Y-15658000D02*
X13118000Y-16092000D01*
X15658000Y-4228000D02*
X16092000Y-4662000D01*
X16092000Y-4228000D02*
X15658000Y-4662000D01*
X15658000Y-8038000D02*
X16092000Y-8472000D01*
X16092000Y-8038000D02*
X15658000Y-8472000D01*
X15658000Y-11848000D02*
X16092000Y-12282000D01*
X16092000Y-11848000D02*
X15658000Y-12282000D01*
X15658000Y-15658000D02*
X16092000Y-16092000D01*
X16092000Y-15658000D02*
X15658000Y-16092000D01*
D13*
X11675000Y-3810000D02*
G75*
G02*
X11175000Y-3810000I-250000J0D01*
G01*
X11175000Y-3810000D02*
G75*
G02*
X11675000Y-3810000I250000J0D01*
G01*
X11675000Y-7620000D02*
G75*
G02*
X11175000Y-7620000I-250000J0D01*
G01*
X11175000Y-7620000D02*
G75*
G02*
X11675000Y-7620000I250000J0D01*
G01*
X11680000Y-11430000D02*
G75*
G02*
X11180000Y-11430000I-250000J0D01*
G01*
X11180000Y-11430000D02*
G75*
G02*
X11680000Y-11430000I250000J0D01*
G01*
X11680000Y-15240000D02*
G75*
G02*
X11180000Y-15240000I-250000J0D01*
G01*
X11180000Y-15240000D02*
G75*
G02*
X11680000Y-15240000I250000J0D01*
G01*
X15490000Y-5715000D02*
G75*
G02*
X14990000Y-5715000I-250000J0D01*
G01*
X14990000Y-5715000D02*
G75*
G02*
X15490000Y-5715000I250000J0D01*
G01*
X15490000Y-9525000D02*
G75*
G02*
X14990000Y-9525000I-250000J0D01*
G01*
X14990000Y-9525000D02*
G75*
G02*
X15490000Y-9525000I250000J0D01*
G01*
X15490000Y-13335000D02*
G75*
G02*
X14990000Y-13335000I-250000J0D01*
G01*
X14990000Y-13335000D02*
G75*
G02*
X15490000Y-13335000I250000J0D01*
G01*
D14*
X10160000Y-5365000D02*
X10160000Y-6065000D01*
X9810000Y-5715000D02*
X10510000Y-5715000D01*
X10160000Y-9175000D02*
X10160000Y-9875000D01*
X9810000Y-9525000D02*
X10510000Y-9525000D01*
X10160000Y-12985000D02*
X10160000Y-13685000D01*
X9810000Y-13335000D02*
X10510000Y-13335000D01*
X10160000Y-16795000D02*
X10160000Y-17495000D01*
X9810000Y-17145000D02*
X10510000Y-17145000D01*
X12700000Y-5365000D02*
X12700000Y-6065000D01*
X12350000Y-5715000D02*
X13050000Y-5715000D01*
X12700000Y-9175000D02*
X12700000Y-9875000D01*
X12350000Y-9525000D02*
X13050000Y-9525000D01*
X12700000Y-12985000D02*
X12700000Y-13685000D01*
X12350000Y-13335000D02*
X13050000Y-13335000D01*
X12700000Y-16795000D02*
X12700000Y-17495000D01*
X12350000Y-17145000D02*
X13050000Y-17145000D01*
D10*
X9150777Y-19548984D02*
X9150777Y-19348984D01*
X9150777Y-19348984D02*
X9198396Y-19348984D01*
X9198396Y-19348984D02*
X9226967Y-19358508D01*
X9226967Y-19358508D02*
X9246015Y-19377555D01*
X9246015Y-19377555D02*
X9255539Y-19396603D01*
X9255539Y-19396603D02*
X9265063Y-19434698D01*
X9265063Y-19434698D02*
X9265063Y-19463270D01*
X9265063Y-19463270D02*
X9255539Y-19501365D01*
X9255539Y-19501365D02*
X9246015Y-19520412D01*
X9246015Y-19520412D02*
X9226967Y-19539460D01*
X9226967Y-19539460D02*
X9198396Y-19548984D01*
X9198396Y-19548984D02*
X9150777Y-19548984D01*
X9350777Y-19548984D02*
X9350777Y-19415650D01*
X9350777Y-19453746D02*
X9360301Y-19434698D01*
X9360301Y-19434698D02*
X9369824Y-19425174D01*
X9369824Y-19425174D02*
X9388872Y-19415650D01*
X9388872Y-19415650D02*
X9407920Y-19415650D01*
X9474586Y-19548984D02*
X9474586Y-19415650D01*
X9474586Y-19348984D02*
X9465063Y-19358508D01*
X9465063Y-19358508D02*
X9474586Y-19368031D01*
X9474586Y-19368031D02*
X9484110Y-19358508D01*
X9484110Y-19358508D02*
X9474586Y-19348984D01*
X9474586Y-19348984D02*
X9474586Y-19368031D01*
X9598396Y-19548984D02*
X9579348Y-19539460D01*
X9579348Y-19539460D02*
X9569824Y-19520412D01*
X9569824Y-19520412D02*
X9569824Y-19348984D01*
X9703158Y-19548984D02*
X9684110Y-19539460D01*
X9684110Y-19539460D02*
X9674586Y-19520412D01*
X9674586Y-19520412D02*
X9674586Y-19348984D01*
X9931729Y-19548984D02*
X9931729Y-19348984D01*
X9931729Y-19348984D02*
X9998396Y-19491841D01*
X9998396Y-19491841D02*
X10065063Y-19348984D01*
X10065063Y-19348984D02*
X10065063Y-19548984D01*
X10246015Y-19548984D02*
X10246015Y-19444222D01*
X10246015Y-19444222D02*
X10236491Y-19425174D01*
X10236491Y-19425174D02*
X10217444Y-19415650D01*
X10217444Y-19415650D02*
X10179348Y-19415650D01*
X10179348Y-19415650D02*
X10160301Y-19425174D01*
X10246015Y-19539460D02*
X10226967Y-19548984D01*
X10226967Y-19548984D02*
X10179348Y-19548984D01*
X10179348Y-19548984D02*
X10160301Y-19539460D01*
X10160301Y-19539460D02*
X10150777Y-19520412D01*
X10150777Y-19520412D02*
X10150777Y-19501365D01*
X10150777Y-19501365D02*
X10160301Y-19482317D01*
X10160301Y-19482317D02*
X10179348Y-19472793D01*
X10179348Y-19472793D02*
X10226967Y-19472793D01*
X10226967Y-19472793D02*
X10246015Y-19463270D01*
X10341253Y-19415650D02*
X10341253Y-19615650D01*
X10341253Y-19425174D02*
X10360301Y-19415650D01*
X10360301Y-19415650D02*
X10398396Y-19415650D01*
X10398396Y-19415650D02*
X10417444Y-19425174D01*
X10417444Y-19425174D02*
X10426967Y-19434698D01*
X10426967Y-19434698D02*
X10436491Y-19453746D01*
X10436491Y-19453746D02*
X10436491Y-19510889D01*
X10436491Y-19510889D02*
X10426967Y-19529936D01*
X10426967Y-19529936D02*
X10417444Y-19539460D01*
X10417444Y-19539460D02*
X10398396Y-19548984D01*
X10398396Y-19548984D02*
X10360301Y-19548984D01*
X10360301Y-19548984D02*
X10341253Y-19539460D01*
X10522205Y-19529936D02*
X10531729Y-19539460D01*
X10531729Y-19539460D02*
X10522205Y-19548984D01*
X10522205Y-19548984D02*
X10512682Y-19539460D01*
X10512682Y-19539460D02*
X10522205Y-19529936D01*
X10522205Y-19529936D02*
X10522205Y-19548984D01*
X10522205Y-19425174D02*
X10531729Y-19434698D01*
X10531729Y-19434698D02*
X10522205Y-19444222D01*
X10522205Y-19444222D02*
X10512682Y-19434698D01*
X10512682Y-19434698D02*
X10522205Y-19425174D01*
X10522205Y-19425174D02*
X10522205Y-19444222D01*
X8690000Y-19777500D02*
X8890000Y-19977500D01*
X8890000Y-19777500D02*
X8690000Y-19977500D01*
X9236491Y-19835650D02*
X9236491Y-19968984D01*
X9188872Y-19759460D02*
X9141253Y-19902317D01*
X9141253Y-19902317D02*
X9265063Y-19902317D01*
X9341253Y-19949936D02*
X9350777Y-19959460D01*
X9350777Y-19959460D02*
X9341253Y-19968984D01*
X9341253Y-19968984D02*
X9331729Y-19959460D01*
X9331729Y-19959460D02*
X9341253Y-19949936D01*
X9341253Y-19949936D02*
X9341253Y-19968984D01*
X9417444Y-19768984D02*
X9541253Y-19768984D01*
X9541253Y-19768984D02*
X9474586Y-19845174D01*
X9474586Y-19845174D02*
X9503158Y-19845174D01*
X9503158Y-19845174D02*
X9522205Y-19854698D01*
X9522205Y-19854698D02*
X9531729Y-19864222D01*
X9531729Y-19864222D02*
X9541253Y-19883270D01*
X9541253Y-19883270D02*
X9541253Y-19930889D01*
X9541253Y-19930889D02*
X9531729Y-19949936D01*
X9531729Y-19949936D02*
X9522205Y-19959460D01*
X9522205Y-19959460D02*
X9503158Y-19968984D01*
X9503158Y-19968984D02*
X9446015Y-19968984D01*
X9446015Y-19968984D02*
X9426967Y-19959460D01*
X9426967Y-19959460D02*
X9417444Y-19949936D01*
X9712682Y-19835650D02*
X9712682Y-19968984D01*
X9665063Y-19759460D02*
X9617444Y-19902317D01*
X9617444Y-19902317D02*
X9741253Y-19902317D01*
X9855539Y-19768984D02*
X9874586Y-19768984D01*
X9874586Y-19768984D02*
X9893634Y-19778508D01*
X9893634Y-19778508D02*
X9903158Y-19788031D01*
X9903158Y-19788031D02*
X9912682Y-19807079D01*
X9912682Y-19807079D02*
X9922205Y-19845174D01*
X9922205Y-19845174D02*
X9922205Y-19892793D01*
X9922205Y-19892793D02*
X9912682Y-19930889D01*
X9912682Y-19930889D02*
X9903158Y-19949936D01*
X9903158Y-19949936D02*
X9893634Y-19959460D01*
X9893634Y-19959460D02*
X9874586Y-19968984D01*
X9874586Y-19968984D02*
X9855539Y-19968984D01*
X9855539Y-19968984D02*
X9836491Y-19959460D01*
X9836491Y-19959460D02*
X9826967Y-19949936D01*
X9826967Y-19949936D02*
X9817444Y-19930889D01*
X9817444Y-19930889D02*
X9807920Y-19892793D01*
X9807920Y-19892793D02*
X9807920Y-19845174D01*
X9807920Y-19845174D02*
X9817444Y-19807079D01*
X9817444Y-19807079D02*
X9826967Y-19788031D01*
X9826967Y-19788031D02*
X9836491Y-19778508D01*
X9836491Y-19778508D02*
X9855539Y-19768984D01*
X10007920Y-19968984D02*
X10007920Y-19835650D01*
X10007920Y-19854698D02*
X10017444Y-19845174D01*
X10017444Y-19845174D02*
X10036491Y-19835650D01*
X10036491Y-19835650D02*
X10065063Y-19835650D01*
X10065063Y-19835650D02*
X10084110Y-19845174D01*
X10084110Y-19845174D02*
X10093634Y-19864222D01*
X10093634Y-19864222D02*
X10093634Y-19968984D01*
X10093634Y-19864222D02*
X10103158Y-19845174D01*
X10103158Y-19845174D02*
X10122205Y-19835650D01*
X10122205Y-19835650D02*
X10150777Y-19835650D01*
X10150777Y-19835650D02*
X10169825Y-19845174D01*
X10169825Y-19845174D02*
X10179348Y-19864222D01*
X10179348Y-19864222D02*
X10179348Y-19968984D01*
X10274586Y-19968984D02*
X10274586Y-19835650D01*
X10274586Y-19854698D02*
X10284110Y-19845174D01*
X10284110Y-19845174D02*
X10303158Y-19835650D01*
X10303158Y-19835650D02*
X10331729Y-19835650D01*
X10331729Y-19835650D02*
X10350777Y-19845174D01*
X10350777Y-19845174D02*
X10360301Y-19864222D01*
X10360301Y-19864222D02*
X10360301Y-19968984D01*
X10360301Y-19864222D02*
X10369825Y-19845174D01*
X10369825Y-19845174D02*
X10388872Y-19835650D01*
X10388872Y-19835650D02*
X10417444Y-19835650D01*
X10417444Y-19835650D02*
X10436491Y-19845174D01*
X10436491Y-19845174D02*
X10446015Y-19864222D01*
X10446015Y-19864222D02*
X10446015Y-19968984D01*
X10836491Y-19759460D02*
X10665063Y-20016603D01*
X11093634Y-19768984D02*
X11112682Y-19768984D01*
X11112682Y-19768984D02*
X11131729Y-19778508D01*
X11131729Y-19778508D02*
X11141253Y-19788031D01*
X11141253Y-19788031D02*
X11150777Y-19807079D01*
X11150777Y-19807079D02*
X11160301Y-19845174D01*
X11160301Y-19845174D02*
X11160301Y-19892793D01*
X11160301Y-19892793D02*
X11150777Y-19930889D01*
X11150777Y-19930889D02*
X11141253Y-19949936D01*
X11141253Y-19949936D02*
X11131729Y-19959460D01*
X11131729Y-19959460D02*
X11112682Y-19968984D01*
X11112682Y-19968984D02*
X11093634Y-19968984D01*
X11093634Y-19968984D02*
X11074587Y-19959460D01*
X11074587Y-19959460D02*
X11065063Y-19949936D01*
X11065063Y-19949936D02*
X11055539Y-19930889D01*
X11055539Y-19930889D02*
X11046015Y-19892793D01*
X11046015Y-19892793D02*
X11046015Y-19845174D01*
X11046015Y-19845174D02*
X11055539Y-19807079D01*
X11055539Y-19807079D02*
X11065063Y-19788031D01*
X11065063Y-19788031D02*
X11074587Y-19778508D01*
X11074587Y-19778508D02*
X11093634Y-19768984D01*
X11246015Y-19949936D02*
X11255539Y-19959460D01*
X11255539Y-19959460D02*
X11246015Y-19968984D01*
X11246015Y-19968984D02*
X11236491Y-19959460D01*
X11236491Y-19959460D02*
X11246015Y-19949936D01*
X11246015Y-19949936D02*
X11246015Y-19968984D01*
X11446015Y-19968984D02*
X11331729Y-19968984D01*
X11388872Y-19968984D02*
X11388872Y-19768984D01*
X11388872Y-19768984D02*
X11369825Y-19797555D01*
X11369825Y-19797555D02*
X11350777Y-19816603D01*
X11350777Y-19816603D02*
X11331729Y-19826127D01*
X11512682Y-19768984D02*
X11646015Y-19768984D01*
X11646015Y-19768984D02*
X11560301Y-19968984D01*
X11760301Y-19768984D02*
X11779348Y-19768984D01*
X11779348Y-19768984D02*
X11798396Y-19778508D01*
X11798396Y-19778508D02*
X11807920Y-19788031D01*
X11807920Y-19788031D02*
X11817444Y-19807079D01*
X11817444Y-19807079D02*
X11826967Y-19845174D01*
X11826967Y-19845174D02*
X11826967Y-19892793D01*
X11826967Y-19892793D02*
X11817444Y-19930889D01*
X11817444Y-19930889D02*
X11807920Y-19949936D01*
X11807920Y-19949936D02*
X11798396Y-19959460D01*
X11798396Y-19959460D02*
X11779348Y-19968984D01*
X11779348Y-19968984D02*
X11760301Y-19968984D01*
X11760301Y-19968984D02*
X11741253Y-19959460D01*
X11741253Y-19959460D02*
X11731729Y-19949936D01*
X11731729Y-19949936D02*
X11722206Y-19930889D01*
X11722206Y-19930889D02*
X11712682Y-19892793D01*
X11712682Y-19892793D02*
X11712682Y-19845174D01*
X11712682Y-19845174D02*
X11722206Y-19807079D01*
X11722206Y-19807079D02*
X11731729Y-19788031D01*
X11731729Y-19788031D02*
X11741253Y-19778508D01*
X11741253Y-19778508D02*
X11760301Y-19768984D01*
X11922206Y-19968984D02*
X11960301Y-19968984D01*
X11960301Y-19968984D02*
X11979348Y-19959460D01*
X11979348Y-19959460D02*
X11988872Y-19949936D01*
X11988872Y-19949936D02*
X12007920Y-19921365D01*
X12007920Y-19921365D02*
X12017444Y-19883270D01*
X12017444Y-19883270D02*
X12017444Y-19807079D01*
X12017444Y-19807079D02*
X12007920Y-19788031D01*
X12007920Y-19788031D02*
X11998396Y-19778508D01*
X11998396Y-19778508D02*
X11979348Y-19768984D01*
X11979348Y-19768984D02*
X11941253Y-19768984D01*
X11941253Y-19768984D02*
X11922206Y-19778508D01*
X11922206Y-19778508D02*
X11912682Y-19788031D01*
X11912682Y-19788031D02*
X11903158Y-19807079D01*
X11903158Y-19807079D02*
X11903158Y-19854698D01*
X11903158Y-19854698D02*
X11912682Y-19873746D01*
X11912682Y-19873746D02*
X11922206Y-19883270D01*
X11922206Y-19883270D02*
X11941253Y-19892793D01*
X11941253Y-19892793D02*
X11979348Y-19892793D01*
X11979348Y-19892793D02*
X11998396Y-19883270D01*
X11998396Y-19883270D02*
X12007920Y-19873746D01*
X12007920Y-19873746D02*
X12017444Y-19854698D01*
X12093634Y-19768984D02*
X12093634Y-19807079D01*
X12169825Y-19768984D02*
X12169825Y-19807079D01*
X12465063Y-20045174D02*
X12455539Y-20035650D01*
X12455539Y-20035650D02*
X12436491Y-20007079D01*
X12436491Y-20007079D02*
X12426968Y-19988031D01*
X12426968Y-19988031D02*
X12417444Y-19959460D01*
X12417444Y-19959460D02*
X12407920Y-19911841D01*
X12407920Y-19911841D02*
X12407920Y-19873746D01*
X12407920Y-19873746D02*
X12417444Y-19826127D01*
X12417444Y-19826127D02*
X12426968Y-19797555D01*
X12426968Y-19797555D02*
X12436491Y-19778508D01*
X12436491Y-19778508D02*
X12455539Y-19749936D01*
X12455539Y-19749936D02*
X12465063Y-19740412D01*
X12569825Y-19854698D02*
X12550777Y-19845174D01*
X12550777Y-19845174D02*
X12541253Y-19835650D01*
X12541253Y-19835650D02*
X12531729Y-19816603D01*
X12531729Y-19816603D02*
X12531729Y-19807079D01*
X12531729Y-19807079D02*
X12541253Y-19788031D01*
X12541253Y-19788031D02*
X12550777Y-19778508D01*
X12550777Y-19778508D02*
X12569825Y-19768984D01*
X12569825Y-19768984D02*
X12607920Y-19768984D01*
X12607920Y-19768984D02*
X12626968Y-19778508D01*
X12626968Y-19778508D02*
X12636491Y-19788031D01*
X12636491Y-19788031D02*
X12646015Y-19807079D01*
X12646015Y-19807079D02*
X12646015Y-19816603D01*
X12646015Y-19816603D02*
X12636491Y-19835650D01*
X12636491Y-19835650D02*
X12626968Y-19845174D01*
X12626968Y-19845174D02*
X12607920Y-19854698D01*
X12607920Y-19854698D02*
X12569825Y-19854698D01*
X12569825Y-19854698D02*
X12550777Y-19864222D01*
X12550777Y-19864222D02*
X12541253Y-19873746D01*
X12541253Y-19873746D02*
X12531729Y-19892793D01*
X12531729Y-19892793D02*
X12531729Y-19930889D01*
X12531729Y-19930889D02*
X12541253Y-19949936D01*
X12541253Y-19949936D02*
X12550777Y-19959460D01*
X12550777Y-19959460D02*
X12569825Y-19968984D01*
X12569825Y-19968984D02*
X12607920Y-19968984D01*
X12607920Y-19968984D02*
X12626968Y-19959460D01*
X12626968Y-19959460D02*
X12636491Y-19949936D01*
X12636491Y-19949936D02*
X12646015Y-19930889D01*
X12646015Y-19930889D02*
X12646015Y-19892793D01*
X12646015Y-19892793D02*
X12636491Y-19873746D01*
X12636491Y-19873746D02*
X12626968Y-19864222D01*
X12626968Y-19864222D02*
X12607920Y-19854698D01*
X12884110Y-19968984D02*
X12884110Y-19768984D01*
X12969825Y-19968984D02*
X12969825Y-19864222D01*
X12969825Y-19864222D02*
X12960301Y-19845174D01*
X12960301Y-19845174D02*
X12941253Y-19835650D01*
X12941253Y-19835650D02*
X12912682Y-19835650D01*
X12912682Y-19835650D02*
X12893634Y-19845174D01*
X12893634Y-19845174D02*
X12884110Y-19854698D01*
X13093634Y-19968984D02*
X13074587Y-19959460D01*
X13074587Y-19959460D02*
X13065063Y-19949936D01*
X13065063Y-19949936D02*
X13055539Y-19930889D01*
X13055539Y-19930889D02*
X13055539Y-19873746D01*
X13055539Y-19873746D02*
X13065063Y-19854698D01*
X13065063Y-19854698D02*
X13074587Y-19845174D01*
X13074587Y-19845174D02*
X13093634Y-19835650D01*
X13093634Y-19835650D02*
X13122206Y-19835650D01*
X13122206Y-19835650D02*
X13141253Y-19845174D01*
X13141253Y-19845174D02*
X13150777Y-19854698D01*
X13150777Y-19854698D02*
X13160301Y-19873746D01*
X13160301Y-19873746D02*
X13160301Y-19930889D01*
X13160301Y-19930889D02*
X13150777Y-19949936D01*
X13150777Y-19949936D02*
X13141253Y-19959460D01*
X13141253Y-19959460D02*
X13122206Y-19968984D01*
X13122206Y-19968984D02*
X13093634Y-19968984D01*
X13274587Y-19968984D02*
X13255539Y-19959460D01*
X13255539Y-19959460D02*
X13246015Y-19940412D01*
X13246015Y-19940412D02*
X13246015Y-19768984D01*
X13426968Y-19959460D02*
X13407920Y-19968984D01*
X13407920Y-19968984D02*
X13369825Y-19968984D01*
X13369825Y-19968984D02*
X13350777Y-19959460D01*
X13350777Y-19959460D02*
X13341253Y-19940412D01*
X13341253Y-19940412D02*
X13341253Y-19864222D01*
X13341253Y-19864222D02*
X13350777Y-19845174D01*
X13350777Y-19845174D02*
X13369825Y-19835650D01*
X13369825Y-19835650D02*
X13407920Y-19835650D01*
X13407920Y-19835650D02*
X13426968Y-19845174D01*
X13426968Y-19845174D02*
X13436491Y-19864222D01*
X13436491Y-19864222D02*
X13436491Y-19883270D01*
X13436491Y-19883270D02*
X13341253Y-19902317D01*
X13512682Y-19959460D02*
X13531730Y-19968984D01*
X13531730Y-19968984D02*
X13569825Y-19968984D01*
X13569825Y-19968984D02*
X13588872Y-19959460D01*
X13588872Y-19959460D02*
X13598396Y-19940412D01*
X13598396Y-19940412D02*
X13598396Y-19930889D01*
X13598396Y-19930889D02*
X13588872Y-19911841D01*
X13588872Y-19911841D02*
X13569825Y-19902317D01*
X13569825Y-19902317D02*
X13541253Y-19902317D01*
X13541253Y-19902317D02*
X13522206Y-19892793D01*
X13522206Y-19892793D02*
X13512682Y-19873746D01*
X13512682Y-19873746D02*
X13512682Y-19864222D01*
X13512682Y-19864222D02*
X13522206Y-19845174D01*
X13522206Y-19845174D02*
X13541253Y-19835650D01*
X13541253Y-19835650D02*
X13569825Y-19835650D01*
X13569825Y-19835650D02*
X13588872Y-19845174D01*
X13665063Y-20045174D02*
X13674587Y-20035650D01*
X13674587Y-20035650D02*
X13693634Y-20007079D01*
X13693634Y-20007079D02*
X13703158Y-19988031D01*
X13703158Y-19988031D02*
X13712682Y-19959460D01*
X13712682Y-19959460D02*
X13722206Y-19911841D01*
X13722206Y-19911841D02*
X13722206Y-19873746D01*
X13722206Y-19873746D02*
X13712682Y-19826127D01*
X13712682Y-19826127D02*
X13703158Y-19797555D01*
X13703158Y-19797555D02*
X13693634Y-19778508D01*
X13693634Y-19778508D02*
X13674587Y-19749936D01*
X13674587Y-19749936D02*
X13665063Y-19740412D01*
X14026968Y-20045174D02*
X14017444Y-20035650D01*
X14017444Y-20035650D02*
X13998396Y-20007079D01*
X13998396Y-20007079D02*
X13988872Y-19988031D01*
X13988872Y-19988031D02*
X13979349Y-19959460D01*
X13979349Y-19959460D02*
X13969825Y-19911841D01*
X13969825Y-19911841D02*
X13969825Y-19873746D01*
X13969825Y-19873746D02*
X13979349Y-19826127D01*
X13979349Y-19826127D02*
X13988872Y-19797555D01*
X13988872Y-19797555D02*
X13998396Y-19778508D01*
X13998396Y-19778508D02*
X14017444Y-19749936D01*
X14017444Y-19749936D02*
X14026968Y-19740412D01*
X14103158Y-19835650D02*
X14103158Y-19968984D01*
X14103158Y-19854698D02*
X14112682Y-19845174D01*
X14112682Y-19845174D02*
X14131730Y-19835650D01*
X14131730Y-19835650D02*
X14160301Y-19835650D01*
X14160301Y-19835650D02*
X14179349Y-19845174D01*
X14179349Y-19845174D02*
X14188872Y-19864222D01*
X14188872Y-19864222D02*
X14188872Y-19968984D01*
X14312682Y-19968984D02*
X14293634Y-19959460D01*
X14293634Y-19959460D02*
X14284111Y-19949936D01*
X14284111Y-19949936D02*
X14274587Y-19930889D01*
X14274587Y-19930889D02*
X14274587Y-19873746D01*
X14274587Y-19873746D02*
X14284111Y-19854698D01*
X14284111Y-19854698D02*
X14293634Y-19845174D01*
X14293634Y-19845174D02*
X14312682Y-19835650D01*
X14312682Y-19835650D02*
X14341253Y-19835650D01*
X14341253Y-19835650D02*
X14360301Y-19845174D01*
X14360301Y-19845174D02*
X14369825Y-19854698D01*
X14369825Y-19854698D02*
X14379349Y-19873746D01*
X14379349Y-19873746D02*
X14379349Y-19930889D01*
X14379349Y-19930889D02*
X14369825Y-19949936D01*
X14369825Y-19949936D02*
X14360301Y-19959460D01*
X14360301Y-19959460D02*
X14341253Y-19968984D01*
X14341253Y-19968984D02*
X14312682Y-19968984D01*
X14436492Y-19835650D02*
X14512682Y-19835650D01*
X14465063Y-19768984D02*
X14465063Y-19940412D01*
X14465063Y-19940412D02*
X14474587Y-19959460D01*
X14474587Y-19959460D02*
X14493634Y-19968984D01*
X14493634Y-19968984D02*
X14512682Y-19968984D01*
X14731730Y-19835650D02*
X14731730Y-20035650D01*
X14731730Y-19845174D02*
X14750777Y-19835650D01*
X14750777Y-19835650D02*
X14788873Y-19835650D01*
X14788873Y-19835650D02*
X14807920Y-19845174D01*
X14807920Y-19845174D02*
X14817444Y-19854698D01*
X14817444Y-19854698D02*
X14826968Y-19873746D01*
X14826968Y-19873746D02*
X14826968Y-19930889D01*
X14826968Y-19930889D02*
X14817444Y-19949936D01*
X14817444Y-19949936D02*
X14807920Y-19959460D01*
X14807920Y-19959460D02*
X14788873Y-19968984D01*
X14788873Y-19968984D02*
X14750777Y-19968984D01*
X14750777Y-19968984D02*
X14731730Y-19959460D01*
X14941253Y-19968984D02*
X14922206Y-19959460D01*
X14922206Y-19959460D02*
X14912682Y-19940412D01*
X14912682Y-19940412D02*
X14912682Y-19768984D01*
X15103158Y-19968984D02*
X15103158Y-19864222D01*
X15103158Y-19864222D02*
X15093634Y-19845174D01*
X15093634Y-19845174D02*
X15074587Y-19835650D01*
X15074587Y-19835650D02*
X15036492Y-19835650D01*
X15036492Y-19835650D02*
X15017444Y-19845174D01*
X15103158Y-19959460D02*
X15084111Y-19968984D01*
X15084111Y-19968984D02*
X15036492Y-19968984D01*
X15036492Y-19968984D02*
X15017444Y-19959460D01*
X15017444Y-19959460D02*
X15007920Y-19940412D01*
X15007920Y-19940412D02*
X15007920Y-19921365D01*
X15007920Y-19921365D02*
X15017444Y-19902317D01*
X15017444Y-19902317D02*
X15036492Y-19892793D01*
X15036492Y-19892793D02*
X15084111Y-19892793D01*
X15084111Y-19892793D02*
X15103158Y-19883270D01*
X15169825Y-19835650D02*
X15246015Y-19835650D01*
X15198396Y-19768984D02*
X15198396Y-19940412D01*
X15198396Y-19940412D02*
X15207920Y-19959460D01*
X15207920Y-19959460D02*
X15226968Y-19968984D01*
X15226968Y-19968984D02*
X15246015Y-19968984D01*
X15388873Y-19959460D02*
X15369825Y-19968984D01*
X15369825Y-19968984D02*
X15331730Y-19968984D01*
X15331730Y-19968984D02*
X15312682Y-19959460D01*
X15312682Y-19959460D02*
X15303158Y-19940412D01*
X15303158Y-19940412D02*
X15303158Y-19864222D01*
X15303158Y-19864222D02*
X15312682Y-19845174D01*
X15312682Y-19845174D02*
X15331730Y-19835650D01*
X15331730Y-19835650D02*
X15369825Y-19835650D01*
X15369825Y-19835650D02*
X15388873Y-19845174D01*
X15388873Y-19845174D02*
X15398396Y-19864222D01*
X15398396Y-19864222D02*
X15398396Y-19883270D01*
X15398396Y-19883270D02*
X15303158Y-19902317D01*
X15569825Y-19968984D02*
X15569825Y-19768984D01*
X15569825Y-19959460D02*
X15550777Y-19968984D01*
X15550777Y-19968984D02*
X15512682Y-19968984D01*
X15512682Y-19968984D02*
X15493634Y-19959460D01*
X15493634Y-19959460D02*
X15484111Y-19949936D01*
X15484111Y-19949936D02*
X15474587Y-19930889D01*
X15474587Y-19930889D02*
X15474587Y-19873746D01*
X15474587Y-19873746D02*
X15484111Y-19854698D01*
X15484111Y-19854698D02*
X15493634Y-19845174D01*
X15493634Y-19845174D02*
X15512682Y-19835650D01*
X15512682Y-19835650D02*
X15550777Y-19835650D01*
X15550777Y-19835650D02*
X15569825Y-19845174D01*
X15646015Y-20045174D02*
X15655539Y-20035650D01*
X15655539Y-20035650D02*
X15674587Y-20007079D01*
X15674587Y-20007079D02*
X15684111Y-19988031D01*
X15684111Y-19988031D02*
X15693634Y-19959460D01*
X15693634Y-19959460D02*
X15703158Y-19911841D01*
X15703158Y-19911841D02*
X15703158Y-19873746D01*
X15703158Y-19873746D02*
X15693634Y-19826127D01*
X15693634Y-19826127D02*
X15684111Y-19797555D01*
X15684111Y-19797555D02*
X15674587Y-19778508D01*
X15674587Y-19778508D02*
X15655539Y-19749936D01*
X15655539Y-19749936D02*
X15646015Y-19740412D01*
X8890000Y-20197500D02*
G75*
G02*
X8690000Y-20197500I-100000J0D01*
G01*
X8690000Y-20197500D02*
G75*
G02*
X8890000Y-20197500I100000J0D01*
G01*
X9246015Y-20088984D02*
X9150777Y-20088984D01*
X9150777Y-20088984D02*
X9141253Y-20184222D01*
X9141253Y-20184222D02*
X9150777Y-20174698D01*
X9150777Y-20174698D02*
X9169824Y-20165174D01*
X9169824Y-20165174D02*
X9217444Y-20165174D01*
X9217444Y-20165174D02*
X9236491Y-20174698D01*
X9236491Y-20174698D02*
X9246015Y-20184222D01*
X9246015Y-20184222D02*
X9255539Y-20203270D01*
X9255539Y-20203270D02*
X9255539Y-20250889D01*
X9255539Y-20250889D02*
X9246015Y-20269936D01*
X9246015Y-20269936D02*
X9236491Y-20279460D01*
X9236491Y-20279460D02*
X9217444Y-20288984D01*
X9217444Y-20288984D02*
X9169824Y-20288984D01*
X9169824Y-20288984D02*
X9150777Y-20279460D01*
X9150777Y-20279460D02*
X9141253Y-20269936D01*
X9341253Y-20269936D02*
X9350777Y-20279460D01*
X9350777Y-20279460D02*
X9341253Y-20288984D01*
X9341253Y-20288984D02*
X9331729Y-20279460D01*
X9331729Y-20279460D02*
X9341253Y-20269936D01*
X9341253Y-20269936D02*
X9341253Y-20288984D01*
X9474586Y-20088984D02*
X9493634Y-20088984D01*
X9493634Y-20088984D02*
X9512682Y-20098508D01*
X9512682Y-20098508D02*
X9522205Y-20108031D01*
X9522205Y-20108031D02*
X9531729Y-20127079D01*
X9531729Y-20127079D02*
X9541253Y-20165174D01*
X9541253Y-20165174D02*
X9541253Y-20212793D01*
X9541253Y-20212793D02*
X9531729Y-20250889D01*
X9531729Y-20250889D02*
X9522205Y-20269936D01*
X9522205Y-20269936D02*
X9512682Y-20279460D01*
X9512682Y-20279460D02*
X9493634Y-20288984D01*
X9493634Y-20288984D02*
X9474586Y-20288984D01*
X9474586Y-20288984D02*
X9455539Y-20279460D01*
X9455539Y-20279460D02*
X9446015Y-20269936D01*
X9446015Y-20269936D02*
X9436491Y-20250889D01*
X9436491Y-20250889D02*
X9426967Y-20212793D01*
X9426967Y-20212793D02*
X9426967Y-20165174D01*
X9426967Y-20165174D02*
X9436491Y-20127079D01*
X9436491Y-20127079D02*
X9446015Y-20108031D01*
X9446015Y-20108031D02*
X9455539Y-20098508D01*
X9455539Y-20098508D02*
X9474586Y-20088984D01*
X9665063Y-20088984D02*
X9684110Y-20088984D01*
X9684110Y-20088984D02*
X9703158Y-20098508D01*
X9703158Y-20098508D02*
X9712682Y-20108031D01*
X9712682Y-20108031D02*
X9722205Y-20127079D01*
X9722205Y-20127079D02*
X9731729Y-20165174D01*
X9731729Y-20165174D02*
X9731729Y-20212793D01*
X9731729Y-20212793D02*
X9722205Y-20250889D01*
X9722205Y-20250889D02*
X9712682Y-20269936D01*
X9712682Y-20269936D02*
X9703158Y-20279460D01*
X9703158Y-20279460D02*
X9684110Y-20288984D01*
X9684110Y-20288984D02*
X9665063Y-20288984D01*
X9665063Y-20288984D02*
X9646015Y-20279460D01*
X9646015Y-20279460D02*
X9636491Y-20269936D01*
X9636491Y-20269936D02*
X9626967Y-20250889D01*
X9626967Y-20250889D02*
X9617444Y-20212793D01*
X9617444Y-20212793D02*
X9617444Y-20165174D01*
X9617444Y-20165174D02*
X9626967Y-20127079D01*
X9626967Y-20127079D02*
X9636491Y-20108031D01*
X9636491Y-20108031D02*
X9646015Y-20098508D01*
X9646015Y-20098508D02*
X9665063Y-20088984D01*
X9855539Y-20088984D02*
X9874586Y-20088984D01*
X9874586Y-20088984D02*
X9893634Y-20098508D01*
X9893634Y-20098508D02*
X9903158Y-20108031D01*
X9903158Y-20108031D02*
X9912682Y-20127079D01*
X9912682Y-20127079D02*
X9922205Y-20165174D01*
X9922205Y-20165174D02*
X9922205Y-20212793D01*
X9922205Y-20212793D02*
X9912682Y-20250889D01*
X9912682Y-20250889D02*
X9903158Y-20269936D01*
X9903158Y-20269936D02*
X9893634Y-20279460D01*
X9893634Y-20279460D02*
X9874586Y-20288984D01*
X9874586Y-20288984D02*
X9855539Y-20288984D01*
X9855539Y-20288984D02*
X9836491Y-20279460D01*
X9836491Y-20279460D02*
X9826967Y-20269936D01*
X9826967Y-20269936D02*
X9817444Y-20250889D01*
X9817444Y-20250889D02*
X9807920Y-20212793D01*
X9807920Y-20212793D02*
X9807920Y-20165174D01*
X9807920Y-20165174D02*
X9817444Y-20127079D01*
X9817444Y-20127079D02*
X9826967Y-20108031D01*
X9826967Y-20108031D02*
X9836491Y-20098508D01*
X9836491Y-20098508D02*
X9855539Y-20088984D01*
X10007920Y-20288984D02*
X10007920Y-20155650D01*
X10007920Y-20174698D02*
X10017444Y-20165174D01*
X10017444Y-20165174D02*
X10036491Y-20155650D01*
X10036491Y-20155650D02*
X10065063Y-20155650D01*
X10065063Y-20155650D02*
X10084110Y-20165174D01*
X10084110Y-20165174D02*
X10093634Y-20184222D01*
X10093634Y-20184222D02*
X10093634Y-20288984D01*
X10093634Y-20184222D02*
X10103158Y-20165174D01*
X10103158Y-20165174D02*
X10122205Y-20155650D01*
X10122205Y-20155650D02*
X10150777Y-20155650D01*
X10150777Y-20155650D02*
X10169825Y-20165174D01*
X10169825Y-20165174D02*
X10179348Y-20184222D01*
X10179348Y-20184222D02*
X10179348Y-20288984D01*
X10274586Y-20288984D02*
X10274586Y-20155650D01*
X10274586Y-20174698D02*
X10284110Y-20165174D01*
X10284110Y-20165174D02*
X10303158Y-20155650D01*
X10303158Y-20155650D02*
X10331729Y-20155650D01*
X10331729Y-20155650D02*
X10350777Y-20165174D01*
X10350777Y-20165174D02*
X10360301Y-20184222D01*
X10360301Y-20184222D02*
X10360301Y-20288984D01*
X10360301Y-20184222D02*
X10369825Y-20165174D01*
X10369825Y-20165174D02*
X10388872Y-20155650D01*
X10388872Y-20155650D02*
X10417444Y-20155650D01*
X10417444Y-20155650D02*
X10436491Y-20165174D01*
X10436491Y-20165174D02*
X10446015Y-20184222D01*
X10446015Y-20184222D02*
X10446015Y-20288984D01*
X10836491Y-20079460D02*
X10665063Y-20336603D01*
X11093634Y-20088984D02*
X11112682Y-20088984D01*
X11112682Y-20088984D02*
X11131729Y-20098508D01*
X11131729Y-20098508D02*
X11141253Y-20108031D01*
X11141253Y-20108031D02*
X11150777Y-20127079D01*
X11150777Y-20127079D02*
X11160301Y-20165174D01*
X11160301Y-20165174D02*
X11160301Y-20212793D01*
X11160301Y-20212793D02*
X11150777Y-20250889D01*
X11150777Y-20250889D02*
X11141253Y-20269936D01*
X11141253Y-20269936D02*
X11131729Y-20279460D01*
X11131729Y-20279460D02*
X11112682Y-20288984D01*
X11112682Y-20288984D02*
X11093634Y-20288984D01*
X11093634Y-20288984D02*
X11074587Y-20279460D01*
X11074587Y-20279460D02*
X11065063Y-20269936D01*
X11065063Y-20269936D02*
X11055539Y-20250889D01*
X11055539Y-20250889D02*
X11046015Y-20212793D01*
X11046015Y-20212793D02*
X11046015Y-20165174D01*
X11046015Y-20165174D02*
X11055539Y-20127079D01*
X11055539Y-20127079D02*
X11065063Y-20108031D01*
X11065063Y-20108031D02*
X11074587Y-20098508D01*
X11074587Y-20098508D02*
X11093634Y-20088984D01*
X11246015Y-20269936D02*
X11255539Y-20279460D01*
X11255539Y-20279460D02*
X11246015Y-20288984D01*
X11246015Y-20288984D02*
X11236491Y-20279460D01*
X11236491Y-20279460D02*
X11246015Y-20269936D01*
X11246015Y-20269936D02*
X11246015Y-20288984D01*
X11446015Y-20288984D02*
X11331729Y-20288984D01*
X11388872Y-20288984D02*
X11388872Y-20088984D01*
X11388872Y-20088984D02*
X11369825Y-20117555D01*
X11369825Y-20117555D02*
X11350777Y-20136603D01*
X11350777Y-20136603D02*
X11331729Y-20146127D01*
X11541253Y-20288984D02*
X11579348Y-20288984D01*
X11579348Y-20288984D02*
X11598396Y-20279460D01*
X11598396Y-20279460D02*
X11607920Y-20269936D01*
X11607920Y-20269936D02*
X11626967Y-20241365D01*
X11626967Y-20241365D02*
X11636491Y-20203270D01*
X11636491Y-20203270D02*
X11636491Y-20127079D01*
X11636491Y-20127079D02*
X11626967Y-20108031D01*
X11626967Y-20108031D02*
X11617444Y-20098508D01*
X11617444Y-20098508D02*
X11598396Y-20088984D01*
X11598396Y-20088984D02*
X11560301Y-20088984D01*
X11560301Y-20088984D02*
X11541253Y-20098508D01*
X11541253Y-20098508D02*
X11531729Y-20108031D01*
X11531729Y-20108031D02*
X11522206Y-20127079D01*
X11522206Y-20127079D02*
X11522206Y-20174698D01*
X11522206Y-20174698D02*
X11531729Y-20193746D01*
X11531729Y-20193746D02*
X11541253Y-20203270D01*
X11541253Y-20203270D02*
X11560301Y-20212793D01*
X11560301Y-20212793D02*
X11598396Y-20212793D01*
X11598396Y-20212793D02*
X11617444Y-20203270D01*
X11617444Y-20203270D02*
X11626967Y-20193746D01*
X11626967Y-20193746D02*
X11636491Y-20174698D01*
X11807920Y-20088984D02*
X11769825Y-20088984D01*
X11769825Y-20088984D02*
X11750777Y-20098508D01*
X11750777Y-20098508D02*
X11741253Y-20108031D01*
X11741253Y-20108031D02*
X11722206Y-20136603D01*
X11722206Y-20136603D02*
X11712682Y-20174698D01*
X11712682Y-20174698D02*
X11712682Y-20250889D01*
X11712682Y-20250889D02*
X11722206Y-20269936D01*
X11722206Y-20269936D02*
X11731729Y-20279460D01*
X11731729Y-20279460D02*
X11750777Y-20288984D01*
X11750777Y-20288984D02*
X11788872Y-20288984D01*
X11788872Y-20288984D02*
X11807920Y-20279460D01*
X11807920Y-20279460D02*
X11817444Y-20269936D01*
X11817444Y-20269936D02*
X11826967Y-20250889D01*
X11826967Y-20250889D02*
X11826967Y-20203270D01*
X11826967Y-20203270D02*
X11817444Y-20184222D01*
X11817444Y-20184222D02*
X11807920Y-20174698D01*
X11807920Y-20174698D02*
X11788872Y-20165174D01*
X11788872Y-20165174D02*
X11750777Y-20165174D01*
X11750777Y-20165174D02*
X11731729Y-20174698D01*
X11731729Y-20174698D02*
X11722206Y-20184222D01*
X11722206Y-20184222D02*
X11712682Y-20203270D01*
X11922206Y-20288984D02*
X11960301Y-20288984D01*
X11960301Y-20288984D02*
X11979348Y-20279460D01*
X11979348Y-20279460D02*
X11988872Y-20269936D01*
X11988872Y-20269936D02*
X12007920Y-20241365D01*
X12007920Y-20241365D02*
X12017444Y-20203270D01*
X12017444Y-20203270D02*
X12017444Y-20127079D01*
X12017444Y-20127079D02*
X12007920Y-20108031D01*
X12007920Y-20108031D02*
X11998396Y-20098508D01*
X11998396Y-20098508D02*
X11979348Y-20088984D01*
X11979348Y-20088984D02*
X11941253Y-20088984D01*
X11941253Y-20088984D02*
X11922206Y-20098508D01*
X11922206Y-20098508D02*
X11912682Y-20108031D01*
X11912682Y-20108031D02*
X11903158Y-20127079D01*
X11903158Y-20127079D02*
X11903158Y-20174698D01*
X11903158Y-20174698D02*
X11912682Y-20193746D01*
X11912682Y-20193746D02*
X11922206Y-20203270D01*
X11922206Y-20203270D02*
X11941253Y-20212793D01*
X11941253Y-20212793D02*
X11979348Y-20212793D01*
X11979348Y-20212793D02*
X11998396Y-20203270D01*
X11998396Y-20203270D02*
X12007920Y-20193746D01*
X12007920Y-20193746D02*
X12017444Y-20174698D01*
X12093634Y-20088984D02*
X12093634Y-20127079D01*
X12169825Y-20088984D02*
X12169825Y-20127079D01*
X12465063Y-20365174D02*
X12455539Y-20355650D01*
X12455539Y-20355650D02*
X12436491Y-20327079D01*
X12436491Y-20327079D02*
X12426968Y-20308031D01*
X12426968Y-20308031D02*
X12417444Y-20279460D01*
X12417444Y-20279460D02*
X12407920Y-20231841D01*
X12407920Y-20231841D02*
X12407920Y-20193746D01*
X12407920Y-20193746D02*
X12417444Y-20146127D01*
X12417444Y-20146127D02*
X12426968Y-20117555D01*
X12426968Y-20117555D02*
X12436491Y-20098508D01*
X12436491Y-20098508D02*
X12455539Y-20069936D01*
X12455539Y-20069936D02*
X12465063Y-20060412D01*
X12522206Y-20088984D02*
X12655539Y-20088984D01*
X12655539Y-20088984D02*
X12569825Y-20288984D01*
X12884110Y-20288984D02*
X12884110Y-20088984D01*
X12969825Y-20288984D02*
X12969825Y-20184222D01*
X12969825Y-20184222D02*
X12960301Y-20165174D01*
X12960301Y-20165174D02*
X12941253Y-20155650D01*
X12941253Y-20155650D02*
X12912682Y-20155650D01*
X12912682Y-20155650D02*
X12893634Y-20165174D01*
X12893634Y-20165174D02*
X12884110Y-20174698D01*
X13093634Y-20288984D02*
X13074587Y-20279460D01*
X13074587Y-20279460D02*
X13065063Y-20269936D01*
X13065063Y-20269936D02*
X13055539Y-20250889D01*
X13055539Y-20250889D02*
X13055539Y-20193746D01*
X13055539Y-20193746D02*
X13065063Y-20174698D01*
X13065063Y-20174698D02*
X13074587Y-20165174D01*
X13074587Y-20165174D02*
X13093634Y-20155650D01*
X13093634Y-20155650D02*
X13122206Y-20155650D01*
X13122206Y-20155650D02*
X13141253Y-20165174D01*
X13141253Y-20165174D02*
X13150777Y-20174698D01*
X13150777Y-20174698D02*
X13160301Y-20193746D01*
X13160301Y-20193746D02*
X13160301Y-20250889D01*
X13160301Y-20250889D02*
X13150777Y-20269936D01*
X13150777Y-20269936D02*
X13141253Y-20279460D01*
X13141253Y-20279460D02*
X13122206Y-20288984D01*
X13122206Y-20288984D02*
X13093634Y-20288984D01*
X13274587Y-20288984D02*
X13255539Y-20279460D01*
X13255539Y-20279460D02*
X13246015Y-20260412D01*
X13246015Y-20260412D02*
X13246015Y-20088984D01*
X13426968Y-20279460D02*
X13407920Y-20288984D01*
X13407920Y-20288984D02*
X13369825Y-20288984D01*
X13369825Y-20288984D02*
X13350777Y-20279460D01*
X13350777Y-20279460D02*
X13341253Y-20260412D01*
X13341253Y-20260412D02*
X13341253Y-20184222D01*
X13341253Y-20184222D02*
X13350777Y-20165174D01*
X13350777Y-20165174D02*
X13369825Y-20155650D01*
X13369825Y-20155650D02*
X13407920Y-20155650D01*
X13407920Y-20155650D02*
X13426968Y-20165174D01*
X13426968Y-20165174D02*
X13436491Y-20184222D01*
X13436491Y-20184222D02*
X13436491Y-20203270D01*
X13436491Y-20203270D02*
X13341253Y-20222317D01*
X13512682Y-20279460D02*
X13531730Y-20288984D01*
X13531730Y-20288984D02*
X13569825Y-20288984D01*
X13569825Y-20288984D02*
X13588872Y-20279460D01*
X13588872Y-20279460D02*
X13598396Y-20260412D01*
X13598396Y-20260412D02*
X13598396Y-20250889D01*
X13598396Y-20250889D02*
X13588872Y-20231841D01*
X13588872Y-20231841D02*
X13569825Y-20222317D01*
X13569825Y-20222317D02*
X13541253Y-20222317D01*
X13541253Y-20222317D02*
X13522206Y-20212793D01*
X13522206Y-20212793D02*
X13512682Y-20193746D01*
X13512682Y-20193746D02*
X13512682Y-20184222D01*
X13512682Y-20184222D02*
X13522206Y-20165174D01*
X13522206Y-20165174D02*
X13541253Y-20155650D01*
X13541253Y-20155650D02*
X13569825Y-20155650D01*
X13569825Y-20155650D02*
X13588872Y-20165174D01*
X13665063Y-20365174D02*
X13674587Y-20355650D01*
X13674587Y-20355650D02*
X13693634Y-20327079D01*
X13693634Y-20327079D02*
X13703158Y-20308031D01*
X13703158Y-20308031D02*
X13712682Y-20279460D01*
X13712682Y-20279460D02*
X13722206Y-20231841D01*
X13722206Y-20231841D02*
X13722206Y-20193746D01*
X13722206Y-20193746D02*
X13712682Y-20146127D01*
X13712682Y-20146127D02*
X13703158Y-20117555D01*
X13703158Y-20117555D02*
X13693634Y-20098508D01*
X13693634Y-20098508D02*
X13674587Y-20069936D01*
X13674587Y-20069936D02*
X13665063Y-20060412D01*
X14026968Y-20365174D02*
X14017444Y-20355650D01*
X14017444Y-20355650D02*
X13998396Y-20327079D01*
X13998396Y-20327079D02*
X13988872Y-20308031D01*
X13988872Y-20308031D02*
X13979349Y-20279460D01*
X13979349Y-20279460D02*
X13969825Y-20231841D01*
X13969825Y-20231841D02*
X13969825Y-20193746D01*
X13969825Y-20193746D02*
X13979349Y-20146127D01*
X13979349Y-20146127D02*
X13988872Y-20117555D01*
X13988872Y-20117555D02*
X13998396Y-20098508D01*
X13998396Y-20098508D02*
X14017444Y-20069936D01*
X14017444Y-20069936D02*
X14026968Y-20060412D01*
X14103158Y-20155650D02*
X14103158Y-20288984D01*
X14103158Y-20174698D02*
X14112682Y-20165174D01*
X14112682Y-20165174D02*
X14131730Y-20155650D01*
X14131730Y-20155650D02*
X14160301Y-20155650D01*
X14160301Y-20155650D02*
X14179349Y-20165174D01*
X14179349Y-20165174D02*
X14188872Y-20184222D01*
X14188872Y-20184222D02*
X14188872Y-20288984D01*
X14312682Y-20288984D02*
X14293634Y-20279460D01*
X14293634Y-20279460D02*
X14284111Y-20269936D01*
X14284111Y-20269936D02*
X14274587Y-20250889D01*
X14274587Y-20250889D02*
X14274587Y-20193746D01*
X14274587Y-20193746D02*
X14284111Y-20174698D01*
X14284111Y-20174698D02*
X14293634Y-20165174D01*
X14293634Y-20165174D02*
X14312682Y-20155650D01*
X14312682Y-20155650D02*
X14341253Y-20155650D01*
X14341253Y-20155650D02*
X14360301Y-20165174D01*
X14360301Y-20165174D02*
X14369825Y-20174698D01*
X14369825Y-20174698D02*
X14379349Y-20193746D01*
X14379349Y-20193746D02*
X14379349Y-20250889D01*
X14379349Y-20250889D02*
X14369825Y-20269936D01*
X14369825Y-20269936D02*
X14360301Y-20279460D01*
X14360301Y-20279460D02*
X14341253Y-20288984D01*
X14341253Y-20288984D02*
X14312682Y-20288984D01*
X14436492Y-20155650D02*
X14512682Y-20155650D01*
X14465063Y-20088984D02*
X14465063Y-20260412D01*
X14465063Y-20260412D02*
X14474587Y-20279460D01*
X14474587Y-20279460D02*
X14493634Y-20288984D01*
X14493634Y-20288984D02*
X14512682Y-20288984D01*
X14731730Y-20155650D02*
X14731730Y-20355650D01*
X14731730Y-20165174D02*
X14750777Y-20155650D01*
X14750777Y-20155650D02*
X14788873Y-20155650D01*
X14788873Y-20155650D02*
X14807920Y-20165174D01*
X14807920Y-20165174D02*
X14817444Y-20174698D01*
X14817444Y-20174698D02*
X14826968Y-20193746D01*
X14826968Y-20193746D02*
X14826968Y-20250889D01*
X14826968Y-20250889D02*
X14817444Y-20269936D01*
X14817444Y-20269936D02*
X14807920Y-20279460D01*
X14807920Y-20279460D02*
X14788873Y-20288984D01*
X14788873Y-20288984D02*
X14750777Y-20288984D01*
X14750777Y-20288984D02*
X14731730Y-20279460D01*
X14941253Y-20288984D02*
X14922206Y-20279460D01*
X14922206Y-20279460D02*
X14912682Y-20260412D01*
X14912682Y-20260412D02*
X14912682Y-20088984D01*
X15103158Y-20288984D02*
X15103158Y-20184222D01*
X15103158Y-20184222D02*
X15093634Y-20165174D01*
X15093634Y-20165174D02*
X15074587Y-20155650D01*
X15074587Y-20155650D02*
X15036492Y-20155650D01*
X15036492Y-20155650D02*
X15017444Y-20165174D01*
X15103158Y-20279460D02*
X15084111Y-20288984D01*
X15084111Y-20288984D02*
X15036492Y-20288984D01*
X15036492Y-20288984D02*
X15017444Y-20279460D01*
X15017444Y-20279460D02*
X15007920Y-20260412D01*
X15007920Y-20260412D02*
X15007920Y-20241365D01*
X15007920Y-20241365D02*
X15017444Y-20222317D01*
X15017444Y-20222317D02*
X15036492Y-20212793D01*
X15036492Y-20212793D02*
X15084111Y-20212793D01*
X15084111Y-20212793D02*
X15103158Y-20203270D01*
X15169825Y-20155650D02*
X15246015Y-20155650D01*
X15198396Y-20088984D02*
X15198396Y-20260412D01*
X15198396Y-20260412D02*
X15207920Y-20279460D01*
X15207920Y-20279460D02*
X15226968Y-20288984D01*
X15226968Y-20288984D02*
X15246015Y-20288984D01*
X15388873Y-20279460D02*
X15369825Y-20288984D01*
X15369825Y-20288984D02*
X15331730Y-20288984D01*
X15331730Y-20288984D02*
X15312682Y-20279460D01*
X15312682Y-20279460D02*
X15303158Y-20260412D01*
X15303158Y-20260412D02*
X15303158Y-20184222D01*
X15303158Y-20184222D02*
X15312682Y-20165174D01*
X15312682Y-20165174D02*
X15331730Y-20155650D01*
X15331730Y-20155650D02*
X15369825Y-20155650D01*
X15369825Y-20155650D02*
X15388873Y-20165174D01*
X15388873Y-20165174D02*
X15398396Y-20184222D01*
X15398396Y-20184222D02*
X15398396Y-20203270D01*
X15398396Y-20203270D02*
X15303158Y-20222317D01*
X15569825Y-20288984D02*
X15569825Y-20088984D01*
X15569825Y-20279460D02*
X15550777Y-20288984D01*
X15550777Y-20288984D02*
X15512682Y-20288984D01*
X15512682Y-20288984D02*
X15493634Y-20279460D01*
X15493634Y-20279460D02*
X15484111Y-20269936D01*
X15484111Y-20269936D02*
X15474587Y-20250889D01*
X15474587Y-20250889D02*
X15474587Y-20193746D01*
X15474587Y-20193746D02*
X15484111Y-20174698D01*
X15484111Y-20174698D02*
X15493634Y-20165174D01*
X15493634Y-20165174D02*
X15512682Y-20155650D01*
X15512682Y-20155650D02*
X15550777Y-20155650D01*
X15550777Y-20155650D02*
X15569825Y-20165174D01*
X15646015Y-20365174D02*
X15655539Y-20355650D01*
X15655539Y-20355650D02*
X15674587Y-20327079D01*
X15674587Y-20327079D02*
X15684111Y-20308031D01*
X15684111Y-20308031D02*
X15693634Y-20279460D01*
X15693634Y-20279460D02*
X15703158Y-20231841D01*
X15703158Y-20231841D02*
X15703158Y-20193746D01*
X15703158Y-20193746D02*
X15693634Y-20146127D01*
X15693634Y-20146127D02*
X15684111Y-20117555D01*
X15684111Y-20117555D02*
X15674587Y-20098508D01*
X15674587Y-20098508D02*
X15655539Y-20069936D01*
X15655539Y-20069936D02*
X15646015Y-20060412D01*
X8790000Y-20417500D02*
X8790000Y-20617500D01*
X8690000Y-20517500D02*
X8890000Y-20517500D01*
X9131729Y-20408984D02*
X9265063Y-20408984D01*
X9265063Y-20408984D02*
X9179348Y-20608984D01*
X9341253Y-20589936D02*
X9350777Y-20599460D01*
X9350777Y-20599460D02*
X9341253Y-20608984D01*
X9341253Y-20608984D02*
X9331729Y-20599460D01*
X9331729Y-20599460D02*
X9341253Y-20589936D01*
X9341253Y-20589936D02*
X9341253Y-20608984D01*
X9474586Y-20408984D02*
X9493634Y-20408984D01*
X9493634Y-20408984D02*
X9512682Y-20418508D01*
X9512682Y-20418508D02*
X9522205Y-20428031D01*
X9522205Y-20428031D02*
X9531729Y-20447079D01*
X9531729Y-20447079D02*
X9541253Y-20485174D01*
X9541253Y-20485174D02*
X9541253Y-20532793D01*
X9541253Y-20532793D02*
X9531729Y-20570889D01*
X9531729Y-20570889D02*
X9522205Y-20589936D01*
X9522205Y-20589936D02*
X9512682Y-20599460D01*
X9512682Y-20599460D02*
X9493634Y-20608984D01*
X9493634Y-20608984D02*
X9474586Y-20608984D01*
X9474586Y-20608984D02*
X9455539Y-20599460D01*
X9455539Y-20599460D02*
X9446015Y-20589936D01*
X9446015Y-20589936D02*
X9436491Y-20570889D01*
X9436491Y-20570889D02*
X9426967Y-20532793D01*
X9426967Y-20532793D02*
X9426967Y-20485174D01*
X9426967Y-20485174D02*
X9436491Y-20447079D01*
X9436491Y-20447079D02*
X9446015Y-20428031D01*
X9446015Y-20428031D02*
X9455539Y-20418508D01*
X9455539Y-20418508D02*
X9474586Y-20408984D01*
X9665063Y-20408984D02*
X9684110Y-20408984D01*
X9684110Y-20408984D02*
X9703158Y-20418508D01*
X9703158Y-20418508D02*
X9712682Y-20428031D01*
X9712682Y-20428031D02*
X9722205Y-20447079D01*
X9722205Y-20447079D02*
X9731729Y-20485174D01*
X9731729Y-20485174D02*
X9731729Y-20532793D01*
X9731729Y-20532793D02*
X9722205Y-20570889D01*
X9722205Y-20570889D02*
X9712682Y-20589936D01*
X9712682Y-20589936D02*
X9703158Y-20599460D01*
X9703158Y-20599460D02*
X9684110Y-20608984D01*
X9684110Y-20608984D02*
X9665063Y-20608984D01*
X9665063Y-20608984D02*
X9646015Y-20599460D01*
X9646015Y-20599460D02*
X9636491Y-20589936D01*
X9636491Y-20589936D02*
X9626967Y-20570889D01*
X9626967Y-20570889D02*
X9617444Y-20532793D01*
X9617444Y-20532793D02*
X9617444Y-20485174D01*
X9617444Y-20485174D02*
X9626967Y-20447079D01*
X9626967Y-20447079D02*
X9636491Y-20428031D01*
X9636491Y-20428031D02*
X9646015Y-20418508D01*
X9646015Y-20418508D02*
X9665063Y-20408984D01*
X9855539Y-20408984D02*
X9874586Y-20408984D01*
X9874586Y-20408984D02*
X9893634Y-20418508D01*
X9893634Y-20418508D02*
X9903158Y-20428031D01*
X9903158Y-20428031D02*
X9912682Y-20447079D01*
X9912682Y-20447079D02*
X9922205Y-20485174D01*
X9922205Y-20485174D02*
X9922205Y-20532793D01*
X9922205Y-20532793D02*
X9912682Y-20570889D01*
X9912682Y-20570889D02*
X9903158Y-20589936D01*
X9903158Y-20589936D02*
X9893634Y-20599460D01*
X9893634Y-20599460D02*
X9874586Y-20608984D01*
X9874586Y-20608984D02*
X9855539Y-20608984D01*
X9855539Y-20608984D02*
X9836491Y-20599460D01*
X9836491Y-20599460D02*
X9826967Y-20589936D01*
X9826967Y-20589936D02*
X9817444Y-20570889D01*
X9817444Y-20570889D02*
X9807920Y-20532793D01*
X9807920Y-20532793D02*
X9807920Y-20485174D01*
X9807920Y-20485174D02*
X9817444Y-20447079D01*
X9817444Y-20447079D02*
X9826967Y-20428031D01*
X9826967Y-20428031D02*
X9836491Y-20418508D01*
X9836491Y-20418508D02*
X9855539Y-20408984D01*
X10007920Y-20608984D02*
X10007920Y-20475650D01*
X10007920Y-20494698D02*
X10017444Y-20485174D01*
X10017444Y-20485174D02*
X10036491Y-20475650D01*
X10036491Y-20475650D02*
X10065063Y-20475650D01*
X10065063Y-20475650D02*
X10084110Y-20485174D01*
X10084110Y-20485174D02*
X10093634Y-20504222D01*
X10093634Y-20504222D02*
X10093634Y-20608984D01*
X10093634Y-20504222D02*
X10103158Y-20485174D01*
X10103158Y-20485174D02*
X10122205Y-20475650D01*
X10122205Y-20475650D02*
X10150777Y-20475650D01*
X10150777Y-20475650D02*
X10169825Y-20485174D01*
X10169825Y-20485174D02*
X10179348Y-20504222D01*
X10179348Y-20504222D02*
X10179348Y-20608984D01*
X10274586Y-20608984D02*
X10274586Y-20475650D01*
X10274586Y-20494698D02*
X10284110Y-20485174D01*
X10284110Y-20485174D02*
X10303158Y-20475650D01*
X10303158Y-20475650D02*
X10331729Y-20475650D01*
X10331729Y-20475650D02*
X10350777Y-20485174D01*
X10350777Y-20485174D02*
X10360301Y-20504222D01*
X10360301Y-20504222D02*
X10360301Y-20608984D01*
X10360301Y-20504222D02*
X10369825Y-20485174D01*
X10369825Y-20485174D02*
X10388872Y-20475650D01*
X10388872Y-20475650D02*
X10417444Y-20475650D01*
X10417444Y-20475650D02*
X10436491Y-20485174D01*
X10436491Y-20485174D02*
X10446015Y-20504222D01*
X10446015Y-20504222D02*
X10446015Y-20608984D01*
X10836491Y-20399460D02*
X10665063Y-20656603D01*
X11093634Y-20408984D02*
X11112682Y-20408984D01*
X11112682Y-20408984D02*
X11131729Y-20418508D01*
X11131729Y-20418508D02*
X11141253Y-20428031D01*
X11141253Y-20428031D02*
X11150777Y-20447079D01*
X11150777Y-20447079D02*
X11160301Y-20485174D01*
X11160301Y-20485174D02*
X11160301Y-20532793D01*
X11160301Y-20532793D02*
X11150777Y-20570889D01*
X11150777Y-20570889D02*
X11141253Y-20589936D01*
X11141253Y-20589936D02*
X11131729Y-20599460D01*
X11131729Y-20599460D02*
X11112682Y-20608984D01*
X11112682Y-20608984D02*
X11093634Y-20608984D01*
X11093634Y-20608984D02*
X11074587Y-20599460D01*
X11074587Y-20599460D02*
X11065063Y-20589936D01*
X11065063Y-20589936D02*
X11055539Y-20570889D01*
X11055539Y-20570889D02*
X11046015Y-20532793D01*
X11046015Y-20532793D02*
X11046015Y-20485174D01*
X11046015Y-20485174D02*
X11055539Y-20447079D01*
X11055539Y-20447079D02*
X11065063Y-20428031D01*
X11065063Y-20428031D02*
X11074587Y-20418508D01*
X11074587Y-20418508D02*
X11093634Y-20408984D01*
X11246015Y-20589936D02*
X11255539Y-20599460D01*
X11255539Y-20599460D02*
X11246015Y-20608984D01*
X11246015Y-20608984D02*
X11236491Y-20599460D01*
X11236491Y-20599460D02*
X11246015Y-20589936D01*
X11246015Y-20589936D02*
X11246015Y-20608984D01*
X11331729Y-20428031D02*
X11341253Y-20418508D01*
X11341253Y-20418508D02*
X11360301Y-20408984D01*
X11360301Y-20408984D02*
X11407920Y-20408984D01*
X11407920Y-20408984D02*
X11426967Y-20418508D01*
X11426967Y-20418508D02*
X11436491Y-20428031D01*
X11436491Y-20428031D02*
X11446015Y-20447079D01*
X11446015Y-20447079D02*
X11446015Y-20466127D01*
X11446015Y-20466127D02*
X11436491Y-20494698D01*
X11436491Y-20494698D02*
X11322206Y-20608984D01*
X11322206Y-20608984D02*
X11446015Y-20608984D01*
X11512682Y-20408984D02*
X11646015Y-20408984D01*
X11646015Y-20408984D02*
X11560301Y-20608984D01*
X11817444Y-20408984D02*
X11722206Y-20408984D01*
X11722206Y-20408984D02*
X11712682Y-20504222D01*
X11712682Y-20504222D02*
X11722206Y-20494698D01*
X11722206Y-20494698D02*
X11741253Y-20485174D01*
X11741253Y-20485174D02*
X11788872Y-20485174D01*
X11788872Y-20485174D02*
X11807920Y-20494698D01*
X11807920Y-20494698D02*
X11817444Y-20504222D01*
X11817444Y-20504222D02*
X11826967Y-20523270D01*
X11826967Y-20523270D02*
X11826967Y-20570889D01*
X11826967Y-20570889D02*
X11817444Y-20589936D01*
X11817444Y-20589936D02*
X11807920Y-20599460D01*
X11807920Y-20599460D02*
X11788872Y-20608984D01*
X11788872Y-20608984D02*
X11741253Y-20608984D01*
X11741253Y-20608984D02*
X11722206Y-20599460D01*
X11722206Y-20599460D02*
X11712682Y-20589936D01*
X11998396Y-20408984D02*
X11960301Y-20408984D01*
X11960301Y-20408984D02*
X11941253Y-20418508D01*
X11941253Y-20418508D02*
X11931729Y-20428031D01*
X11931729Y-20428031D02*
X11912682Y-20456603D01*
X11912682Y-20456603D02*
X11903158Y-20494698D01*
X11903158Y-20494698D02*
X11903158Y-20570889D01*
X11903158Y-20570889D02*
X11912682Y-20589936D01*
X11912682Y-20589936D02*
X11922206Y-20599460D01*
X11922206Y-20599460D02*
X11941253Y-20608984D01*
X11941253Y-20608984D02*
X11979348Y-20608984D01*
X11979348Y-20608984D02*
X11998396Y-20599460D01*
X11998396Y-20599460D02*
X12007920Y-20589936D01*
X12007920Y-20589936D02*
X12017444Y-20570889D01*
X12017444Y-20570889D02*
X12017444Y-20523270D01*
X12017444Y-20523270D02*
X12007920Y-20504222D01*
X12007920Y-20504222D02*
X11998396Y-20494698D01*
X11998396Y-20494698D02*
X11979348Y-20485174D01*
X11979348Y-20485174D02*
X11941253Y-20485174D01*
X11941253Y-20485174D02*
X11922206Y-20494698D01*
X11922206Y-20494698D02*
X11912682Y-20504222D01*
X11912682Y-20504222D02*
X11903158Y-20523270D01*
X12093634Y-20408984D02*
X12093634Y-20447079D01*
X12169825Y-20408984D02*
X12169825Y-20447079D01*
X12465063Y-20685174D02*
X12455539Y-20675650D01*
X12455539Y-20675650D02*
X12436491Y-20647079D01*
X12436491Y-20647079D02*
X12426968Y-20628031D01*
X12426968Y-20628031D02*
X12417444Y-20599460D01*
X12417444Y-20599460D02*
X12407920Y-20551841D01*
X12407920Y-20551841D02*
X12407920Y-20513746D01*
X12407920Y-20513746D02*
X12417444Y-20466127D01*
X12417444Y-20466127D02*
X12426968Y-20437555D01*
X12426968Y-20437555D02*
X12436491Y-20418508D01*
X12436491Y-20418508D02*
X12455539Y-20389936D01*
X12455539Y-20389936D02*
X12465063Y-20380412D01*
X12569825Y-20494698D02*
X12550777Y-20485174D01*
X12550777Y-20485174D02*
X12541253Y-20475650D01*
X12541253Y-20475650D02*
X12531729Y-20456603D01*
X12531729Y-20456603D02*
X12531729Y-20447079D01*
X12531729Y-20447079D02*
X12541253Y-20428031D01*
X12541253Y-20428031D02*
X12550777Y-20418508D01*
X12550777Y-20418508D02*
X12569825Y-20408984D01*
X12569825Y-20408984D02*
X12607920Y-20408984D01*
X12607920Y-20408984D02*
X12626968Y-20418508D01*
X12626968Y-20418508D02*
X12636491Y-20428031D01*
X12636491Y-20428031D02*
X12646015Y-20447079D01*
X12646015Y-20447079D02*
X12646015Y-20456603D01*
X12646015Y-20456603D02*
X12636491Y-20475650D01*
X12636491Y-20475650D02*
X12626968Y-20485174D01*
X12626968Y-20485174D02*
X12607920Y-20494698D01*
X12607920Y-20494698D02*
X12569825Y-20494698D01*
X12569825Y-20494698D02*
X12550777Y-20504222D01*
X12550777Y-20504222D02*
X12541253Y-20513746D01*
X12541253Y-20513746D02*
X12531729Y-20532793D01*
X12531729Y-20532793D02*
X12531729Y-20570889D01*
X12531729Y-20570889D02*
X12541253Y-20589936D01*
X12541253Y-20589936D02*
X12550777Y-20599460D01*
X12550777Y-20599460D02*
X12569825Y-20608984D01*
X12569825Y-20608984D02*
X12607920Y-20608984D01*
X12607920Y-20608984D02*
X12626968Y-20599460D01*
X12626968Y-20599460D02*
X12636491Y-20589936D01*
X12636491Y-20589936D02*
X12646015Y-20570889D01*
X12646015Y-20570889D02*
X12646015Y-20532793D01*
X12646015Y-20532793D02*
X12636491Y-20513746D01*
X12636491Y-20513746D02*
X12626968Y-20504222D01*
X12626968Y-20504222D02*
X12607920Y-20494698D01*
X12884110Y-20608984D02*
X12884110Y-20408984D01*
X12969825Y-20608984D02*
X12969825Y-20504222D01*
X12969825Y-20504222D02*
X12960301Y-20485174D01*
X12960301Y-20485174D02*
X12941253Y-20475650D01*
X12941253Y-20475650D02*
X12912682Y-20475650D01*
X12912682Y-20475650D02*
X12893634Y-20485174D01*
X12893634Y-20485174D02*
X12884110Y-20494698D01*
X13093634Y-20608984D02*
X13074587Y-20599460D01*
X13074587Y-20599460D02*
X13065063Y-20589936D01*
X13065063Y-20589936D02*
X13055539Y-20570889D01*
X13055539Y-20570889D02*
X13055539Y-20513746D01*
X13055539Y-20513746D02*
X13065063Y-20494698D01*
X13065063Y-20494698D02*
X13074587Y-20485174D01*
X13074587Y-20485174D02*
X13093634Y-20475650D01*
X13093634Y-20475650D02*
X13122206Y-20475650D01*
X13122206Y-20475650D02*
X13141253Y-20485174D01*
X13141253Y-20485174D02*
X13150777Y-20494698D01*
X13150777Y-20494698D02*
X13160301Y-20513746D01*
X13160301Y-20513746D02*
X13160301Y-20570889D01*
X13160301Y-20570889D02*
X13150777Y-20589936D01*
X13150777Y-20589936D02*
X13141253Y-20599460D01*
X13141253Y-20599460D02*
X13122206Y-20608984D01*
X13122206Y-20608984D02*
X13093634Y-20608984D01*
X13274587Y-20608984D02*
X13255539Y-20599460D01*
X13255539Y-20599460D02*
X13246015Y-20580412D01*
X13246015Y-20580412D02*
X13246015Y-20408984D01*
X13426968Y-20599460D02*
X13407920Y-20608984D01*
X13407920Y-20608984D02*
X13369825Y-20608984D01*
X13369825Y-20608984D02*
X13350777Y-20599460D01*
X13350777Y-20599460D02*
X13341253Y-20580412D01*
X13341253Y-20580412D02*
X13341253Y-20504222D01*
X13341253Y-20504222D02*
X13350777Y-20485174D01*
X13350777Y-20485174D02*
X13369825Y-20475650D01*
X13369825Y-20475650D02*
X13407920Y-20475650D01*
X13407920Y-20475650D02*
X13426968Y-20485174D01*
X13426968Y-20485174D02*
X13436491Y-20504222D01*
X13436491Y-20504222D02*
X13436491Y-20523270D01*
X13436491Y-20523270D02*
X13341253Y-20542317D01*
X13512682Y-20599460D02*
X13531730Y-20608984D01*
X13531730Y-20608984D02*
X13569825Y-20608984D01*
X13569825Y-20608984D02*
X13588872Y-20599460D01*
X13588872Y-20599460D02*
X13598396Y-20580412D01*
X13598396Y-20580412D02*
X13598396Y-20570889D01*
X13598396Y-20570889D02*
X13588872Y-20551841D01*
X13588872Y-20551841D02*
X13569825Y-20542317D01*
X13569825Y-20542317D02*
X13541253Y-20542317D01*
X13541253Y-20542317D02*
X13522206Y-20532793D01*
X13522206Y-20532793D02*
X13512682Y-20513746D01*
X13512682Y-20513746D02*
X13512682Y-20504222D01*
X13512682Y-20504222D02*
X13522206Y-20485174D01*
X13522206Y-20485174D02*
X13541253Y-20475650D01*
X13541253Y-20475650D02*
X13569825Y-20475650D01*
X13569825Y-20475650D02*
X13588872Y-20485174D01*
X13665063Y-20685174D02*
X13674587Y-20675650D01*
X13674587Y-20675650D02*
X13693634Y-20647079D01*
X13693634Y-20647079D02*
X13703158Y-20628031D01*
X13703158Y-20628031D02*
X13712682Y-20599460D01*
X13712682Y-20599460D02*
X13722206Y-20551841D01*
X13722206Y-20551841D02*
X13722206Y-20513746D01*
X13722206Y-20513746D02*
X13712682Y-20466127D01*
X13712682Y-20466127D02*
X13703158Y-20437555D01*
X13703158Y-20437555D02*
X13693634Y-20418508D01*
X13693634Y-20418508D02*
X13674587Y-20389936D01*
X13674587Y-20389936D02*
X13665063Y-20380412D01*
X14026968Y-20685174D02*
X14017444Y-20675650D01*
X14017444Y-20675650D02*
X13998396Y-20647079D01*
X13998396Y-20647079D02*
X13988872Y-20628031D01*
X13988872Y-20628031D02*
X13979349Y-20599460D01*
X13979349Y-20599460D02*
X13969825Y-20551841D01*
X13969825Y-20551841D02*
X13969825Y-20513746D01*
X13969825Y-20513746D02*
X13979349Y-20466127D01*
X13979349Y-20466127D02*
X13988872Y-20437555D01*
X13988872Y-20437555D02*
X13998396Y-20418508D01*
X13998396Y-20418508D02*
X14017444Y-20389936D01*
X14017444Y-20389936D02*
X14026968Y-20380412D01*
X14103158Y-20475650D02*
X14103158Y-20608984D01*
X14103158Y-20494698D02*
X14112682Y-20485174D01*
X14112682Y-20485174D02*
X14131730Y-20475650D01*
X14131730Y-20475650D02*
X14160301Y-20475650D01*
X14160301Y-20475650D02*
X14179349Y-20485174D01*
X14179349Y-20485174D02*
X14188872Y-20504222D01*
X14188872Y-20504222D02*
X14188872Y-20608984D01*
X14312682Y-20608984D02*
X14293634Y-20599460D01*
X14293634Y-20599460D02*
X14284111Y-20589936D01*
X14284111Y-20589936D02*
X14274587Y-20570889D01*
X14274587Y-20570889D02*
X14274587Y-20513746D01*
X14274587Y-20513746D02*
X14284111Y-20494698D01*
X14284111Y-20494698D02*
X14293634Y-20485174D01*
X14293634Y-20485174D02*
X14312682Y-20475650D01*
X14312682Y-20475650D02*
X14341253Y-20475650D01*
X14341253Y-20475650D02*
X14360301Y-20485174D01*
X14360301Y-20485174D02*
X14369825Y-20494698D01*
X14369825Y-20494698D02*
X14379349Y-20513746D01*
X14379349Y-20513746D02*
X14379349Y-20570889D01*
X14379349Y-20570889D02*
X14369825Y-20589936D01*
X14369825Y-20589936D02*
X14360301Y-20599460D01*
X14360301Y-20599460D02*
X14341253Y-20608984D01*
X14341253Y-20608984D02*
X14312682Y-20608984D01*
X14436492Y-20475650D02*
X14512682Y-20475650D01*
X14465063Y-20408984D02*
X14465063Y-20580412D01*
X14465063Y-20580412D02*
X14474587Y-20599460D01*
X14474587Y-20599460D02*
X14493634Y-20608984D01*
X14493634Y-20608984D02*
X14512682Y-20608984D01*
X14731730Y-20475650D02*
X14731730Y-20675650D01*
X14731730Y-20485174D02*
X14750777Y-20475650D01*
X14750777Y-20475650D02*
X14788873Y-20475650D01*
X14788873Y-20475650D02*
X14807920Y-20485174D01*
X14807920Y-20485174D02*
X14817444Y-20494698D01*
X14817444Y-20494698D02*
X14826968Y-20513746D01*
X14826968Y-20513746D02*
X14826968Y-20570889D01*
X14826968Y-20570889D02*
X14817444Y-20589936D01*
X14817444Y-20589936D02*
X14807920Y-20599460D01*
X14807920Y-20599460D02*
X14788873Y-20608984D01*
X14788873Y-20608984D02*
X14750777Y-20608984D01*
X14750777Y-20608984D02*
X14731730Y-20599460D01*
X14941253Y-20608984D02*
X14922206Y-20599460D01*
X14922206Y-20599460D02*
X14912682Y-20580412D01*
X14912682Y-20580412D02*
X14912682Y-20408984D01*
X15103158Y-20608984D02*
X15103158Y-20504222D01*
X15103158Y-20504222D02*
X15093634Y-20485174D01*
X15093634Y-20485174D02*
X15074587Y-20475650D01*
X15074587Y-20475650D02*
X15036492Y-20475650D01*
X15036492Y-20475650D02*
X15017444Y-20485174D01*
X15103158Y-20599460D02*
X15084111Y-20608984D01*
X15084111Y-20608984D02*
X15036492Y-20608984D01*
X15036492Y-20608984D02*
X15017444Y-20599460D01*
X15017444Y-20599460D02*
X15007920Y-20580412D01*
X15007920Y-20580412D02*
X15007920Y-20561365D01*
X15007920Y-20561365D02*
X15017444Y-20542317D01*
X15017444Y-20542317D02*
X15036492Y-20532793D01*
X15036492Y-20532793D02*
X15084111Y-20532793D01*
X15084111Y-20532793D02*
X15103158Y-20523270D01*
X15169825Y-20475650D02*
X15246015Y-20475650D01*
X15198396Y-20408984D02*
X15198396Y-20580412D01*
X15198396Y-20580412D02*
X15207920Y-20599460D01*
X15207920Y-20599460D02*
X15226968Y-20608984D01*
X15226968Y-20608984D02*
X15246015Y-20608984D01*
X15388873Y-20599460D02*
X15369825Y-20608984D01*
X15369825Y-20608984D02*
X15331730Y-20608984D01*
X15331730Y-20608984D02*
X15312682Y-20599460D01*
X15312682Y-20599460D02*
X15303158Y-20580412D01*
X15303158Y-20580412D02*
X15303158Y-20504222D01*
X15303158Y-20504222D02*
X15312682Y-20485174D01*
X15312682Y-20485174D02*
X15331730Y-20475650D01*
X15331730Y-20475650D02*
X15369825Y-20475650D01*
X15369825Y-20475650D02*
X15388873Y-20485174D01*
X15388873Y-20485174D02*
X15398396Y-20504222D01*
X15398396Y-20504222D02*
X15398396Y-20523270D01*
X15398396Y-20523270D02*
X15303158Y-20542317D01*
X15569825Y-20608984D02*
X15569825Y-20408984D01*
X15569825Y-20599460D02*
X15550777Y-20608984D01*
X15550777Y-20608984D02*
X15512682Y-20608984D01*
X15512682Y-20608984D02*
X15493634Y-20599460D01*
X15493634Y-20599460D02*
X15484111Y-20589936D01*
X15484111Y-20589936D02*
X15474587Y-20570889D01*
X15474587Y-20570889D02*
X15474587Y-20513746D01*
X15474587Y-20513746D02*
X15484111Y-20494698D01*
X15484111Y-20494698D02*
X15493634Y-20485174D01*
X15493634Y-20485174D02*
X15512682Y-20475650D01*
X15512682Y-20475650D02*
X15550777Y-20475650D01*
X15550777Y-20475650D02*
X15569825Y-20485174D01*
X15646015Y-20685174D02*
X15655539Y-20675650D01*
X15655539Y-20675650D02*
X15674587Y-20647079D01*
X15674587Y-20647079D02*
X15684111Y-20628031D01*
X15684111Y-20628031D02*
X15693634Y-20599460D01*
X15693634Y-20599460D02*
X15703158Y-20551841D01*
X15703158Y-20551841D02*
X15703158Y-20513746D01*
X15703158Y-20513746D02*
X15693634Y-20466127D01*
X15693634Y-20466127D02*
X15684111Y-20437555D01*
X15684111Y-20437555D02*
X15674587Y-20418508D01*
X15674587Y-20418508D02*
X15655539Y-20389936D01*
X15655539Y-20389936D02*
X15646015Y-20380412D01*
M02*
