%TF.GenerationSoftware,KiCad,Pcbnew,8.0.6*%
%TF.CreationDate,2025-04-05T09:24:32-04:00*%
%TF.ProjectId,BlindsPanel,426c696e-6473-4506-916e-656c2e6b6963,rev?*%
%TF.SameCoordinates,Original*%
%TF.FileFunction,Legend,Top*%
%TF.FilePolarity,Positive*%
%FSLAX46Y46*%
G04 Gerber Fmt 4.6, Leading zero omitted, Abs format (unit mm)*
G04 Created by KiCad (PCBNEW 8.0.6) date 2025-04-05 09:24:32*
%MOMM*%
%LPD*%
G01*
G04 APERTURE LIST*
%ADD10C,0.300000*%
%ADD11C,0.000000*%
G04 APERTURE END LIST*
D10*
X101600000Y-133350000D02*
X101600000Y-124460000D01*
D11*
G36*
X93418632Y-175735995D02*
G01*
X93491298Y-175741518D01*
X93562911Y-175750613D01*
X93633378Y-175763190D01*
X93702611Y-175779160D01*
X93770520Y-175798432D01*
X93837014Y-175820918D01*
X93902003Y-175846526D01*
X93965398Y-175875169D01*
X94027108Y-175906754D01*
X94087043Y-175941194D01*
X94145113Y-175978397D01*
X94201228Y-176018275D01*
X94255298Y-176060738D01*
X94307233Y-176105695D01*
X94356943Y-176153056D01*
X94404338Y-176202733D01*
X94449328Y-176254636D01*
X94491823Y-176308673D01*
X94531732Y-176364757D01*
X94568966Y-176422797D01*
X94603435Y-176482702D01*
X94635049Y-176544384D01*
X94663717Y-176607753D01*
X94689349Y-176672718D01*
X94711856Y-176739191D01*
X94731147Y-176807081D01*
X94747133Y-176876298D01*
X94759723Y-176946753D01*
X94768828Y-177018355D01*
X94774357Y-177091016D01*
X94776220Y-177164645D01*
X94774357Y-177238339D01*
X94768828Y-177311060D01*
X94759723Y-177382719D01*
X94747133Y-177453227D01*
X94731147Y-177522493D01*
X94711856Y-177590429D01*
X94689349Y-177656943D01*
X94663716Y-177721948D01*
X94635048Y-177785352D01*
X94603435Y-177847067D01*
X94568966Y-177907003D01*
X94531732Y-177965070D01*
X94491823Y-178021178D01*
X94449328Y-178075238D01*
X94404338Y-178127160D01*
X94356943Y-178176855D01*
X94307233Y-178224233D01*
X94255298Y-178269203D01*
X94201228Y-178311677D01*
X94145112Y-178351565D01*
X94087042Y-178388778D01*
X94027107Y-178423224D01*
X93965398Y-178454816D01*
X93902003Y-178483463D01*
X93837014Y-178509075D01*
X93770520Y-178531563D01*
X93702611Y-178550838D01*
X93633378Y-178566809D01*
X93562910Y-178579387D01*
X93491298Y-178588482D01*
X93418631Y-178594005D01*
X93345000Y-178595866D01*
X93271369Y-178594005D01*
X93198702Y-178588482D01*
X93127090Y-178579387D01*
X93056622Y-178566809D01*
X92987389Y-178550838D01*
X92919480Y-178531563D01*
X92852986Y-178509075D01*
X92787997Y-178483463D01*
X92724602Y-178454816D01*
X92662893Y-178423224D01*
X92602958Y-178388778D01*
X92544888Y-178351565D01*
X92488772Y-178311677D01*
X92434702Y-178269203D01*
X92382767Y-178224233D01*
X92333057Y-178176855D01*
X92285662Y-178127160D01*
X92240672Y-178075238D01*
X92198177Y-178021178D01*
X92158268Y-177965070D01*
X92121034Y-177907003D01*
X92086565Y-177847067D01*
X92054952Y-177785352D01*
X92026284Y-177721948D01*
X92000651Y-177656943D01*
X91978144Y-177590429D01*
X91958853Y-177522493D01*
X91942867Y-177453227D01*
X91937197Y-177421474D01*
X91930277Y-177382719D01*
X91921172Y-177311060D01*
X91915644Y-177238339D01*
X91913781Y-177164645D01*
X91915644Y-177091017D01*
X91921172Y-177018357D01*
X91930277Y-176946754D01*
X91937170Y-176908183D01*
X92690950Y-176908183D01*
X92690950Y-177421474D01*
X93999403Y-177421474D01*
X93999403Y-176908183D01*
X92690950Y-176908183D01*
X91937170Y-176908183D01*
X91942867Y-176876300D01*
X91958853Y-176807083D01*
X91978144Y-176739194D01*
X92000651Y-176672722D01*
X92026284Y-176607756D01*
X92054952Y-176544388D01*
X92086565Y-176482706D01*
X92121034Y-176422800D01*
X92158268Y-176364760D01*
X92198177Y-176308677D01*
X92240672Y-176254639D01*
X92285662Y-176202736D01*
X92333057Y-176153059D01*
X92382767Y-176105697D01*
X92434702Y-176060740D01*
X92488772Y-176018277D01*
X92544888Y-175978399D01*
X92602958Y-175941196D01*
X92662893Y-175906756D01*
X92724602Y-175875170D01*
X92787997Y-175846527D01*
X92852986Y-175820919D01*
X92919480Y-175798433D01*
X92987389Y-175779160D01*
X93056622Y-175763190D01*
X93127090Y-175750613D01*
X93198702Y-175741518D01*
X93271369Y-175735995D01*
X93345000Y-175734134D01*
X93418632Y-175735995D01*
G37*
G36*
X93418632Y-137635995D02*
G01*
X93491298Y-137641518D01*
X93562911Y-137650613D01*
X93633378Y-137663190D01*
X93702611Y-137679160D01*
X93770520Y-137698432D01*
X93837014Y-137720918D01*
X93902003Y-137746526D01*
X93965398Y-137775169D01*
X94027108Y-137806754D01*
X94087043Y-137841194D01*
X94145113Y-137878397D01*
X94201228Y-137918275D01*
X94255298Y-137960738D01*
X94307233Y-138005695D01*
X94356943Y-138053056D01*
X94404338Y-138102733D01*
X94449328Y-138154636D01*
X94491823Y-138208673D01*
X94531732Y-138264757D01*
X94568966Y-138322797D01*
X94603435Y-138382702D01*
X94635049Y-138444384D01*
X94663717Y-138507753D01*
X94689349Y-138572718D01*
X94711856Y-138639191D01*
X94731147Y-138707081D01*
X94747133Y-138776298D01*
X94759723Y-138846753D01*
X94768828Y-138918355D01*
X94774357Y-138991016D01*
X94776220Y-139064645D01*
X94774357Y-139138339D01*
X94768828Y-139211060D01*
X94759723Y-139282719D01*
X94747133Y-139353227D01*
X94731147Y-139422493D01*
X94711856Y-139490429D01*
X94689349Y-139556943D01*
X94663716Y-139621948D01*
X94635048Y-139685352D01*
X94603435Y-139747067D01*
X94568966Y-139807003D01*
X94531732Y-139865070D01*
X94491823Y-139921178D01*
X94449328Y-139975238D01*
X94404338Y-140027160D01*
X94356943Y-140076855D01*
X94307233Y-140124233D01*
X94255298Y-140169203D01*
X94201228Y-140211677D01*
X94145112Y-140251565D01*
X94087042Y-140288778D01*
X94027107Y-140323224D01*
X93965398Y-140354816D01*
X93902003Y-140383463D01*
X93837014Y-140409075D01*
X93770520Y-140431563D01*
X93702611Y-140450838D01*
X93633378Y-140466809D01*
X93562910Y-140479387D01*
X93491298Y-140488482D01*
X93418631Y-140494005D01*
X93345000Y-140495866D01*
X93271369Y-140494005D01*
X93198702Y-140488482D01*
X93127090Y-140479387D01*
X93056622Y-140466809D01*
X92987389Y-140450838D01*
X92919480Y-140431563D01*
X92852986Y-140409075D01*
X92787997Y-140383463D01*
X92724602Y-140354816D01*
X92662893Y-140323224D01*
X92602958Y-140288778D01*
X92544888Y-140251565D01*
X92488772Y-140211677D01*
X92434702Y-140169203D01*
X92382767Y-140124233D01*
X92333057Y-140076855D01*
X92285662Y-140027160D01*
X92240672Y-139975238D01*
X92198177Y-139921178D01*
X92158268Y-139865070D01*
X92121034Y-139807003D01*
X92086565Y-139747067D01*
X92054952Y-139685352D01*
X92026284Y-139621948D01*
X92000651Y-139556943D01*
X91978144Y-139490429D01*
X91958853Y-139422493D01*
X91942867Y-139353227D01*
X91937197Y-139321474D01*
X91930277Y-139282719D01*
X91921172Y-139211060D01*
X91915644Y-139138339D01*
X91913781Y-139064645D01*
X91915644Y-138991017D01*
X91921172Y-138918357D01*
X91930277Y-138846754D01*
X91937170Y-138808183D01*
X92690950Y-138808183D01*
X92690950Y-139321474D01*
X93999403Y-139321474D01*
X93999403Y-138808183D01*
X92690950Y-138808183D01*
X91937170Y-138808183D01*
X91942867Y-138776300D01*
X91958853Y-138707083D01*
X91978144Y-138639194D01*
X92000651Y-138572722D01*
X92026284Y-138507756D01*
X92054952Y-138444388D01*
X92086565Y-138382706D01*
X92121034Y-138322800D01*
X92158268Y-138264760D01*
X92198177Y-138208677D01*
X92240672Y-138154639D01*
X92285662Y-138102736D01*
X92333057Y-138053059D01*
X92382767Y-138005697D01*
X92434702Y-137960740D01*
X92488772Y-137918277D01*
X92544888Y-137878399D01*
X92602958Y-137841196D01*
X92662893Y-137806756D01*
X92724602Y-137775170D01*
X92787997Y-137746527D01*
X92852986Y-137720919D01*
X92919480Y-137698433D01*
X92987389Y-137679160D01*
X93056622Y-137663190D01*
X93127090Y-137650613D01*
X93198702Y-137641518D01*
X93271369Y-137635995D01*
X93345000Y-137634134D01*
X93418632Y-137635995D01*
G37*
G36*
X109928744Y-61435994D02*
G01*
X110001350Y-61441517D01*
X110072906Y-61450612D01*
X110143322Y-61463189D01*
X110212506Y-61479159D01*
X110280369Y-61498432D01*
X110346821Y-61520917D01*
X110411772Y-61546526D01*
X110475130Y-61575168D01*
X110536808Y-61606754D01*
X110596713Y-61641194D01*
X110654756Y-61678398D01*
X110710846Y-61718275D01*
X110764894Y-61760738D01*
X110816810Y-61805695D01*
X110866502Y-61853057D01*
X110913882Y-61902734D01*
X110958858Y-61954636D01*
X111001341Y-62008674D01*
X111041240Y-62064758D01*
X111078466Y-62122798D01*
X111112927Y-62182703D01*
X111144535Y-62244386D01*
X111173198Y-62307754D01*
X111198827Y-62372720D01*
X111221331Y-62439193D01*
X111240621Y-62507082D01*
X111256605Y-62576300D01*
X111269195Y-62646754D01*
X111278299Y-62718357D01*
X111283827Y-62791018D01*
X111285690Y-62864647D01*
X111283827Y-62938340D01*
X111278299Y-63011061D01*
X111269195Y-63082720D01*
X111256605Y-63153228D01*
X111240621Y-63222494D01*
X111221331Y-63290429D01*
X111198827Y-63356943D01*
X111173198Y-63421948D01*
X111144535Y-63485352D01*
X111112927Y-63547067D01*
X111078466Y-63607003D01*
X111041240Y-63665070D01*
X111001341Y-63721178D01*
X110958858Y-63775238D01*
X110913882Y-63827160D01*
X110866502Y-63876855D01*
X110816810Y-63924232D01*
X110764894Y-63969203D01*
X110710846Y-64011677D01*
X110654756Y-64051565D01*
X110596713Y-64088777D01*
X110536808Y-64123224D01*
X110475130Y-64154816D01*
X110411772Y-64183463D01*
X110346821Y-64209075D01*
X110280369Y-64231564D01*
X110212506Y-64250838D01*
X110143322Y-64266809D01*
X110072906Y-64279387D01*
X110001350Y-64288483D01*
X109928744Y-64294006D01*
X109855177Y-64295867D01*
X109781484Y-64294006D01*
X109708766Y-64288483D01*
X109637112Y-64279387D01*
X109566611Y-64266809D01*
X109497353Y-64250838D01*
X109429427Y-64231564D01*
X109362924Y-64209075D01*
X109297931Y-64183463D01*
X109234540Y-64154816D01*
X109172838Y-64123224D01*
X109112917Y-64088777D01*
X109054866Y-64051565D01*
X108998773Y-64011677D01*
X108944729Y-63969203D01*
X108892824Y-63924232D01*
X108843145Y-63876855D01*
X108795784Y-63827160D01*
X108750830Y-63775238D01*
X108708372Y-63721178D01*
X108668500Y-63665070D01*
X108631303Y-63607003D01*
X108596871Y-63547067D01*
X108565293Y-63485352D01*
X108536659Y-63421948D01*
X108511058Y-63356943D01*
X108488581Y-63290429D01*
X108469315Y-63222494D01*
X108453352Y-63153228D01*
X108440781Y-63082720D01*
X108439431Y-63072081D01*
X109103407Y-63072081D01*
X109649860Y-63072081D01*
X109649860Y-63615005D01*
X110064021Y-63615005D01*
X110064021Y-63072081D01*
X110606946Y-63072081D01*
X110606946Y-62657920D01*
X110064021Y-62657920D01*
X110064021Y-62114995D01*
X109649860Y-62114995D01*
X109649860Y-62657920D01*
X109103407Y-62657920D01*
X109103407Y-63072081D01*
X108439431Y-63072081D01*
X108431690Y-63011061D01*
X108426170Y-62938340D01*
X108424310Y-62864647D01*
X108426170Y-62791018D01*
X108431690Y-62718357D01*
X108439363Y-62657920D01*
X108440781Y-62646754D01*
X108453352Y-62576300D01*
X108469315Y-62507082D01*
X108488581Y-62439193D01*
X108511058Y-62372720D01*
X108536659Y-62307754D01*
X108565293Y-62244386D01*
X108596871Y-62182704D01*
X108631303Y-62122798D01*
X108668500Y-62064758D01*
X108708372Y-62008674D01*
X108750830Y-61954636D01*
X108795784Y-61902734D01*
X108843145Y-61853057D01*
X108892824Y-61805695D01*
X108944729Y-61760738D01*
X108998773Y-61718275D01*
X109054866Y-61678398D01*
X109112917Y-61641194D01*
X109172838Y-61606754D01*
X109234540Y-61575168D01*
X109297931Y-61546526D01*
X109362924Y-61520917D01*
X109429427Y-61498432D01*
X109497353Y-61479159D01*
X109566611Y-61463189D01*
X109637112Y-61450612D01*
X109708766Y-61441517D01*
X109781484Y-61435994D01*
X109855177Y-61434133D01*
X109928744Y-61435994D01*
G37*
D10*
X101600000Y-171450000D02*
X101600000Y-162560000D01*
D11*
G36*
X93418632Y-61435995D02*
G01*
X93491298Y-61441518D01*
X93562911Y-61450613D01*
X93633378Y-61463190D01*
X93702611Y-61479160D01*
X93770520Y-61498432D01*
X93837014Y-61520918D01*
X93902003Y-61546526D01*
X93965398Y-61575169D01*
X94027108Y-61606754D01*
X94087043Y-61641194D01*
X94145113Y-61678397D01*
X94201228Y-61718275D01*
X94255298Y-61760738D01*
X94307233Y-61805695D01*
X94356943Y-61853056D01*
X94404338Y-61902733D01*
X94449328Y-61954636D01*
X94491823Y-62008673D01*
X94531732Y-62064757D01*
X94568966Y-62122797D01*
X94603435Y-62182702D01*
X94635049Y-62244384D01*
X94663717Y-62307753D01*
X94689349Y-62372718D01*
X94711856Y-62439191D01*
X94731147Y-62507081D01*
X94747133Y-62576298D01*
X94759723Y-62646753D01*
X94768828Y-62718355D01*
X94774357Y-62791016D01*
X94776220Y-62864645D01*
X94774357Y-62938339D01*
X94768828Y-63011060D01*
X94759723Y-63082719D01*
X94747133Y-63153227D01*
X94731147Y-63222493D01*
X94711856Y-63290429D01*
X94689349Y-63356943D01*
X94663716Y-63421948D01*
X94635048Y-63485352D01*
X94603435Y-63547067D01*
X94568966Y-63607003D01*
X94531732Y-63665070D01*
X94491823Y-63721178D01*
X94449328Y-63775238D01*
X94404338Y-63827160D01*
X94356943Y-63876855D01*
X94307233Y-63924233D01*
X94255298Y-63969203D01*
X94201228Y-64011677D01*
X94145112Y-64051565D01*
X94087042Y-64088778D01*
X94027107Y-64123224D01*
X93965398Y-64154816D01*
X93902003Y-64183463D01*
X93837014Y-64209075D01*
X93770520Y-64231563D01*
X93702611Y-64250838D01*
X93633378Y-64266809D01*
X93562910Y-64279387D01*
X93491298Y-64288482D01*
X93418631Y-64294005D01*
X93345000Y-64295866D01*
X93271369Y-64294005D01*
X93198702Y-64288482D01*
X93127090Y-64279387D01*
X93056622Y-64266809D01*
X92987389Y-64250838D01*
X92919480Y-64231563D01*
X92852986Y-64209075D01*
X92787997Y-64183463D01*
X92724602Y-64154816D01*
X92662893Y-64123224D01*
X92602958Y-64088778D01*
X92544888Y-64051565D01*
X92488772Y-64011677D01*
X92434702Y-63969203D01*
X92382767Y-63924233D01*
X92333057Y-63876855D01*
X92285662Y-63827160D01*
X92240672Y-63775238D01*
X92198177Y-63721178D01*
X92158268Y-63665070D01*
X92121034Y-63607003D01*
X92086565Y-63547067D01*
X92054952Y-63485352D01*
X92026284Y-63421948D01*
X92000651Y-63356943D01*
X91978144Y-63290429D01*
X91958853Y-63222493D01*
X91942867Y-63153227D01*
X91937197Y-63121474D01*
X91930277Y-63082719D01*
X91921172Y-63011060D01*
X91915644Y-62938339D01*
X91913781Y-62864645D01*
X91915644Y-62791017D01*
X91921172Y-62718357D01*
X91930277Y-62646754D01*
X91937170Y-62608183D01*
X92690950Y-62608183D01*
X92690950Y-63121474D01*
X93999403Y-63121474D01*
X93999403Y-62608183D01*
X92690950Y-62608183D01*
X91937170Y-62608183D01*
X91942867Y-62576300D01*
X91958853Y-62507083D01*
X91978144Y-62439194D01*
X92000651Y-62372722D01*
X92026284Y-62307756D01*
X92054952Y-62244388D01*
X92086565Y-62182706D01*
X92121034Y-62122800D01*
X92158268Y-62064760D01*
X92198177Y-62008677D01*
X92240672Y-61954639D01*
X92285662Y-61902736D01*
X92333057Y-61853059D01*
X92382767Y-61805697D01*
X92434702Y-61760740D01*
X92488772Y-61718277D01*
X92544888Y-61678399D01*
X92602958Y-61641196D01*
X92662893Y-61606756D01*
X92724602Y-61575170D01*
X92787997Y-61546527D01*
X92852986Y-61520919D01*
X92919480Y-61498433D01*
X92987389Y-61479160D01*
X93056622Y-61463190D01*
X93127090Y-61450613D01*
X93198702Y-61441518D01*
X93271369Y-61435995D01*
X93345000Y-61434134D01*
X93418632Y-61435995D01*
G37*
D10*
X101600000Y-57150000D02*
X101600000Y-48260000D01*
X101600000Y-95250000D02*
X101600000Y-86360000D01*
D11*
G36*
X109928744Y-175735994D02*
G01*
X110001350Y-175741517D01*
X110072906Y-175750612D01*
X110143322Y-175763189D01*
X110212506Y-175779159D01*
X110280369Y-175798432D01*
X110346821Y-175820917D01*
X110411772Y-175846526D01*
X110475130Y-175875168D01*
X110536808Y-175906754D01*
X110596713Y-175941194D01*
X110654756Y-175978398D01*
X110710846Y-176018275D01*
X110764894Y-176060738D01*
X110816810Y-176105695D01*
X110866502Y-176153057D01*
X110913882Y-176202734D01*
X110958858Y-176254636D01*
X111001341Y-176308674D01*
X111041240Y-176364758D01*
X111078466Y-176422798D01*
X111112927Y-176482703D01*
X111144535Y-176544386D01*
X111173198Y-176607754D01*
X111198827Y-176672720D01*
X111221331Y-176739193D01*
X111240621Y-176807082D01*
X111256605Y-176876300D01*
X111269195Y-176946754D01*
X111278299Y-177018357D01*
X111283827Y-177091018D01*
X111285690Y-177164647D01*
X111283827Y-177238340D01*
X111278299Y-177311061D01*
X111269195Y-177382720D01*
X111256605Y-177453228D01*
X111240621Y-177522494D01*
X111221331Y-177590429D01*
X111198827Y-177656943D01*
X111173198Y-177721948D01*
X111144535Y-177785352D01*
X111112927Y-177847067D01*
X111078466Y-177907003D01*
X111041240Y-177965070D01*
X111001341Y-178021178D01*
X110958858Y-178075238D01*
X110913882Y-178127160D01*
X110866502Y-178176855D01*
X110816810Y-178224232D01*
X110764894Y-178269203D01*
X110710846Y-178311677D01*
X110654756Y-178351565D01*
X110596713Y-178388777D01*
X110536808Y-178423224D01*
X110475130Y-178454816D01*
X110411772Y-178483463D01*
X110346821Y-178509075D01*
X110280369Y-178531564D01*
X110212506Y-178550838D01*
X110143322Y-178566809D01*
X110072906Y-178579387D01*
X110001350Y-178588483D01*
X109928744Y-178594006D01*
X109855177Y-178595867D01*
X109781484Y-178594006D01*
X109708766Y-178588483D01*
X109637112Y-178579387D01*
X109566611Y-178566809D01*
X109497353Y-178550838D01*
X109429427Y-178531564D01*
X109362924Y-178509075D01*
X109297931Y-178483463D01*
X109234540Y-178454816D01*
X109172838Y-178423224D01*
X109112917Y-178388777D01*
X109054866Y-178351565D01*
X108998773Y-178311677D01*
X108944729Y-178269203D01*
X108892824Y-178224232D01*
X108843145Y-178176855D01*
X108795784Y-178127160D01*
X108750830Y-178075238D01*
X108708372Y-178021178D01*
X108668500Y-177965070D01*
X108631303Y-177907003D01*
X108596871Y-177847067D01*
X108565293Y-177785352D01*
X108536659Y-177721948D01*
X108511058Y-177656943D01*
X108488581Y-177590429D01*
X108469315Y-177522494D01*
X108453352Y-177453228D01*
X108440781Y-177382720D01*
X108439431Y-177372081D01*
X109103407Y-177372081D01*
X109649860Y-177372081D01*
X109649860Y-177915005D01*
X110064021Y-177915005D01*
X110064021Y-177372081D01*
X110606946Y-177372081D01*
X110606946Y-176957920D01*
X110064021Y-176957920D01*
X110064021Y-176414995D01*
X109649860Y-176414995D01*
X109649860Y-176957920D01*
X109103407Y-176957920D01*
X109103407Y-177372081D01*
X108439431Y-177372081D01*
X108431690Y-177311061D01*
X108426170Y-177238340D01*
X108424310Y-177164647D01*
X108426170Y-177091018D01*
X108431690Y-177018357D01*
X108439363Y-176957920D01*
X108440781Y-176946754D01*
X108453352Y-176876300D01*
X108469315Y-176807082D01*
X108488581Y-176739193D01*
X108511058Y-176672720D01*
X108536659Y-176607754D01*
X108565293Y-176544386D01*
X108596871Y-176482704D01*
X108631303Y-176422798D01*
X108668500Y-176364758D01*
X108708372Y-176308674D01*
X108750830Y-176254636D01*
X108795784Y-176202734D01*
X108843145Y-176153057D01*
X108892824Y-176105695D01*
X108944729Y-176060738D01*
X108998773Y-176018275D01*
X109054866Y-175978398D01*
X109112917Y-175941194D01*
X109172838Y-175906754D01*
X109234540Y-175875168D01*
X109297931Y-175846526D01*
X109362924Y-175820917D01*
X109429427Y-175798432D01*
X109497353Y-175779159D01*
X109566611Y-175763189D01*
X109637112Y-175750612D01*
X109708766Y-175741517D01*
X109781484Y-175735994D01*
X109855177Y-175734133D01*
X109928744Y-175735994D01*
G37*
G36*
X109928744Y-137635994D02*
G01*
X110001350Y-137641517D01*
X110072906Y-137650612D01*
X110143322Y-137663189D01*
X110212506Y-137679159D01*
X110280369Y-137698432D01*
X110346821Y-137720917D01*
X110411772Y-137746526D01*
X110475130Y-137775168D01*
X110536808Y-137806754D01*
X110596713Y-137841194D01*
X110654756Y-137878398D01*
X110710846Y-137918275D01*
X110764894Y-137960738D01*
X110816810Y-138005695D01*
X110866502Y-138053057D01*
X110913882Y-138102734D01*
X110958858Y-138154636D01*
X111001341Y-138208674D01*
X111041240Y-138264758D01*
X111078466Y-138322798D01*
X111112927Y-138382703D01*
X111144535Y-138444386D01*
X111173198Y-138507754D01*
X111198827Y-138572720D01*
X111221331Y-138639193D01*
X111240621Y-138707082D01*
X111256605Y-138776300D01*
X111269195Y-138846754D01*
X111278299Y-138918357D01*
X111283827Y-138991018D01*
X111285690Y-139064647D01*
X111283827Y-139138340D01*
X111278299Y-139211061D01*
X111269195Y-139282720D01*
X111256605Y-139353228D01*
X111240621Y-139422494D01*
X111221331Y-139490429D01*
X111198827Y-139556943D01*
X111173198Y-139621948D01*
X111144535Y-139685352D01*
X111112927Y-139747067D01*
X111078466Y-139807003D01*
X111041240Y-139865070D01*
X111001341Y-139921178D01*
X110958858Y-139975238D01*
X110913882Y-140027160D01*
X110866502Y-140076855D01*
X110816810Y-140124232D01*
X110764894Y-140169203D01*
X110710846Y-140211677D01*
X110654756Y-140251565D01*
X110596713Y-140288777D01*
X110536808Y-140323224D01*
X110475130Y-140354816D01*
X110411772Y-140383463D01*
X110346821Y-140409075D01*
X110280369Y-140431564D01*
X110212506Y-140450838D01*
X110143322Y-140466809D01*
X110072906Y-140479387D01*
X110001350Y-140488483D01*
X109928744Y-140494006D01*
X109855177Y-140495867D01*
X109781484Y-140494006D01*
X109708766Y-140488483D01*
X109637112Y-140479387D01*
X109566611Y-140466809D01*
X109497353Y-140450838D01*
X109429427Y-140431564D01*
X109362924Y-140409075D01*
X109297931Y-140383463D01*
X109234540Y-140354816D01*
X109172838Y-140323224D01*
X109112917Y-140288777D01*
X109054866Y-140251565D01*
X108998773Y-140211677D01*
X108944729Y-140169203D01*
X108892824Y-140124232D01*
X108843145Y-140076855D01*
X108795784Y-140027160D01*
X108750830Y-139975238D01*
X108708372Y-139921178D01*
X108668500Y-139865070D01*
X108631303Y-139807003D01*
X108596871Y-139747067D01*
X108565293Y-139685352D01*
X108536659Y-139621948D01*
X108511058Y-139556943D01*
X108488581Y-139490429D01*
X108469315Y-139422494D01*
X108453352Y-139353228D01*
X108440781Y-139282720D01*
X108439431Y-139272081D01*
X109103407Y-139272081D01*
X109649860Y-139272081D01*
X109649860Y-139815005D01*
X110064021Y-139815005D01*
X110064021Y-139272081D01*
X110606946Y-139272081D01*
X110606946Y-138857920D01*
X110064021Y-138857920D01*
X110064021Y-138314995D01*
X109649860Y-138314995D01*
X109649860Y-138857920D01*
X109103407Y-138857920D01*
X109103407Y-139272081D01*
X108439431Y-139272081D01*
X108431690Y-139211061D01*
X108426170Y-139138340D01*
X108424310Y-139064647D01*
X108426170Y-138991018D01*
X108431690Y-138918357D01*
X108439363Y-138857920D01*
X108440781Y-138846754D01*
X108453352Y-138776300D01*
X108469315Y-138707082D01*
X108488581Y-138639193D01*
X108511058Y-138572720D01*
X108536659Y-138507754D01*
X108565293Y-138444386D01*
X108596871Y-138382704D01*
X108631303Y-138322798D01*
X108668500Y-138264758D01*
X108708372Y-138208674D01*
X108750830Y-138154636D01*
X108795784Y-138102734D01*
X108843145Y-138053057D01*
X108892824Y-138005695D01*
X108944729Y-137960738D01*
X108998773Y-137918275D01*
X109054866Y-137878398D01*
X109112917Y-137841194D01*
X109172838Y-137806754D01*
X109234540Y-137775168D01*
X109297931Y-137746526D01*
X109362924Y-137720917D01*
X109429427Y-137698432D01*
X109497353Y-137679159D01*
X109566611Y-137663189D01*
X109637112Y-137650612D01*
X109708766Y-137641517D01*
X109781484Y-137635994D01*
X109855177Y-137634133D01*
X109928744Y-137635994D01*
G37*
G36*
X109928744Y-99535994D02*
G01*
X110001350Y-99541517D01*
X110072906Y-99550612D01*
X110143322Y-99563189D01*
X110212506Y-99579159D01*
X110280369Y-99598432D01*
X110346821Y-99620917D01*
X110411772Y-99646526D01*
X110475130Y-99675168D01*
X110536808Y-99706754D01*
X110596713Y-99741194D01*
X110654756Y-99778398D01*
X110710846Y-99818275D01*
X110764894Y-99860738D01*
X110816810Y-99905695D01*
X110866502Y-99953057D01*
X110913882Y-100002734D01*
X110958858Y-100054636D01*
X111001341Y-100108674D01*
X111041240Y-100164758D01*
X111078466Y-100222798D01*
X111112927Y-100282703D01*
X111144535Y-100344386D01*
X111173198Y-100407754D01*
X111198827Y-100472720D01*
X111221331Y-100539193D01*
X111240621Y-100607082D01*
X111256605Y-100676300D01*
X111269195Y-100746754D01*
X111278299Y-100818357D01*
X111283827Y-100891018D01*
X111285690Y-100964647D01*
X111283827Y-101038340D01*
X111278299Y-101111061D01*
X111269195Y-101182720D01*
X111256605Y-101253228D01*
X111240621Y-101322494D01*
X111221331Y-101390429D01*
X111198827Y-101456943D01*
X111173198Y-101521948D01*
X111144535Y-101585352D01*
X111112927Y-101647067D01*
X111078466Y-101707003D01*
X111041240Y-101765070D01*
X111001341Y-101821178D01*
X110958858Y-101875238D01*
X110913882Y-101927160D01*
X110866502Y-101976855D01*
X110816810Y-102024232D01*
X110764894Y-102069203D01*
X110710846Y-102111677D01*
X110654756Y-102151565D01*
X110596713Y-102188777D01*
X110536808Y-102223224D01*
X110475130Y-102254816D01*
X110411772Y-102283463D01*
X110346821Y-102309075D01*
X110280369Y-102331564D01*
X110212506Y-102350838D01*
X110143322Y-102366809D01*
X110072906Y-102379387D01*
X110001350Y-102388483D01*
X109928744Y-102394006D01*
X109855177Y-102395867D01*
X109781484Y-102394006D01*
X109708766Y-102388483D01*
X109637112Y-102379387D01*
X109566611Y-102366809D01*
X109497353Y-102350838D01*
X109429427Y-102331564D01*
X109362924Y-102309075D01*
X109297931Y-102283463D01*
X109234540Y-102254816D01*
X109172838Y-102223224D01*
X109112917Y-102188777D01*
X109054866Y-102151565D01*
X108998773Y-102111677D01*
X108944729Y-102069203D01*
X108892824Y-102024232D01*
X108843145Y-101976855D01*
X108795784Y-101927160D01*
X108750830Y-101875238D01*
X108708372Y-101821178D01*
X108668500Y-101765070D01*
X108631303Y-101707003D01*
X108596871Y-101647067D01*
X108565293Y-101585352D01*
X108536659Y-101521948D01*
X108511058Y-101456943D01*
X108488581Y-101390429D01*
X108469315Y-101322494D01*
X108453352Y-101253228D01*
X108440781Y-101182720D01*
X108439431Y-101172081D01*
X109103407Y-101172081D01*
X109649860Y-101172081D01*
X109649860Y-101715005D01*
X110064021Y-101715005D01*
X110064021Y-101172081D01*
X110606946Y-101172081D01*
X110606946Y-100757920D01*
X110064021Y-100757920D01*
X110064021Y-100214995D01*
X109649860Y-100214995D01*
X109649860Y-100757920D01*
X109103407Y-100757920D01*
X109103407Y-101172081D01*
X108439431Y-101172081D01*
X108431690Y-101111061D01*
X108426170Y-101038340D01*
X108424310Y-100964647D01*
X108426170Y-100891018D01*
X108431690Y-100818357D01*
X108439363Y-100757920D01*
X108440781Y-100746754D01*
X108453352Y-100676300D01*
X108469315Y-100607082D01*
X108488581Y-100539193D01*
X108511058Y-100472720D01*
X108536659Y-100407754D01*
X108565293Y-100344386D01*
X108596871Y-100282704D01*
X108631303Y-100222798D01*
X108668500Y-100164758D01*
X108708372Y-100108674D01*
X108750830Y-100054636D01*
X108795784Y-100002734D01*
X108843145Y-99953057D01*
X108892824Y-99905695D01*
X108944729Y-99860738D01*
X108998773Y-99818275D01*
X109054866Y-99778398D01*
X109112917Y-99741194D01*
X109172838Y-99706754D01*
X109234540Y-99675168D01*
X109297931Y-99646526D01*
X109362924Y-99620917D01*
X109429427Y-99598432D01*
X109497353Y-99579159D01*
X109566611Y-99563189D01*
X109637112Y-99550612D01*
X109708766Y-99541517D01*
X109781484Y-99535994D01*
X109855177Y-99534133D01*
X109928744Y-99535994D01*
G37*
G36*
X93418632Y-99535995D02*
G01*
X93491298Y-99541518D01*
X93562911Y-99550613D01*
X93633378Y-99563190D01*
X93702611Y-99579160D01*
X93770520Y-99598432D01*
X93837014Y-99620918D01*
X93902003Y-99646526D01*
X93965398Y-99675169D01*
X94027108Y-99706754D01*
X94087043Y-99741194D01*
X94145113Y-99778397D01*
X94201228Y-99818275D01*
X94255298Y-99860738D01*
X94307233Y-99905695D01*
X94356943Y-99953056D01*
X94404338Y-100002733D01*
X94449328Y-100054636D01*
X94491823Y-100108673D01*
X94531732Y-100164757D01*
X94568966Y-100222797D01*
X94603435Y-100282702D01*
X94635049Y-100344384D01*
X94663717Y-100407753D01*
X94689349Y-100472718D01*
X94711856Y-100539191D01*
X94731147Y-100607081D01*
X94747133Y-100676298D01*
X94759723Y-100746753D01*
X94768828Y-100818355D01*
X94774357Y-100891016D01*
X94776220Y-100964645D01*
X94774357Y-101038339D01*
X94768828Y-101111060D01*
X94759723Y-101182719D01*
X94747133Y-101253227D01*
X94731147Y-101322493D01*
X94711856Y-101390429D01*
X94689349Y-101456943D01*
X94663716Y-101521948D01*
X94635048Y-101585352D01*
X94603435Y-101647067D01*
X94568966Y-101707003D01*
X94531732Y-101765070D01*
X94491823Y-101821178D01*
X94449328Y-101875238D01*
X94404338Y-101927160D01*
X94356943Y-101976855D01*
X94307233Y-102024233D01*
X94255298Y-102069203D01*
X94201228Y-102111677D01*
X94145112Y-102151565D01*
X94087042Y-102188778D01*
X94027107Y-102223224D01*
X93965398Y-102254816D01*
X93902003Y-102283463D01*
X93837014Y-102309075D01*
X93770520Y-102331563D01*
X93702611Y-102350838D01*
X93633378Y-102366809D01*
X93562910Y-102379387D01*
X93491298Y-102388482D01*
X93418631Y-102394005D01*
X93345000Y-102395866D01*
X93271369Y-102394005D01*
X93198702Y-102388482D01*
X93127090Y-102379387D01*
X93056622Y-102366809D01*
X92987389Y-102350838D01*
X92919480Y-102331563D01*
X92852986Y-102309075D01*
X92787997Y-102283463D01*
X92724602Y-102254816D01*
X92662893Y-102223224D01*
X92602958Y-102188778D01*
X92544888Y-102151565D01*
X92488772Y-102111677D01*
X92434702Y-102069203D01*
X92382767Y-102024233D01*
X92333057Y-101976855D01*
X92285662Y-101927160D01*
X92240672Y-101875238D01*
X92198177Y-101821178D01*
X92158268Y-101765070D01*
X92121034Y-101707003D01*
X92086565Y-101647067D01*
X92054952Y-101585352D01*
X92026284Y-101521948D01*
X92000651Y-101456943D01*
X91978144Y-101390429D01*
X91958853Y-101322493D01*
X91942867Y-101253227D01*
X91937197Y-101221474D01*
X91930277Y-101182719D01*
X91921172Y-101111060D01*
X91915644Y-101038339D01*
X91913781Y-100964645D01*
X91915644Y-100891017D01*
X91921172Y-100818357D01*
X91930277Y-100746754D01*
X91937170Y-100708183D01*
X92690950Y-100708183D01*
X92690950Y-101221474D01*
X93999403Y-101221474D01*
X93999403Y-100708183D01*
X92690950Y-100708183D01*
X91937170Y-100708183D01*
X91942867Y-100676300D01*
X91958853Y-100607083D01*
X91978144Y-100539194D01*
X92000651Y-100472722D01*
X92026284Y-100407756D01*
X92054952Y-100344388D01*
X92086565Y-100282706D01*
X92121034Y-100222800D01*
X92158268Y-100164760D01*
X92198177Y-100108677D01*
X92240672Y-100054639D01*
X92285662Y-100002736D01*
X92333057Y-99953059D01*
X92382767Y-99905697D01*
X92434702Y-99860740D01*
X92488772Y-99818277D01*
X92544888Y-99778399D01*
X92602958Y-99741196D01*
X92662893Y-99706756D01*
X92724602Y-99675170D01*
X92787997Y-99646527D01*
X92852986Y-99620919D01*
X92919480Y-99598433D01*
X92987389Y-99579160D01*
X93056622Y-99563190D01*
X93127090Y-99550613D01*
X93198702Y-99541518D01*
X93271369Y-99535995D01*
X93345000Y-99534134D01*
X93418632Y-99535995D01*
G37*
M02*
