%TF.GenerationSoftware,KiCad,Pcbnew,8.0.6*%
%TF.CreationDate,2025-04-05T09:24:32-04:00*%
%TF.ProjectId,BlindsPanel,426c696e-6473-4506-916e-656c2e6b6963,rev?*%
%TF.SameCoordinates,Original*%
%TF.FileFunction,Profile,NP*%
%FSLAX46Y46*%
G04 Gerber Fmt 4.6, Leading zero omitted, Abs format (unit mm)*
G04 Created by KiCad (PCBNEW 8.0.6) date 2025-04-05 09:24:32*
%MOMM*%
%LPD*%
G01*
G04 APERTURE LIST*
%TA.AperFunction,Profile*%
%ADD10C,0.200000*%
%TD*%
%TA.AperFunction,Profile*%
%ADD11C,0.100000*%
%TD*%
G04 APERTURE END LIST*
D10*
X89000000Y-17275000D02*
X165000000Y-17275000D01*
X165000000Y-192275000D01*
X89000000Y-192275000D01*
X89000000Y-17275000D01*
D11*
%TO.C,REF\u002A\u002A*%
X123825001Y-40601101D02*
X123825001Y-35593700D01*
X130175001Y-35598699D02*
X130175001Y-40606300D01*
X123825001Y-35593700D02*
G75*
G02*
X123960001Y-35252000I499978J-15D01*
G01*
X123960001Y-35252000D02*
G75*
G02*
X130040001Y-35252000I3040000J-2847999D01*
G01*
X123960001Y-40948000D02*
G75*
G02*
X123825001Y-40601101I365221J341848D01*
G01*
X130040001Y-35252000D02*
G75*
G02*
X130175014Y-35598699I-364801J-341700D01*
G01*
X130040001Y-40948000D02*
G75*
G02*
X123960001Y-40948000I-3040000J2847999D01*
G01*
X130175001Y-40606300D02*
G75*
G02*
X130040001Y-40948000I-499891J-20D01*
G01*
D10*
X149962500Y-20800000D02*
X149962500Y-19750000D01*
X150962500Y-18750000D02*
X153962500Y-18750000D01*
X153962500Y-21800000D02*
X150962500Y-21800000D01*
X154962500Y-19750000D02*
X154962500Y-20800000D01*
X149962500Y-19750000D02*
G75*
G02*
X150962500Y-18750000I999999J1D01*
G01*
X150962500Y-21800000D02*
G75*
G02*
X149962500Y-20800000I-1J999999D01*
G01*
X153962500Y-18750000D02*
G75*
G02*
X154962500Y-19750000I0J-1000000D01*
G01*
X154962500Y-20800000D02*
G75*
G02*
X153962500Y-21800000I-1000000J0D01*
G01*
D11*
X98425001Y-116801101D02*
X98425001Y-111793700D01*
X104775001Y-111798699D02*
X104775001Y-116806300D01*
X98425001Y-111793700D02*
G75*
G02*
X98560001Y-111452000I499978J-15D01*
G01*
X98560001Y-111452000D02*
G75*
G02*
X104640001Y-111452000I3040000J-2847999D01*
G01*
X98560001Y-117148000D02*
G75*
G02*
X98425001Y-116801101I365221J341848D01*
G01*
X104640001Y-111452000D02*
G75*
G02*
X104775014Y-111798699I-364801J-341700D01*
G01*
X104640001Y-117148000D02*
G75*
G02*
X98560001Y-117148000I-3040000J2847999D01*
G01*
X104775001Y-116806300D02*
G75*
G02*
X104640001Y-117148000I-499891J-20D01*
G01*
D10*
X99162500Y-189800000D02*
X99162500Y-188750000D01*
X100162500Y-187750000D02*
X103162500Y-187750000D01*
X103162500Y-190800000D02*
X100162500Y-190800000D01*
X104162500Y-188750000D02*
X104162500Y-189800000D01*
X99162500Y-188750000D02*
G75*
G02*
X100162500Y-187750000I999999J1D01*
G01*
X100162500Y-190800000D02*
G75*
G02*
X99162500Y-189800000I-1J999999D01*
G01*
X103162500Y-187750000D02*
G75*
G02*
X104162500Y-188750000I0J-1000000D01*
G01*
X104162500Y-189800000D02*
G75*
G02*
X103162500Y-190800000I-1000000J0D01*
G01*
D11*
X149225001Y-40601101D02*
X149225001Y-35593700D01*
X155575001Y-35598699D02*
X155575001Y-40606300D01*
X149225001Y-35593700D02*
G75*
G02*
X149360001Y-35252000I499978J-15D01*
G01*
X149360001Y-35252000D02*
G75*
G02*
X155440001Y-35252000I3040000J-2847999D01*
G01*
X149360001Y-40948000D02*
G75*
G02*
X149225001Y-40601101I365221J341848D01*
G01*
X155440001Y-35252000D02*
G75*
G02*
X155575014Y-35598699I-364801J-341700D01*
G01*
X155440001Y-40948000D02*
G75*
G02*
X149360001Y-40948000I-3040000J2847999D01*
G01*
X155575001Y-40606300D02*
G75*
G02*
X155440001Y-40948000I-499891J-20D01*
G01*
X98425001Y-78701101D02*
X98425001Y-73693700D01*
X104775001Y-73698699D02*
X104775001Y-78706300D01*
X98425001Y-73693700D02*
G75*
G02*
X98560001Y-73352000I499978J-15D01*
G01*
X98560001Y-73352000D02*
G75*
G02*
X104640001Y-73352000I3040000J-2847999D01*
G01*
X98560001Y-79048000D02*
G75*
G02*
X98425001Y-78701101I365221J341848D01*
G01*
X104640001Y-73352000D02*
G75*
G02*
X104775014Y-73698699I-364801J-341700D01*
G01*
X104640001Y-79048000D02*
G75*
G02*
X98560001Y-79048000I-3040000J2847999D01*
G01*
X104775001Y-78706300D02*
G75*
G02*
X104640001Y-79048000I-499891J-20D01*
G01*
D10*
X99162500Y-20800000D02*
X99162500Y-19750000D01*
X100162500Y-18750000D02*
X103162500Y-18750000D01*
X103162500Y-21800000D02*
X100162500Y-21800000D01*
X104162500Y-19750000D02*
X104162500Y-20800000D01*
X99162500Y-19750000D02*
G75*
G02*
X100162500Y-18750000I999999J1D01*
G01*
X100162500Y-21800000D02*
G75*
G02*
X99162500Y-20800000I-1J999999D01*
G01*
X103162500Y-18750000D02*
G75*
G02*
X104162500Y-19750000I0J-1000000D01*
G01*
X104162500Y-20800000D02*
G75*
G02*
X103162500Y-21800000I-1000000J0D01*
G01*
D11*
X98425001Y-154901101D02*
X98425001Y-149893700D01*
X104775001Y-149898699D02*
X104775001Y-154906300D01*
X98425001Y-149893700D02*
G75*
G02*
X98560001Y-149552000I499978J-15D01*
G01*
X98560001Y-149552000D02*
G75*
G02*
X104640001Y-149552000I3040000J-2847999D01*
G01*
X98560001Y-155248000D02*
G75*
G02*
X98425001Y-154901101I365221J341848D01*
G01*
X104640001Y-149552000D02*
G75*
G02*
X104775014Y-149898699I-364801J-341700D01*
G01*
X104640001Y-155248000D02*
G75*
G02*
X98560001Y-155248000I-3040000J2847999D01*
G01*
X104775001Y-154906300D02*
G75*
G02*
X104640001Y-155248000I-499891J-20D01*
G01*
X149225001Y-154901101D02*
X149225001Y-149893700D01*
X155575001Y-149898699D02*
X155575001Y-154906300D01*
X149225001Y-149893700D02*
G75*
G02*
X149360001Y-149552000I499978J-15D01*
G01*
X149360001Y-149552000D02*
G75*
G02*
X155440001Y-149552000I3040000J-2847999D01*
G01*
X149360001Y-155248000D02*
G75*
G02*
X149225001Y-154901101I365221J341848D01*
G01*
X155440001Y-149552000D02*
G75*
G02*
X155575014Y-149898699I-364801J-341700D01*
G01*
X155440001Y-155248000D02*
G75*
G02*
X149360001Y-155248000I-3040000J2847999D01*
G01*
X155575001Y-154906300D02*
G75*
G02*
X155440001Y-155248000I-499891J-20D01*
G01*
D10*
X149962500Y-189800000D02*
X149962500Y-188750000D01*
X150962500Y-187750000D02*
X153962500Y-187750000D01*
X153962500Y-190800000D02*
X150962500Y-190800000D01*
X154962500Y-188750000D02*
X154962500Y-189800000D01*
X149962500Y-188750000D02*
G75*
G02*
X150962500Y-187750000I999999J1D01*
G01*
X150962500Y-190800000D02*
G75*
G02*
X149962500Y-189800000I-1J999999D01*
G01*
X153962500Y-187750000D02*
G75*
G02*
X154962500Y-188750000I0J-1000000D01*
G01*
X154962500Y-189800000D02*
G75*
G02*
X153962500Y-190800000I-1000000J0D01*
G01*
D11*
X149225001Y-78701101D02*
X149225001Y-73693700D01*
X155575001Y-73698699D02*
X155575001Y-78706300D01*
X149225001Y-73693700D02*
G75*
G02*
X149360001Y-73352000I499978J-15D01*
G01*
X149360001Y-73352000D02*
G75*
G02*
X155440001Y-73352000I3040000J-2847999D01*
G01*
X149360001Y-79048000D02*
G75*
G02*
X149225001Y-78701101I365221J341848D01*
G01*
X155440001Y-73352000D02*
G75*
G02*
X155575014Y-73698699I-364801J-341700D01*
G01*
X155440001Y-79048000D02*
G75*
G02*
X149360001Y-79048000I-3040000J2847999D01*
G01*
X155575001Y-78706300D02*
G75*
G02*
X155440001Y-79048000I-499891J-20D01*
G01*
X123825001Y-154901101D02*
X123825001Y-149893700D01*
X130175001Y-149898699D02*
X130175001Y-154906300D01*
X123825001Y-149893700D02*
G75*
G02*
X123960001Y-149552000I499978J-15D01*
G01*
X123960001Y-149552000D02*
G75*
G02*
X130040001Y-149552000I3040000J-2847999D01*
G01*
X123960001Y-155248000D02*
G75*
G02*
X123825001Y-154901101I365221J341848D01*
G01*
X130040001Y-149552000D02*
G75*
G02*
X130175014Y-149898699I-364801J-341700D01*
G01*
X130040001Y-155248000D02*
G75*
G02*
X123960001Y-155248000I-3040000J2847999D01*
G01*
X130175001Y-154906300D02*
G75*
G02*
X130040001Y-155248000I-499891J-20D01*
G01*
X123825001Y-116801101D02*
X123825001Y-111793700D01*
X130175001Y-111798699D02*
X130175001Y-116806300D01*
X123825001Y-111793700D02*
G75*
G02*
X123960001Y-111452000I499978J-15D01*
G01*
X123960001Y-111452000D02*
G75*
G02*
X130040001Y-111452000I3040000J-2847999D01*
G01*
X123960001Y-117148000D02*
G75*
G02*
X123825001Y-116801101I365221J341848D01*
G01*
X130040001Y-111452000D02*
G75*
G02*
X130175014Y-111798699I-364801J-341700D01*
G01*
X130040001Y-117148000D02*
G75*
G02*
X123960001Y-117148000I-3040000J2847999D01*
G01*
X130175001Y-116806300D02*
G75*
G02*
X130040001Y-117148000I-499891J-20D01*
G01*
X98425001Y-40601101D02*
X98425001Y-35593700D01*
X104775001Y-35598699D02*
X104775001Y-40606300D01*
X98425001Y-35593700D02*
G75*
G02*
X98560001Y-35252000I499978J-15D01*
G01*
X98560001Y-35252000D02*
G75*
G02*
X104640001Y-35252000I3040000J-2847999D01*
G01*
X98560001Y-40948000D02*
G75*
G02*
X98425001Y-40601101I365221J341848D01*
G01*
X104640001Y-35252000D02*
G75*
G02*
X104775014Y-35598699I-364801J-341700D01*
G01*
X104640001Y-40948000D02*
G75*
G02*
X98560001Y-40948000I-3040000J2847999D01*
G01*
X104775001Y-40606300D02*
G75*
G02*
X104640001Y-40948000I-499891J-20D01*
G01*
X123825001Y-78701101D02*
X123825001Y-73693700D01*
X130175001Y-73698699D02*
X130175001Y-78706300D01*
X123825001Y-73693700D02*
G75*
G02*
X123960001Y-73352000I499978J-15D01*
G01*
X123960001Y-73352000D02*
G75*
G02*
X130040001Y-73352000I3040000J-2847999D01*
G01*
X123960001Y-79048000D02*
G75*
G02*
X123825001Y-78701101I365221J341848D01*
G01*
X130040001Y-73352000D02*
G75*
G02*
X130175014Y-73698699I-364801J-341700D01*
G01*
X130040001Y-79048000D02*
G75*
G02*
X123960001Y-79048000I-3040000J2847999D01*
G01*
X130175001Y-78706300D02*
G75*
G02*
X130040001Y-79048000I-499891J-20D01*
G01*
X149225001Y-116801101D02*
X149225001Y-111793700D01*
X155575001Y-111798699D02*
X155575001Y-116806300D01*
X149225001Y-111793700D02*
G75*
G02*
X149360001Y-111452000I499978J-15D01*
G01*
X149360001Y-111452000D02*
G75*
G02*
X155440001Y-111452000I3040000J-2847999D01*
G01*
X149360001Y-117148000D02*
G75*
G02*
X149225001Y-116801101I365221J341848D01*
G01*
X155440001Y-111452000D02*
G75*
G02*
X155575014Y-111798699I-364801J-341700D01*
G01*
X155440001Y-117148000D02*
G75*
G02*
X149360001Y-117148000I-3040000J2847999D01*
G01*
X155575001Y-116806300D02*
G75*
G02*
X155440001Y-117148000I-499891J-20D01*
G01*
%TD*%
M02*
