<?xml version="1.0" encoding="UTF-8" standalone="no"?>
<!-- Created with Inkscape (http://www.inkscape.org/) -->

<svg
   width="2.8613887mm"
   height="2.8617356mm"
   viewBox="0 0 2.8613887 2.8617357"
   version="1.1"
   id="svg1"
   xml:space="preserve"
   xmlns:inkscape="http://www.inkscape.org/namespaces/inkscape"
   xmlns:sodipodi="http://sodipodi.sourceforge.net/DTD/sodipodi-0.dtd"
   xmlns="http://www.w3.org/2000/svg"
   xmlns:svg="http://www.w3.org/2000/svg"><sodipodi:namedview
     id="namedview1"
     pagecolor="#ffffff"
     bordercolor="#000000"
     borderopacity="0.25"
     inkscape:showpageshadow="2"
     inkscape:pageopacity="0.0"
     inkscape:pagecheckerboard="0"
     inkscape:deskcolor="#d1d1d1"
     inkscape:document-units="mm"><inkscape:page
       x="2.9030943e-07"
       y="6.7027202e-07"
       width="2.8613887"
       height="2.8617358"
       id="page3"
       margin="0"
       bleed="0" /></sodipodi:namedview><defs
     id="defs1"><clipPath
       clipPathUnits="userSpaceOnUse"
       id="clipPath196"><path
         d="M 0,364.252 H 171.779 V 0 H 0 Z"
         transform="translate(-42.891601,-243.63331)"
         id="path196" /></clipPath></defs><g
     id="layer-MC0"
     inkscape:groupmode="layer"
     inkscape:label="labels"
     transform="matrix(0.26458332,0,0,0.26458334,-12.948544,-40.913648)"><path
       id="path195"
       d="M 0,0 H -1.539 V -1.539 H -2.713 V 0 h -1.549 v 1.174 h 1.549 v 1.539 h 1.174 V 1.174 H 0 Z m -2.131,4.643 c -2.242,0 -4.056,-1.815 -4.056,-4.055 0,-2.242 1.814,-4.057 4.056,-4.057 2.238,0 4.055,1.815 4.055,4.057 0,2.24 -1.817,4.055 -4.055,4.055"
       style="fill:#231f20;fill-opacity:1;fill-rule:nonzero;stroke:none"
       transform="matrix(1.3333333,0,0,-1.3333333,57.1888,160.82493)"
       clip-path="url(#clipPath196)"
       inkscape:export-filename="Plus.svg"
       inkscape:export-xdpi="96"
       inkscape:export-ydpi="96" /></g></svg>
