%TF.GenerationSoftware,KiCad,Pcbnew,8.0.6*%
%TF.CreationDate,2025-04-05T08:59:40-04:00*%
%TF.ProjectId,Blinds4U,426c696e-6473-4345-952e-6b696361645f,rev?*%
%TF.SameCoordinates,Original*%
%TF.FileFunction,Drillmap*%
%TF.FilePolarity,Positive*%
%FSLAX45Y45*%
G04 Gerber Fmt 4.5, Leading zero omitted, Abs format (unit mm)*
G04 Created by KiCad (PCBNEW 8.0.6) date 2025-04-05 08:59:40*
%MOMM*%
%LPD*%
G01*
G04 APERTURE LIST*
%ADD10C,0.200000*%
%ADD11C,0.100000*%
%ADD12C,0.101600*%
%ADD13C,0.119000*%
%ADD14C,0.150000*%
%ADD15C,0.469900*%
G04 APERTURE END LIST*
D10*
X3619500Y-2667000D02*
X11112500Y-2667000D01*
X11112500Y-17716500D01*
X3619500Y-17716500D01*
X3619500Y-2667000D01*
D11*
X4140440Y-16657560D02*
X4170440Y-16687560D01*
X4170440Y-16657560D02*
X4140440Y-16687560D01*
X4239500Y-17447500D02*
X4269500Y-17477500D01*
X4269500Y-17447500D02*
X4239500Y-17477500D01*
X4357500Y-16950820D02*
X4387500Y-16980820D01*
X4387500Y-16950820D02*
X4357500Y-16980820D01*
X4534140Y-16616920D02*
X4564140Y-16646920D01*
X4564140Y-16616920D02*
X4534140Y-16646920D01*
X4607057Y-16550137D02*
X4637057Y-16580137D01*
X4637057Y-16550137D02*
X4607057Y-16580137D01*
X4620500Y-17384000D02*
X4650500Y-17414000D01*
X4650500Y-17384000D02*
X4620500Y-17414000D01*
X4625580Y-16898860D02*
X4655580Y-16928860D01*
X4655580Y-16898860D02*
X4625580Y-16928860D01*
X4684000Y-16368000D02*
X4714000Y-16398000D01*
X4714000Y-16368000D02*
X4684000Y-16398000D01*
X4747500Y-16050500D02*
X4777500Y-16080500D01*
X4777500Y-16050500D02*
X4747500Y-16080500D01*
X4826240Y-16583900D02*
X4856240Y-16613900D01*
X4856240Y-16583900D02*
X4826240Y-16613900D01*
X5059008Y-16310492D02*
X5089008Y-16340492D01*
X5089008Y-16310492D02*
X5059008Y-16340492D01*
X5065000Y-16050500D02*
X5095000Y-16080500D01*
X5095000Y-16050500D02*
X5065000Y-16080500D01*
X5128500Y-16558500D02*
X5158500Y-16588500D01*
X5158500Y-16558500D02*
X5128500Y-16588500D01*
X5141074Y-16164926D02*
X5171074Y-16194926D01*
X5171074Y-16164926D02*
X5141074Y-16194926D01*
X5192000Y-14269320D02*
X5222000Y-14299320D01*
X5222000Y-14269320D02*
X5192000Y-14299320D01*
X5232320Y-10268820D02*
X5262320Y-10298820D01*
X5262320Y-10268820D02*
X5232320Y-10298820D01*
X5319000Y-6649320D02*
X5349000Y-6679320D01*
X5349000Y-6649320D02*
X5319000Y-6679320D01*
X5382500Y-14336000D02*
X5412500Y-14366000D01*
X5412500Y-14336000D02*
X5382500Y-14366000D01*
X5446000Y-5255500D02*
X5476000Y-5285500D01*
X5476000Y-5255500D02*
X5446000Y-5285500D01*
X5446000Y-6716000D02*
X5476000Y-6746000D01*
X5476000Y-6716000D02*
X5446000Y-6746000D01*
X5446000Y-13002500D02*
X5476000Y-13032500D01*
X5476000Y-13002500D02*
X5446000Y-13032500D01*
X5509500Y-5446000D02*
X5539500Y-5476000D01*
X5539500Y-5446000D02*
X5509500Y-5476000D01*
X5509500Y-14018500D02*
X5539500Y-14048500D01*
X5539500Y-14018500D02*
X5509500Y-14048500D01*
X5573000Y-16241000D02*
X5603000Y-16271000D01*
X5603000Y-16241000D02*
X5573000Y-16271000D01*
X5636500Y-9954500D02*
X5666500Y-9984500D01*
X5666500Y-9954500D02*
X5636500Y-9984500D01*
X5763500Y-8240000D02*
X5793500Y-8270000D01*
X5793500Y-8240000D02*
X5763500Y-8270000D01*
X5763500Y-16368000D02*
X5793500Y-16398000D01*
X5793500Y-16368000D02*
X5763500Y-16398000D01*
X5763500Y-16498000D02*
X5793500Y-16528000D01*
X5793500Y-16498000D02*
X5763500Y-16528000D01*
X5806680Y-13071080D02*
X5836680Y-13101080D01*
X5836680Y-13071080D02*
X5806680Y-13101080D01*
X5827000Y-12240500D02*
X5857000Y-12270500D01*
X5857000Y-12240500D02*
X5827000Y-12270500D01*
X5827000Y-16749000D02*
X5857000Y-16779000D01*
X5857000Y-16749000D02*
X5827000Y-16779000D01*
X5890500Y-6843000D02*
X5920500Y-6873000D01*
X5920500Y-6843000D02*
X5890500Y-6873000D01*
X5890500Y-8303500D02*
X5920500Y-8333500D01*
X5920500Y-8303500D02*
X5890500Y-8333500D01*
X5890500Y-10399000D02*
X5920500Y-10429000D01*
X5920500Y-10399000D02*
X5890500Y-10429000D01*
X5890500Y-14463000D02*
X5920500Y-14493000D01*
X5920500Y-14463000D02*
X5890500Y-14493000D01*
X5985750Y-6811250D02*
X6015750Y-6841250D01*
X6015750Y-6811250D02*
X5985750Y-6841250D01*
X6010007Y-14392007D02*
X6040007Y-14422007D01*
X6040007Y-14392007D02*
X6010007Y-14422007D01*
X6017500Y-4430000D02*
X6047500Y-4460000D01*
X6047500Y-4430000D02*
X6017500Y-4460000D01*
X6017500Y-4684000D02*
X6047500Y-4714000D01*
X6047500Y-4684000D02*
X6017500Y-4714000D01*
X6017500Y-10399000D02*
X6047500Y-10429000D01*
X6047500Y-10399000D02*
X6017500Y-10429000D01*
X6017782Y-16558976D02*
X6047782Y-16588976D01*
X6047782Y-16558976D02*
X6017782Y-16588976D01*
X6081000Y-16464520D02*
X6111000Y-16494520D01*
X6111000Y-16464520D02*
X6081000Y-16494520D01*
X6081000Y-17066500D02*
X6111000Y-17096500D01*
X6111000Y-17066500D02*
X6081000Y-17096500D01*
X6081000Y-17511000D02*
X6111000Y-17541000D01*
X6111000Y-17511000D02*
X6081000Y-17541000D01*
X6087820Y-9995854D02*
X6117820Y-10025854D01*
X6117820Y-9995854D02*
X6087820Y-10025854D01*
X6098780Y-12926300D02*
X6128780Y-12956300D01*
X6128780Y-12926300D02*
X6098780Y-12956300D01*
X6137680Y-15770680D02*
X6167680Y-15800680D01*
X6167680Y-15770680D02*
X6137680Y-15800680D01*
X6144500Y-8303500D02*
X6174500Y-8333500D01*
X6174500Y-8303500D02*
X6144500Y-8333500D01*
X6144500Y-10462500D02*
X6174500Y-10492500D01*
X6174500Y-10462500D02*
X6144500Y-10492500D01*
X6144500Y-12240500D02*
X6174500Y-12270500D01*
X6174500Y-12240500D02*
X6144500Y-12270500D01*
X6144500Y-14018500D02*
X6174500Y-14048500D01*
X6174500Y-14018500D02*
X6144500Y-14048500D01*
X6176250Y-6684250D02*
X6206250Y-6714250D01*
X6206250Y-6684250D02*
X6176250Y-6714250D01*
X6197097Y-6324097D02*
X6227097Y-6354097D01*
X6227097Y-6324097D02*
X6197097Y-6354097D01*
X6208000Y-4811000D02*
X6238000Y-4841000D01*
X6238000Y-4811000D02*
X6208000Y-4841000D01*
X6216392Y-14279435D02*
X6246392Y-14309435D01*
X6246392Y-14279435D02*
X6216392Y-14309435D01*
X6248640Y-16573740D02*
X6278640Y-16603740D01*
X6278640Y-16573740D02*
X6248640Y-16603740D01*
X6271500Y-5065000D02*
X6301500Y-5095000D01*
X6301500Y-5065000D02*
X6271500Y-5095000D01*
X6271500Y-5954000D02*
X6301500Y-5984000D01*
X6301500Y-5954000D02*
X6271500Y-5984000D01*
X6335000Y-16177500D02*
X6365000Y-16207500D01*
X6365000Y-16177500D02*
X6335000Y-16207500D01*
X6375640Y-13038060D02*
X6405640Y-13068060D01*
X6405640Y-13038060D02*
X6375640Y-13068060D01*
X6462000Y-17320500D02*
X6492000Y-17350500D01*
X6492000Y-17320500D02*
X6462000Y-17350500D01*
X6467080Y-5583160D02*
X6497080Y-5613160D01*
X6497080Y-5583160D02*
X6467080Y-5613160D01*
X6589000Y-4359680D02*
X6619000Y-4389680D01*
X6619000Y-4359680D02*
X6589000Y-4389680D01*
X6589000Y-16876000D02*
X6619000Y-16906000D01*
X6619000Y-16876000D02*
X6589000Y-16906000D01*
X6641597Y-16420597D02*
X6671597Y-16450597D01*
X6671597Y-16420597D02*
X6641597Y-16450597D01*
X6644880Y-16307040D02*
X6674880Y-16337040D01*
X6674880Y-16307040D02*
X6644880Y-16337040D01*
X6652500Y-16558500D02*
X6682500Y-16588500D01*
X6682500Y-16558500D02*
X6652500Y-16588500D01*
X6652500Y-17257000D02*
X6682500Y-17287000D01*
X6682500Y-17257000D02*
X6652500Y-17287000D01*
X6763875Y-16298320D02*
X6793875Y-16328320D01*
X6793875Y-16298320D02*
X6763875Y-16328320D01*
X7351000Y-4811000D02*
X7381000Y-4841000D01*
X7381000Y-4811000D02*
X7351000Y-4841000D01*
X7351000Y-8557500D02*
X7381000Y-8587500D01*
X7381000Y-8557500D02*
X7351000Y-8587500D01*
X7351000Y-12367500D02*
X7381000Y-12397500D01*
X7381000Y-12367500D02*
X7351000Y-12397500D01*
X7351000Y-16177500D02*
X7381000Y-16207500D01*
X7381000Y-16177500D02*
X7351000Y-16207500D01*
X7414500Y-8049500D02*
X7444500Y-8079500D01*
X7444500Y-8049500D02*
X7414500Y-8079500D01*
X7467097Y-8504903D02*
X7497097Y-8534903D01*
X7497097Y-8504903D02*
X7467097Y-8534903D01*
X7478000Y-14336000D02*
X7508000Y-14366000D01*
X7508000Y-14336000D02*
X7478000Y-14366000D01*
X7485663Y-8295837D02*
X7515663Y-8325837D01*
X7515663Y-8295837D02*
X7485663Y-8325837D01*
X7541500Y-6716000D02*
X7571500Y-6746000D01*
X7571500Y-6716000D02*
X7541500Y-6746000D01*
X7541500Y-9065500D02*
X7571500Y-9095500D01*
X7571500Y-9065500D02*
X7541500Y-9095500D01*
X7541500Y-15542500D02*
X7571500Y-15572500D01*
X7571500Y-15542500D02*
X7541500Y-15572500D01*
X7541500Y-15733000D02*
X7571500Y-15763000D01*
X7571500Y-15733000D02*
X7541500Y-15763000D01*
X7541500Y-16749000D02*
X7571500Y-16779000D01*
X7571500Y-16749000D02*
X7541500Y-16779000D01*
X7668500Y-8477180D02*
X7698500Y-8507180D01*
X7698500Y-8477180D02*
X7668500Y-8507180D01*
X7668500Y-8557500D02*
X7698500Y-8587500D01*
X7698500Y-8557500D02*
X7668500Y-8587500D01*
X7668500Y-14209000D02*
X7698500Y-14239000D01*
X7698500Y-14209000D02*
X7668500Y-14239000D01*
X7668500Y-15542500D02*
X7698500Y-15572500D01*
X7698500Y-15542500D02*
X7668500Y-15572500D01*
X7718347Y-10095153D02*
X7748347Y-10125153D01*
X7748347Y-10095153D02*
X7718347Y-10125153D01*
X7795500Y-6525500D02*
X7825500Y-6555500D01*
X7825500Y-6525500D02*
X7795500Y-6555500D01*
X7795500Y-8049500D02*
X7825500Y-8079500D01*
X7825500Y-8049500D02*
X7795500Y-8079500D01*
X7795500Y-9700500D02*
X7825500Y-9730500D01*
X7825500Y-9700500D02*
X7795500Y-9730500D01*
X7803653Y-10009847D02*
X7833653Y-10039847D01*
X7833653Y-10009847D02*
X7803653Y-10039847D01*
X7859000Y-7224000D02*
X7889000Y-7254000D01*
X7889000Y-7224000D02*
X7859000Y-7254000D01*
X7921097Y-13765903D02*
X7951097Y-13795903D01*
X7951097Y-13765903D02*
X7921097Y-13795903D01*
X7922500Y-10335500D02*
X7952500Y-10365500D01*
X7952500Y-10335500D02*
X7922500Y-10365500D01*
X7922500Y-14971000D02*
X7952500Y-15001000D01*
X7952500Y-14971000D02*
X7922500Y-15001000D01*
X7922500Y-16114000D02*
X7952500Y-16144000D01*
X7952500Y-16114000D02*
X7922500Y-16144000D01*
X7933446Y-15762816D02*
X7963446Y-15792816D01*
X7963446Y-15762816D02*
X7933446Y-15792816D01*
X7978337Y-13439337D02*
X8008337Y-13469337D01*
X8008337Y-13439337D02*
X7978337Y-13469337D01*
X7983039Y-4115605D02*
X8013039Y-4145605D01*
X8013039Y-4115605D02*
X7983039Y-4145605D01*
X7986000Y-6525500D02*
X8016000Y-6555500D01*
X8016000Y-6525500D02*
X7986000Y-6555500D01*
X7986000Y-9383000D02*
X8016000Y-9413000D01*
X8016000Y-9383000D02*
X7986000Y-9413000D01*
X8049500Y-10018000D02*
X8079500Y-10048000D01*
X8079500Y-10018000D02*
X8049500Y-10048000D01*
X8074900Y-3591800D02*
X8104900Y-3621800D01*
X8104900Y-3591800D02*
X8074900Y-3621800D01*
X8077440Y-6281660D02*
X8107440Y-6311660D01*
X8107440Y-6281660D02*
X8077440Y-6311660D01*
X8116180Y-13472104D02*
X8146180Y-13502104D01*
X8146180Y-13472104D02*
X8116180Y-13502104D01*
X8173960Y-9197580D02*
X8203960Y-9227580D01*
X8203960Y-9197580D02*
X8173960Y-9227580D01*
X8176500Y-8303500D02*
X8206500Y-8333500D01*
X8206500Y-8303500D02*
X8176500Y-8333500D01*
X8176500Y-8557500D02*
X8206500Y-8587500D01*
X8206500Y-8557500D02*
X8176500Y-8587500D01*
X8176500Y-12431000D02*
X8206500Y-12461000D01*
X8206500Y-12431000D02*
X8176500Y-12461000D01*
X8176500Y-13129500D02*
X8206500Y-13159500D01*
X8206500Y-13129500D02*
X8176500Y-13159500D01*
X8176500Y-13574000D02*
X8206500Y-13604000D01*
X8206500Y-13574000D02*
X8176500Y-13604000D01*
X8176500Y-13828000D02*
X8206500Y-13858000D01*
X8206500Y-13828000D02*
X8176500Y-13858000D01*
X8217140Y-4026140D02*
X8247140Y-4056140D01*
X8247140Y-4026140D02*
X8217140Y-4056140D01*
X8240000Y-4871960D02*
X8270000Y-4901960D01*
X8270000Y-4871960D02*
X8240000Y-4901960D01*
X8240000Y-5319000D02*
X8270000Y-5349000D01*
X8270000Y-5319000D02*
X8240000Y-5349000D01*
X8240000Y-7668500D02*
X8270000Y-7698500D01*
X8270000Y-7668500D02*
X8240000Y-7698500D01*
X8240000Y-9065500D02*
X8270000Y-9095500D01*
X8270000Y-9065500D02*
X8240000Y-9095500D01*
X8240000Y-10462500D02*
X8270000Y-10492500D01*
X8270000Y-10462500D02*
X8240000Y-10492500D01*
X8240000Y-13066000D02*
X8270000Y-13096000D01*
X8270000Y-13066000D02*
X8240000Y-13096000D01*
X8296680Y-5700000D02*
X8326680Y-5730000D01*
X8326680Y-5700000D02*
X8296680Y-5730000D01*
X8303500Y-3922000D02*
X8333500Y-3952000D01*
X8333500Y-3922000D02*
X8303500Y-3952000D01*
X8303500Y-4525500D02*
X8333500Y-4555500D01*
X8333500Y-4525500D02*
X8303500Y-4555500D01*
X8334750Y-9464750D02*
X8364750Y-9494750D01*
X8364750Y-9464750D02*
X8334750Y-9494750D01*
X8351760Y-6055600D02*
X8381760Y-6085600D01*
X8381760Y-6055600D02*
X8351760Y-6085600D01*
X8367000Y-5827000D02*
X8397000Y-5857000D01*
X8397000Y-5827000D02*
X8367000Y-5857000D01*
X8367000Y-9002000D02*
X8397000Y-9032000D01*
X8397000Y-9002000D02*
X8367000Y-9032000D01*
X8367000Y-10399000D02*
X8397000Y-10429000D01*
X8397000Y-10399000D02*
X8367000Y-10429000D01*
X8367000Y-13320000D02*
X8397000Y-13350000D01*
X8397000Y-13320000D02*
X8367000Y-13350000D01*
X8430500Y-7859000D02*
X8460500Y-7889000D01*
X8460500Y-7859000D02*
X8430500Y-7889000D01*
X8458440Y-13756880D02*
X8488440Y-13786880D01*
X8488440Y-13756880D02*
X8458440Y-13786880D01*
X8494000Y-5827000D02*
X8524000Y-5857000D01*
X8524000Y-5827000D02*
X8494000Y-5857000D01*
X8494000Y-6525500D02*
X8524000Y-6555500D01*
X8524000Y-6525500D02*
X8494000Y-6555500D01*
X8494000Y-13320000D02*
X8524000Y-13350000D01*
X8524000Y-13320000D02*
X8494000Y-13350000D01*
X8544396Y-9904104D02*
X8574396Y-9934104D01*
X8574396Y-9904104D02*
X8544396Y-9934104D01*
X8555250Y-9634750D02*
X8585250Y-9664750D01*
X8585250Y-9634750D02*
X8555250Y-9664750D01*
X8557500Y-8557500D02*
X8587500Y-8587500D01*
X8587500Y-8557500D02*
X8557500Y-8587500D01*
X8561851Y-5576748D02*
X8591851Y-5606748D01*
X8591851Y-5576748D02*
X8561851Y-5606748D01*
X8621000Y-6398500D02*
X8651000Y-6428500D01*
X8651000Y-6398500D02*
X8621000Y-6428500D01*
X8621000Y-9065500D02*
X8651000Y-9095500D01*
X8651000Y-9065500D02*
X8621000Y-9095500D01*
X8621000Y-10073880D02*
X8651000Y-10103880D01*
X8651000Y-10073880D02*
X8621000Y-10103880D01*
X8666720Y-9664940D02*
X8696720Y-9694940D01*
X8696720Y-9664940D02*
X8666720Y-9694940D01*
X8673597Y-15341097D02*
X8703597Y-15371097D01*
X8703597Y-15341097D02*
X8673597Y-15371097D01*
X8684500Y-5827000D02*
X8714500Y-5857000D01*
X8714500Y-5827000D02*
X8684500Y-5857000D01*
X8684500Y-6716000D02*
X8714500Y-6746000D01*
X8714500Y-6716000D02*
X8684500Y-6746000D01*
X8684500Y-8367000D02*
X8714500Y-8397000D01*
X8714500Y-8367000D02*
X8684500Y-8397000D01*
X8684500Y-8494000D02*
X8714500Y-8524000D01*
X8714500Y-8494000D02*
X8684500Y-8524000D01*
X8684500Y-10399000D02*
X8714500Y-10429000D01*
X8714500Y-10399000D02*
X8684500Y-10429000D01*
X8684500Y-15860000D02*
X8714500Y-15890000D01*
X8714500Y-15860000D02*
X8684500Y-15890000D01*
X8684500Y-16050500D02*
X8714500Y-16080500D01*
X8714500Y-16050500D02*
X8684500Y-16080500D01*
X8723722Y-6628222D02*
X8753722Y-6658222D01*
X8753722Y-6628222D02*
X8723722Y-6658222D01*
X8725140Y-4744960D02*
X8755140Y-4774960D01*
X8755140Y-4744960D02*
X8725140Y-4774960D01*
X8748000Y-13955000D02*
X8778000Y-13985000D01*
X8778000Y-13955000D02*
X8748000Y-13985000D01*
X8758903Y-15426403D02*
X8788903Y-15456403D01*
X8788903Y-15426403D02*
X8758903Y-15456403D01*
X8765780Y-6147040D02*
X8795780Y-6177040D01*
X8795780Y-6147040D02*
X8765780Y-6177040D01*
X8811500Y-9319500D02*
X8841500Y-9349500D01*
X8841500Y-9319500D02*
X8811500Y-9349500D01*
X8811500Y-10018000D02*
X8841500Y-10048000D01*
X8841500Y-10018000D02*
X8811500Y-10048000D01*
X8811500Y-10098320D02*
X8841500Y-10128320D01*
X8841500Y-10098320D02*
X8811500Y-10128320D01*
X8875000Y-13193000D02*
X8905000Y-13223000D01*
X8905000Y-13193000D02*
X8875000Y-13223000D01*
X8875000Y-13320000D02*
X8905000Y-13350000D01*
X8905000Y-13320000D02*
X8875000Y-13350000D01*
X8875000Y-16812500D02*
X8905000Y-16842500D01*
X8905000Y-16812500D02*
X8875000Y-16842500D01*
X8897860Y-5809220D02*
X8927860Y-5839220D01*
X8927860Y-5809220D02*
X8897860Y-5839220D01*
X8937097Y-5701403D02*
X8967097Y-5731403D01*
X8967097Y-5701403D02*
X8937097Y-5731403D01*
X8953740Y-13261580D02*
X8983740Y-13291580D01*
X8983740Y-13261580D02*
X8953740Y-13291580D01*
X9002000Y-10399000D02*
X9032000Y-10429000D01*
X9032000Y-10399000D02*
X9002000Y-10429000D01*
X9047720Y-9824960D02*
X9077720Y-9854960D01*
X9077720Y-9824960D02*
X9047720Y-9854960D01*
X9065500Y-6335000D02*
X9095500Y-6365000D01*
X9095500Y-6335000D02*
X9065500Y-6365000D01*
X9065500Y-6716000D02*
X9095500Y-6746000D01*
X9095500Y-6716000D02*
X9065500Y-6746000D01*
X9065500Y-13613500D02*
X9095500Y-13643500D01*
X9095500Y-13613500D02*
X9065500Y-13643500D01*
X9065500Y-13764500D02*
X9095500Y-13794500D01*
X9095500Y-13764500D02*
X9065500Y-13794500D01*
X9065500Y-14018500D02*
X9095500Y-14048500D01*
X9095500Y-14018500D02*
X9065500Y-14048500D01*
X9178500Y-7732000D02*
X9208500Y-7762000D01*
X9208500Y-7732000D02*
X9178500Y-7762000D01*
X9192500Y-5700000D02*
X9222500Y-5730000D01*
X9222500Y-5700000D02*
X9192500Y-5730000D01*
X9192500Y-14272500D02*
X9222500Y-14302500D01*
X9222500Y-14272500D02*
X9192500Y-14302500D01*
X9256000Y-8621000D02*
X9286000Y-8651000D01*
X9286000Y-8621000D02*
X9256000Y-8651000D01*
X9256000Y-13193000D02*
X9286000Y-13223000D01*
X9286000Y-13193000D02*
X9256000Y-13223000D01*
X9256000Y-15987000D02*
X9286000Y-16017000D01*
X9286000Y-15987000D02*
X9256000Y-16017000D01*
X9383000Y-5890500D02*
X9413000Y-5920500D01*
X9413000Y-5890500D02*
X9383000Y-5920500D01*
X9446500Y-6716000D02*
X9476500Y-6746000D01*
X9476500Y-6716000D02*
X9446500Y-6746000D01*
X9446500Y-7795500D02*
X9476500Y-7825500D01*
X9476500Y-7795500D02*
X9446500Y-7825500D01*
X9446500Y-10018000D02*
X9476500Y-10048000D01*
X9476500Y-10018000D02*
X9446500Y-10048000D01*
X9700500Y-15415500D02*
X9730500Y-15445500D01*
X9730500Y-15415500D02*
X9700500Y-15445500D01*
X9764000Y-15796500D02*
X9794000Y-15826500D01*
X9794000Y-15796500D02*
X9764000Y-15826500D01*
X9825680Y-16177500D02*
X9855680Y-16207500D01*
X9855680Y-16177500D02*
X9825680Y-16207500D01*
X9891000Y-14018500D02*
X9921000Y-14048500D01*
X9921000Y-14018500D02*
X9891000Y-14048500D01*
X10335500Y-8494000D02*
X10365500Y-8524000D01*
X10365500Y-8494000D02*
X10335500Y-8524000D01*
X10462500Y-17193500D02*
X10492500Y-17223500D01*
X10492500Y-17193500D02*
X10462500Y-17223500D01*
X4856000Y-5143500D02*
G75*
G02*
X4796000Y-5143500I-30000J0D01*
G01*
X4796000Y-5143500D02*
G75*
G02*
X4856000Y-5143500I30000J0D01*
G01*
X4876000Y-5113500D02*
X4776000Y-5113500D01*
X4776000Y-5173500D02*
G75*
G02*
X4776000Y-5113500I0J30000D01*
G01*
X4776000Y-5173500D02*
X4876000Y-5173500D01*
X4876000Y-5173500D02*
G75*
G03*
X4876000Y-5113500I0J30000D01*
G01*
X4856000Y-5397500D02*
G75*
G02*
X4796000Y-5397500I-30000J0D01*
G01*
X4796000Y-5397500D02*
G75*
G02*
X4856000Y-5397500I30000J0D01*
G01*
X4876000Y-5367500D02*
X4776000Y-5367500D01*
X4776000Y-5427500D02*
G75*
G02*
X4776000Y-5367500I0J30000D01*
G01*
X4776000Y-5427500D02*
X4876000Y-5427500D01*
X4876000Y-5427500D02*
G75*
G03*
X4876000Y-5367500I0J30000D01*
G01*
X4856000Y-5651500D02*
G75*
G02*
X4796000Y-5651500I-30000J0D01*
G01*
X4796000Y-5651500D02*
G75*
G02*
X4856000Y-5651500I30000J0D01*
G01*
X4876000Y-5621500D02*
X4776000Y-5621500D01*
X4776000Y-5681500D02*
G75*
G02*
X4776000Y-5621500I0J30000D01*
G01*
X4776000Y-5681500D02*
X4876000Y-5681500D01*
X4876000Y-5681500D02*
G75*
G03*
X4876000Y-5621500I0J30000D01*
G01*
X4856000Y-8953500D02*
G75*
G02*
X4796000Y-8953500I-30000J0D01*
G01*
X4796000Y-8953500D02*
G75*
G02*
X4856000Y-8953500I30000J0D01*
G01*
X4876000Y-8923500D02*
X4776000Y-8923500D01*
X4776000Y-8983500D02*
G75*
G02*
X4776000Y-8923500I0J30000D01*
G01*
X4776000Y-8983500D02*
X4876000Y-8983500D01*
X4876000Y-8983500D02*
G75*
G03*
X4876000Y-8923500I0J30000D01*
G01*
X4856000Y-9207500D02*
G75*
G02*
X4796000Y-9207500I-30000J0D01*
G01*
X4796000Y-9207500D02*
G75*
G02*
X4856000Y-9207500I30000J0D01*
G01*
X4876000Y-9177500D02*
X4776000Y-9177500D01*
X4776000Y-9237500D02*
G75*
G02*
X4776000Y-9177500I0J30000D01*
G01*
X4776000Y-9237500D02*
X4876000Y-9237500D01*
X4876000Y-9237500D02*
G75*
G03*
X4876000Y-9177500I0J30000D01*
G01*
X4856000Y-9461500D02*
G75*
G02*
X4796000Y-9461500I-30000J0D01*
G01*
X4796000Y-9461500D02*
G75*
G02*
X4856000Y-9461500I30000J0D01*
G01*
X4876000Y-9431500D02*
X4776000Y-9431500D01*
X4776000Y-9491500D02*
G75*
G02*
X4776000Y-9431500I0J30000D01*
G01*
X4776000Y-9491500D02*
X4876000Y-9491500D01*
X4876000Y-9491500D02*
G75*
G03*
X4876000Y-9431500I0J30000D01*
G01*
X4856000Y-12763500D02*
G75*
G02*
X4796000Y-12763500I-30000J0D01*
G01*
X4796000Y-12763500D02*
G75*
G02*
X4856000Y-12763500I30000J0D01*
G01*
X4876000Y-12733500D02*
X4776000Y-12733500D01*
X4776000Y-12793500D02*
G75*
G02*
X4776000Y-12733500I0J30000D01*
G01*
X4776000Y-12793500D02*
X4876000Y-12793500D01*
X4876000Y-12793500D02*
G75*
G03*
X4876000Y-12733500I0J30000D01*
G01*
X4856000Y-13017500D02*
G75*
G02*
X4796000Y-13017500I-30000J0D01*
G01*
X4796000Y-13017500D02*
G75*
G02*
X4856000Y-13017500I30000J0D01*
G01*
X4876000Y-12987500D02*
X4776000Y-12987500D01*
X4776000Y-13047500D02*
G75*
G02*
X4776000Y-12987500I0J30000D01*
G01*
X4776000Y-13047500D02*
X4876000Y-13047500D01*
X4876000Y-13047500D02*
G75*
G03*
X4876000Y-12987500I0J30000D01*
G01*
X4856000Y-13271500D02*
G75*
G02*
X4796000Y-13271500I-30000J0D01*
G01*
X4796000Y-13271500D02*
G75*
G02*
X4856000Y-13271500I30000J0D01*
G01*
X4876000Y-13241500D02*
X4776000Y-13241500D01*
X4776000Y-13301500D02*
G75*
G02*
X4776000Y-13241500I0J30000D01*
G01*
X4776000Y-13301500D02*
X4876000Y-13301500D01*
X4876000Y-13301500D02*
G75*
G03*
X4876000Y-13241500I0J30000D01*
G01*
X8666000Y-3238500D02*
G75*
G02*
X8606000Y-3238500I-30000J0D01*
G01*
X8606000Y-3238500D02*
G75*
G02*
X8666000Y-3238500I30000J0D01*
G01*
X8686000Y-3208500D02*
X8586000Y-3208500D01*
X8586000Y-3268500D02*
G75*
G02*
X8586000Y-3208500I0J30000D01*
G01*
X8586000Y-3268500D02*
X8686000Y-3268500D01*
X8686000Y-3268500D02*
G75*
G03*
X8686000Y-3208500I0J30000D01*
G01*
X8666000Y-3492500D02*
G75*
G02*
X8606000Y-3492500I-30000J0D01*
G01*
X8606000Y-3492500D02*
G75*
G02*
X8666000Y-3492500I30000J0D01*
G01*
X8686000Y-3462500D02*
X8586000Y-3462500D01*
X8586000Y-3522500D02*
G75*
G02*
X8586000Y-3462500I0J30000D01*
G01*
X8586000Y-3522500D02*
X8686000Y-3522500D01*
X8686000Y-3522500D02*
G75*
G03*
X8686000Y-3462500I0J30000D01*
G01*
X8666000Y-3746500D02*
G75*
G02*
X8606000Y-3746500I-30000J0D01*
G01*
X8606000Y-3746500D02*
G75*
G02*
X8666000Y-3746500I30000J0D01*
G01*
X8686000Y-3716500D02*
X8586000Y-3716500D01*
X8586000Y-3776500D02*
G75*
G02*
X8586000Y-3716500I0J30000D01*
G01*
X8586000Y-3776500D02*
X8686000Y-3776500D01*
X8686000Y-3776500D02*
G75*
G03*
X8686000Y-3716500I0J30000D01*
G01*
X8666000Y-7048500D02*
G75*
G02*
X8606000Y-7048500I-30000J0D01*
G01*
X8606000Y-7048500D02*
G75*
G02*
X8666000Y-7048500I30000J0D01*
G01*
X8686000Y-7018500D02*
X8586000Y-7018500D01*
X8586000Y-7078500D02*
G75*
G02*
X8586000Y-7018500I0J30000D01*
G01*
X8586000Y-7078500D02*
X8686000Y-7078500D01*
X8686000Y-7078500D02*
G75*
G03*
X8686000Y-7018500I0J30000D01*
G01*
X8666000Y-7302500D02*
G75*
G02*
X8606000Y-7302500I-30000J0D01*
G01*
X8606000Y-7302500D02*
G75*
G02*
X8666000Y-7302500I30000J0D01*
G01*
X8686000Y-7272500D02*
X8586000Y-7272500D01*
X8586000Y-7332500D02*
G75*
G02*
X8586000Y-7272500I0J30000D01*
G01*
X8586000Y-7332500D02*
X8686000Y-7332500D01*
X8686000Y-7332500D02*
G75*
G03*
X8686000Y-7272500I0J30000D01*
G01*
X8666000Y-7556500D02*
G75*
G02*
X8606000Y-7556500I-30000J0D01*
G01*
X8606000Y-7556500D02*
G75*
G02*
X8666000Y-7556500I30000J0D01*
G01*
X8686000Y-7526500D02*
X8586000Y-7526500D01*
X8586000Y-7586500D02*
G75*
G02*
X8586000Y-7526500I0J30000D01*
G01*
X8586000Y-7586500D02*
X8686000Y-7586500D01*
X8686000Y-7586500D02*
G75*
G03*
X8686000Y-7526500I0J30000D01*
G01*
X8666000Y-10858500D02*
G75*
G02*
X8606000Y-10858500I-30000J0D01*
G01*
X8606000Y-10858500D02*
G75*
G02*
X8666000Y-10858500I30000J0D01*
G01*
X8686000Y-10828500D02*
X8586000Y-10828500D01*
X8586000Y-10888500D02*
G75*
G02*
X8586000Y-10828500I0J30000D01*
G01*
X8586000Y-10888500D02*
X8686000Y-10888500D01*
X8686000Y-10888500D02*
G75*
G03*
X8686000Y-10828500I0J30000D01*
G01*
X8666000Y-11112500D02*
G75*
G02*
X8606000Y-11112500I-30000J0D01*
G01*
X8606000Y-11112500D02*
G75*
G02*
X8666000Y-11112500I30000J0D01*
G01*
X8686000Y-11082500D02*
X8586000Y-11082500D01*
X8586000Y-11142500D02*
G75*
G02*
X8586000Y-11082500I0J30000D01*
G01*
X8586000Y-11142500D02*
X8686000Y-11142500D01*
X8686000Y-11142500D02*
G75*
G03*
X8686000Y-11082500I0J30000D01*
G01*
X8666000Y-11366500D02*
G75*
G02*
X8606000Y-11366500I-30000J0D01*
G01*
X8606000Y-11366500D02*
G75*
G02*
X8666000Y-11366500I30000J0D01*
G01*
X8686000Y-11336500D02*
X8586000Y-11336500D01*
X8586000Y-11396500D02*
G75*
G02*
X8586000Y-11336500I0J30000D01*
G01*
X8586000Y-11396500D02*
X8686000Y-11396500D01*
X8686000Y-11396500D02*
G75*
G03*
X8686000Y-11336500I0J30000D01*
G01*
X8666000Y-14668500D02*
G75*
G02*
X8606000Y-14668500I-30000J0D01*
G01*
X8606000Y-14668500D02*
G75*
G02*
X8666000Y-14668500I30000J0D01*
G01*
X8686000Y-14638500D02*
X8586000Y-14638500D01*
X8586000Y-14698500D02*
G75*
G02*
X8586000Y-14638500I0J30000D01*
G01*
X8586000Y-14698500D02*
X8686000Y-14698500D01*
X8686000Y-14698500D02*
G75*
G03*
X8686000Y-14638500I0J30000D01*
G01*
X8666000Y-14922500D02*
G75*
G02*
X8606000Y-14922500I-30000J0D01*
G01*
X8606000Y-14922500D02*
G75*
G02*
X8666000Y-14922500I30000J0D01*
G01*
X8686000Y-14892500D02*
X8586000Y-14892500D01*
X8586000Y-14952500D02*
G75*
G02*
X8586000Y-14892500I0J30000D01*
G01*
X8586000Y-14952500D02*
X8686000Y-14952500D01*
X8686000Y-14952500D02*
G75*
G03*
X8686000Y-14892500I0J30000D01*
G01*
X8666000Y-15176500D02*
G75*
G02*
X8606000Y-15176500I-30000J0D01*
G01*
X8606000Y-15176500D02*
G75*
G02*
X8666000Y-15176500I30000J0D01*
G01*
X8686000Y-15146500D02*
X8586000Y-15146500D01*
X8586000Y-15206500D02*
G75*
G02*
X8586000Y-15146500I0J30000D01*
G01*
X8586000Y-15206500D02*
X8686000Y-15206500D01*
X8686000Y-15206500D02*
G75*
G03*
X8686000Y-15146500I0J30000D01*
G01*
X5340489Y-4024000D02*
X5340489Y-4104000D01*
X5300489Y-4064000D02*
X5380489Y-4064000D01*
X5590489Y-4024000D02*
X5590489Y-4104000D01*
X5550489Y-4064000D02*
X5630489Y-4064000D01*
X5975489Y-4024000D02*
X5975489Y-4104000D01*
X5935489Y-4064000D02*
X6015489Y-4064000D01*
X6225489Y-4024000D02*
X6225489Y-4104000D01*
X6185489Y-4064000D02*
X6265489Y-4064000D01*
X4092737Y-4156237D02*
X4092737Y-4098763D01*
X4035263Y-4098763D01*
X4035263Y-4156237D01*
X4092737Y-4156237D01*
X4092737Y-7966237D02*
X4092737Y-7908763D01*
X4035263Y-7908763D01*
X4035263Y-7966237D01*
X4092737Y-7966237D01*
X4092737Y-11776237D02*
X4092737Y-11718763D01*
X4035263Y-11718763D01*
X4035263Y-11776237D01*
X4092737Y-11776237D01*
X4092737Y-15586237D02*
X4092737Y-15528763D01*
X4035263Y-15528763D01*
X4035263Y-15586237D01*
X4092737Y-15586237D01*
X4346737Y-4156237D02*
X4346737Y-4098763D01*
X4289263Y-4098763D01*
X4289263Y-4156237D01*
X4346737Y-4156237D01*
X4346737Y-7966237D02*
X4346737Y-7908763D01*
X4289263Y-7908763D01*
X4289263Y-7966237D01*
X4346737Y-7966237D01*
X4346737Y-11776237D02*
X4346737Y-11718763D01*
X4289263Y-11718763D01*
X4289263Y-11776237D01*
X4346737Y-11776237D01*
X4346737Y-15586237D02*
X4346737Y-15528763D01*
X4289263Y-15528763D01*
X4289263Y-15586237D01*
X4346737Y-15586237D01*
X6632737Y-4156237D02*
X6632737Y-4098763D01*
X6575263Y-4098763D01*
X6575263Y-4156237D01*
X6632737Y-4156237D01*
X6632737Y-7966237D02*
X6632737Y-7908763D01*
X6575263Y-7908763D01*
X6575263Y-7966237D01*
X6632737Y-7966237D01*
X6632737Y-11776237D02*
X6632737Y-11718763D01*
X6575263Y-11718763D01*
X6575263Y-11776237D01*
X6632737Y-11776237D01*
X6632737Y-15586237D02*
X6632737Y-15528763D01*
X6575263Y-15528763D01*
X6575263Y-15586237D01*
X6632737Y-15586237D01*
X6886737Y-4156237D02*
X6886737Y-4098763D01*
X6829263Y-4098763D01*
X6829263Y-4156237D01*
X6886737Y-4156237D01*
X6886737Y-7966237D02*
X6886737Y-7908763D01*
X6829263Y-7908763D01*
X6829263Y-7966237D01*
X6886737Y-7966237D01*
X6886737Y-11776237D02*
X6886737Y-11718763D01*
X6829263Y-11718763D01*
X6829263Y-11776237D01*
X6886737Y-11776237D01*
X6886737Y-15586237D02*
X6886737Y-15528763D01*
X6829263Y-15528763D01*
X6829263Y-15586237D01*
X6886737Y-15586237D01*
X7116000Y-6147500D02*
X7166000Y-6097500D01*
X7116000Y-6047500D01*
X7066000Y-6097500D01*
X7116000Y-6147500D01*
X7116000Y-9957500D02*
X7166000Y-9907500D01*
X7116000Y-9857500D01*
X7066000Y-9907500D01*
X7116000Y-9957500D01*
X7116000Y-13767500D02*
X7166000Y-13717500D01*
X7116000Y-13667500D01*
X7066000Y-13717500D01*
X7116000Y-13767500D01*
X7116000Y-17577500D02*
X7166000Y-17527500D01*
X7116000Y-17477500D01*
X7066000Y-17527500D01*
X7116000Y-17577500D01*
X7366000Y-6147500D02*
X7416000Y-6097500D01*
X7366000Y-6047500D01*
X7316000Y-6097500D01*
X7366000Y-6147500D01*
X7366000Y-9957500D02*
X7416000Y-9907500D01*
X7366000Y-9857500D01*
X7316000Y-9907500D01*
X7366000Y-9957500D01*
X7366000Y-13767500D02*
X7416000Y-13717500D01*
X7366000Y-13667500D01*
X7316000Y-13717500D01*
X7366000Y-13767500D01*
X7366000Y-17577500D02*
X7416000Y-17527500D01*
X7366000Y-17477500D01*
X7316000Y-17527500D01*
X7366000Y-17577500D01*
X7616000Y-6147500D02*
X7666000Y-6097500D01*
X7616000Y-6047500D01*
X7566000Y-6097500D01*
X7616000Y-6147500D01*
X7616000Y-9957500D02*
X7666000Y-9907500D01*
X7616000Y-9857500D01*
X7566000Y-9907500D01*
X7616000Y-9957500D01*
X7616000Y-13767500D02*
X7666000Y-13717500D01*
X7616000Y-13667500D01*
X7566000Y-13717500D01*
X7616000Y-13767500D01*
X7616000Y-17577500D02*
X7666000Y-17527500D01*
X7616000Y-17477500D01*
X7566000Y-17527500D01*
X7616000Y-17577500D01*
X9656000Y-6147500D02*
X9706000Y-6097500D01*
X9656000Y-6047500D01*
X9606000Y-6097500D01*
X9656000Y-6147500D01*
X9656000Y-9957500D02*
X9706000Y-9907500D01*
X9656000Y-9857500D01*
X9606000Y-9907500D01*
X9656000Y-9957500D01*
X9656000Y-13767500D02*
X9706000Y-13717500D01*
X9656000Y-13667500D01*
X9606000Y-13717500D01*
X9656000Y-13767500D01*
X9656000Y-17577500D02*
X9706000Y-17527500D01*
X9656000Y-17477500D01*
X9606000Y-17527500D01*
X9656000Y-17577500D01*
X9906000Y-6147500D02*
X9956000Y-6097500D01*
X9906000Y-6047500D01*
X9856000Y-6097500D01*
X9906000Y-6147500D01*
X9906000Y-9957500D02*
X9956000Y-9907500D01*
X9906000Y-9857500D01*
X9856000Y-9907500D01*
X9906000Y-9957500D01*
X9906000Y-13767500D02*
X9956000Y-13717500D01*
X9906000Y-13667500D01*
X9856000Y-13717500D01*
X9906000Y-13767500D01*
X9906000Y-17577500D02*
X9956000Y-17527500D01*
X9906000Y-17477500D01*
X9856000Y-17527500D01*
X9906000Y-17577500D01*
X10156000Y-6147500D02*
X10206000Y-6097500D01*
X10156000Y-6047500D01*
X10106000Y-6097500D01*
X10156000Y-6147500D01*
X10156000Y-9957500D02*
X10206000Y-9907500D01*
X10156000Y-9857500D01*
X10106000Y-9907500D01*
X10156000Y-9957500D01*
X10156000Y-13767500D02*
X10206000Y-13717500D01*
X10156000Y-13667500D01*
X10106000Y-13717500D01*
X10156000Y-13767500D01*
X10156000Y-17577500D02*
X10206000Y-17527500D01*
X10156000Y-17477500D01*
X10106000Y-17527500D01*
X10156000Y-17577500D01*
D12*
X4775200Y-3802700D02*
X4876800Y-3904300D01*
X4876800Y-3802700D02*
X4775200Y-3904300D01*
X4876800Y-3853500D02*
G75*
G02*
X4775200Y-3853500I-50800J0D01*
G01*
X4775200Y-3853500D02*
G75*
G02*
X4876800Y-3853500I50800J0D01*
G01*
X4775200Y-7612700D02*
X4876800Y-7714300D01*
X4876800Y-7612700D02*
X4775200Y-7714300D01*
X4876800Y-7663500D02*
G75*
G02*
X4775200Y-7663500I-50800J0D01*
G01*
X4775200Y-7663500D02*
G75*
G02*
X4876800Y-7663500I50800J0D01*
G01*
X4775200Y-11422700D02*
X4876800Y-11524300D01*
X4876800Y-11422700D02*
X4775200Y-11524300D01*
X4876800Y-11473500D02*
G75*
G02*
X4775200Y-11473500I-50800J0D01*
G01*
X4775200Y-11473500D02*
G75*
G02*
X4876800Y-11473500I50800J0D01*
G01*
X4775200Y-15232700D02*
X4876800Y-15334300D01*
X4876800Y-15232700D02*
X4775200Y-15334300D01*
X4876800Y-15283500D02*
G75*
G02*
X4775200Y-15283500I-50800J0D01*
G01*
X4775200Y-15283500D02*
G75*
G02*
X4876800Y-15283500I50800J0D01*
G01*
X7315200Y-3802700D02*
X7416800Y-3904300D01*
X7416800Y-3802700D02*
X7315200Y-3904300D01*
X7416800Y-3853500D02*
G75*
G02*
X7315200Y-3853500I-50800J0D01*
G01*
X7315200Y-3853500D02*
G75*
G02*
X7416800Y-3853500I50800J0D01*
G01*
X7315200Y-7612700D02*
X7416800Y-7714300D01*
X7416800Y-7612700D02*
X7315200Y-7714300D01*
X7416800Y-7663500D02*
G75*
G02*
X7315200Y-7663500I-50800J0D01*
G01*
X7315200Y-7663500D02*
G75*
G02*
X7416800Y-7663500I50800J0D01*
G01*
X7315200Y-11422700D02*
X7416800Y-11524300D01*
X7416800Y-11422700D02*
X7315200Y-11524300D01*
X7416800Y-11473500D02*
G75*
G02*
X7315200Y-11473500I-50800J0D01*
G01*
X7315200Y-11473500D02*
G75*
G02*
X7416800Y-11473500I50800J0D01*
G01*
X7315200Y-15232700D02*
X7416800Y-15334300D01*
X7416800Y-15232700D02*
X7315200Y-15334300D01*
X7416800Y-15283500D02*
G75*
G02*
X7315200Y-15283500I-50800J0D01*
G01*
X7315200Y-15283500D02*
G75*
G02*
X7416800Y-15283500I50800J0D01*
G01*
X9855200Y-3802700D02*
X9956800Y-3904300D01*
X9956800Y-3802700D02*
X9855200Y-3904300D01*
X9956800Y-3853500D02*
G75*
G02*
X9855200Y-3853500I-50800J0D01*
G01*
X9855200Y-3853500D02*
G75*
G02*
X9956800Y-3853500I50800J0D01*
G01*
X9855200Y-7612700D02*
X9956800Y-7714300D01*
X9956800Y-7612700D02*
X9855200Y-7714300D01*
X9956800Y-7663500D02*
G75*
G02*
X9855200Y-7663500I-50800J0D01*
G01*
X9855200Y-7663500D02*
G75*
G02*
X9956800Y-7663500I50800J0D01*
G01*
X9855200Y-11422700D02*
X9956800Y-11524300D01*
X9956800Y-11422700D02*
X9855200Y-11524300D01*
X9956800Y-11473500D02*
G75*
G02*
X9855200Y-11473500I-50800J0D01*
G01*
X9855200Y-11473500D02*
G75*
G02*
X9956800Y-11473500I50800J0D01*
G01*
X9855200Y-15232700D02*
X9956800Y-15334300D01*
X9956800Y-15232700D02*
X9855200Y-15334300D01*
X9956800Y-15283500D02*
G75*
G02*
X9855200Y-15283500I-50800J0D01*
G01*
X9855200Y-15283500D02*
G75*
G02*
X9956800Y-15283500I50800J0D01*
G01*
D13*
X5655500Y-2990500D02*
X5774500Y-3109500D01*
X5774500Y-2990500D02*
X5655500Y-3109500D01*
X5715000Y-2990500D02*
X5715000Y-3109500D01*
X5655500Y-3050000D02*
X5774500Y-3050000D01*
X5909500Y-2990500D02*
X6028500Y-3109500D01*
X6028500Y-2990500D02*
X5909500Y-3109500D01*
X5969000Y-2990500D02*
X5969000Y-3109500D01*
X5909500Y-3050000D02*
X6028500Y-3050000D01*
X6163500Y-2990500D02*
X6282500Y-3109500D01*
X6282500Y-2990500D02*
X6163500Y-3109500D01*
X6223000Y-2990500D02*
X6223000Y-3109500D01*
X6163500Y-3050000D02*
X6282500Y-3050000D01*
X6417500Y-2990500D02*
X6536500Y-3109500D01*
X6536500Y-2990500D02*
X6417500Y-3109500D01*
X6477000Y-2990500D02*
X6477000Y-3109500D01*
X6417500Y-3050000D02*
X6536500Y-3050000D01*
D14*
X6821000Y-5322500D02*
X6971000Y-5472500D01*
X6971000Y-5322500D02*
X6821000Y-5472500D01*
X6949033Y-5450534D02*
X6949033Y-5344467D01*
X6842966Y-5344467D01*
X6842966Y-5450534D01*
X6949033Y-5450534D01*
X6821000Y-9132500D02*
X6971000Y-9282500D01*
X6971000Y-9132500D02*
X6821000Y-9282500D01*
X6949033Y-9260534D02*
X6949033Y-9154467D01*
X6842966Y-9154467D01*
X6842966Y-9260534D01*
X6949033Y-9260534D01*
X6821000Y-12942500D02*
X6971000Y-13092500D01*
X6971000Y-12942500D02*
X6821000Y-13092500D01*
X6949033Y-13070533D02*
X6949033Y-12964466D01*
X6842966Y-12964466D01*
X6842966Y-13070533D01*
X6949033Y-13070533D01*
X6821000Y-16752500D02*
X6971000Y-16902500D01*
X6971000Y-16752500D02*
X6821000Y-16902500D01*
X6949033Y-16880534D02*
X6949033Y-16774466D01*
X6842966Y-16774466D01*
X6842966Y-16880534D01*
X6949033Y-16880534D01*
X7761000Y-5322500D02*
X7911000Y-5472500D01*
X7911000Y-5322500D02*
X7761000Y-5472500D01*
X7889033Y-5450534D02*
X7889033Y-5344467D01*
X7782966Y-5344467D01*
X7782966Y-5450534D01*
X7889033Y-5450534D01*
X7761000Y-9132500D02*
X7911000Y-9282500D01*
X7911000Y-9132500D02*
X7761000Y-9282500D01*
X7889033Y-9260534D02*
X7889033Y-9154467D01*
X7782966Y-9154467D01*
X7782966Y-9260534D01*
X7889033Y-9260534D01*
X7761000Y-12942500D02*
X7911000Y-13092500D01*
X7911000Y-12942500D02*
X7761000Y-13092500D01*
X7889033Y-13070533D02*
X7889033Y-12964466D01*
X7782966Y-12964466D01*
X7782966Y-13070533D01*
X7889033Y-13070533D01*
X7761000Y-16752500D02*
X7911000Y-16902500D01*
X7911000Y-16752500D02*
X7761000Y-16902500D01*
X7889033Y-16880534D02*
X7889033Y-16774466D01*
X7782966Y-16774466D01*
X7782966Y-16880534D01*
X7889033Y-16880534D01*
X9361000Y-5322500D02*
X9511000Y-5472500D01*
X9511000Y-5322500D02*
X9361000Y-5472500D01*
X9489034Y-5450534D02*
X9489034Y-5344467D01*
X9382967Y-5344467D01*
X9382967Y-5450534D01*
X9489034Y-5450534D01*
X9361000Y-9132500D02*
X9511000Y-9282500D01*
X9511000Y-9132500D02*
X9361000Y-9282500D01*
X9489034Y-9260534D02*
X9489034Y-9154467D01*
X9382967Y-9154467D01*
X9382967Y-9260534D01*
X9489034Y-9260534D01*
X9361000Y-12942500D02*
X9511000Y-13092500D01*
X9511000Y-12942500D02*
X9361000Y-13092500D01*
X9489034Y-13070533D02*
X9489034Y-12964466D01*
X9382967Y-12964466D01*
X9382967Y-13070533D01*
X9489034Y-13070533D01*
X9361000Y-16752500D02*
X9511000Y-16902500D01*
X9511000Y-16752500D02*
X9361000Y-16902500D01*
X9489034Y-16880534D02*
X9489034Y-16774466D01*
X9382967Y-16774466D01*
X9382967Y-16880534D01*
X9489034Y-16880534D01*
X10301000Y-5322500D02*
X10451000Y-5472500D01*
X10451000Y-5322500D02*
X10301000Y-5472500D01*
X10429034Y-5450534D02*
X10429034Y-5344467D01*
X10322967Y-5344467D01*
X10322967Y-5450534D01*
X10429034Y-5450534D01*
X10301000Y-9132500D02*
X10451000Y-9282500D01*
X10451000Y-9132500D02*
X10301000Y-9282500D01*
X10429034Y-9260534D02*
X10429034Y-9154467D01*
X10322967Y-9154467D01*
X10322967Y-9260534D01*
X10429034Y-9260534D01*
X10301000Y-12942500D02*
X10451000Y-13092500D01*
X10451000Y-12942500D02*
X10301000Y-13092500D01*
X10429034Y-13070533D02*
X10429034Y-12964466D01*
X10322967Y-12964466D01*
X10322967Y-13070533D01*
X10429034Y-13070533D01*
X10301000Y-16752500D02*
X10451000Y-16902500D01*
X10451000Y-16752500D02*
X10301000Y-16902500D01*
X10429034Y-16880534D02*
X10429034Y-16774466D01*
X10322967Y-16774466D01*
X10322967Y-16880534D01*
X10429034Y-16880534D01*
D15*
X4591050Y-3257550D02*
X5060950Y-3727450D01*
X5060950Y-3257550D02*
X4591050Y-3727450D01*
X4826000Y-3727450D02*
X5060950Y-3492500D01*
X4826000Y-3257550D01*
X4591050Y-3492500D01*
X4826000Y-3727450D01*
X4591050Y-7067550D02*
X5060950Y-7537450D01*
X5060950Y-7067550D02*
X4591050Y-7537450D01*
X4826000Y-7537450D02*
X5060950Y-7302500D01*
X4826000Y-7067550D01*
X4591050Y-7302500D01*
X4826000Y-7537450D01*
X4591050Y-10877550D02*
X5060950Y-11347450D01*
X5060950Y-10877550D02*
X4591050Y-11347450D01*
X4826000Y-11347450D02*
X5060950Y-11112500D01*
X4826000Y-10877550D01*
X4591050Y-11112500D01*
X4826000Y-11347450D01*
X4591050Y-14687550D02*
X5060950Y-15157450D01*
X5060950Y-14687550D02*
X4591050Y-15157450D01*
X4826000Y-15157450D02*
X5060950Y-14922500D01*
X4826000Y-14687550D01*
X4591050Y-14922500D01*
X4826000Y-15157450D01*
X7131050Y-3257550D02*
X7600950Y-3727450D01*
X7600950Y-3257550D02*
X7131050Y-3727450D01*
X7366000Y-3727450D02*
X7600950Y-3492500D01*
X7366000Y-3257550D01*
X7131050Y-3492500D01*
X7366000Y-3727450D01*
X7131050Y-7067550D02*
X7600950Y-7537450D01*
X7600950Y-7067550D02*
X7131050Y-7537450D01*
X7366000Y-7537450D02*
X7600950Y-7302500D01*
X7366000Y-7067550D01*
X7131050Y-7302500D01*
X7366000Y-7537450D01*
X7131050Y-10877550D02*
X7600950Y-11347450D01*
X7600950Y-10877550D02*
X7131050Y-11347450D01*
X7366000Y-11347450D02*
X7600950Y-11112500D01*
X7366000Y-10877550D01*
X7131050Y-11112500D01*
X7366000Y-11347450D01*
X7131050Y-14687550D02*
X7600950Y-15157450D01*
X7600950Y-14687550D02*
X7131050Y-15157450D01*
X7366000Y-15157450D02*
X7600950Y-14922500D01*
X7366000Y-14687550D01*
X7131050Y-14922500D01*
X7366000Y-15157450D01*
X9671050Y-3257550D02*
X10140950Y-3727450D01*
X10140950Y-3257550D02*
X9671050Y-3727450D01*
X9906000Y-3727450D02*
X10140950Y-3492500D01*
X9906000Y-3257550D01*
X9671050Y-3492500D01*
X9906000Y-3727450D01*
X9671050Y-7067550D02*
X10140950Y-7537450D01*
X10140950Y-7067550D02*
X9671050Y-7537450D01*
X9906000Y-7537450D02*
X10140950Y-7302500D01*
X9906000Y-7067550D01*
X9671050Y-7302500D01*
X9906000Y-7537450D01*
X9671050Y-10877550D02*
X10140950Y-11347450D01*
X10140950Y-10877550D02*
X9671050Y-11347450D01*
X9906000Y-11347450D02*
X10140950Y-11112500D01*
X9906000Y-10877550D01*
X9671050Y-11112500D01*
X9906000Y-11347450D01*
X9671050Y-14687550D02*
X10140950Y-15157450D01*
X10140950Y-14687550D02*
X9671050Y-15157450D01*
X9906000Y-15157450D02*
X10140950Y-14922500D01*
X9906000Y-14687550D01*
X9671050Y-14922500D01*
X9906000Y-15157450D01*
D10*
X3870277Y-18037984D02*
X3870277Y-17837984D01*
X3870277Y-17837984D02*
X3917896Y-17837984D01*
X3917896Y-17837984D02*
X3946467Y-17847508D01*
X3946467Y-17847508D02*
X3965515Y-17866555D01*
X3965515Y-17866555D02*
X3975039Y-17885603D01*
X3975039Y-17885603D02*
X3984562Y-17923698D01*
X3984562Y-17923698D02*
X3984562Y-17952270D01*
X3984562Y-17952270D02*
X3975039Y-17990365D01*
X3975039Y-17990365D02*
X3965515Y-18009412D01*
X3965515Y-18009412D02*
X3946467Y-18028460D01*
X3946467Y-18028460D02*
X3917896Y-18037984D01*
X3917896Y-18037984D02*
X3870277Y-18037984D01*
X4070277Y-18037984D02*
X4070277Y-17904650D01*
X4070277Y-17942746D02*
X4079801Y-17923698D01*
X4079801Y-17923698D02*
X4089324Y-17914174D01*
X4089324Y-17914174D02*
X4108372Y-17904650D01*
X4108372Y-17904650D02*
X4127420Y-17904650D01*
X4194086Y-18037984D02*
X4194086Y-17904650D01*
X4194086Y-17837984D02*
X4184562Y-17847508D01*
X4184562Y-17847508D02*
X4194086Y-17857031D01*
X4194086Y-17857031D02*
X4203610Y-17847508D01*
X4203610Y-17847508D02*
X4194086Y-17837984D01*
X4194086Y-17837984D02*
X4194086Y-17857031D01*
X4317896Y-18037984D02*
X4298848Y-18028460D01*
X4298848Y-18028460D02*
X4289324Y-18009412D01*
X4289324Y-18009412D02*
X4289324Y-17837984D01*
X4422658Y-18037984D02*
X4403610Y-18028460D01*
X4403610Y-18028460D02*
X4394086Y-18009412D01*
X4394086Y-18009412D02*
X4394086Y-17837984D01*
X4651229Y-18037984D02*
X4651229Y-17837984D01*
X4651229Y-17837984D02*
X4717896Y-17980841D01*
X4717896Y-17980841D02*
X4784563Y-17837984D01*
X4784563Y-17837984D02*
X4784563Y-18037984D01*
X4965515Y-18037984D02*
X4965515Y-17933222D01*
X4965515Y-17933222D02*
X4955991Y-17914174D01*
X4955991Y-17914174D02*
X4936944Y-17904650D01*
X4936944Y-17904650D02*
X4898848Y-17904650D01*
X4898848Y-17904650D02*
X4879801Y-17914174D01*
X4965515Y-18028460D02*
X4946467Y-18037984D01*
X4946467Y-18037984D02*
X4898848Y-18037984D01*
X4898848Y-18037984D02*
X4879801Y-18028460D01*
X4879801Y-18028460D02*
X4870277Y-18009412D01*
X4870277Y-18009412D02*
X4870277Y-17990365D01*
X4870277Y-17990365D02*
X4879801Y-17971317D01*
X4879801Y-17971317D02*
X4898848Y-17961793D01*
X4898848Y-17961793D02*
X4946467Y-17961793D01*
X4946467Y-17961793D02*
X4965515Y-17952270D01*
X5060753Y-17904650D02*
X5060753Y-18104650D01*
X5060753Y-17914174D02*
X5079801Y-17904650D01*
X5079801Y-17904650D02*
X5117896Y-17904650D01*
X5117896Y-17904650D02*
X5136944Y-17914174D01*
X5136944Y-17914174D02*
X5146467Y-17923698D01*
X5146467Y-17923698D02*
X5155991Y-17942746D01*
X5155991Y-17942746D02*
X5155991Y-17999889D01*
X5155991Y-17999889D02*
X5146467Y-18018936D01*
X5146467Y-18018936D02*
X5136944Y-18028460D01*
X5136944Y-18028460D02*
X5117896Y-18037984D01*
X5117896Y-18037984D02*
X5079801Y-18037984D01*
X5079801Y-18037984D02*
X5060753Y-18028460D01*
X5241705Y-18018936D02*
X5251229Y-18028460D01*
X5251229Y-18028460D02*
X5241705Y-18037984D01*
X5241705Y-18037984D02*
X5232182Y-18028460D01*
X5232182Y-18028460D02*
X5241705Y-18018936D01*
X5241705Y-18018936D02*
X5241705Y-18037984D01*
X5241705Y-17914174D02*
X5251229Y-17923698D01*
X5251229Y-17923698D02*
X5241705Y-17933222D01*
X5241705Y-17933222D02*
X5232182Y-17923698D01*
X5232182Y-17923698D02*
X5241705Y-17914174D01*
X5241705Y-17914174D02*
X5241705Y-17933222D01*
D11*
X3579500Y-18351500D02*
X3609500Y-18381500D01*
X3609500Y-18351500D02*
X3579500Y-18381500D01*
D10*
X3908372Y-18257984D02*
X3927420Y-18257984D01*
X3927420Y-18257984D02*
X3946467Y-18267508D01*
X3946467Y-18267508D02*
X3955991Y-18277031D01*
X3955991Y-18277031D02*
X3965515Y-18296079D01*
X3965515Y-18296079D02*
X3975039Y-18334174D01*
X3975039Y-18334174D02*
X3975039Y-18381793D01*
X3975039Y-18381793D02*
X3965515Y-18419889D01*
X3965515Y-18419889D02*
X3955991Y-18438936D01*
X3955991Y-18438936D02*
X3946467Y-18448460D01*
X3946467Y-18448460D02*
X3927420Y-18457984D01*
X3927420Y-18457984D02*
X3908372Y-18457984D01*
X3908372Y-18457984D02*
X3889324Y-18448460D01*
X3889324Y-18448460D02*
X3879801Y-18438936D01*
X3879801Y-18438936D02*
X3870277Y-18419889D01*
X3870277Y-18419889D02*
X3860753Y-18381793D01*
X3860753Y-18381793D02*
X3860753Y-18334174D01*
X3860753Y-18334174D02*
X3870277Y-18296079D01*
X3870277Y-18296079D02*
X3879801Y-18277031D01*
X3879801Y-18277031D02*
X3889324Y-18267508D01*
X3889324Y-18267508D02*
X3908372Y-18257984D01*
X4060753Y-18438936D02*
X4070277Y-18448460D01*
X4070277Y-18448460D02*
X4060753Y-18457984D01*
X4060753Y-18457984D02*
X4051229Y-18448460D01*
X4051229Y-18448460D02*
X4060753Y-18438936D01*
X4060753Y-18438936D02*
X4060753Y-18457984D01*
X4136943Y-18257984D02*
X4260753Y-18257984D01*
X4260753Y-18257984D02*
X4194086Y-18334174D01*
X4194086Y-18334174D02*
X4222658Y-18334174D01*
X4222658Y-18334174D02*
X4241705Y-18343698D01*
X4241705Y-18343698D02*
X4251229Y-18353222D01*
X4251229Y-18353222D02*
X4260753Y-18372270D01*
X4260753Y-18372270D02*
X4260753Y-18419889D01*
X4260753Y-18419889D02*
X4251229Y-18438936D01*
X4251229Y-18438936D02*
X4241705Y-18448460D01*
X4241705Y-18448460D02*
X4222658Y-18457984D01*
X4222658Y-18457984D02*
X4165515Y-18457984D01*
X4165515Y-18457984D02*
X4146467Y-18448460D01*
X4146467Y-18448460D02*
X4136943Y-18438936D01*
X4384563Y-18257984D02*
X4403610Y-18257984D01*
X4403610Y-18257984D02*
X4422658Y-18267508D01*
X4422658Y-18267508D02*
X4432182Y-18277031D01*
X4432182Y-18277031D02*
X4441705Y-18296079D01*
X4441705Y-18296079D02*
X4451229Y-18334174D01*
X4451229Y-18334174D02*
X4451229Y-18381793D01*
X4451229Y-18381793D02*
X4441705Y-18419889D01*
X4441705Y-18419889D02*
X4432182Y-18438936D01*
X4432182Y-18438936D02*
X4422658Y-18448460D01*
X4422658Y-18448460D02*
X4403610Y-18457984D01*
X4403610Y-18457984D02*
X4384563Y-18457984D01*
X4384563Y-18457984D02*
X4365515Y-18448460D01*
X4365515Y-18448460D02*
X4355991Y-18438936D01*
X4355991Y-18438936D02*
X4346467Y-18419889D01*
X4346467Y-18419889D02*
X4336944Y-18381793D01*
X4336944Y-18381793D02*
X4336944Y-18334174D01*
X4336944Y-18334174D02*
X4346467Y-18296079D01*
X4346467Y-18296079D02*
X4355991Y-18277031D01*
X4355991Y-18277031D02*
X4365515Y-18267508D01*
X4365515Y-18267508D02*
X4384563Y-18257984D01*
X4575039Y-18257984D02*
X4594086Y-18257984D01*
X4594086Y-18257984D02*
X4613134Y-18267508D01*
X4613134Y-18267508D02*
X4622658Y-18277031D01*
X4622658Y-18277031D02*
X4632182Y-18296079D01*
X4632182Y-18296079D02*
X4641705Y-18334174D01*
X4641705Y-18334174D02*
X4641705Y-18381793D01*
X4641705Y-18381793D02*
X4632182Y-18419889D01*
X4632182Y-18419889D02*
X4622658Y-18438936D01*
X4622658Y-18438936D02*
X4613134Y-18448460D01*
X4613134Y-18448460D02*
X4594086Y-18457984D01*
X4594086Y-18457984D02*
X4575039Y-18457984D01*
X4575039Y-18457984D02*
X4555991Y-18448460D01*
X4555991Y-18448460D02*
X4546467Y-18438936D01*
X4546467Y-18438936D02*
X4536944Y-18419889D01*
X4536944Y-18419889D02*
X4527420Y-18381793D01*
X4527420Y-18381793D02*
X4527420Y-18334174D01*
X4527420Y-18334174D02*
X4536944Y-18296079D01*
X4536944Y-18296079D02*
X4546467Y-18277031D01*
X4546467Y-18277031D02*
X4555991Y-18267508D01*
X4555991Y-18267508D02*
X4575039Y-18257984D01*
X4727420Y-18457984D02*
X4727420Y-18324650D01*
X4727420Y-18343698D02*
X4736944Y-18334174D01*
X4736944Y-18334174D02*
X4755991Y-18324650D01*
X4755991Y-18324650D02*
X4784563Y-18324650D01*
X4784563Y-18324650D02*
X4803610Y-18334174D01*
X4803610Y-18334174D02*
X4813134Y-18353222D01*
X4813134Y-18353222D02*
X4813134Y-18457984D01*
X4813134Y-18353222D02*
X4822658Y-18334174D01*
X4822658Y-18334174D02*
X4841705Y-18324650D01*
X4841705Y-18324650D02*
X4870277Y-18324650D01*
X4870277Y-18324650D02*
X4889325Y-18334174D01*
X4889325Y-18334174D02*
X4898848Y-18353222D01*
X4898848Y-18353222D02*
X4898848Y-18457984D01*
X4994086Y-18457984D02*
X4994086Y-18324650D01*
X4994086Y-18343698D02*
X5003610Y-18334174D01*
X5003610Y-18334174D02*
X5022658Y-18324650D01*
X5022658Y-18324650D02*
X5051229Y-18324650D01*
X5051229Y-18324650D02*
X5070277Y-18334174D01*
X5070277Y-18334174D02*
X5079801Y-18353222D01*
X5079801Y-18353222D02*
X5079801Y-18457984D01*
X5079801Y-18353222D02*
X5089325Y-18334174D01*
X5089325Y-18334174D02*
X5108372Y-18324650D01*
X5108372Y-18324650D02*
X5136944Y-18324650D01*
X5136944Y-18324650D02*
X5155991Y-18334174D01*
X5155991Y-18334174D02*
X5165515Y-18353222D01*
X5165515Y-18353222D02*
X5165515Y-18457984D01*
X5555991Y-18248460D02*
X5384563Y-18505603D01*
X5813134Y-18257984D02*
X5832182Y-18257984D01*
X5832182Y-18257984D02*
X5851229Y-18267508D01*
X5851229Y-18267508D02*
X5860753Y-18277031D01*
X5860753Y-18277031D02*
X5870277Y-18296079D01*
X5870277Y-18296079D02*
X5879801Y-18334174D01*
X5879801Y-18334174D02*
X5879801Y-18381793D01*
X5879801Y-18381793D02*
X5870277Y-18419889D01*
X5870277Y-18419889D02*
X5860753Y-18438936D01*
X5860753Y-18438936D02*
X5851229Y-18448460D01*
X5851229Y-18448460D02*
X5832182Y-18457984D01*
X5832182Y-18457984D02*
X5813134Y-18457984D01*
X5813134Y-18457984D02*
X5794086Y-18448460D01*
X5794086Y-18448460D02*
X5784563Y-18438936D01*
X5784563Y-18438936D02*
X5775039Y-18419889D01*
X5775039Y-18419889D02*
X5765515Y-18381793D01*
X5765515Y-18381793D02*
X5765515Y-18334174D01*
X5765515Y-18334174D02*
X5775039Y-18296079D01*
X5775039Y-18296079D02*
X5784563Y-18277031D01*
X5784563Y-18277031D02*
X5794086Y-18267508D01*
X5794086Y-18267508D02*
X5813134Y-18257984D01*
X5965515Y-18438936D02*
X5975039Y-18448460D01*
X5975039Y-18448460D02*
X5965515Y-18457984D01*
X5965515Y-18457984D02*
X5955991Y-18448460D01*
X5955991Y-18448460D02*
X5965515Y-18438936D01*
X5965515Y-18438936D02*
X5965515Y-18457984D01*
X6098848Y-18257984D02*
X6117896Y-18257984D01*
X6117896Y-18257984D02*
X6136944Y-18267508D01*
X6136944Y-18267508D02*
X6146467Y-18277031D01*
X6146467Y-18277031D02*
X6155991Y-18296079D01*
X6155991Y-18296079D02*
X6165515Y-18334174D01*
X6165515Y-18334174D02*
X6165515Y-18381793D01*
X6165515Y-18381793D02*
X6155991Y-18419889D01*
X6155991Y-18419889D02*
X6146467Y-18438936D01*
X6146467Y-18438936D02*
X6136944Y-18448460D01*
X6136944Y-18448460D02*
X6117896Y-18457984D01*
X6117896Y-18457984D02*
X6098848Y-18457984D01*
X6098848Y-18457984D02*
X6079801Y-18448460D01*
X6079801Y-18448460D02*
X6070277Y-18438936D01*
X6070277Y-18438936D02*
X6060753Y-18419889D01*
X6060753Y-18419889D02*
X6051229Y-18381793D01*
X6051229Y-18381793D02*
X6051229Y-18334174D01*
X6051229Y-18334174D02*
X6060753Y-18296079D01*
X6060753Y-18296079D02*
X6070277Y-18277031D01*
X6070277Y-18277031D02*
X6079801Y-18267508D01*
X6079801Y-18267508D02*
X6098848Y-18257984D01*
X6355991Y-18457984D02*
X6241706Y-18457984D01*
X6298848Y-18457984D02*
X6298848Y-18257984D01*
X6298848Y-18257984D02*
X6279801Y-18286555D01*
X6279801Y-18286555D02*
X6260753Y-18305603D01*
X6260753Y-18305603D02*
X6241706Y-18315127D01*
X6546467Y-18457984D02*
X6432182Y-18457984D01*
X6489325Y-18457984D02*
X6489325Y-18257984D01*
X6489325Y-18257984D02*
X6470277Y-18286555D01*
X6470277Y-18286555D02*
X6451229Y-18305603D01*
X6451229Y-18305603D02*
X6432182Y-18315127D01*
X6660753Y-18343698D02*
X6641706Y-18334174D01*
X6641706Y-18334174D02*
X6632182Y-18324650D01*
X6632182Y-18324650D02*
X6622658Y-18305603D01*
X6622658Y-18305603D02*
X6622658Y-18296079D01*
X6622658Y-18296079D02*
X6632182Y-18277031D01*
X6632182Y-18277031D02*
X6641706Y-18267508D01*
X6641706Y-18267508D02*
X6660753Y-18257984D01*
X6660753Y-18257984D02*
X6698848Y-18257984D01*
X6698848Y-18257984D02*
X6717896Y-18267508D01*
X6717896Y-18267508D02*
X6727420Y-18277031D01*
X6727420Y-18277031D02*
X6736944Y-18296079D01*
X6736944Y-18296079D02*
X6736944Y-18305603D01*
X6736944Y-18305603D02*
X6727420Y-18324650D01*
X6727420Y-18324650D02*
X6717896Y-18334174D01*
X6717896Y-18334174D02*
X6698848Y-18343698D01*
X6698848Y-18343698D02*
X6660753Y-18343698D01*
X6660753Y-18343698D02*
X6641706Y-18353222D01*
X6641706Y-18353222D02*
X6632182Y-18362746D01*
X6632182Y-18362746D02*
X6622658Y-18381793D01*
X6622658Y-18381793D02*
X6622658Y-18419889D01*
X6622658Y-18419889D02*
X6632182Y-18438936D01*
X6632182Y-18438936D02*
X6641706Y-18448460D01*
X6641706Y-18448460D02*
X6660753Y-18457984D01*
X6660753Y-18457984D02*
X6698848Y-18457984D01*
X6698848Y-18457984D02*
X6717896Y-18448460D01*
X6717896Y-18448460D02*
X6727420Y-18438936D01*
X6727420Y-18438936D02*
X6736944Y-18419889D01*
X6736944Y-18419889D02*
X6736944Y-18381793D01*
X6736944Y-18381793D02*
X6727420Y-18362746D01*
X6727420Y-18362746D02*
X6717896Y-18353222D01*
X6717896Y-18353222D02*
X6698848Y-18343698D01*
X6813134Y-18257984D02*
X6813134Y-18296079D01*
X6889325Y-18257984D02*
X6889325Y-18296079D01*
X7184563Y-18534174D02*
X7175039Y-18524650D01*
X7175039Y-18524650D02*
X7155991Y-18496079D01*
X7155991Y-18496079D02*
X7146468Y-18477031D01*
X7146468Y-18477031D02*
X7136944Y-18448460D01*
X7136944Y-18448460D02*
X7127420Y-18400841D01*
X7127420Y-18400841D02*
X7127420Y-18362746D01*
X7127420Y-18362746D02*
X7136944Y-18315127D01*
X7136944Y-18315127D02*
X7146468Y-18286555D01*
X7146468Y-18286555D02*
X7155991Y-18267508D01*
X7155991Y-18267508D02*
X7175039Y-18238936D01*
X7175039Y-18238936D02*
X7184563Y-18229412D01*
X7365515Y-18457984D02*
X7251229Y-18457984D01*
X7308372Y-18457984D02*
X7308372Y-18257984D01*
X7308372Y-18257984D02*
X7289325Y-18286555D01*
X7289325Y-18286555D02*
X7270277Y-18305603D01*
X7270277Y-18305603D02*
X7251229Y-18315127D01*
X7479801Y-18343698D02*
X7460753Y-18334174D01*
X7460753Y-18334174D02*
X7451229Y-18324650D01*
X7451229Y-18324650D02*
X7441706Y-18305603D01*
X7441706Y-18305603D02*
X7441706Y-18296079D01*
X7441706Y-18296079D02*
X7451229Y-18277031D01*
X7451229Y-18277031D02*
X7460753Y-18267508D01*
X7460753Y-18267508D02*
X7479801Y-18257984D01*
X7479801Y-18257984D02*
X7517896Y-18257984D01*
X7517896Y-18257984D02*
X7536944Y-18267508D01*
X7536944Y-18267508D02*
X7546468Y-18277031D01*
X7546468Y-18277031D02*
X7555991Y-18296079D01*
X7555991Y-18296079D02*
X7555991Y-18305603D01*
X7555991Y-18305603D02*
X7546468Y-18324650D01*
X7546468Y-18324650D02*
X7536944Y-18334174D01*
X7536944Y-18334174D02*
X7517896Y-18343698D01*
X7517896Y-18343698D02*
X7479801Y-18343698D01*
X7479801Y-18343698D02*
X7460753Y-18353222D01*
X7460753Y-18353222D02*
X7451229Y-18362746D01*
X7451229Y-18362746D02*
X7441706Y-18381793D01*
X7441706Y-18381793D02*
X7441706Y-18419889D01*
X7441706Y-18419889D02*
X7451229Y-18438936D01*
X7451229Y-18438936D02*
X7460753Y-18448460D01*
X7460753Y-18448460D02*
X7479801Y-18457984D01*
X7479801Y-18457984D02*
X7517896Y-18457984D01*
X7517896Y-18457984D02*
X7536944Y-18448460D01*
X7536944Y-18448460D02*
X7546468Y-18438936D01*
X7546468Y-18438936D02*
X7555991Y-18419889D01*
X7555991Y-18419889D02*
X7555991Y-18381793D01*
X7555991Y-18381793D02*
X7546468Y-18362746D01*
X7546468Y-18362746D02*
X7536944Y-18353222D01*
X7536944Y-18353222D02*
X7517896Y-18343698D01*
X7727420Y-18257984D02*
X7689325Y-18257984D01*
X7689325Y-18257984D02*
X7670277Y-18267508D01*
X7670277Y-18267508D02*
X7660753Y-18277031D01*
X7660753Y-18277031D02*
X7641706Y-18305603D01*
X7641706Y-18305603D02*
X7632182Y-18343698D01*
X7632182Y-18343698D02*
X7632182Y-18419889D01*
X7632182Y-18419889D02*
X7641706Y-18438936D01*
X7641706Y-18438936D02*
X7651229Y-18448460D01*
X7651229Y-18448460D02*
X7670277Y-18457984D01*
X7670277Y-18457984D02*
X7708372Y-18457984D01*
X7708372Y-18457984D02*
X7727420Y-18448460D01*
X7727420Y-18448460D02*
X7736944Y-18438936D01*
X7736944Y-18438936D02*
X7746468Y-18419889D01*
X7746468Y-18419889D02*
X7746468Y-18372270D01*
X7746468Y-18372270D02*
X7736944Y-18353222D01*
X7736944Y-18353222D02*
X7727420Y-18343698D01*
X7727420Y-18343698D02*
X7708372Y-18334174D01*
X7708372Y-18334174D02*
X7670277Y-18334174D01*
X7670277Y-18334174D02*
X7651229Y-18343698D01*
X7651229Y-18343698D02*
X7641706Y-18353222D01*
X7641706Y-18353222D02*
X7632182Y-18372270D01*
X7984563Y-18457984D02*
X7984563Y-18257984D01*
X8070277Y-18457984D02*
X8070277Y-18353222D01*
X8070277Y-18353222D02*
X8060753Y-18334174D01*
X8060753Y-18334174D02*
X8041706Y-18324650D01*
X8041706Y-18324650D02*
X8013134Y-18324650D01*
X8013134Y-18324650D02*
X7994087Y-18334174D01*
X7994087Y-18334174D02*
X7984563Y-18343698D01*
X8194087Y-18457984D02*
X8175039Y-18448460D01*
X8175039Y-18448460D02*
X8165515Y-18438936D01*
X8165515Y-18438936D02*
X8155991Y-18419889D01*
X8155991Y-18419889D02*
X8155991Y-18362746D01*
X8155991Y-18362746D02*
X8165515Y-18343698D01*
X8165515Y-18343698D02*
X8175039Y-18334174D01*
X8175039Y-18334174D02*
X8194087Y-18324650D01*
X8194087Y-18324650D02*
X8222658Y-18324650D01*
X8222658Y-18324650D02*
X8241706Y-18334174D01*
X8241706Y-18334174D02*
X8251230Y-18343698D01*
X8251230Y-18343698D02*
X8260753Y-18362746D01*
X8260753Y-18362746D02*
X8260753Y-18419889D01*
X8260753Y-18419889D02*
X8251230Y-18438936D01*
X8251230Y-18438936D02*
X8241706Y-18448460D01*
X8241706Y-18448460D02*
X8222658Y-18457984D01*
X8222658Y-18457984D02*
X8194087Y-18457984D01*
X8375039Y-18457984D02*
X8355991Y-18448460D01*
X8355991Y-18448460D02*
X8346468Y-18429412D01*
X8346468Y-18429412D02*
X8346468Y-18257984D01*
X8527420Y-18448460D02*
X8508373Y-18457984D01*
X8508373Y-18457984D02*
X8470277Y-18457984D01*
X8470277Y-18457984D02*
X8451230Y-18448460D01*
X8451230Y-18448460D02*
X8441706Y-18429412D01*
X8441706Y-18429412D02*
X8441706Y-18353222D01*
X8441706Y-18353222D02*
X8451230Y-18334174D01*
X8451230Y-18334174D02*
X8470277Y-18324650D01*
X8470277Y-18324650D02*
X8508373Y-18324650D01*
X8508373Y-18324650D02*
X8527420Y-18334174D01*
X8527420Y-18334174D02*
X8536944Y-18353222D01*
X8536944Y-18353222D02*
X8536944Y-18372270D01*
X8536944Y-18372270D02*
X8441706Y-18391317D01*
X8613134Y-18448460D02*
X8632182Y-18457984D01*
X8632182Y-18457984D02*
X8670277Y-18457984D01*
X8670277Y-18457984D02*
X8689325Y-18448460D01*
X8689325Y-18448460D02*
X8698849Y-18429412D01*
X8698849Y-18429412D02*
X8698849Y-18419889D01*
X8698849Y-18419889D02*
X8689325Y-18400841D01*
X8689325Y-18400841D02*
X8670277Y-18391317D01*
X8670277Y-18391317D02*
X8641706Y-18391317D01*
X8641706Y-18391317D02*
X8622658Y-18381793D01*
X8622658Y-18381793D02*
X8613134Y-18362746D01*
X8613134Y-18362746D02*
X8613134Y-18353222D01*
X8613134Y-18353222D02*
X8622658Y-18334174D01*
X8622658Y-18334174D02*
X8641706Y-18324650D01*
X8641706Y-18324650D02*
X8670277Y-18324650D01*
X8670277Y-18324650D02*
X8689325Y-18334174D01*
X8765515Y-18534174D02*
X8775039Y-18524650D01*
X8775039Y-18524650D02*
X8794087Y-18496079D01*
X8794087Y-18496079D02*
X8803611Y-18477031D01*
X8803611Y-18477031D02*
X8813134Y-18448460D01*
X8813134Y-18448460D02*
X8822658Y-18400841D01*
X8822658Y-18400841D02*
X8822658Y-18362746D01*
X8822658Y-18362746D02*
X8813134Y-18315127D01*
X8813134Y-18315127D02*
X8803611Y-18286555D01*
X8803611Y-18286555D02*
X8794087Y-18267508D01*
X8794087Y-18267508D02*
X8775039Y-18238936D01*
X8775039Y-18238936D02*
X8765515Y-18229412D01*
D11*
X3609500Y-18630500D02*
G75*
G02*
X3549500Y-18630500I-30000J0D01*
G01*
X3549500Y-18630500D02*
G75*
G02*
X3609500Y-18630500I30000J0D01*
G01*
D10*
X3908372Y-18521984D02*
X3927420Y-18521984D01*
X3927420Y-18521984D02*
X3946467Y-18531508D01*
X3946467Y-18531508D02*
X3955991Y-18541031D01*
X3955991Y-18541031D02*
X3965515Y-18560079D01*
X3965515Y-18560079D02*
X3975039Y-18598174D01*
X3975039Y-18598174D02*
X3975039Y-18645793D01*
X3975039Y-18645793D02*
X3965515Y-18683889D01*
X3965515Y-18683889D02*
X3955991Y-18702936D01*
X3955991Y-18702936D02*
X3946467Y-18712460D01*
X3946467Y-18712460D02*
X3927420Y-18721984D01*
X3927420Y-18721984D02*
X3908372Y-18721984D01*
X3908372Y-18721984D02*
X3889324Y-18712460D01*
X3889324Y-18712460D02*
X3879801Y-18702936D01*
X3879801Y-18702936D02*
X3870277Y-18683889D01*
X3870277Y-18683889D02*
X3860753Y-18645793D01*
X3860753Y-18645793D02*
X3860753Y-18598174D01*
X3860753Y-18598174D02*
X3870277Y-18560079D01*
X3870277Y-18560079D02*
X3879801Y-18541031D01*
X3879801Y-18541031D02*
X3889324Y-18531508D01*
X3889324Y-18531508D02*
X3908372Y-18521984D01*
X4060753Y-18702936D02*
X4070277Y-18712460D01*
X4070277Y-18712460D02*
X4060753Y-18721984D01*
X4060753Y-18721984D02*
X4051229Y-18712460D01*
X4051229Y-18712460D02*
X4060753Y-18702936D01*
X4060753Y-18702936D02*
X4060753Y-18721984D01*
X4241705Y-18521984D02*
X4203610Y-18521984D01*
X4203610Y-18521984D02*
X4184562Y-18531508D01*
X4184562Y-18531508D02*
X4175039Y-18541031D01*
X4175039Y-18541031D02*
X4155991Y-18569603D01*
X4155991Y-18569603D02*
X4146467Y-18607698D01*
X4146467Y-18607698D02*
X4146467Y-18683889D01*
X4146467Y-18683889D02*
X4155991Y-18702936D01*
X4155991Y-18702936D02*
X4165515Y-18712460D01*
X4165515Y-18712460D02*
X4184562Y-18721984D01*
X4184562Y-18721984D02*
X4222658Y-18721984D01*
X4222658Y-18721984D02*
X4241705Y-18712460D01*
X4241705Y-18712460D02*
X4251229Y-18702936D01*
X4251229Y-18702936D02*
X4260753Y-18683889D01*
X4260753Y-18683889D02*
X4260753Y-18636270D01*
X4260753Y-18636270D02*
X4251229Y-18617222D01*
X4251229Y-18617222D02*
X4241705Y-18607698D01*
X4241705Y-18607698D02*
X4222658Y-18598174D01*
X4222658Y-18598174D02*
X4184562Y-18598174D01*
X4184562Y-18598174D02*
X4165515Y-18607698D01*
X4165515Y-18607698D02*
X4155991Y-18617222D01*
X4155991Y-18617222D02*
X4146467Y-18636270D01*
X4384563Y-18521984D02*
X4403610Y-18521984D01*
X4403610Y-18521984D02*
X4422658Y-18531508D01*
X4422658Y-18531508D02*
X4432182Y-18541031D01*
X4432182Y-18541031D02*
X4441705Y-18560079D01*
X4441705Y-18560079D02*
X4451229Y-18598174D01*
X4451229Y-18598174D02*
X4451229Y-18645793D01*
X4451229Y-18645793D02*
X4441705Y-18683889D01*
X4441705Y-18683889D02*
X4432182Y-18702936D01*
X4432182Y-18702936D02*
X4422658Y-18712460D01*
X4422658Y-18712460D02*
X4403610Y-18721984D01*
X4403610Y-18721984D02*
X4384563Y-18721984D01*
X4384563Y-18721984D02*
X4365515Y-18712460D01*
X4365515Y-18712460D02*
X4355991Y-18702936D01*
X4355991Y-18702936D02*
X4346467Y-18683889D01*
X4346467Y-18683889D02*
X4336944Y-18645793D01*
X4336944Y-18645793D02*
X4336944Y-18598174D01*
X4336944Y-18598174D02*
X4346467Y-18560079D01*
X4346467Y-18560079D02*
X4355991Y-18541031D01*
X4355991Y-18541031D02*
X4365515Y-18531508D01*
X4365515Y-18531508D02*
X4384563Y-18521984D01*
X4575039Y-18521984D02*
X4594086Y-18521984D01*
X4594086Y-18521984D02*
X4613134Y-18531508D01*
X4613134Y-18531508D02*
X4622658Y-18541031D01*
X4622658Y-18541031D02*
X4632182Y-18560079D01*
X4632182Y-18560079D02*
X4641705Y-18598174D01*
X4641705Y-18598174D02*
X4641705Y-18645793D01*
X4641705Y-18645793D02*
X4632182Y-18683889D01*
X4632182Y-18683889D02*
X4622658Y-18702936D01*
X4622658Y-18702936D02*
X4613134Y-18712460D01*
X4613134Y-18712460D02*
X4594086Y-18721984D01*
X4594086Y-18721984D02*
X4575039Y-18721984D01*
X4575039Y-18721984D02*
X4555991Y-18712460D01*
X4555991Y-18712460D02*
X4546467Y-18702936D01*
X4546467Y-18702936D02*
X4536944Y-18683889D01*
X4536944Y-18683889D02*
X4527420Y-18645793D01*
X4527420Y-18645793D02*
X4527420Y-18598174D01*
X4527420Y-18598174D02*
X4536944Y-18560079D01*
X4536944Y-18560079D02*
X4546467Y-18541031D01*
X4546467Y-18541031D02*
X4555991Y-18531508D01*
X4555991Y-18531508D02*
X4575039Y-18521984D01*
X4727420Y-18721984D02*
X4727420Y-18588650D01*
X4727420Y-18607698D02*
X4736944Y-18598174D01*
X4736944Y-18598174D02*
X4755991Y-18588650D01*
X4755991Y-18588650D02*
X4784563Y-18588650D01*
X4784563Y-18588650D02*
X4803610Y-18598174D01*
X4803610Y-18598174D02*
X4813134Y-18617222D01*
X4813134Y-18617222D02*
X4813134Y-18721984D01*
X4813134Y-18617222D02*
X4822658Y-18598174D01*
X4822658Y-18598174D02*
X4841705Y-18588650D01*
X4841705Y-18588650D02*
X4870277Y-18588650D01*
X4870277Y-18588650D02*
X4889325Y-18598174D01*
X4889325Y-18598174D02*
X4898848Y-18617222D01*
X4898848Y-18617222D02*
X4898848Y-18721984D01*
X4994086Y-18721984D02*
X4994086Y-18588650D01*
X4994086Y-18607698D02*
X5003610Y-18598174D01*
X5003610Y-18598174D02*
X5022658Y-18588650D01*
X5022658Y-18588650D02*
X5051229Y-18588650D01*
X5051229Y-18588650D02*
X5070277Y-18598174D01*
X5070277Y-18598174D02*
X5079801Y-18617222D01*
X5079801Y-18617222D02*
X5079801Y-18721984D01*
X5079801Y-18617222D02*
X5089325Y-18598174D01*
X5089325Y-18598174D02*
X5108372Y-18588650D01*
X5108372Y-18588650D02*
X5136944Y-18588650D01*
X5136944Y-18588650D02*
X5155991Y-18598174D01*
X5155991Y-18598174D02*
X5165515Y-18617222D01*
X5165515Y-18617222D02*
X5165515Y-18721984D01*
X5555991Y-18512460D02*
X5384563Y-18769603D01*
X5813134Y-18521984D02*
X5832182Y-18521984D01*
X5832182Y-18521984D02*
X5851229Y-18531508D01*
X5851229Y-18531508D02*
X5860753Y-18541031D01*
X5860753Y-18541031D02*
X5870277Y-18560079D01*
X5870277Y-18560079D02*
X5879801Y-18598174D01*
X5879801Y-18598174D02*
X5879801Y-18645793D01*
X5879801Y-18645793D02*
X5870277Y-18683889D01*
X5870277Y-18683889D02*
X5860753Y-18702936D01*
X5860753Y-18702936D02*
X5851229Y-18712460D01*
X5851229Y-18712460D02*
X5832182Y-18721984D01*
X5832182Y-18721984D02*
X5813134Y-18721984D01*
X5813134Y-18721984D02*
X5794086Y-18712460D01*
X5794086Y-18712460D02*
X5784563Y-18702936D01*
X5784563Y-18702936D02*
X5775039Y-18683889D01*
X5775039Y-18683889D02*
X5765515Y-18645793D01*
X5765515Y-18645793D02*
X5765515Y-18598174D01*
X5765515Y-18598174D02*
X5775039Y-18560079D01*
X5775039Y-18560079D02*
X5784563Y-18541031D01*
X5784563Y-18541031D02*
X5794086Y-18531508D01*
X5794086Y-18531508D02*
X5813134Y-18521984D01*
X5965515Y-18702936D02*
X5975039Y-18712460D01*
X5975039Y-18712460D02*
X5965515Y-18721984D01*
X5965515Y-18721984D02*
X5955991Y-18712460D01*
X5955991Y-18712460D02*
X5965515Y-18702936D01*
X5965515Y-18702936D02*
X5965515Y-18721984D01*
X6098848Y-18521984D02*
X6117896Y-18521984D01*
X6117896Y-18521984D02*
X6136944Y-18531508D01*
X6136944Y-18531508D02*
X6146467Y-18541031D01*
X6146467Y-18541031D02*
X6155991Y-18560079D01*
X6155991Y-18560079D02*
X6165515Y-18598174D01*
X6165515Y-18598174D02*
X6165515Y-18645793D01*
X6165515Y-18645793D02*
X6155991Y-18683889D01*
X6155991Y-18683889D02*
X6146467Y-18702936D01*
X6146467Y-18702936D02*
X6136944Y-18712460D01*
X6136944Y-18712460D02*
X6117896Y-18721984D01*
X6117896Y-18721984D02*
X6098848Y-18721984D01*
X6098848Y-18721984D02*
X6079801Y-18712460D01*
X6079801Y-18712460D02*
X6070277Y-18702936D01*
X6070277Y-18702936D02*
X6060753Y-18683889D01*
X6060753Y-18683889D02*
X6051229Y-18645793D01*
X6051229Y-18645793D02*
X6051229Y-18598174D01*
X6051229Y-18598174D02*
X6060753Y-18560079D01*
X6060753Y-18560079D02*
X6070277Y-18541031D01*
X6070277Y-18541031D02*
X6079801Y-18531508D01*
X6079801Y-18531508D02*
X6098848Y-18521984D01*
X6241706Y-18541031D02*
X6251229Y-18531508D01*
X6251229Y-18531508D02*
X6270277Y-18521984D01*
X6270277Y-18521984D02*
X6317896Y-18521984D01*
X6317896Y-18521984D02*
X6336944Y-18531508D01*
X6336944Y-18531508D02*
X6346467Y-18541031D01*
X6346467Y-18541031D02*
X6355991Y-18560079D01*
X6355991Y-18560079D02*
X6355991Y-18579127D01*
X6355991Y-18579127D02*
X6346467Y-18607698D01*
X6346467Y-18607698D02*
X6232182Y-18721984D01*
X6232182Y-18721984D02*
X6355991Y-18721984D01*
X6422658Y-18521984D02*
X6546467Y-18521984D01*
X6546467Y-18521984D02*
X6479801Y-18598174D01*
X6479801Y-18598174D02*
X6508372Y-18598174D01*
X6508372Y-18598174D02*
X6527420Y-18607698D01*
X6527420Y-18607698D02*
X6536944Y-18617222D01*
X6536944Y-18617222D02*
X6546467Y-18636270D01*
X6546467Y-18636270D02*
X6546467Y-18683889D01*
X6546467Y-18683889D02*
X6536944Y-18702936D01*
X6536944Y-18702936D02*
X6527420Y-18712460D01*
X6527420Y-18712460D02*
X6508372Y-18721984D01*
X6508372Y-18721984D02*
X6451229Y-18721984D01*
X6451229Y-18721984D02*
X6432182Y-18712460D01*
X6432182Y-18712460D02*
X6422658Y-18702936D01*
X6717896Y-18521984D02*
X6679801Y-18521984D01*
X6679801Y-18521984D02*
X6660753Y-18531508D01*
X6660753Y-18531508D02*
X6651229Y-18541031D01*
X6651229Y-18541031D02*
X6632182Y-18569603D01*
X6632182Y-18569603D02*
X6622658Y-18607698D01*
X6622658Y-18607698D02*
X6622658Y-18683889D01*
X6622658Y-18683889D02*
X6632182Y-18702936D01*
X6632182Y-18702936D02*
X6641706Y-18712460D01*
X6641706Y-18712460D02*
X6660753Y-18721984D01*
X6660753Y-18721984D02*
X6698848Y-18721984D01*
X6698848Y-18721984D02*
X6717896Y-18712460D01*
X6717896Y-18712460D02*
X6727420Y-18702936D01*
X6727420Y-18702936D02*
X6736944Y-18683889D01*
X6736944Y-18683889D02*
X6736944Y-18636270D01*
X6736944Y-18636270D02*
X6727420Y-18617222D01*
X6727420Y-18617222D02*
X6717896Y-18607698D01*
X6717896Y-18607698D02*
X6698848Y-18598174D01*
X6698848Y-18598174D02*
X6660753Y-18598174D01*
X6660753Y-18598174D02*
X6641706Y-18607698D01*
X6641706Y-18607698D02*
X6632182Y-18617222D01*
X6632182Y-18617222D02*
X6622658Y-18636270D01*
X6813134Y-18521984D02*
X6813134Y-18560079D01*
X6889325Y-18521984D02*
X6889325Y-18560079D01*
X7184563Y-18798174D02*
X7175039Y-18788650D01*
X7175039Y-18788650D02*
X7155991Y-18760079D01*
X7155991Y-18760079D02*
X7146468Y-18741031D01*
X7146468Y-18741031D02*
X7136944Y-18712460D01*
X7136944Y-18712460D02*
X7127420Y-18664841D01*
X7127420Y-18664841D02*
X7127420Y-18626746D01*
X7127420Y-18626746D02*
X7136944Y-18579127D01*
X7136944Y-18579127D02*
X7146468Y-18550555D01*
X7146468Y-18550555D02*
X7155991Y-18531508D01*
X7155991Y-18531508D02*
X7175039Y-18502936D01*
X7175039Y-18502936D02*
X7184563Y-18493412D01*
X7298848Y-18521984D02*
X7317896Y-18521984D01*
X7317896Y-18521984D02*
X7336944Y-18531508D01*
X7336944Y-18531508D02*
X7346468Y-18541031D01*
X7346468Y-18541031D02*
X7355991Y-18560079D01*
X7355991Y-18560079D02*
X7365515Y-18598174D01*
X7365515Y-18598174D02*
X7365515Y-18645793D01*
X7365515Y-18645793D02*
X7355991Y-18683889D01*
X7355991Y-18683889D02*
X7346468Y-18702936D01*
X7346468Y-18702936D02*
X7336944Y-18712460D01*
X7336944Y-18712460D02*
X7317896Y-18721984D01*
X7317896Y-18721984D02*
X7298848Y-18721984D01*
X7298848Y-18721984D02*
X7279801Y-18712460D01*
X7279801Y-18712460D02*
X7270277Y-18702936D01*
X7270277Y-18702936D02*
X7260753Y-18683889D01*
X7260753Y-18683889D02*
X7251229Y-18645793D01*
X7251229Y-18645793D02*
X7251229Y-18598174D01*
X7251229Y-18598174D02*
X7260753Y-18560079D01*
X7260753Y-18560079D02*
X7270277Y-18541031D01*
X7270277Y-18541031D02*
X7279801Y-18531508D01*
X7279801Y-18531508D02*
X7298848Y-18521984D01*
X7603610Y-18721984D02*
X7603610Y-18521984D01*
X7689325Y-18721984D02*
X7689325Y-18617222D01*
X7689325Y-18617222D02*
X7679801Y-18598174D01*
X7679801Y-18598174D02*
X7660753Y-18588650D01*
X7660753Y-18588650D02*
X7632182Y-18588650D01*
X7632182Y-18588650D02*
X7613134Y-18598174D01*
X7613134Y-18598174D02*
X7603610Y-18607698D01*
X7813134Y-18721984D02*
X7794087Y-18712460D01*
X7794087Y-18712460D02*
X7784563Y-18702936D01*
X7784563Y-18702936D02*
X7775039Y-18683889D01*
X7775039Y-18683889D02*
X7775039Y-18626746D01*
X7775039Y-18626746D02*
X7784563Y-18607698D01*
X7784563Y-18607698D02*
X7794087Y-18598174D01*
X7794087Y-18598174D02*
X7813134Y-18588650D01*
X7813134Y-18588650D02*
X7841706Y-18588650D01*
X7841706Y-18588650D02*
X7860753Y-18598174D01*
X7860753Y-18598174D02*
X7870277Y-18607698D01*
X7870277Y-18607698D02*
X7879801Y-18626746D01*
X7879801Y-18626746D02*
X7879801Y-18683889D01*
X7879801Y-18683889D02*
X7870277Y-18702936D01*
X7870277Y-18702936D02*
X7860753Y-18712460D01*
X7860753Y-18712460D02*
X7841706Y-18721984D01*
X7841706Y-18721984D02*
X7813134Y-18721984D01*
X7994087Y-18721984D02*
X7975039Y-18712460D01*
X7975039Y-18712460D02*
X7965515Y-18693412D01*
X7965515Y-18693412D02*
X7965515Y-18521984D01*
X8146468Y-18712460D02*
X8127420Y-18721984D01*
X8127420Y-18721984D02*
X8089325Y-18721984D01*
X8089325Y-18721984D02*
X8070277Y-18712460D01*
X8070277Y-18712460D02*
X8060753Y-18693412D01*
X8060753Y-18693412D02*
X8060753Y-18617222D01*
X8060753Y-18617222D02*
X8070277Y-18598174D01*
X8070277Y-18598174D02*
X8089325Y-18588650D01*
X8089325Y-18588650D02*
X8127420Y-18588650D01*
X8127420Y-18588650D02*
X8146468Y-18598174D01*
X8146468Y-18598174D02*
X8155991Y-18617222D01*
X8155991Y-18617222D02*
X8155991Y-18636270D01*
X8155991Y-18636270D02*
X8060753Y-18655317D01*
X8232182Y-18712460D02*
X8251230Y-18721984D01*
X8251230Y-18721984D02*
X8289325Y-18721984D01*
X8289325Y-18721984D02*
X8308372Y-18712460D01*
X8308372Y-18712460D02*
X8317896Y-18693412D01*
X8317896Y-18693412D02*
X8317896Y-18683889D01*
X8317896Y-18683889D02*
X8308372Y-18664841D01*
X8308372Y-18664841D02*
X8289325Y-18655317D01*
X8289325Y-18655317D02*
X8260753Y-18655317D01*
X8260753Y-18655317D02*
X8241706Y-18645793D01*
X8241706Y-18645793D02*
X8232182Y-18626746D01*
X8232182Y-18626746D02*
X8232182Y-18617222D01*
X8232182Y-18617222D02*
X8241706Y-18598174D01*
X8241706Y-18598174D02*
X8260753Y-18588650D01*
X8260753Y-18588650D02*
X8289325Y-18588650D01*
X8289325Y-18588650D02*
X8308372Y-18598174D01*
X8555992Y-18645793D02*
X8708373Y-18645793D01*
X8632182Y-18721984D02*
X8632182Y-18569603D01*
X8946468Y-18541031D02*
X8955992Y-18531508D01*
X8955992Y-18531508D02*
X8975039Y-18521984D01*
X8975039Y-18521984D02*
X9022658Y-18521984D01*
X9022658Y-18521984D02*
X9041706Y-18531508D01*
X9041706Y-18531508D02*
X9051230Y-18541031D01*
X9051230Y-18541031D02*
X9060754Y-18560079D01*
X9060754Y-18560079D02*
X9060754Y-18579127D01*
X9060754Y-18579127D02*
X9051230Y-18607698D01*
X9051230Y-18607698D02*
X8936944Y-18721984D01*
X8936944Y-18721984D02*
X9060754Y-18721984D01*
X9251230Y-18721984D02*
X9136944Y-18721984D01*
X9194087Y-18721984D02*
X9194087Y-18521984D01*
X9194087Y-18521984D02*
X9175039Y-18550555D01*
X9175039Y-18550555D02*
X9155992Y-18569603D01*
X9155992Y-18569603D02*
X9136944Y-18579127D01*
X9479801Y-18712460D02*
X9498849Y-18721984D01*
X9498849Y-18721984D02*
X9536944Y-18721984D01*
X9536944Y-18721984D02*
X9555992Y-18712460D01*
X9555992Y-18712460D02*
X9565516Y-18693412D01*
X9565516Y-18693412D02*
X9565516Y-18683889D01*
X9565516Y-18683889D02*
X9555992Y-18664841D01*
X9555992Y-18664841D02*
X9536944Y-18655317D01*
X9536944Y-18655317D02*
X9508373Y-18655317D01*
X9508373Y-18655317D02*
X9489325Y-18645793D01*
X9489325Y-18645793D02*
X9479801Y-18626746D01*
X9479801Y-18626746D02*
X9479801Y-18617222D01*
X9479801Y-18617222D02*
X9489325Y-18598174D01*
X9489325Y-18598174D02*
X9508373Y-18588650D01*
X9508373Y-18588650D02*
X9536944Y-18588650D01*
X9536944Y-18588650D02*
X9555992Y-18598174D01*
X9679801Y-18721984D02*
X9660754Y-18712460D01*
X9660754Y-18712460D02*
X9651230Y-18693412D01*
X9651230Y-18693412D02*
X9651230Y-18521984D01*
X9784563Y-18721984D02*
X9765516Y-18712460D01*
X9765516Y-18712460D02*
X9755992Y-18702936D01*
X9755992Y-18702936D02*
X9746468Y-18683889D01*
X9746468Y-18683889D02*
X9746468Y-18626746D01*
X9746468Y-18626746D02*
X9755992Y-18607698D01*
X9755992Y-18607698D02*
X9765516Y-18598174D01*
X9765516Y-18598174D02*
X9784563Y-18588650D01*
X9784563Y-18588650D02*
X9813135Y-18588650D01*
X9813135Y-18588650D02*
X9832182Y-18598174D01*
X9832182Y-18598174D02*
X9841706Y-18607698D01*
X9841706Y-18607698D02*
X9851230Y-18626746D01*
X9851230Y-18626746D02*
X9851230Y-18683889D01*
X9851230Y-18683889D02*
X9841706Y-18702936D01*
X9841706Y-18702936D02*
X9832182Y-18712460D01*
X9832182Y-18712460D02*
X9813135Y-18721984D01*
X9813135Y-18721984D02*
X9784563Y-18721984D01*
X9908373Y-18588650D02*
X9984563Y-18588650D01*
X9936944Y-18521984D02*
X9936944Y-18693412D01*
X9936944Y-18693412D02*
X9946468Y-18712460D01*
X9946468Y-18712460D02*
X9965516Y-18721984D01*
X9965516Y-18721984D02*
X9984563Y-18721984D01*
X10041706Y-18712460D02*
X10060754Y-18721984D01*
X10060754Y-18721984D02*
X10098849Y-18721984D01*
X10098849Y-18721984D02*
X10117897Y-18712460D01*
X10117897Y-18712460D02*
X10127420Y-18693412D01*
X10127420Y-18693412D02*
X10127420Y-18683889D01*
X10127420Y-18683889D02*
X10117897Y-18664841D01*
X10117897Y-18664841D02*
X10098849Y-18655317D01*
X10098849Y-18655317D02*
X10070277Y-18655317D01*
X10070277Y-18655317D02*
X10051230Y-18645793D01*
X10051230Y-18645793D02*
X10041706Y-18626746D01*
X10041706Y-18626746D02*
X10041706Y-18617222D01*
X10041706Y-18617222D02*
X10051230Y-18598174D01*
X10051230Y-18598174D02*
X10070277Y-18588650D01*
X10070277Y-18588650D02*
X10098849Y-18588650D01*
X10098849Y-18588650D02*
X10117897Y-18598174D01*
X10194087Y-18798174D02*
X10203611Y-18788650D01*
X10203611Y-18788650D02*
X10222658Y-18760079D01*
X10222658Y-18760079D02*
X10232182Y-18741031D01*
X10232182Y-18741031D02*
X10241706Y-18712460D01*
X10241706Y-18712460D02*
X10251230Y-18664841D01*
X10251230Y-18664841D02*
X10251230Y-18626746D01*
X10251230Y-18626746D02*
X10241706Y-18579127D01*
X10241706Y-18579127D02*
X10232182Y-18550555D01*
X10232182Y-18550555D02*
X10222658Y-18531508D01*
X10222658Y-18531508D02*
X10203611Y-18502936D01*
X10203611Y-18502936D02*
X10194087Y-18493412D01*
D11*
X3569500Y-18854500D02*
X3569500Y-18934500D01*
X3529500Y-18894500D02*
X3609500Y-18894500D01*
D10*
X3908372Y-18785984D02*
X3927420Y-18785984D01*
X3927420Y-18785984D02*
X3946467Y-18795508D01*
X3946467Y-18795508D02*
X3955991Y-18805031D01*
X3955991Y-18805031D02*
X3965515Y-18824079D01*
X3965515Y-18824079D02*
X3975039Y-18862174D01*
X3975039Y-18862174D02*
X3975039Y-18909793D01*
X3975039Y-18909793D02*
X3965515Y-18947889D01*
X3965515Y-18947889D02*
X3955991Y-18966936D01*
X3955991Y-18966936D02*
X3946467Y-18976460D01*
X3946467Y-18976460D02*
X3927420Y-18985984D01*
X3927420Y-18985984D02*
X3908372Y-18985984D01*
X3908372Y-18985984D02*
X3889324Y-18976460D01*
X3889324Y-18976460D02*
X3879801Y-18966936D01*
X3879801Y-18966936D02*
X3870277Y-18947889D01*
X3870277Y-18947889D02*
X3860753Y-18909793D01*
X3860753Y-18909793D02*
X3860753Y-18862174D01*
X3860753Y-18862174D02*
X3870277Y-18824079D01*
X3870277Y-18824079D02*
X3879801Y-18805031D01*
X3879801Y-18805031D02*
X3889324Y-18795508D01*
X3889324Y-18795508D02*
X3908372Y-18785984D01*
X4060753Y-18966936D02*
X4070277Y-18976460D01*
X4070277Y-18976460D02*
X4060753Y-18985984D01*
X4060753Y-18985984D02*
X4051229Y-18976460D01*
X4051229Y-18976460D02*
X4060753Y-18966936D01*
X4060753Y-18966936D02*
X4060753Y-18985984D01*
X4184562Y-18871698D02*
X4165515Y-18862174D01*
X4165515Y-18862174D02*
X4155991Y-18852650D01*
X4155991Y-18852650D02*
X4146467Y-18833603D01*
X4146467Y-18833603D02*
X4146467Y-18824079D01*
X4146467Y-18824079D02*
X4155991Y-18805031D01*
X4155991Y-18805031D02*
X4165515Y-18795508D01*
X4165515Y-18795508D02*
X4184562Y-18785984D01*
X4184562Y-18785984D02*
X4222658Y-18785984D01*
X4222658Y-18785984D02*
X4241705Y-18795508D01*
X4241705Y-18795508D02*
X4251229Y-18805031D01*
X4251229Y-18805031D02*
X4260753Y-18824079D01*
X4260753Y-18824079D02*
X4260753Y-18833603D01*
X4260753Y-18833603D02*
X4251229Y-18852650D01*
X4251229Y-18852650D02*
X4241705Y-18862174D01*
X4241705Y-18862174D02*
X4222658Y-18871698D01*
X4222658Y-18871698D02*
X4184562Y-18871698D01*
X4184562Y-18871698D02*
X4165515Y-18881222D01*
X4165515Y-18881222D02*
X4155991Y-18890746D01*
X4155991Y-18890746D02*
X4146467Y-18909793D01*
X4146467Y-18909793D02*
X4146467Y-18947889D01*
X4146467Y-18947889D02*
X4155991Y-18966936D01*
X4155991Y-18966936D02*
X4165515Y-18976460D01*
X4165515Y-18976460D02*
X4184562Y-18985984D01*
X4184562Y-18985984D02*
X4222658Y-18985984D01*
X4222658Y-18985984D02*
X4241705Y-18976460D01*
X4241705Y-18976460D02*
X4251229Y-18966936D01*
X4251229Y-18966936D02*
X4260753Y-18947889D01*
X4260753Y-18947889D02*
X4260753Y-18909793D01*
X4260753Y-18909793D02*
X4251229Y-18890746D01*
X4251229Y-18890746D02*
X4241705Y-18881222D01*
X4241705Y-18881222D02*
X4222658Y-18871698D01*
X4384563Y-18785984D02*
X4403610Y-18785984D01*
X4403610Y-18785984D02*
X4422658Y-18795508D01*
X4422658Y-18795508D02*
X4432182Y-18805031D01*
X4432182Y-18805031D02*
X4441705Y-18824079D01*
X4441705Y-18824079D02*
X4451229Y-18862174D01*
X4451229Y-18862174D02*
X4451229Y-18909793D01*
X4451229Y-18909793D02*
X4441705Y-18947889D01*
X4441705Y-18947889D02*
X4432182Y-18966936D01*
X4432182Y-18966936D02*
X4422658Y-18976460D01*
X4422658Y-18976460D02*
X4403610Y-18985984D01*
X4403610Y-18985984D02*
X4384563Y-18985984D01*
X4384563Y-18985984D02*
X4365515Y-18976460D01*
X4365515Y-18976460D02*
X4355991Y-18966936D01*
X4355991Y-18966936D02*
X4346467Y-18947889D01*
X4346467Y-18947889D02*
X4336944Y-18909793D01*
X4336944Y-18909793D02*
X4336944Y-18862174D01*
X4336944Y-18862174D02*
X4346467Y-18824079D01*
X4346467Y-18824079D02*
X4355991Y-18805031D01*
X4355991Y-18805031D02*
X4365515Y-18795508D01*
X4365515Y-18795508D02*
X4384563Y-18785984D01*
X4575039Y-18785984D02*
X4594086Y-18785984D01*
X4594086Y-18785984D02*
X4613134Y-18795508D01*
X4613134Y-18795508D02*
X4622658Y-18805031D01*
X4622658Y-18805031D02*
X4632182Y-18824079D01*
X4632182Y-18824079D02*
X4641705Y-18862174D01*
X4641705Y-18862174D02*
X4641705Y-18909793D01*
X4641705Y-18909793D02*
X4632182Y-18947889D01*
X4632182Y-18947889D02*
X4622658Y-18966936D01*
X4622658Y-18966936D02*
X4613134Y-18976460D01*
X4613134Y-18976460D02*
X4594086Y-18985984D01*
X4594086Y-18985984D02*
X4575039Y-18985984D01*
X4575039Y-18985984D02*
X4555991Y-18976460D01*
X4555991Y-18976460D02*
X4546467Y-18966936D01*
X4546467Y-18966936D02*
X4536944Y-18947889D01*
X4536944Y-18947889D02*
X4527420Y-18909793D01*
X4527420Y-18909793D02*
X4527420Y-18862174D01*
X4527420Y-18862174D02*
X4536944Y-18824079D01*
X4536944Y-18824079D02*
X4546467Y-18805031D01*
X4546467Y-18805031D02*
X4555991Y-18795508D01*
X4555991Y-18795508D02*
X4575039Y-18785984D01*
X4727420Y-18985984D02*
X4727420Y-18852650D01*
X4727420Y-18871698D02*
X4736944Y-18862174D01*
X4736944Y-18862174D02*
X4755991Y-18852650D01*
X4755991Y-18852650D02*
X4784563Y-18852650D01*
X4784563Y-18852650D02*
X4803610Y-18862174D01*
X4803610Y-18862174D02*
X4813134Y-18881222D01*
X4813134Y-18881222D02*
X4813134Y-18985984D01*
X4813134Y-18881222D02*
X4822658Y-18862174D01*
X4822658Y-18862174D02*
X4841705Y-18852650D01*
X4841705Y-18852650D02*
X4870277Y-18852650D01*
X4870277Y-18852650D02*
X4889325Y-18862174D01*
X4889325Y-18862174D02*
X4898848Y-18881222D01*
X4898848Y-18881222D02*
X4898848Y-18985984D01*
X4994086Y-18985984D02*
X4994086Y-18852650D01*
X4994086Y-18871698D02*
X5003610Y-18862174D01*
X5003610Y-18862174D02*
X5022658Y-18852650D01*
X5022658Y-18852650D02*
X5051229Y-18852650D01*
X5051229Y-18852650D02*
X5070277Y-18862174D01*
X5070277Y-18862174D02*
X5079801Y-18881222D01*
X5079801Y-18881222D02*
X5079801Y-18985984D01*
X5079801Y-18881222D02*
X5089325Y-18862174D01*
X5089325Y-18862174D02*
X5108372Y-18852650D01*
X5108372Y-18852650D02*
X5136944Y-18852650D01*
X5136944Y-18852650D02*
X5155991Y-18862174D01*
X5155991Y-18862174D02*
X5165515Y-18881222D01*
X5165515Y-18881222D02*
X5165515Y-18985984D01*
X5555991Y-18776460D02*
X5384563Y-19033603D01*
X5813134Y-18785984D02*
X5832182Y-18785984D01*
X5832182Y-18785984D02*
X5851229Y-18795508D01*
X5851229Y-18795508D02*
X5860753Y-18805031D01*
X5860753Y-18805031D02*
X5870277Y-18824079D01*
X5870277Y-18824079D02*
X5879801Y-18862174D01*
X5879801Y-18862174D02*
X5879801Y-18909793D01*
X5879801Y-18909793D02*
X5870277Y-18947889D01*
X5870277Y-18947889D02*
X5860753Y-18966936D01*
X5860753Y-18966936D02*
X5851229Y-18976460D01*
X5851229Y-18976460D02*
X5832182Y-18985984D01*
X5832182Y-18985984D02*
X5813134Y-18985984D01*
X5813134Y-18985984D02*
X5794086Y-18976460D01*
X5794086Y-18976460D02*
X5784563Y-18966936D01*
X5784563Y-18966936D02*
X5775039Y-18947889D01*
X5775039Y-18947889D02*
X5765515Y-18909793D01*
X5765515Y-18909793D02*
X5765515Y-18862174D01*
X5765515Y-18862174D02*
X5775039Y-18824079D01*
X5775039Y-18824079D02*
X5784563Y-18805031D01*
X5784563Y-18805031D02*
X5794086Y-18795508D01*
X5794086Y-18795508D02*
X5813134Y-18785984D01*
X5965515Y-18966936D02*
X5975039Y-18976460D01*
X5975039Y-18976460D02*
X5965515Y-18985984D01*
X5965515Y-18985984D02*
X5955991Y-18976460D01*
X5955991Y-18976460D02*
X5965515Y-18966936D01*
X5965515Y-18966936D02*
X5965515Y-18985984D01*
X6098848Y-18785984D02*
X6117896Y-18785984D01*
X6117896Y-18785984D02*
X6136944Y-18795508D01*
X6136944Y-18795508D02*
X6146467Y-18805031D01*
X6146467Y-18805031D02*
X6155991Y-18824079D01*
X6155991Y-18824079D02*
X6165515Y-18862174D01*
X6165515Y-18862174D02*
X6165515Y-18909793D01*
X6165515Y-18909793D02*
X6155991Y-18947889D01*
X6155991Y-18947889D02*
X6146467Y-18966936D01*
X6146467Y-18966936D02*
X6136944Y-18976460D01*
X6136944Y-18976460D02*
X6117896Y-18985984D01*
X6117896Y-18985984D02*
X6098848Y-18985984D01*
X6098848Y-18985984D02*
X6079801Y-18976460D01*
X6079801Y-18976460D02*
X6070277Y-18966936D01*
X6070277Y-18966936D02*
X6060753Y-18947889D01*
X6060753Y-18947889D02*
X6051229Y-18909793D01*
X6051229Y-18909793D02*
X6051229Y-18862174D01*
X6051229Y-18862174D02*
X6060753Y-18824079D01*
X6060753Y-18824079D02*
X6070277Y-18805031D01*
X6070277Y-18805031D02*
X6079801Y-18795508D01*
X6079801Y-18795508D02*
X6098848Y-18785984D01*
X6232182Y-18785984D02*
X6355991Y-18785984D01*
X6355991Y-18785984D02*
X6289325Y-18862174D01*
X6289325Y-18862174D02*
X6317896Y-18862174D01*
X6317896Y-18862174D02*
X6336944Y-18871698D01*
X6336944Y-18871698D02*
X6346467Y-18881222D01*
X6346467Y-18881222D02*
X6355991Y-18900270D01*
X6355991Y-18900270D02*
X6355991Y-18947889D01*
X6355991Y-18947889D02*
X6346467Y-18966936D01*
X6346467Y-18966936D02*
X6336944Y-18976460D01*
X6336944Y-18976460D02*
X6317896Y-18985984D01*
X6317896Y-18985984D02*
X6260753Y-18985984D01*
X6260753Y-18985984D02*
X6241706Y-18976460D01*
X6241706Y-18976460D02*
X6232182Y-18966936D01*
X6546467Y-18985984D02*
X6432182Y-18985984D01*
X6489325Y-18985984D02*
X6489325Y-18785984D01*
X6489325Y-18785984D02*
X6470277Y-18814555D01*
X6470277Y-18814555D02*
X6451229Y-18833603D01*
X6451229Y-18833603D02*
X6432182Y-18843127D01*
X6727420Y-18785984D02*
X6632182Y-18785984D01*
X6632182Y-18785984D02*
X6622658Y-18881222D01*
X6622658Y-18881222D02*
X6632182Y-18871698D01*
X6632182Y-18871698D02*
X6651229Y-18862174D01*
X6651229Y-18862174D02*
X6698848Y-18862174D01*
X6698848Y-18862174D02*
X6717896Y-18871698D01*
X6717896Y-18871698D02*
X6727420Y-18881222D01*
X6727420Y-18881222D02*
X6736944Y-18900270D01*
X6736944Y-18900270D02*
X6736944Y-18947889D01*
X6736944Y-18947889D02*
X6727420Y-18966936D01*
X6727420Y-18966936D02*
X6717896Y-18976460D01*
X6717896Y-18976460D02*
X6698848Y-18985984D01*
X6698848Y-18985984D02*
X6651229Y-18985984D01*
X6651229Y-18985984D02*
X6632182Y-18976460D01*
X6632182Y-18976460D02*
X6622658Y-18966936D01*
X6813134Y-18785984D02*
X6813134Y-18824079D01*
X6889325Y-18785984D02*
X6889325Y-18824079D01*
X7184563Y-19062174D02*
X7175039Y-19052650D01*
X7175039Y-19052650D02*
X7155991Y-19024079D01*
X7155991Y-19024079D02*
X7146468Y-19005031D01*
X7146468Y-19005031D02*
X7136944Y-18976460D01*
X7136944Y-18976460D02*
X7127420Y-18928841D01*
X7127420Y-18928841D02*
X7127420Y-18890746D01*
X7127420Y-18890746D02*
X7136944Y-18843127D01*
X7136944Y-18843127D02*
X7146468Y-18814555D01*
X7146468Y-18814555D02*
X7155991Y-18795508D01*
X7155991Y-18795508D02*
X7175039Y-18766936D01*
X7175039Y-18766936D02*
X7184563Y-18757412D01*
X7346468Y-18852650D02*
X7346468Y-18985984D01*
X7298848Y-18776460D02*
X7251229Y-18919317D01*
X7251229Y-18919317D02*
X7375039Y-18919317D01*
X7603610Y-18985984D02*
X7603610Y-18785984D01*
X7689325Y-18985984D02*
X7689325Y-18881222D01*
X7689325Y-18881222D02*
X7679801Y-18862174D01*
X7679801Y-18862174D02*
X7660753Y-18852650D01*
X7660753Y-18852650D02*
X7632182Y-18852650D01*
X7632182Y-18852650D02*
X7613134Y-18862174D01*
X7613134Y-18862174D02*
X7603610Y-18871698D01*
X7813134Y-18985984D02*
X7794087Y-18976460D01*
X7794087Y-18976460D02*
X7784563Y-18966936D01*
X7784563Y-18966936D02*
X7775039Y-18947889D01*
X7775039Y-18947889D02*
X7775039Y-18890746D01*
X7775039Y-18890746D02*
X7784563Y-18871698D01*
X7784563Y-18871698D02*
X7794087Y-18862174D01*
X7794087Y-18862174D02*
X7813134Y-18852650D01*
X7813134Y-18852650D02*
X7841706Y-18852650D01*
X7841706Y-18852650D02*
X7860753Y-18862174D01*
X7860753Y-18862174D02*
X7870277Y-18871698D01*
X7870277Y-18871698D02*
X7879801Y-18890746D01*
X7879801Y-18890746D02*
X7879801Y-18947889D01*
X7879801Y-18947889D02*
X7870277Y-18966936D01*
X7870277Y-18966936D02*
X7860753Y-18976460D01*
X7860753Y-18976460D02*
X7841706Y-18985984D01*
X7841706Y-18985984D02*
X7813134Y-18985984D01*
X7994087Y-18985984D02*
X7975039Y-18976460D01*
X7975039Y-18976460D02*
X7965515Y-18957412D01*
X7965515Y-18957412D02*
X7965515Y-18785984D01*
X8146468Y-18976460D02*
X8127420Y-18985984D01*
X8127420Y-18985984D02*
X8089325Y-18985984D01*
X8089325Y-18985984D02*
X8070277Y-18976460D01*
X8070277Y-18976460D02*
X8060753Y-18957412D01*
X8060753Y-18957412D02*
X8060753Y-18881222D01*
X8060753Y-18881222D02*
X8070277Y-18862174D01*
X8070277Y-18862174D02*
X8089325Y-18852650D01*
X8089325Y-18852650D02*
X8127420Y-18852650D01*
X8127420Y-18852650D02*
X8146468Y-18862174D01*
X8146468Y-18862174D02*
X8155991Y-18881222D01*
X8155991Y-18881222D02*
X8155991Y-18900270D01*
X8155991Y-18900270D02*
X8060753Y-18919317D01*
X8232182Y-18976460D02*
X8251230Y-18985984D01*
X8251230Y-18985984D02*
X8289325Y-18985984D01*
X8289325Y-18985984D02*
X8308372Y-18976460D01*
X8308372Y-18976460D02*
X8317896Y-18957412D01*
X8317896Y-18957412D02*
X8317896Y-18947889D01*
X8317896Y-18947889D02*
X8308372Y-18928841D01*
X8308372Y-18928841D02*
X8289325Y-18919317D01*
X8289325Y-18919317D02*
X8260753Y-18919317D01*
X8260753Y-18919317D02*
X8241706Y-18909793D01*
X8241706Y-18909793D02*
X8232182Y-18890746D01*
X8232182Y-18890746D02*
X8232182Y-18881222D01*
X8232182Y-18881222D02*
X8241706Y-18862174D01*
X8241706Y-18862174D02*
X8260753Y-18852650D01*
X8260753Y-18852650D02*
X8289325Y-18852650D01*
X8289325Y-18852650D02*
X8308372Y-18862174D01*
X8384563Y-19062174D02*
X8394087Y-19052650D01*
X8394087Y-19052650D02*
X8413134Y-19024079D01*
X8413134Y-19024079D02*
X8422658Y-19005031D01*
X8422658Y-19005031D02*
X8432182Y-18976460D01*
X8432182Y-18976460D02*
X8441706Y-18928841D01*
X8441706Y-18928841D02*
X8441706Y-18890746D01*
X8441706Y-18890746D02*
X8432182Y-18843127D01*
X8432182Y-18843127D02*
X8422658Y-18814555D01*
X8422658Y-18814555D02*
X8413134Y-18795508D01*
X8413134Y-18795508D02*
X8394087Y-18766936D01*
X8394087Y-18766936D02*
X8384563Y-18757412D01*
D11*
X3597597Y-19187237D02*
X3597597Y-19129763D01*
X3540123Y-19129763D01*
X3540123Y-19187237D01*
X3597597Y-19187237D01*
D10*
X3908372Y-19049984D02*
X3927420Y-19049984D01*
X3927420Y-19049984D02*
X3946467Y-19059508D01*
X3946467Y-19059508D02*
X3955991Y-19069031D01*
X3955991Y-19069031D02*
X3965515Y-19088079D01*
X3965515Y-19088079D02*
X3975039Y-19126174D01*
X3975039Y-19126174D02*
X3975039Y-19173793D01*
X3975039Y-19173793D02*
X3965515Y-19211889D01*
X3965515Y-19211889D02*
X3955991Y-19230936D01*
X3955991Y-19230936D02*
X3946467Y-19240460D01*
X3946467Y-19240460D02*
X3927420Y-19249984D01*
X3927420Y-19249984D02*
X3908372Y-19249984D01*
X3908372Y-19249984D02*
X3889324Y-19240460D01*
X3889324Y-19240460D02*
X3879801Y-19230936D01*
X3879801Y-19230936D02*
X3870277Y-19211889D01*
X3870277Y-19211889D02*
X3860753Y-19173793D01*
X3860753Y-19173793D02*
X3860753Y-19126174D01*
X3860753Y-19126174D02*
X3870277Y-19088079D01*
X3870277Y-19088079D02*
X3879801Y-19069031D01*
X3879801Y-19069031D02*
X3889324Y-19059508D01*
X3889324Y-19059508D02*
X3908372Y-19049984D01*
X4060753Y-19230936D02*
X4070277Y-19240460D01*
X4070277Y-19240460D02*
X4060753Y-19249984D01*
X4060753Y-19249984D02*
X4051229Y-19240460D01*
X4051229Y-19240460D02*
X4060753Y-19230936D01*
X4060753Y-19230936D02*
X4060753Y-19249984D01*
X4184562Y-19135698D02*
X4165515Y-19126174D01*
X4165515Y-19126174D02*
X4155991Y-19116650D01*
X4155991Y-19116650D02*
X4146467Y-19097603D01*
X4146467Y-19097603D02*
X4146467Y-19088079D01*
X4146467Y-19088079D02*
X4155991Y-19069031D01*
X4155991Y-19069031D02*
X4165515Y-19059508D01*
X4165515Y-19059508D02*
X4184562Y-19049984D01*
X4184562Y-19049984D02*
X4222658Y-19049984D01*
X4222658Y-19049984D02*
X4241705Y-19059508D01*
X4241705Y-19059508D02*
X4251229Y-19069031D01*
X4251229Y-19069031D02*
X4260753Y-19088079D01*
X4260753Y-19088079D02*
X4260753Y-19097603D01*
X4260753Y-19097603D02*
X4251229Y-19116650D01*
X4251229Y-19116650D02*
X4241705Y-19126174D01*
X4241705Y-19126174D02*
X4222658Y-19135698D01*
X4222658Y-19135698D02*
X4184562Y-19135698D01*
X4184562Y-19135698D02*
X4165515Y-19145222D01*
X4165515Y-19145222D02*
X4155991Y-19154746D01*
X4155991Y-19154746D02*
X4146467Y-19173793D01*
X4146467Y-19173793D02*
X4146467Y-19211889D01*
X4146467Y-19211889D02*
X4155991Y-19230936D01*
X4155991Y-19230936D02*
X4165515Y-19240460D01*
X4165515Y-19240460D02*
X4184562Y-19249984D01*
X4184562Y-19249984D02*
X4222658Y-19249984D01*
X4222658Y-19249984D02*
X4241705Y-19240460D01*
X4241705Y-19240460D02*
X4251229Y-19230936D01*
X4251229Y-19230936D02*
X4260753Y-19211889D01*
X4260753Y-19211889D02*
X4260753Y-19173793D01*
X4260753Y-19173793D02*
X4251229Y-19154746D01*
X4251229Y-19154746D02*
X4241705Y-19145222D01*
X4241705Y-19145222D02*
X4222658Y-19135698D01*
X4451229Y-19249984D02*
X4336944Y-19249984D01*
X4394086Y-19249984D02*
X4394086Y-19049984D01*
X4394086Y-19049984D02*
X4375039Y-19078555D01*
X4375039Y-19078555D02*
X4355991Y-19097603D01*
X4355991Y-19097603D02*
X4336944Y-19107127D01*
X4517896Y-19049984D02*
X4641705Y-19049984D01*
X4641705Y-19049984D02*
X4575039Y-19126174D01*
X4575039Y-19126174D02*
X4603610Y-19126174D01*
X4603610Y-19126174D02*
X4622658Y-19135698D01*
X4622658Y-19135698D02*
X4632182Y-19145222D01*
X4632182Y-19145222D02*
X4641705Y-19164270D01*
X4641705Y-19164270D02*
X4641705Y-19211889D01*
X4641705Y-19211889D02*
X4632182Y-19230936D01*
X4632182Y-19230936D02*
X4622658Y-19240460D01*
X4622658Y-19240460D02*
X4603610Y-19249984D01*
X4603610Y-19249984D02*
X4546467Y-19249984D01*
X4546467Y-19249984D02*
X4527420Y-19240460D01*
X4527420Y-19240460D02*
X4517896Y-19230936D01*
X4727420Y-19249984D02*
X4727420Y-19116650D01*
X4727420Y-19135698D02*
X4736944Y-19126174D01*
X4736944Y-19126174D02*
X4755991Y-19116650D01*
X4755991Y-19116650D02*
X4784563Y-19116650D01*
X4784563Y-19116650D02*
X4803610Y-19126174D01*
X4803610Y-19126174D02*
X4813134Y-19145222D01*
X4813134Y-19145222D02*
X4813134Y-19249984D01*
X4813134Y-19145222D02*
X4822658Y-19126174D01*
X4822658Y-19126174D02*
X4841705Y-19116650D01*
X4841705Y-19116650D02*
X4870277Y-19116650D01*
X4870277Y-19116650D02*
X4889325Y-19126174D01*
X4889325Y-19126174D02*
X4898848Y-19145222D01*
X4898848Y-19145222D02*
X4898848Y-19249984D01*
X4994086Y-19249984D02*
X4994086Y-19116650D01*
X4994086Y-19135698D02*
X5003610Y-19126174D01*
X5003610Y-19126174D02*
X5022658Y-19116650D01*
X5022658Y-19116650D02*
X5051229Y-19116650D01*
X5051229Y-19116650D02*
X5070277Y-19126174D01*
X5070277Y-19126174D02*
X5079801Y-19145222D01*
X5079801Y-19145222D02*
X5079801Y-19249984D01*
X5079801Y-19145222D02*
X5089325Y-19126174D01*
X5089325Y-19126174D02*
X5108372Y-19116650D01*
X5108372Y-19116650D02*
X5136944Y-19116650D01*
X5136944Y-19116650D02*
X5155991Y-19126174D01*
X5155991Y-19126174D02*
X5165515Y-19145222D01*
X5165515Y-19145222D02*
X5165515Y-19249984D01*
X5555991Y-19040460D02*
X5384563Y-19297603D01*
X5813134Y-19049984D02*
X5832182Y-19049984D01*
X5832182Y-19049984D02*
X5851229Y-19059508D01*
X5851229Y-19059508D02*
X5860753Y-19069031D01*
X5860753Y-19069031D02*
X5870277Y-19088079D01*
X5870277Y-19088079D02*
X5879801Y-19126174D01*
X5879801Y-19126174D02*
X5879801Y-19173793D01*
X5879801Y-19173793D02*
X5870277Y-19211889D01*
X5870277Y-19211889D02*
X5860753Y-19230936D01*
X5860753Y-19230936D02*
X5851229Y-19240460D01*
X5851229Y-19240460D02*
X5832182Y-19249984D01*
X5832182Y-19249984D02*
X5813134Y-19249984D01*
X5813134Y-19249984D02*
X5794086Y-19240460D01*
X5794086Y-19240460D02*
X5784563Y-19230936D01*
X5784563Y-19230936D02*
X5775039Y-19211889D01*
X5775039Y-19211889D02*
X5765515Y-19173793D01*
X5765515Y-19173793D02*
X5765515Y-19126174D01*
X5765515Y-19126174D02*
X5775039Y-19088079D01*
X5775039Y-19088079D02*
X5784563Y-19069031D01*
X5784563Y-19069031D02*
X5794086Y-19059508D01*
X5794086Y-19059508D02*
X5813134Y-19049984D01*
X5965515Y-19230936D02*
X5975039Y-19240460D01*
X5975039Y-19240460D02*
X5965515Y-19249984D01*
X5965515Y-19249984D02*
X5955991Y-19240460D01*
X5955991Y-19240460D02*
X5965515Y-19230936D01*
X5965515Y-19230936D02*
X5965515Y-19249984D01*
X6098848Y-19049984D02*
X6117896Y-19049984D01*
X6117896Y-19049984D02*
X6136944Y-19059508D01*
X6136944Y-19059508D02*
X6146467Y-19069031D01*
X6146467Y-19069031D02*
X6155991Y-19088079D01*
X6155991Y-19088079D02*
X6165515Y-19126174D01*
X6165515Y-19126174D02*
X6165515Y-19173793D01*
X6165515Y-19173793D02*
X6155991Y-19211889D01*
X6155991Y-19211889D02*
X6146467Y-19230936D01*
X6146467Y-19230936D02*
X6136944Y-19240460D01*
X6136944Y-19240460D02*
X6117896Y-19249984D01*
X6117896Y-19249984D02*
X6098848Y-19249984D01*
X6098848Y-19249984D02*
X6079801Y-19240460D01*
X6079801Y-19240460D02*
X6070277Y-19230936D01*
X6070277Y-19230936D02*
X6060753Y-19211889D01*
X6060753Y-19211889D02*
X6051229Y-19173793D01*
X6051229Y-19173793D02*
X6051229Y-19126174D01*
X6051229Y-19126174D02*
X6060753Y-19088079D01*
X6060753Y-19088079D02*
X6070277Y-19069031D01*
X6070277Y-19069031D02*
X6079801Y-19059508D01*
X6079801Y-19059508D02*
X6098848Y-19049984D01*
X6232182Y-19049984D02*
X6355991Y-19049984D01*
X6355991Y-19049984D02*
X6289325Y-19126174D01*
X6289325Y-19126174D02*
X6317896Y-19126174D01*
X6317896Y-19126174D02*
X6336944Y-19135698D01*
X6336944Y-19135698D02*
X6346467Y-19145222D01*
X6346467Y-19145222D02*
X6355991Y-19164270D01*
X6355991Y-19164270D02*
X6355991Y-19211889D01*
X6355991Y-19211889D02*
X6346467Y-19230936D01*
X6346467Y-19230936D02*
X6336944Y-19240460D01*
X6336944Y-19240460D02*
X6317896Y-19249984D01*
X6317896Y-19249984D02*
X6260753Y-19249984D01*
X6260753Y-19249984D02*
X6241706Y-19240460D01*
X6241706Y-19240460D02*
X6232182Y-19230936D01*
X6432182Y-19069031D02*
X6441706Y-19059508D01*
X6441706Y-19059508D02*
X6460753Y-19049984D01*
X6460753Y-19049984D02*
X6508372Y-19049984D01*
X6508372Y-19049984D02*
X6527420Y-19059508D01*
X6527420Y-19059508D02*
X6536944Y-19069031D01*
X6536944Y-19069031D02*
X6546467Y-19088079D01*
X6546467Y-19088079D02*
X6546467Y-19107127D01*
X6546467Y-19107127D02*
X6536944Y-19135698D01*
X6536944Y-19135698D02*
X6422658Y-19249984D01*
X6422658Y-19249984D02*
X6546467Y-19249984D01*
X6670277Y-19049984D02*
X6689325Y-19049984D01*
X6689325Y-19049984D02*
X6708372Y-19059508D01*
X6708372Y-19059508D02*
X6717896Y-19069031D01*
X6717896Y-19069031D02*
X6727420Y-19088079D01*
X6727420Y-19088079D02*
X6736944Y-19126174D01*
X6736944Y-19126174D02*
X6736944Y-19173793D01*
X6736944Y-19173793D02*
X6727420Y-19211889D01*
X6727420Y-19211889D02*
X6717896Y-19230936D01*
X6717896Y-19230936D02*
X6708372Y-19240460D01*
X6708372Y-19240460D02*
X6689325Y-19249984D01*
X6689325Y-19249984D02*
X6670277Y-19249984D01*
X6670277Y-19249984D02*
X6651229Y-19240460D01*
X6651229Y-19240460D02*
X6641706Y-19230936D01*
X6641706Y-19230936D02*
X6632182Y-19211889D01*
X6632182Y-19211889D02*
X6622658Y-19173793D01*
X6622658Y-19173793D02*
X6622658Y-19126174D01*
X6622658Y-19126174D02*
X6632182Y-19088079D01*
X6632182Y-19088079D02*
X6641706Y-19069031D01*
X6641706Y-19069031D02*
X6651229Y-19059508D01*
X6651229Y-19059508D02*
X6670277Y-19049984D01*
X6813134Y-19049984D02*
X6813134Y-19088079D01*
X6889325Y-19049984D02*
X6889325Y-19088079D01*
X7184563Y-19326174D02*
X7175039Y-19316650D01*
X7175039Y-19316650D02*
X7155991Y-19288079D01*
X7155991Y-19288079D02*
X7146468Y-19269031D01*
X7146468Y-19269031D02*
X7136944Y-19240460D01*
X7136944Y-19240460D02*
X7127420Y-19192841D01*
X7127420Y-19192841D02*
X7127420Y-19154746D01*
X7127420Y-19154746D02*
X7136944Y-19107127D01*
X7136944Y-19107127D02*
X7146468Y-19078555D01*
X7146468Y-19078555D02*
X7155991Y-19059508D01*
X7155991Y-19059508D02*
X7175039Y-19030936D01*
X7175039Y-19030936D02*
X7184563Y-19021412D01*
X7365515Y-19249984D02*
X7251229Y-19249984D01*
X7308372Y-19249984D02*
X7308372Y-19049984D01*
X7308372Y-19049984D02*
X7289325Y-19078555D01*
X7289325Y-19078555D02*
X7270277Y-19097603D01*
X7270277Y-19097603D02*
X7251229Y-19107127D01*
X7536944Y-19049984D02*
X7498848Y-19049984D01*
X7498848Y-19049984D02*
X7479801Y-19059508D01*
X7479801Y-19059508D02*
X7470277Y-19069031D01*
X7470277Y-19069031D02*
X7451229Y-19097603D01*
X7451229Y-19097603D02*
X7441706Y-19135698D01*
X7441706Y-19135698D02*
X7441706Y-19211889D01*
X7441706Y-19211889D02*
X7451229Y-19230936D01*
X7451229Y-19230936D02*
X7460753Y-19240460D01*
X7460753Y-19240460D02*
X7479801Y-19249984D01*
X7479801Y-19249984D02*
X7517896Y-19249984D01*
X7517896Y-19249984D02*
X7536944Y-19240460D01*
X7536944Y-19240460D02*
X7546468Y-19230936D01*
X7546468Y-19230936D02*
X7555991Y-19211889D01*
X7555991Y-19211889D02*
X7555991Y-19164270D01*
X7555991Y-19164270D02*
X7546468Y-19145222D01*
X7546468Y-19145222D02*
X7536944Y-19135698D01*
X7536944Y-19135698D02*
X7517896Y-19126174D01*
X7517896Y-19126174D02*
X7479801Y-19126174D01*
X7479801Y-19126174D02*
X7460753Y-19135698D01*
X7460753Y-19135698D02*
X7451229Y-19145222D01*
X7451229Y-19145222D02*
X7441706Y-19164270D01*
X7794087Y-19249984D02*
X7794087Y-19049984D01*
X7879801Y-19249984D02*
X7879801Y-19145222D01*
X7879801Y-19145222D02*
X7870277Y-19126174D01*
X7870277Y-19126174D02*
X7851230Y-19116650D01*
X7851230Y-19116650D02*
X7822658Y-19116650D01*
X7822658Y-19116650D02*
X7803610Y-19126174D01*
X7803610Y-19126174D02*
X7794087Y-19135698D01*
X8003610Y-19249984D02*
X7984563Y-19240460D01*
X7984563Y-19240460D02*
X7975039Y-19230936D01*
X7975039Y-19230936D02*
X7965515Y-19211889D01*
X7965515Y-19211889D02*
X7965515Y-19154746D01*
X7965515Y-19154746D02*
X7975039Y-19135698D01*
X7975039Y-19135698D02*
X7984563Y-19126174D01*
X7984563Y-19126174D02*
X8003610Y-19116650D01*
X8003610Y-19116650D02*
X8032182Y-19116650D01*
X8032182Y-19116650D02*
X8051230Y-19126174D01*
X8051230Y-19126174D02*
X8060753Y-19135698D01*
X8060753Y-19135698D02*
X8070277Y-19154746D01*
X8070277Y-19154746D02*
X8070277Y-19211889D01*
X8070277Y-19211889D02*
X8060753Y-19230936D01*
X8060753Y-19230936D02*
X8051230Y-19240460D01*
X8051230Y-19240460D02*
X8032182Y-19249984D01*
X8032182Y-19249984D02*
X8003610Y-19249984D01*
X8184563Y-19249984D02*
X8165515Y-19240460D01*
X8165515Y-19240460D02*
X8155991Y-19221412D01*
X8155991Y-19221412D02*
X8155991Y-19049984D01*
X8336944Y-19240460D02*
X8317896Y-19249984D01*
X8317896Y-19249984D02*
X8279801Y-19249984D01*
X8279801Y-19249984D02*
X8260753Y-19240460D01*
X8260753Y-19240460D02*
X8251230Y-19221412D01*
X8251230Y-19221412D02*
X8251230Y-19145222D01*
X8251230Y-19145222D02*
X8260753Y-19126174D01*
X8260753Y-19126174D02*
X8279801Y-19116650D01*
X8279801Y-19116650D02*
X8317896Y-19116650D01*
X8317896Y-19116650D02*
X8336944Y-19126174D01*
X8336944Y-19126174D02*
X8346468Y-19145222D01*
X8346468Y-19145222D02*
X8346468Y-19164270D01*
X8346468Y-19164270D02*
X8251230Y-19183317D01*
X8422658Y-19240460D02*
X8441706Y-19249984D01*
X8441706Y-19249984D02*
X8479801Y-19249984D01*
X8479801Y-19249984D02*
X8498849Y-19240460D01*
X8498849Y-19240460D02*
X8508373Y-19221412D01*
X8508373Y-19221412D02*
X8508373Y-19211889D01*
X8508373Y-19211889D02*
X8498849Y-19192841D01*
X8498849Y-19192841D02*
X8479801Y-19183317D01*
X8479801Y-19183317D02*
X8451230Y-19183317D01*
X8451230Y-19183317D02*
X8432182Y-19173793D01*
X8432182Y-19173793D02*
X8422658Y-19154746D01*
X8422658Y-19154746D02*
X8422658Y-19145222D01*
X8422658Y-19145222D02*
X8432182Y-19126174D01*
X8432182Y-19126174D02*
X8451230Y-19116650D01*
X8451230Y-19116650D02*
X8479801Y-19116650D01*
X8479801Y-19116650D02*
X8498849Y-19126174D01*
X8575039Y-19326174D02*
X8584563Y-19316650D01*
X8584563Y-19316650D02*
X8603611Y-19288079D01*
X8603611Y-19288079D02*
X8613134Y-19269031D01*
X8613134Y-19269031D02*
X8622658Y-19240460D01*
X8622658Y-19240460D02*
X8632182Y-19192841D01*
X8632182Y-19192841D02*
X8632182Y-19154746D01*
X8632182Y-19154746D02*
X8622658Y-19107127D01*
X8622658Y-19107127D02*
X8613134Y-19078555D01*
X8613134Y-19078555D02*
X8603611Y-19059508D01*
X8603611Y-19059508D02*
X8584563Y-19030936D01*
X8584563Y-19030936D02*
X8575039Y-19021412D01*
D11*
X3559500Y-19472500D02*
X3609500Y-19422500D01*
X3559500Y-19372500D01*
X3509500Y-19422500D01*
X3559500Y-19472500D01*
D10*
X3975039Y-19513984D02*
X3860753Y-19513984D01*
X3917896Y-19513984D02*
X3917896Y-19313984D01*
X3917896Y-19313984D02*
X3898848Y-19342555D01*
X3898848Y-19342555D02*
X3879801Y-19361603D01*
X3879801Y-19361603D02*
X3860753Y-19371127D01*
X4060753Y-19494936D02*
X4070277Y-19504460D01*
X4070277Y-19504460D02*
X4060753Y-19513984D01*
X4060753Y-19513984D02*
X4051229Y-19504460D01*
X4051229Y-19504460D02*
X4060753Y-19494936D01*
X4060753Y-19494936D02*
X4060753Y-19513984D01*
X4194086Y-19313984D02*
X4213134Y-19313984D01*
X4213134Y-19313984D02*
X4232182Y-19323508D01*
X4232182Y-19323508D02*
X4241705Y-19333031D01*
X4241705Y-19333031D02*
X4251229Y-19352079D01*
X4251229Y-19352079D02*
X4260753Y-19390174D01*
X4260753Y-19390174D02*
X4260753Y-19437793D01*
X4260753Y-19437793D02*
X4251229Y-19475889D01*
X4251229Y-19475889D02*
X4241705Y-19494936D01*
X4241705Y-19494936D02*
X4232182Y-19504460D01*
X4232182Y-19504460D02*
X4213134Y-19513984D01*
X4213134Y-19513984D02*
X4194086Y-19513984D01*
X4194086Y-19513984D02*
X4175039Y-19504460D01*
X4175039Y-19504460D02*
X4165515Y-19494936D01*
X4165515Y-19494936D02*
X4155991Y-19475889D01*
X4155991Y-19475889D02*
X4146467Y-19437793D01*
X4146467Y-19437793D02*
X4146467Y-19390174D01*
X4146467Y-19390174D02*
X4155991Y-19352079D01*
X4155991Y-19352079D02*
X4165515Y-19333031D01*
X4165515Y-19333031D02*
X4175039Y-19323508D01*
X4175039Y-19323508D02*
X4194086Y-19313984D01*
X4384563Y-19313984D02*
X4403610Y-19313984D01*
X4403610Y-19313984D02*
X4422658Y-19323508D01*
X4422658Y-19323508D02*
X4432182Y-19333031D01*
X4432182Y-19333031D02*
X4441705Y-19352079D01*
X4441705Y-19352079D02*
X4451229Y-19390174D01*
X4451229Y-19390174D02*
X4451229Y-19437793D01*
X4451229Y-19437793D02*
X4441705Y-19475889D01*
X4441705Y-19475889D02*
X4432182Y-19494936D01*
X4432182Y-19494936D02*
X4422658Y-19504460D01*
X4422658Y-19504460D02*
X4403610Y-19513984D01*
X4403610Y-19513984D02*
X4384563Y-19513984D01*
X4384563Y-19513984D02*
X4365515Y-19504460D01*
X4365515Y-19504460D02*
X4355991Y-19494936D01*
X4355991Y-19494936D02*
X4346467Y-19475889D01*
X4346467Y-19475889D02*
X4336944Y-19437793D01*
X4336944Y-19437793D02*
X4336944Y-19390174D01*
X4336944Y-19390174D02*
X4346467Y-19352079D01*
X4346467Y-19352079D02*
X4355991Y-19333031D01*
X4355991Y-19333031D02*
X4365515Y-19323508D01*
X4365515Y-19323508D02*
X4384563Y-19313984D01*
X4575039Y-19313984D02*
X4594086Y-19313984D01*
X4594086Y-19313984D02*
X4613134Y-19323508D01*
X4613134Y-19323508D02*
X4622658Y-19333031D01*
X4622658Y-19333031D02*
X4632182Y-19352079D01*
X4632182Y-19352079D02*
X4641705Y-19390174D01*
X4641705Y-19390174D02*
X4641705Y-19437793D01*
X4641705Y-19437793D02*
X4632182Y-19475889D01*
X4632182Y-19475889D02*
X4622658Y-19494936D01*
X4622658Y-19494936D02*
X4613134Y-19504460D01*
X4613134Y-19504460D02*
X4594086Y-19513984D01*
X4594086Y-19513984D02*
X4575039Y-19513984D01*
X4575039Y-19513984D02*
X4555991Y-19504460D01*
X4555991Y-19504460D02*
X4546467Y-19494936D01*
X4546467Y-19494936D02*
X4536944Y-19475889D01*
X4536944Y-19475889D02*
X4527420Y-19437793D01*
X4527420Y-19437793D02*
X4527420Y-19390174D01*
X4527420Y-19390174D02*
X4536944Y-19352079D01*
X4536944Y-19352079D02*
X4546467Y-19333031D01*
X4546467Y-19333031D02*
X4555991Y-19323508D01*
X4555991Y-19323508D02*
X4575039Y-19313984D01*
X4727420Y-19513984D02*
X4727420Y-19380650D01*
X4727420Y-19399698D02*
X4736944Y-19390174D01*
X4736944Y-19390174D02*
X4755991Y-19380650D01*
X4755991Y-19380650D02*
X4784563Y-19380650D01*
X4784563Y-19380650D02*
X4803610Y-19390174D01*
X4803610Y-19390174D02*
X4813134Y-19409222D01*
X4813134Y-19409222D02*
X4813134Y-19513984D01*
X4813134Y-19409222D02*
X4822658Y-19390174D01*
X4822658Y-19390174D02*
X4841705Y-19380650D01*
X4841705Y-19380650D02*
X4870277Y-19380650D01*
X4870277Y-19380650D02*
X4889325Y-19390174D01*
X4889325Y-19390174D02*
X4898848Y-19409222D01*
X4898848Y-19409222D02*
X4898848Y-19513984D01*
X4994086Y-19513984D02*
X4994086Y-19380650D01*
X4994086Y-19399698D02*
X5003610Y-19390174D01*
X5003610Y-19390174D02*
X5022658Y-19380650D01*
X5022658Y-19380650D02*
X5051229Y-19380650D01*
X5051229Y-19380650D02*
X5070277Y-19390174D01*
X5070277Y-19390174D02*
X5079801Y-19409222D01*
X5079801Y-19409222D02*
X5079801Y-19513984D01*
X5079801Y-19409222D02*
X5089325Y-19390174D01*
X5089325Y-19390174D02*
X5108372Y-19380650D01*
X5108372Y-19380650D02*
X5136944Y-19380650D01*
X5136944Y-19380650D02*
X5155991Y-19390174D01*
X5155991Y-19390174D02*
X5165515Y-19409222D01*
X5165515Y-19409222D02*
X5165515Y-19513984D01*
X5555991Y-19304460D02*
X5384563Y-19561603D01*
X5813134Y-19313984D02*
X5832182Y-19313984D01*
X5832182Y-19313984D02*
X5851229Y-19323508D01*
X5851229Y-19323508D02*
X5860753Y-19333031D01*
X5860753Y-19333031D02*
X5870277Y-19352079D01*
X5870277Y-19352079D02*
X5879801Y-19390174D01*
X5879801Y-19390174D02*
X5879801Y-19437793D01*
X5879801Y-19437793D02*
X5870277Y-19475889D01*
X5870277Y-19475889D02*
X5860753Y-19494936D01*
X5860753Y-19494936D02*
X5851229Y-19504460D01*
X5851229Y-19504460D02*
X5832182Y-19513984D01*
X5832182Y-19513984D02*
X5813134Y-19513984D01*
X5813134Y-19513984D02*
X5794086Y-19504460D01*
X5794086Y-19504460D02*
X5784563Y-19494936D01*
X5784563Y-19494936D02*
X5775039Y-19475889D01*
X5775039Y-19475889D02*
X5765515Y-19437793D01*
X5765515Y-19437793D02*
X5765515Y-19390174D01*
X5765515Y-19390174D02*
X5775039Y-19352079D01*
X5775039Y-19352079D02*
X5784563Y-19333031D01*
X5784563Y-19333031D02*
X5794086Y-19323508D01*
X5794086Y-19323508D02*
X5813134Y-19313984D01*
X5965515Y-19494936D02*
X5975039Y-19504460D01*
X5975039Y-19504460D02*
X5965515Y-19513984D01*
X5965515Y-19513984D02*
X5955991Y-19504460D01*
X5955991Y-19504460D02*
X5965515Y-19494936D01*
X5965515Y-19494936D02*
X5965515Y-19513984D01*
X6098848Y-19313984D02*
X6117896Y-19313984D01*
X6117896Y-19313984D02*
X6136944Y-19323508D01*
X6136944Y-19323508D02*
X6146467Y-19333031D01*
X6146467Y-19333031D02*
X6155991Y-19352079D01*
X6155991Y-19352079D02*
X6165515Y-19390174D01*
X6165515Y-19390174D02*
X6165515Y-19437793D01*
X6165515Y-19437793D02*
X6155991Y-19475889D01*
X6155991Y-19475889D02*
X6146467Y-19494936D01*
X6146467Y-19494936D02*
X6136944Y-19504460D01*
X6136944Y-19504460D02*
X6117896Y-19513984D01*
X6117896Y-19513984D02*
X6098848Y-19513984D01*
X6098848Y-19513984D02*
X6079801Y-19504460D01*
X6079801Y-19504460D02*
X6070277Y-19494936D01*
X6070277Y-19494936D02*
X6060753Y-19475889D01*
X6060753Y-19475889D02*
X6051229Y-19437793D01*
X6051229Y-19437793D02*
X6051229Y-19390174D01*
X6051229Y-19390174D02*
X6060753Y-19352079D01*
X6060753Y-19352079D02*
X6070277Y-19333031D01*
X6070277Y-19333031D02*
X6079801Y-19323508D01*
X6079801Y-19323508D02*
X6098848Y-19313984D01*
X6232182Y-19313984D02*
X6355991Y-19313984D01*
X6355991Y-19313984D02*
X6289325Y-19390174D01*
X6289325Y-19390174D02*
X6317896Y-19390174D01*
X6317896Y-19390174D02*
X6336944Y-19399698D01*
X6336944Y-19399698D02*
X6346467Y-19409222D01*
X6346467Y-19409222D02*
X6355991Y-19428270D01*
X6355991Y-19428270D02*
X6355991Y-19475889D01*
X6355991Y-19475889D02*
X6346467Y-19494936D01*
X6346467Y-19494936D02*
X6336944Y-19504460D01*
X6336944Y-19504460D02*
X6317896Y-19513984D01*
X6317896Y-19513984D02*
X6260753Y-19513984D01*
X6260753Y-19513984D02*
X6241706Y-19504460D01*
X6241706Y-19504460D02*
X6232182Y-19494936D01*
X6451229Y-19513984D02*
X6489325Y-19513984D01*
X6489325Y-19513984D02*
X6508372Y-19504460D01*
X6508372Y-19504460D02*
X6517896Y-19494936D01*
X6517896Y-19494936D02*
X6536944Y-19466365D01*
X6536944Y-19466365D02*
X6546467Y-19428270D01*
X6546467Y-19428270D02*
X6546467Y-19352079D01*
X6546467Y-19352079D02*
X6536944Y-19333031D01*
X6536944Y-19333031D02*
X6527420Y-19323508D01*
X6527420Y-19323508D02*
X6508372Y-19313984D01*
X6508372Y-19313984D02*
X6470277Y-19313984D01*
X6470277Y-19313984D02*
X6451229Y-19323508D01*
X6451229Y-19323508D02*
X6441706Y-19333031D01*
X6441706Y-19333031D02*
X6432182Y-19352079D01*
X6432182Y-19352079D02*
X6432182Y-19399698D01*
X6432182Y-19399698D02*
X6441706Y-19418746D01*
X6441706Y-19418746D02*
X6451229Y-19428270D01*
X6451229Y-19428270D02*
X6470277Y-19437793D01*
X6470277Y-19437793D02*
X6508372Y-19437793D01*
X6508372Y-19437793D02*
X6527420Y-19428270D01*
X6527420Y-19428270D02*
X6536944Y-19418746D01*
X6536944Y-19418746D02*
X6546467Y-19399698D01*
X6717896Y-19380650D02*
X6717896Y-19513984D01*
X6670277Y-19304460D02*
X6622658Y-19447317D01*
X6622658Y-19447317D02*
X6746467Y-19447317D01*
X6813134Y-19313984D02*
X6813134Y-19352079D01*
X6889325Y-19313984D02*
X6889325Y-19352079D01*
X7184563Y-19590174D02*
X7175039Y-19580650D01*
X7175039Y-19580650D02*
X7155991Y-19552079D01*
X7155991Y-19552079D02*
X7146468Y-19533031D01*
X7146468Y-19533031D02*
X7136944Y-19504460D01*
X7136944Y-19504460D02*
X7127420Y-19456841D01*
X7127420Y-19456841D02*
X7127420Y-19418746D01*
X7127420Y-19418746D02*
X7136944Y-19371127D01*
X7136944Y-19371127D02*
X7146468Y-19342555D01*
X7146468Y-19342555D02*
X7155991Y-19323508D01*
X7155991Y-19323508D02*
X7175039Y-19294936D01*
X7175039Y-19294936D02*
X7184563Y-19285412D01*
X7251229Y-19333031D02*
X7260753Y-19323508D01*
X7260753Y-19323508D02*
X7279801Y-19313984D01*
X7279801Y-19313984D02*
X7327420Y-19313984D01*
X7327420Y-19313984D02*
X7346468Y-19323508D01*
X7346468Y-19323508D02*
X7355991Y-19333031D01*
X7355991Y-19333031D02*
X7365515Y-19352079D01*
X7365515Y-19352079D02*
X7365515Y-19371127D01*
X7365515Y-19371127D02*
X7355991Y-19399698D01*
X7355991Y-19399698D02*
X7241706Y-19513984D01*
X7241706Y-19513984D02*
X7365515Y-19513984D01*
X7536944Y-19380650D02*
X7536944Y-19513984D01*
X7489325Y-19304460D02*
X7441706Y-19447317D01*
X7441706Y-19447317D02*
X7565515Y-19447317D01*
X7794087Y-19513984D02*
X7794087Y-19313984D01*
X7879801Y-19513984D02*
X7879801Y-19409222D01*
X7879801Y-19409222D02*
X7870277Y-19390174D01*
X7870277Y-19390174D02*
X7851230Y-19380650D01*
X7851230Y-19380650D02*
X7822658Y-19380650D01*
X7822658Y-19380650D02*
X7803610Y-19390174D01*
X7803610Y-19390174D02*
X7794087Y-19399698D01*
X8003610Y-19513984D02*
X7984563Y-19504460D01*
X7984563Y-19504460D02*
X7975039Y-19494936D01*
X7975039Y-19494936D02*
X7965515Y-19475889D01*
X7965515Y-19475889D02*
X7965515Y-19418746D01*
X7965515Y-19418746D02*
X7975039Y-19399698D01*
X7975039Y-19399698D02*
X7984563Y-19390174D01*
X7984563Y-19390174D02*
X8003610Y-19380650D01*
X8003610Y-19380650D02*
X8032182Y-19380650D01*
X8032182Y-19380650D02*
X8051230Y-19390174D01*
X8051230Y-19390174D02*
X8060753Y-19399698D01*
X8060753Y-19399698D02*
X8070277Y-19418746D01*
X8070277Y-19418746D02*
X8070277Y-19475889D01*
X8070277Y-19475889D02*
X8060753Y-19494936D01*
X8060753Y-19494936D02*
X8051230Y-19504460D01*
X8051230Y-19504460D02*
X8032182Y-19513984D01*
X8032182Y-19513984D02*
X8003610Y-19513984D01*
X8184563Y-19513984D02*
X8165515Y-19504460D01*
X8165515Y-19504460D02*
X8155991Y-19485412D01*
X8155991Y-19485412D02*
X8155991Y-19313984D01*
X8336944Y-19504460D02*
X8317896Y-19513984D01*
X8317896Y-19513984D02*
X8279801Y-19513984D01*
X8279801Y-19513984D02*
X8260753Y-19504460D01*
X8260753Y-19504460D02*
X8251230Y-19485412D01*
X8251230Y-19485412D02*
X8251230Y-19409222D01*
X8251230Y-19409222D02*
X8260753Y-19390174D01*
X8260753Y-19390174D02*
X8279801Y-19380650D01*
X8279801Y-19380650D02*
X8317896Y-19380650D01*
X8317896Y-19380650D02*
X8336944Y-19390174D01*
X8336944Y-19390174D02*
X8346468Y-19409222D01*
X8346468Y-19409222D02*
X8346468Y-19428270D01*
X8346468Y-19428270D02*
X8251230Y-19447317D01*
X8422658Y-19504460D02*
X8441706Y-19513984D01*
X8441706Y-19513984D02*
X8479801Y-19513984D01*
X8479801Y-19513984D02*
X8498849Y-19504460D01*
X8498849Y-19504460D02*
X8508373Y-19485412D01*
X8508373Y-19485412D02*
X8508373Y-19475889D01*
X8508373Y-19475889D02*
X8498849Y-19456841D01*
X8498849Y-19456841D02*
X8479801Y-19447317D01*
X8479801Y-19447317D02*
X8451230Y-19447317D01*
X8451230Y-19447317D02*
X8432182Y-19437793D01*
X8432182Y-19437793D02*
X8422658Y-19418746D01*
X8422658Y-19418746D02*
X8422658Y-19409222D01*
X8422658Y-19409222D02*
X8432182Y-19390174D01*
X8432182Y-19390174D02*
X8451230Y-19380650D01*
X8451230Y-19380650D02*
X8479801Y-19380650D01*
X8479801Y-19380650D02*
X8498849Y-19390174D01*
X8575039Y-19590174D02*
X8584563Y-19580650D01*
X8584563Y-19580650D02*
X8603611Y-19552079D01*
X8603611Y-19552079D02*
X8613134Y-19533031D01*
X8613134Y-19533031D02*
X8622658Y-19504460D01*
X8622658Y-19504460D02*
X8632182Y-19456841D01*
X8632182Y-19456841D02*
X8632182Y-19418746D01*
X8632182Y-19418746D02*
X8622658Y-19371127D01*
X8622658Y-19371127D02*
X8613134Y-19342555D01*
X8613134Y-19342555D02*
X8603611Y-19323508D01*
X8603611Y-19323508D02*
X8584563Y-19294936D01*
X8584563Y-19294936D02*
X8575039Y-19285412D01*
D12*
X3507900Y-19635700D02*
X3609500Y-19737300D01*
X3609500Y-19635700D02*
X3507900Y-19737300D01*
X3609500Y-19686500D02*
G75*
G02*
X3507900Y-19686500I-50800J0D01*
G01*
X3507900Y-19686500D02*
G75*
G02*
X3609500Y-19686500I50800J0D01*
G01*
D10*
X3975039Y-19777984D02*
X3860753Y-19777984D01*
X3917896Y-19777984D02*
X3917896Y-19577984D01*
X3917896Y-19577984D02*
X3898848Y-19606555D01*
X3898848Y-19606555D02*
X3879801Y-19625603D01*
X3879801Y-19625603D02*
X3860753Y-19635127D01*
X4060753Y-19758936D02*
X4070277Y-19768460D01*
X4070277Y-19768460D02*
X4060753Y-19777984D01*
X4060753Y-19777984D02*
X4051229Y-19768460D01*
X4051229Y-19768460D02*
X4060753Y-19758936D01*
X4060753Y-19758936D02*
X4060753Y-19777984D01*
X4194086Y-19577984D02*
X4213134Y-19577984D01*
X4213134Y-19577984D02*
X4232182Y-19587508D01*
X4232182Y-19587508D02*
X4241705Y-19597031D01*
X4241705Y-19597031D02*
X4251229Y-19616079D01*
X4251229Y-19616079D02*
X4260753Y-19654174D01*
X4260753Y-19654174D02*
X4260753Y-19701793D01*
X4260753Y-19701793D02*
X4251229Y-19739889D01*
X4251229Y-19739889D02*
X4241705Y-19758936D01*
X4241705Y-19758936D02*
X4232182Y-19768460D01*
X4232182Y-19768460D02*
X4213134Y-19777984D01*
X4213134Y-19777984D02*
X4194086Y-19777984D01*
X4194086Y-19777984D02*
X4175039Y-19768460D01*
X4175039Y-19768460D02*
X4165515Y-19758936D01*
X4165515Y-19758936D02*
X4155991Y-19739889D01*
X4155991Y-19739889D02*
X4146467Y-19701793D01*
X4146467Y-19701793D02*
X4146467Y-19654174D01*
X4146467Y-19654174D02*
X4155991Y-19616079D01*
X4155991Y-19616079D02*
X4165515Y-19597031D01*
X4165515Y-19597031D02*
X4175039Y-19587508D01*
X4175039Y-19587508D02*
X4194086Y-19577984D01*
X4451229Y-19777984D02*
X4336944Y-19777984D01*
X4394086Y-19777984D02*
X4394086Y-19577984D01*
X4394086Y-19577984D02*
X4375039Y-19606555D01*
X4375039Y-19606555D02*
X4355991Y-19625603D01*
X4355991Y-19625603D02*
X4336944Y-19635127D01*
X4622658Y-19577984D02*
X4584563Y-19577984D01*
X4584563Y-19577984D02*
X4565515Y-19587508D01*
X4565515Y-19587508D02*
X4555991Y-19597031D01*
X4555991Y-19597031D02*
X4536944Y-19625603D01*
X4536944Y-19625603D02*
X4527420Y-19663698D01*
X4527420Y-19663698D02*
X4527420Y-19739889D01*
X4527420Y-19739889D02*
X4536944Y-19758936D01*
X4536944Y-19758936D02*
X4546467Y-19768460D01*
X4546467Y-19768460D02*
X4565515Y-19777984D01*
X4565515Y-19777984D02*
X4603610Y-19777984D01*
X4603610Y-19777984D02*
X4622658Y-19768460D01*
X4622658Y-19768460D02*
X4632182Y-19758936D01*
X4632182Y-19758936D02*
X4641705Y-19739889D01*
X4641705Y-19739889D02*
X4641705Y-19692270D01*
X4641705Y-19692270D02*
X4632182Y-19673222D01*
X4632182Y-19673222D02*
X4622658Y-19663698D01*
X4622658Y-19663698D02*
X4603610Y-19654174D01*
X4603610Y-19654174D02*
X4565515Y-19654174D01*
X4565515Y-19654174D02*
X4546467Y-19663698D01*
X4546467Y-19663698D02*
X4536944Y-19673222D01*
X4536944Y-19673222D02*
X4527420Y-19692270D01*
X4727420Y-19777984D02*
X4727420Y-19644650D01*
X4727420Y-19663698D02*
X4736944Y-19654174D01*
X4736944Y-19654174D02*
X4755991Y-19644650D01*
X4755991Y-19644650D02*
X4784563Y-19644650D01*
X4784563Y-19644650D02*
X4803610Y-19654174D01*
X4803610Y-19654174D02*
X4813134Y-19673222D01*
X4813134Y-19673222D02*
X4813134Y-19777984D01*
X4813134Y-19673222D02*
X4822658Y-19654174D01*
X4822658Y-19654174D02*
X4841705Y-19644650D01*
X4841705Y-19644650D02*
X4870277Y-19644650D01*
X4870277Y-19644650D02*
X4889325Y-19654174D01*
X4889325Y-19654174D02*
X4898848Y-19673222D01*
X4898848Y-19673222D02*
X4898848Y-19777984D01*
X4994086Y-19777984D02*
X4994086Y-19644650D01*
X4994086Y-19663698D02*
X5003610Y-19654174D01*
X5003610Y-19654174D02*
X5022658Y-19644650D01*
X5022658Y-19644650D02*
X5051229Y-19644650D01*
X5051229Y-19644650D02*
X5070277Y-19654174D01*
X5070277Y-19654174D02*
X5079801Y-19673222D01*
X5079801Y-19673222D02*
X5079801Y-19777984D01*
X5079801Y-19673222D02*
X5089325Y-19654174D01*
X5089325Y-19654174D02*
X5108372Y-19644650D01*
X5108372Y-19644650D02*
X5136944Y-19644650D01*
X5136944Y-19644650D02*
X5155991Y-19654174D01*
X5155991Y-19654174D02*
X5165515Y-19673222D01*
X5165515Y-19673222D02*
X5165515Y-19777984D01*
X5555991Y-19568460D02*
X5384563Y-19825603D01*
X5813134Y-19577984D02*
X5832182Y-19577984D01*
X5832182Y-19577984D02*
X5851229Y-19587508D01*
X5851229Y-19587508D02*
X5860753Y-19597031D01*
X5860753Y-19597031D02*
X5870277Y-19616079D01*
X5870277Y-19616079D02*
X5879801Y-19654174D01*
X5879801Y-19654174D02*
X5879801Y-19701793D01*
X5879801Y-19701793D02*
X5870277Y-19739889D01*
X5870277Y-19739889D02*
X5860753Y-19758936D01*
X5860753Y-19758936D02*
X5851229Y-19768460D01*
X5851229Y-19768460D02*
X5832182Y-19777984D01*
X5832182Y-19777984D02*
X5813134Y-19777984D01*
X5813134Y-19777984D02*
X5794086Y-19768460D01*
X5794086Y-19768460D02*
X5784563Y-19758936D01*
X5784563Y-19758936D02*
X5775039Y-19739889D01*
X5775039Y-19739889D02*
X5765515Y-19701793D01*
X5765515Y-19701793D02*
X5765515Y-19654174D01*
X5765515Y-19654174D02*
X5775039Y-19616079D01*
X5775039Y-19616079D02*
X5784563Y-19597031D01*
X5784563Y-19597031D02*
X5794086Y-19587508D01*
X5794086Y-19587508D02*
X5813134Y-19577984D01*
X5965515Y-19758936D02*
X5975039Y-19768460D01*
X5975039Y-19768460D02*
X5965515Y-19777984D01*
X5965515Y-19777984D02*
X5955991Y-19768460D01*
X5955991Y-19768460D02*
X5965515Y-19758936D01*
X5965515Y-19758936D02*
X5965515Y-19777984D01*
X6098848Y-19577984D02*
X6117896Y-19577984D01*
X6117896Y-19577984D02*
X6136944Y-19587508D01*
X6136944Y-19587508D02*
X6146467Y-19597031D01*
X6146467Y-19597031D02*
X6155991Y-19616079D01*
X6155991Y-19616079D02*
X6165515Y-19654174D01*
X6165515Y-19654174D02*
X6165515Y-19701793D01*
X6165515Y-19701793D02*
X6155991Y-19739889D01*
X6155991Y-19739889D02*
X6146467Y-19758936D01*
X6146467Y-19758936D02*
X6136944Y-19768460D01*
X6136944Y-19768460D02*
X6117896Y-19777984D01*
X6117896Y-19777984D02*
X6098848Y-19777984D01*
X6098848Y-19777984D02*
X6079801Y-19768460D01*
X6079801Y-19768460D02*
X6070277Y-19758936D01*
X6070277Y-19758936D02*
X6060753Y-19739889D01*
X6060753Y-19739889D02*
X6051229Y-19701793D01*
X6051229Y-19701793D02*
X6051229Y-19654174D01*
X6051229Y-19654174D02*
X6060753Y-19616079D01*
X6060753Y-19616079D02*
X6070277Y-19597031D01*
X6070277Y-19597031D02*
X6079801Y-19587508D01*
X6079801Y-19587508D02*
X6098848Y-19577984D01*
X6336944Y-19644650D02*
X6336944Y-19777984D01*
X6289325Y-19568460D02*
X6241706Y-19711317D01*
X6241706Y-19711317D02*
X6365515Y-19711317D01*
X6479801Y-19577984D02*
X6498848Y-19577984D01*
X6498848Y-19577984D02*
X6517896Y-19587508D01*
X6517896Y-19587508D02*
X6527420Y-19597031D01*
X6527420Y-19597031D02*
X6536944Y-19616079D01*
X6536944Y-19616079D02*
X6546467Y-19654174D01*
X6546467Y-19654174D02*
X6546467Y-19701793D01*
X6546467Y-19701793D02*
X6536944Y-19739889D01*
X6536944Y-19739889D02*
X6527420Y-19758936D01*
X6527420Y-19758936D02*
X6517896Y-19768460D01*
X6517896Y-19768460D02*
X6498848Y-19777984D01*
X6498848Y-19777984D02*
X6479801Y-19777984D01*
X6479801Y-19777984D02*
X6460753Y-19768460D01*
X6460753Y-19768460D02*
X6451229Y-19758936D01*
X6451229Y-19758936D02*
X6441706Y-19739889D01*
X6441706Y-19739889D02*
X6432182Y-19701793D01*
X6432182Y-19701793D02*
X6432182Y-19654174D01*
X6432182Y-19654174D02*
X6441706Y-19616079D01*
X6441706Y-19616079D02*
X6451229Y-19597031D01*
X6451229Y-19597031D02*
X6460753Y-19587508D01*
X6460753Y-19587508D02*
X6479801Y-19577984D01*
X6670277Y-19577984D02*
X6689325Y-19577984D01*
X6689325Y-19577984D02*
X6708372Y-19587508D01*
X6708372Y-19587508D02*
X6717896Y-19597031D01*
X6717896Y-19597031D02*
X6727420Y-19616079D01*
X6727420Y-19616079D02*
X6736944Y-19654174D01*
X6736944Y-19654174D02*
X6736944Y-19701793D01*
X6736944Y-19701793D02*
X6727420Y-19739889D01*
X6727420Y-19739889D02*
X6717896Y-19758936D01*
X6717896Y-19758936D02*
X6708372Y-19768460D01*
X6708372Y-19768460D02*
X6689325Y-19777984D01*
X6689325Y-19777984D02*
X6670277Y-19777984D01*
X6670277Y-19777984D02*
X6651229Y-19768460D01*
X6651229Y-19768460D02*
X6641706Y-19758936D01*
X6641706Y-19758936D02*
X6632182Y-19739889D01*
X6632182Y-19739889D02*
X6622658Y-19701793D01*
X6622658Y-19701793D02*
X6622658Y-19654174D01*
X6622658Y-19654174D02*
X6632182Y-19616079D01*
X6632182Y-19616079D02*
X6641706Y-19597031D01*
X6641706Y-19597031D02*
X6651229Y-19587508D01*
X6651229Y-19587508D02*
X6670277Y-19577984D01*
X6813134Y-19577984D02*
X6813134Y-19616079D01*
X6889325Y-19577984D02*
X6889325Y-19616079D01*
X7184563Y-19854174D02*
X7175039Y-19844650D01*
X7175039Y-19844650D02*
X7155991Y-19816079D01*
X7155991Y-19816079D02*
X7146468Y-19797031D01*
X7146468Y-19797031D02*
X7136944Y-19768460D01*
X7136944Y-19768460D02*
X7127420Y-19720841D01*
X7127420Y-19720841D02*
X7127420Y-19682746D01*
X7127420Y-19682746D02*
X7136944Y-19635127D01*
X7136944Y-19635127D02*
X7146468Y-19606555D01*
X7146468Y-19606555D02*
X7155991Y-19587508D01*
X7155991Y-19587508D02*
X7175039Y-19558936D01*
X7175039Y-19558936D02*
X7184563Y-19549412D01*
X7365515Y-19777984D02*
X7251229Y-19777984D01*
X7308372Y-19777984D02*
X7308372Y-19577984D01*
X7308372Y-19577984D02*
X7289325Y-19606555D01*
X7289325Y-19606555D02*
X7270277Y-19625603D01*
X7270277Y-19625603D02*
X7251229Y-19635127D01*
X7441706Y-19597031D02*
X7451229Y-19587508D01*
X7451229Y-19587508D02*
X7470277Y-19577984D01*
X7470277Y-19577984D02*
X7517896Y-19577984D01*
X7517896Y-19577984D02*
X7536944Y-19587508D01*
X7536944Y-19587508D02*
X7546468Y-19597031D01*
X7546468Y-19597031D02*
X7555991Y-19616079D01*
X7555991Y-19616079D02*
X7555991Y-19635127D01*
X7555991Y-19635127D02*
X7546468Y-19663698D01*
X7546468Y-19663698D02*
X7432182Y-19777984D01*
X7432182Y-19777984D02*
X7555991Y-19777984D01*
X7794087Y-19777984D02*
X7794087Y-19577984D01*
X7879801Y-19777984D02*
X7879801Y-19673222D01*
X7879801Y-19673222D02*
X7870277Y-19654174D01*
X7870277Y-19654174D02*
X7851230Y-19644650D01*
X7851230Y-19644650D02*
X7822658Y-19644650D01*
X7822658Y-19644650D02*
X7803610Y-19654174D01*
X7803610Y-19654174D02*
X7794087Y-19663698D01*
X8003610Y-19777984D02*
X7984563Y-19768460D01*
X7984563Y-19768460D02*
X7975039Y-19758936D01*
X7975039Y-19758936D02*
X7965515Y-19739889D01*
X7965515Y-19739889D02*
X7965515Y-19682746D01*
X7965515Y-19682746D02*
X7975039Y-19663698D01*
X7975039Y-19663698D02*
X7984563Y-19654174D01*
X7984563Y-19654174D02*
X8003610Y-19644650D01*
X8003610Y-19644650D02*
X8032182Y-19644650D01*
X8032182Y-19644650D02*
X8051230Y-19654174D01*
X8051230Y-19654174D02*
X8060753Y-19663698D01*
X8060753Y-19663698D02*
X8070277Y-19682746D01*
X8070277Y-19682746D02*
X8070277Y-19739889D01*
X8070277Y-19739889D02*
X8060753Y-19758936D01*
X8060753Y-19758936D02*
X8051230Y-19768460D01*
X8051230Y-19768460D02*
X8032182Y-19777984D01*
X8032182Y-19777984D02*
X8003610Y-19777984D01*
X8184563Y-19777984D02*
X8165515Y-19768460D01*
X8165515Y-19768460D02*
X8155991Y-19749412D01*
X8155991Y-19749412D02*
X8155991Y-19577984D01*
X8336944Y-19768460D02*
X8317896Y-19777984D01*
X8317896Y-19777984D02*
X8279801Y-19777984D01*
X8279801Y-19777984D02*
X8260753Y-19768460D01*
X8260753Y-19768460D02*
X8251230Y-19749412D01*
X8251230Y-19749412D02*
X8251230Y-19673222D01*
X8251230Y-19673222D02*
X8260753Y-19654174D01*
X8260753Y-19654174D02*
X8279801Y-19644650D01*
X8279801Y-19644650D02*
X8317896Y-19644650D01*
X8317896Y-19644650D02*
X8336944Y-19654174D01*
X8336944Y-19654174D02*
X8346468Y-19673222D01*
X8346468Y-19673222D02*
X8346468Y-19692270D01*
X8346468Y-19692270D02*
X8251230Y-19711317D01*
X8422658Y-19768460D02*
X8441706Y-19777984D01*
X8441706Y-19777984D02*
X8479801Y-19777984D01*
X8479801Y-19777984D02*
X8498849Y-19768460D01*
X8498849Y-19768460D02*
X8508373Y-19749412D01*
X8508373Y-19749412D02*
X8508373Y-19739889D01*
X8508373Y-19739889D02*
X8498849Y-19720841D01*
X8498849Y-19720841D02*
X8479801Y-19711317D01*
X8479801Y-19711317D02*
X8451230Y-19711317D01*
X8451230Y-19711317D02*
X8432182Y-19701793D01*
X8432182Y-19701793D02*
X8422658Y-19682746D01*
X8422658Y-19682746D02*
X8422658Y-19673222D01*
X8422658Y-19673222D02*
X8432182Y-19654174D01*
X8432182Y-19654174D02*
X8451230Y-19644650D01*
X8451230Y-19644650D02*
X8479801Y-19644650D01*
X8479801Y-19644650D02*
X8498849Y-19654174D01*
X8575039Y-19854174D02*
X8584563Y-19844650D01*
X8584563Y-19844650D02*
X8603611Y-19816079D01*
X8603611Y-19816079D02*
X8613134Y-19797031D01*
X8613134Y-19797031D02*
X8622658Y-19768460D01*
X8622658Y-19768460D02*
X8632182Y-19720841D01*
X8632182Y-19720841D02*
X8632182Y-19682746D01*
X8632182Y-19682746D02*
X8622658Y-19635127D01*
X8622658Y-19635127D02*
X8613134Y-19606555D01*
X8613134Y-19606555D02*
X8603611Y-19587508D01*
X8603611Y-19587508D02*
X8584563Y-19558936D01*
X8584563Y-19558936D02*
X8575039Y-19549412D01*
D13*
X3490500Y-19891000D02*
X3609500Y-20010000D01*
X3609500Y-19891000D02*
X3490500Y-20010000D01*
X3550000Y-19891000D02*
X3550000Y-20010000D01*
X3490500Y-19950500D02*
X3609500Y-19950500D01*
D10*
X3975039Y-20041984D02*
X3860753Y-20041984D01*
X3917896Y-20041984D02*
X3917896Y-19841984D01*
X3917896Y-19841984D02*
X3898848Y-19870555D01*
X3898848Y-19870555D02*
X3879801Y-19889603D01*
X3879801Y-19889603D02*
X3860753Y-19899127D01*
X4060753Y-20022936D02*
X4070277Y-20032460D01*
X4070277Y-20032460D02*
X4060753Y-20041984D01*
X4060753Y-20041984D02*
X4051229Y-20032460D01*
X4051229Y-20032460D02*
X4060753Y-20022936D01*
X4060753Y-20022936D02*
X4060753Y-20041984D01*
X4260753Y-20041984D02*
X4146467Y-20041984D01*
X4203610Y-20041984D02*
X4203610Y-19841984D01*
X4203610Y-19841984D02*
X4184562Y-19870555D01*
X4184562Y-19870555D02*
X4165515Y-19889603D01*
X4165515Y-19889603D02*
X4146467Y-19899127D01*
X4355991Y-20041984D02*
X4394086Y-20041984D01*
X4394086Y-20041984D02*
X4413134Y-20032460D01*
X4413134Y-20032460D02*
X4422658Y-20022936D01*
X4422658Y-20022936D02*
X4441705Y-19994365D01*
X4441705Y-19994365D02*
X4451229Y-19956270D01*
X4451229Y-19956270D02*
X4451229Y-19880079D01*
X4451229Y-19880079D02*
X4441705Y-19861031D01*
X4441705Y-19861031D02*
X4432182Y-19851508D01*
X4432182Y-19851508D02*
X4413134Y-19841984D01*
X4413134Y-19841984D02*
X4375039Y-19841984D01*
X4375039Y-19841984D02*
X4355991Y-19851508D01*
X4355991Y-19851508D02*
X4346467Y-19861031D01*
X4346467Y-19861031D02*
X4336944Y-19880079D01*
X4336944Y-19880079D02*
X4336944Y-19927698D01*
X4336944Y-19927698D02*
X4346467Y-19946746D01*
X4346467Y-19946746D02*
X4355991Y-19956270D01*
X4355991Y-19956270D02*
X4375039Y-19965793D01*
X4375039Y-19965793D02*
X4413134Y-19965793D01*
X4413134Y-19965793D02*
X4432182Y-19956270D01*
X4432182Y-19956270D02*
X4441705Y-19946746D01*
X4441705Y-19946746D02*
X4451229Y-19927698D01*
X4575039Y-19841984D02*
X4594086Y-19841984D01*
X4594086Y-19841984D02*
X4613134Y-19851508D01*
X4613134Y-19851508D02*
X4622658Y-19861031D01*
X4622658Y-19861031D02*
X4632182Y-19880079D01*
X4632182Y-19880079D02*
X4641705Y-19918174D01*
X4641705Y-19918174D02*
X4641705Y-19965793D01*
X4641705Y-19965793D02*
X4632182Y-20003889D01*
X4632182Y-20003889D02*
X4622658Y-20022936D01*
X4622658Y-20022936D02*
X4613134Y-20032460D01*
X4613134Y-20032460D02*
X4594086Y-20041984D01*
X4594086Y-20041984D02*
X4575039Y-20041984D01*
X4575039Y-20041984D02*
X4555991Y-20032460D01*
X4555991Y-20032460D02*
X4546467Y-20022936D01*
X4546467Y-20022936D02*
X4536944Y-20003889D01*
X4536944Y-20003889D02*
X4527420Y-19965793D01*
X4527420Y-19965793D02*
X4527420Y-19918174D01*
X4527420Y-19918174D02*
X4536944Y-19880079D01*
X4536944Y-19880079D02*
X4546467Y-19861031D01*
X4546467Y-19861031D02*
X4555991Y-19851508D01*
X4555991Y-19851508D02*
X4575039Y-19841984D01*
X4727420Y-20041984D02*
X4727420Y-19908650D01*
X4727420Y-19927698D02*
X4736944Y-19918174D01*
X4736944Y-19918174D02*
X4755991Y-19908650D01*
X4755991Y-19908650D02*
X4784563Y-19908650D01*
X4784563Y-19908650D02*
X4803610Y-19918174D01*
X4803610Y-19918174D02*
X4813134Y-19937222D01*
X4813134Y-19937222D02*
X4813134Y-20041984D01*
X4813134Y-19937222D02*
X4822658Y-19918174D01*
X4822658Y-19918174D02*
X4841705Y-19908650D01*
X4841705Y-19908650D02*
X4870277Y-19908650D01*
X4870277Y-19908650D02*
X4889325Y-19918174D01*
X4889325Y-19918174D02*
X4898848Y-19937222D01*
X4898848Y-19937222D02*
X4898848Y-20041984D01*
X4994086Y-20041984D02*
X4994086Y-19908650D01*
X4994086Y-19927698D02*
X5003610Y-19918174D01*
X5003610Y-19918174D02*
X5022658Y-19908650D01*
X5022658Y-19908650D02*
X5051229Y-19908650D01*
X5051229Y-19908650D02*
X5070277Y-19918174D01*
X5070277Y-19918174D02*
X5079801Y-19937222D01*
X5079801Y-19937222D02*
X5079801Y-20041984D01*
X5079801Y-19937222D02*
X5089325Y-19918174D01*
X5089325Y-19918174D02*
X5108372Y-19908650D01*
X5108372Y-19908650D02*
X5136944Y-19908650D01*
X5136944Y-19908650D02*
X5155991Y-19918174D01*
X5155991Y-19918174D02*
X5165515Y-19937222D01*
X5165515Y-19937222D02*
X5165515Y-20041984D01*
X5555991Y-19832460D02*
X5384563Y-20089603D01*
X5813134Y-19841984D02*
X5832182Y-19841984D01*
X5832182Y-19841984D02*
X5851229Y-19851508D01*
X5851229Y-19851508D02*
X5860753Y-19861031D01*
X5860753Y-19861031D02*
X5870277Y-19880079D01*
X5870277Y-19880079D02*
X5879801Y-19918174D01*
X5879801Y-19918174D02*
X5879801Y-19965793D01*
X5879801Y-19965793D02*
X5870277Y-20003889D01*
X5870277Y-20003889D02*
X5860753Y-20022936D01*
X5860753Y-20022936D02*
X5851229Y-20032460D01*
X5851229Y-20032460D02*
X5832182Y-20041984D01*
X5832182Y-20041984D02*
X5813134Y-20041984D01*
X5813134Y-20041984D02*
X5794086Y-20032460D01*
X5794086Y-20032460D02*
X5784563Y-20022936D01*
X5784563Y-20022936D02*
X5775039Y-20003889D01*
X5775039Y-20003889D02*
X5765515Y-19965793D01*
X5765515Y-19965793D02*
X5765515Y-19918174D01*
X5765515Y-19918174D02*
X5775039Y-19880079D01*
X5775039Y-19880079D02*
X5784563Y-19861031D01*
X5784563Y-19861031D02*
X5794086Y-19851508D01*
X5794086Y-19851508D02*
X5813134Y-19841984D01*
X5965515Y-20022936D02*
X5975039Y-20032460D01*
X5975039Y-20032460D02*
X5965515Y-20041984D01*
X5965515Y-20041984D02*
X5955991Y-20032460D01*
X5955991Y-20032460D02*
X5965515Y-20022936D01*
X5965515Y-20022936D02*
X5965515Y-20041984D01*
X6098848Y-19841984D02*
X6117896Y-19841984D01*
X6117896Y-19841984D02*
X6136944Y-19851508D01*
X6136944Y-19851508D02*
X6146467Y-19861031D01*
X6146467Y-19861031D02*
X6155991Y-19880079D01*
X6155991Y-19880079D02*
X6165515Y-19918174D01*
X6165515Y-19918174D02*
X6165515Y-19965793D01*
X6165515Y-19965793D02*
X6155991Y-20003889D01*
X6155991Y-20003889D02*
X6146467Y-20022936D01*
X6146467Y-20022936D02*
X6136944Y-20032460D01*
X6136944Y-20032460D02*
X6117896Y-20041984D01*
X6117896Y-20041984D02*
X6098848Y-20041984D01*
X6098848Y-20041984D02*
X6079801Y-20032460D01*
X6079801Y-20032460D02*
X6070277Y-20022936D01*
X6070277Y-20022936D02*
X6060753Y-20003889D01*
X6060753Y-20003889D02*
X6051229Y-19965793D01*
X6051229Y-19965793D02*
X6051229Y-19918174D01*
X6051229Y-19918174D02*
X6060753Y-19880079D01*
X6060753Y-19880079D02*
X6070277Y-19861031D01*
X6070277Y-19861031D02*
X6079801Y-19851508D01*
X6079801Y-19851508D02*
X6098848Y-19841984D01*
X6336944Y-19908650D02*
X6336944Y-20041984D01*
X6289325Y-19832460D02*
X6241706Y-19975317D01*
X6241706Y-19975317D02*
X6365515Y-19975317D01*
X6527420Y-19841984D02*
X6489325Y-19841984D01*
X6489325Y-19841984D02*
X6470277Y-19851508D01*
X6470277Y-19851508D02*
X6460753Y-19861031D01*
X6460753Y-19861031D02*
X6441706Y-19889603D01*
X6441706Y-19889603D02*
X6432182Y-19927698D01*
X6432182Y-19927698D02*
X6432182Y-20003889D01*
X6432182Y-20003889D02*
X6441706Y-20022936D01*
X6441706Y-20022936D02*
X6451229Y-20032460D01*
X6451229Y-20032460D02*
X6470277Y-20041984D01*
X6470277Y-20041984D02*
X6508372Y-20041984D01*
X6508372Y-20041984D02*
X6527420Y-20032460D01*
X6527420Y-20032460D02*
X6536944Y-20022936D01*
X6536944Y-20022936D02*
X6546467Y-20003889D01*
X6546467Y-20003889D02*
X6546467Y-19956270D01*
X6546467Y-19956270D02*
X6536944Y-19937222D01*
X6536944Y-19937222D02*
X6527420Y-19927698D01*
X6527420Y-19927698D02*
X6508372Y-19918174D01*
X6508372Y-19918174D02*
X6470277Y-19918174D01*
X6470277Y-19918174D02*
X6451229Y-19927698D01*
X6451229Y-19927698D02*
X6441706Y-19937222D01*
X6441706Y-19937222D02*
X6432182Y-19956270D01*
X6641706Y-20041984D02*
X6679801Y-20041984D01*
X6679801Y-20041984D02*
X6698848Y-20032460D01*
X6698848Y-20032460D02*
X6708372Y-20022936D01*
X6708372Y-20022936D02*
X6727420Y-19994365D01*
X6727420Y-19994365D02*
X6736944Y-19956270D01*
X6736944Y-19956270D02*
X6736944Y-19880079D01*
X6736944Y-19880079D02*
X6727420Y-19861031D01*
X6727420Y-19861031D02*
X6717896Y-19851508D01*
X6717896Y-19851508D02*
X6698848Y-19841984D01*
X6698848Y-19841984D02*
X6660753Y-19841984D01*
X6660753Y-19841984D02*
X6641706Y-19851508D01*
X6641706Y-19851508D02*
X6632182Y-19861031D01*
X6632182Y-19861031D02*
X6622658Y-19880079D01*
X6622658Y-19880079D02*
X6622658Y-19927698D01*
X6622658Y-19927698D02*
X6632182Y-19946746D01*
X6632182Y-19946746D02*
X6641706Y-19956270D01*
X6641706Y-19956270D02*
X6660753Y-19965793D01*
X6660753Y-19965793D02*
X6698848Y-19965793D01*
X6698848Y-19965793D02*
X6717896Y-19956270D01*
X6717896Y-19956270D02*
X6727420Y-19946746D01*
X6727420Y-19946746D02*
X6736944Y-19927698D01*
X6813134Y-19841984D02*
X6813134Y-19880079D01*
X6889325Y-19841984D02*
X6889325Y-19880079D01*
X7184563Y-20118174D02*
X7175039Y-20108650D01*
X7175039Y-20108650D02*
X7155991Y-20080079D01*
X7155991Y-20080079D02*
X7146468Y-20061031D01*
X7146468Y-20061031D02*
X7136944Y-20032460D01*
X7136944Y-20032460D02*
X7127420Y-19984841D01*
X7127420Y-19984841D02*
X7127420Y-19946746D01*
X7127420Y-19946746D02*
X7136944Y-19899127D01*
X7136944Y-19899127D02*
X7146468Y-19870555D01*
X7146468Y-19870555D02*
X7155991Y-19851508D01*
X7155991Y-19851508D02*
X7175039Y-19822936D01*
X7175039Y-19822936D02*
X7184563Y-19813412D01*
X7346468Y-19908650D02*
X7346468Y-20041984D01*
X7298848Y-19832460D02*
X7251229Y-19975317D01*
X7251229Y-19975317D02*
X7375039Y-19975317D01*
X7603610Y-20041984D02*
X7603610Y-19841984D01*
X7689325Y-20041984D02*
X7689325Y-19937222D01*
X7689325Y-19937222D02*
X7679801Y-19918174D01*
X7679801Y-19918174D02*
X7660753Y-19908650D01*
X7660753Y-19908650D02*
X7632182Y-19908650D01*
X7632182Y-19908650D02*
X7613134Y-19918174D01*
X7613134Y-19918174D02*
X7603610Y-19927698D01*
X7813134Y-20041984D02*
X7794087Y-20032460D01*
X7794087Y-20032460D02*
X7784563Y-20022936D01*
X7784563Y-20022936D02*
X7775039Y-20003889D01*
X7775039Y-20003889D02*
X7775039Y-19946746D01*
X7775039Y-19946746D02*
X7784563Y-19927698D01*
X7784563Y-19927698D02*
X7794087Y-19918174D01*
X7794087Y-19918174D02*
X7813134Y-19908650D01*
X7813134Y-19908650D02*
X7841706Y-19908650D01*
X7841706Y-19908650D02*
X7860753Y-19918174D01*
X7860753Y-19918174D02*
X7870277Y-19927698D01*
X7870277Y-19927698D02*
X7879801Y-19946746D01*
X7879801Y-19946746D02*
X7879801Y-20003889D01*
X7879801Y-20003889D02*
X7870277Y-20022936D01*
X7870277Y-20022936D02*
X7860753Y-20032460D01*
X7860753Y-20032460D02*
X7841706Y-20041984D01*
X7841706Y-20041984D02*
X7813134Y-20041984D01*
X7994087Y-20041984D02*
X7975039Y-20032460D01*
X7975039Y-20032460D02*
X7965515Y-20013412D01*
X7965515Y-20013412D02*
X7965515Y-19841984D01*
X8146468Y-20032460D02*
X8127420Y-20041984D01*
X8127420Y-20041984D02*
X8089325Y-20041984D01*
X8089325Y-20041984D02*
X8070277Y-20032460D01*
X8070277Y-20032460D02*
X8060753Y-20013412D01*
X8060753Y-20013412D02*
X8060753Y-19937222D01*
X8060753Y-19937222D02*
X8070277Y-19918174D01*
X8070277Y-19918174D02*
X8089325Y-19908650D01*
X8089325Y-19908650D02*
X8127420Y-19908650D01*
X8127420Y-19908650D02*
X8146468Y-19918174D01*
X8146468Y-19918174D02*
X8155991Y-19937222D01*
X8155991Y-19937222D02*
X8155991Y-19956270D01*
X8155991Y-19956270D02*
X8060753Y-19975317D01*
X8232182Y-20032460D02*
X8251230Y-20041984D01*
X8251230Y-20041984D02*
X8289325Y-20041984D01*
X8289325Y-20041984D02*
X8308372Y-20032460D01*
X8308372Y-20032460D02*
X8317896Y-20013412D01*
X8317896Y-20013412D02*
X8317896Y-20003889D01*
X8317896Y-20003889D02*
X8308372Y-19984841D01*
X8308372Y-19984841D02*
X8289325Y-19975317D01*
X8289325Y-19975317D02*
X8260753Y-19975317D01*
X8260753Y-19975317D02*
X8241706Y-19965793D01*
X8241706Y-19965793D02*
X8232182Y-19946746D01*
X8232182Y-19946746D02*
X8232182Y-19937222D01*
X8232182Y-19937222D02*
X8241706Y-19918174D01*
X8241706Y-19918174D02*
X8260753Y-19908650D01*
X8260753Y-19908650D02*
X8289325Y-19908650D01*
X8289325Y-19908650D02*
X8308372Y-19918174D01*
X8384563Y-20118174D02*
X8394087Y-20108650D01*
X8394087Y-20108650D02*
X8413134Y-20080079D01*
X8413134Y-20080079D02*
X8422658Y-20061031D01*
X8422658Y-20061031D02*
X8432182Y-20032460D01*
X8432182Y-20032460D02*
X8441706Y-19984841D01*
X8441706Y-19984841D02*
X8441706Y-19946746D01*
X8441706Y-19946746D02*
X8432182Y-19899127D01*
X8432182Y-19899127D02*
X8422658Y-19870555D01*
X8422658Y-19870555D02*
X8413134Y-19851508D01*
X8413134Y-19851508D02*
X8394087Y-19822936D01*
X8394087Y-19822936D02*
X8384563Y-19813412D01*
D14*
X3459500Y-20139500D02*
X3609500Y-20289500D01*
X3609500Y-20139500D02*
X3459500Y-20289500D01*
X3587533Y-20267534D02*
X3587533Y-20161467D01*
X3481466Y-20161467D01*
X3481466Y-20267534D01*
X3587533Y-20267534D01*
D10*
X3975039Y-20305984D02*
X3860753Y-20305984D01*
X3917896Y-20305984D02*
X3917896Y-20105984D01*
X3917896Y-20105984D02*
X3898848Y-20134555D01*
X3898848Y-20134555D02*
X3879801Y-20153603D01*
X3879801Y-20153603D02*
X3860753Y-20163127D01*
X4060753Y-20286936D02*
X4070277Y-20296460D01*
X4070277Y-20296460D02*
X4060753Y-20305984D01*
X4060753Y-20305984D02*
X4051229Y-20296460D01*
X4051229Y-20296460D02*
X4060753Y-20286936D01*
X4060753Y-20286936D02*
X4060753Y-20305984D01*
X4251229Y-20105984D02*
X4155991Y-20105984D01*
X4155991Y-20105984D02*
X4146467Y-20201222D01*
X4146467Y-20201222D02*
X4155991Y-20191698D01*
X4155991Y-20191698D02*
X4175039Y-20182174D01*
X4175039Y-20182174D02*
X4222658Y-20182174D01*
X4222658Y-20182174D02*
X4241705Y-20191698D01*
X4241705Y-20191698D02*
X4251229Y-20201222D01*
X4251229Y-20201222D02*
X4260753Y-20220270D01*
X4260753Y-20220270D02*
X4260753Y-20267889D01*
X4260753Y-20267889D02*
X4251229Y-20286936D01*
X4251229Y-20286936D02*
X4241705Y-20296460D01*
X4241705Y-20296460D02*
X4222658Y-20305984D01*
X4222658Y-20305984D02*
X4175039Y-20305984D01*
X4175039Y-20305984D02*
X4155991Y-20296460D01*
X4155991Y-20296460D02*
X4146467Y-20286936D01*
X4384563Y-20105984D02*
X4403610Y-20105984D01*
X4403610Y-20105984D02*
X4422658Y-20115508D01*
X4422658Y-20115508D02*
X4432182Y-20125031D01*
X4432182Y-20125031D02*
X4441705Y-20144079D01*
X4441705Y-20144079D02*
X4451229Y-20182174D01*
X4451229Y-20182174D02*
X4451229Y-20229793D01*
X4451229Y-20229793D02*
X4441705Y-20267889D01*
X4441705Y-20267889D02*
X4432182Y-20286936D01*
X4432182Y-20286936D02*
X4422658Y-20296460D01*
X4422658Y-20296460D02*
X4403610Y-20305984D01*
X4403610Y-20305984D02*
X4384563Y-20305984D01*
X4384563Y-20305984D02*
X4365515Y-20296460D01*
X4365515Y-20296460D02*
X4355991Y-20286936D01*
X4355991Y-20286936D02*
X4346467Y-20267889D01*
X4346467Y-20267889D02*
X4336944Y-20229793D01*
X4336944Y-20229793D02*
X4336944Y-20182174D01*
X4336944Y-20182174D02*
X4346467Y-20144079D01*
X4346467Y-20144079D02*
X4355991Y-20125031D01*
X4355991Y-20125031D02*
X4365515Y-20115508D01*
X4365515Y-20115508D02*
X4384563Y-20105984D01*
X4575039Y-20105984D02*
X4594086Y-20105984D01*
X4594086Y-20105984D02*
X4613134Y-20115508D01*
X4613134Y-20115508D02*
X4622658Y-20125031D01*
X4622658Y-20125031D02*
X4632182Y-20144079D01*
X4632182Y-20144079D02*
X4641705Y-20182174D01*
X4641705Y-20182174D02*
X4641705Y-20229793D01*
X4641705Y-20229793D02*
X4632182Y-20267889D01*
X4632182Y-20267889D02*
X4622658Y-20286936D01*
X4622658Y-20286936D02*
X4613134Y-20296460D01*
X4613134Y-20296460D02*
X4594086Y-20305984D01*
X4594086Y-20305984D02*
X4575039Y-20305984D01*
X4575039Y-20305984D02*
X4555991Y-20296460D01*
X4555991Y-20296460D02*
X4546467Y-20286936D01*
X4546467Y-20286936D02*
X4536944Y-20267889D01*
X4536944Y-20267889D02*
X4527420Y-20229793D01*
X4527420Y-20229793D02*
X4527420Y-20182174D01*
X4527420Y-20182174D02*
X4536944Y-20144079D01*
X4536944Y-20144079D02*
X4546467Y-20125031D01*
X4546467Y-20125031D02*
X4555991Y-20115508D01*
X4555991Y-20115508D02*
X4575039Y-20105984D01*
X4727420Y-20305984D02*
X4727420Y-20172650D01*
X4727420Y-20191698D02*
X4736944Y-20182174D01*
X4736944Y-20182174D02*
X4755991Y-20172650D01*
X4755991Y-20172650D02*
X4784563Y-20172650D01*
X4784563Y-20172650D02*
X4803610Y-20182174D01*
X4803610Y-20182174D02*
X4813134Y-20201222D01*
X4813134Y-20201222D02*
X4813134Y-20305984D01*
X4813134Y-20201222D02*
X4822658Y-20182174D01*
X4822658Y-20182174D02*
X4841705Y-20172650D01*
X4841705Y-20172650D02*
X4870277Y-20172650D01*
X4870277Y-20172650D02*
X4889325Y-20182174D01*
X4889325Y-20182174D02*
X4898848Y-20201222D01*
X4898848Y-20201222D02*
X4898848Y-20305984D01*
X4994086Y-20305984D02*
X4994086Y-20172650D01*
X4994086Y-20191698D02*
X5003610Y-20182174D01*
X5003610Y-20182174D02*
X5022658Y-20172650D01*
X5022658Y-20172650D02*
X5051229Y-20172650D01*
X5051229Y-20172650D02*
X5070277Y-20182174D01*
X5070277Y-20182174D02*
X5079801Y-20201222D01*
X5079801Y-20201222D02*
X5079801Y-20305984D01*
X5079801Y-20201222D02*
X5089325Y-20182174D01*
X5089325Y-20182174D02*
X5108372Y-20172650D01*
X5108372Y-20172650D02*
X5136944Y-20172650D01*
X5136944Y-20172650D02*
X5155991Y-20182174D01*
X5155991Y-20182174D02*
X5165515Y-20201222D01*
X5165515Y-20201222D02*
X5165515Y-20305984D01*
X5555991Y-20096460D02*
X5384563Y-20353603D01*
X5813134Y-20105984D02*
X5832182Y-20105984D01*
X5832182Y-20105984D02*
X5851229Y-20115508D01*
X5851229Y-20115508D02*
X5860753Y-20125031D01*
X5860753Y-20125031D02*
X5870277Y-20144079D01*
X5870277Y-20144079D02*
X5879801Y-20182174D01*
X5879801Y-20182174D02*
X5879801Y-20229793D01*
X5879801Y-20229793D02*
X5870277Y-20267889D01*
X5870277Y-20267889D02*
X5860753Y-20286936D01*
X5860753Y-20286936D02*
X5851229Y-20296460D01*
X5851229Y-20296460D02*
X5832182Y-20305984D01*
X5832182Y-20305984D02*
X5813134Y-20305984D01*
X5813134Y-20305984D02*
X5794086Y-20296460D01*
X5794086Y-20296460D02*
X5784563Y-20286936D01*
X5784563Y-20286936D02*
X5775039Y-20267889D01*
X5775039Y-20267889D02*
X5765515Y-20229793D01*
X5765515Y-20229793D02*
X5765515Y-20182174D01*
X5765515Y-20182174D02*
X5775039Y-20144079D01*
X5775039Y-20144079D02*
X5784563Y-20125031D01*
X5784563Y-20125031D02*
X5794086Y-20115508D01*
X5794086Y-20115508D02*
X5813134Y-20105984D01*
X5965515Y-20286936D02*
X5975039Y-20296460D01*
X5975039Y-20296460D02*
X5965515Y-20305984D01*
X5965515Y-20305984D02*
X5955991Y-20296460D01*
X5955991Y-20296460D02*
X5965515Y-20286936D01*
X5965515Y-20286936D02*
X5965515Y-20305984D01*
X6098848Y-20105984D02*
X6117896Y-20105984D01*
X6117896Y-20105984D02*
X6136944Y-20115508D01*
X6136944Y-20115508D02*
X6146467Y-20125031D01*
X6146467Y-20125031D02*
X6155991Y-20144079D01*
X6155991Y-20144079D02*
X6165515Y-20182174D01*
X6165515Y-20182174D02*
X6165515Y-20229793D01*
X6165515Y-20229793D02*
X6155991Y-20267889D01*
X6155991Y-20267889D02*
X6146467Y-20286936D01*
X6146467Y-20286936D02*
X6136944Y-20296460D01*
X6136944Y-20296460D02*
X6117896Y-20305984D01*
X6117896Y-20305984D02*
X6098848Y-20305984D01*
X6098848Y-20305984D02*
X6079801Y-20296460D01*
X6079801Y-20296460D02*
X6070277Y-20286936D01*
X6070277Y-20286936D02*
X6060753Y-20267889D01*
X6060753Y-20267889D02*
X6051229Y-20229793D01*
X6051229Y-20229793D02*
X6051229Y-20182174D01*
X6051229Y-20182174D02*
X6060753Y-20144079D01*
X6060753Y-20144079D02*
X6070277Y-20125031D01*
X6070277Y-20125031D02*
X6079801Y-20115508D01*
X6079801Y-20115508D02*
X6098848Y-20105984D01*
X6346467Y-20105984D02*
X6251229Y-20105984D01*
X6251229Y-20105984D02*
X6241706Y-20201222D01*
X6241706Y-20201222D02*
X6251229Y-20191698D01*
X6251229Y-20191698D02*
X6270277Y-20182174D01*
X6270277Y-20182174D02*
X6317896Y-20182174D01*
X6317896Y-20182174D02*
X6336944Y-20191698D01*
X6336944Y-20191698D02*
X6346467Y-20201222D01*
X6346467Y-20201222D02*
X6355991Y-20220270D01*
X6355991Y-20220270D02*
X6355991Y-20267889D01*
X6355991Y-20267889D02*
X6346467Y-20286936D01*
X6346467Y-20286936D02*
X6336944Y-20296460D01*
X6336944Y-20296460D02*
X6317896Y-20305984D01*
X6317896Y-20305984D02*
X6270277Y-20305984D01*
X6270277Y-20305984D02*
X6251229Y-20296460D01*
X6251229Y-20296460D02*
X6241706Y-20286936D01*
X6451229Y-20305984D02*
X6489325Y-20305984D01*
X6489325Y-20305984D02*
X6508372Y-20296460D01*
X6508372Y-20296460D02*
X6517896Y-20286936D01*
X6517896Y-20286936D02*
X6536944Y-20258365D01*
X6536944Y-20258365D02*
X6546467Y-20220270D01*
X6546467Y-20220270D02*
X6546467Y-20144079D01*
X6546467Y-20144079D02*
X6536944Y-20125031D01*
X6536944Y-20125031D02*
X6527420Y-20115508D01*
X6527420Y-20115508D02*
X6508372Y-20105984D01*
X6508372Y-20105984D02*
X6470277Y-20105984D01*
X6470277Y-20105984D02*
X6451229Y-20115508D01*
X6451229Y-20115508D02*
X6441706Y-20125031D01*
X6441706Y-20125031D02*
X6432182Y-20144079D01*
X6432182Y-20144079D02*
X6432182Y-20191698D01*
X6432182Y-20191698D02*
X6441706Y-20210746D01*
X6441706Y-20210746D02*
X6451229Y-20220270D01*
X6451229Y-20220270D02*
X6470277Y-20229793D01*
X6470277Y-20229793D02*
X6508372Y-20229793D01*
X6508372Y-20229793D02*
X6527420Y-20220270D01*
X6527420Y-20220270D02*
X6536944Y-20210746D01*
X6536944Y-20210746D02*
X6546467Y-20191698D01*
X6736944Y-20305984D02*
X6622658Y-20305984D01*
X6679801Y-20305984D02*
X6679801Y-20105984D01*
X6679801Y-20105984D02*
X6660753Y-20134555D01*
X6660753Y-20134555D02*
X6641706Y-20153603D01*
X6641706Y-20153603D02*
X6622658Y-20163127D01*
X6813134Y-20105984D02*
X6813134Y-20144079D01*
X6889325Y-20105984D02*
X6889325Y-20144079D01*
X7184563Y-20382174D02*
X7175039Y-20372650D01*
X7175039Y-20372650D02*
X7155991Y-20344079D01*
X7155991Y-20344079D02*
X7146468Y-20325031D01*
X7146468Y-20325031D02*
X7136944Y-20296460D01*
X7136944Y-20296460D02*
X7127420Y-20248841D01*
X7127420Y-20248841D02*
X7127420Y-20210746D01*
X7127420Y-20210746D02*
X7136944Y-20163127D01*
X7136944Y-20163127D02*
X7146468Y-20134555D01*
X7146468Y-20134555D02*
X7155991Y-20115508D01*
X7155991Y-20115508D02*
X7175039Y-20086936D01*
X7175039Y-20086936D02*
X7184563Y-20077412D01*
X7365515Y-20305984D02*
X7251229Y-20305984D01*
X7308372Y-20305984D02*
X7308372Y-20105984D01*
X7308372Y-20105984D02*
X7289325Y-20134555D01*
X7289325Y-20134555D02*
X7270277Y-20153603D01*
X7270277Y-20153603D02*
X7251229Y-20163127D01*
X7536944Y-20105984D02*
X7498848Y-20105984D01*
X7498848Y-20105984D02*
X7479801Y-20115508D01*
X7479801Y-20115508D02*
X7470277Y-20125031D01*
X7470277Y-20125031D02*
X7451229Y-20153603D01*
X7451229Y-20153603D02*
X7441706Y-20191698D01*
X7441706Y-20191698D02*
X7441706Y-20267889D01*
X7441706Y-20267889D02*
X7451229Y-20286936D01*
X7451229Y-20286936D02*
X7460753Y-20296460D01*
X7460753Y-20296460D02*
X7479801Y-20305984D01*
X7479801Y-20305984D02*
X7517896Y-20305984D01*
X7517896Y-20305984D02*
X7536944Y-20296460D01*
X7536944Y-20296460D02*
X7546468Y-20286936D01*
X7546468Y-20286936D02*
X7555991Y-20267889D01*
X7555991Y-20267889D02*
X7555991Y-20220270D01*
X7555991Y-20220270D02*
X7546468Y-20201222D01*
X7546468Y-20201222D02*
X7536944Y-20191698D01*
X7536944Y-20191698D02*
X7517896Y-20182174D01*
X7517896Y-20182174D02*
X7479801Y-20182174D01*
X7479801Y-20182174D02*
X7460753Y-20191698D01*
X7460753Y-20191698D02*
X7451229Y-20201222D01*
X7451229Y-20201222D02*
X7441706Y-20220270D01*
X7794087Y-20305984D02*
X7794087Y-20105984D01*
X7879801Y-20305984D02*
X7879801Y-20201222D01*
X7879801Y-20201222D02*
X7870277Y-20182174D01*
X7870277Y-20182174D02*
X7851230Y-20172650D01*
X7851230Y-20172650D02*
X7822658Y-20172650D01*
X7822658Y-20172650D02*
X7803610Y-20182174D01*
X7803610Y-20182174D02*
X7794087Y-20191698D01*
X8003610Y-20305984D02*
X7984563Y-20296460D01*
X7984563Y-20296460D02*
X7975039Y-20286936D01*
X7975039Y-20286936D02*
X7965515Y-20267889D01*
X7965515Y-20267889D02*
X7965515Y-20210746D01*
X7965515Y-20210746D02*
X7975039Y-20191698D01*
X7975039Y-20191698D02*
X7984563Y-20182174D01*
X7984563Y-20182174D02*
X8003610Y-20172650D01*
X8003610Y-20172650D02*
X8032182Y-20172650D01*
X8032182Y-20172650D02*
X8051230Y-20182174D01*
X8051230Y-20182174D02*
X8060753Y-20191698D01*
X8060753Y-20191698D02*
X8070277Y-20210746D01*
X8070277Y-20210746D02*
X8070277Y-20267889D01*
X8070277Y-20267889D02*
X8060753Y-20286936D01*
X8060753Y-20286936D02*
X8051230Y-20296460D01*
X8051230Y-20296460D02*
X8032182Y-20305984D01*
X8032182Y-20305984D02*
X8003610Y-20305984D01*
X8184563Y-20305984D02*
X8165515Y-20296460D01*
X8165515Y-20296460D02*
X8155991Y-20277412D01*
X8155991Y-20277412D02*
X8155991Y-20105984D01*
X8336944Y-20296460D02*
X8317896Y-20305984D01*
X8317896Y-20305984D02*
X8279801Y-20305984D01*
X8279801Y-20305984D02*
X8260753Y-20296460D01*
X8260753Y-20296460D02*
X8251230Y-20277412D01*
X8251230Y-20277412D02*
X8251230Y-20201222D01*
X8251230Y-20201222D02*
X8260753Y-20182174D01*
X8260753Y-20182174D02*
X8279801Y-20172650D01*
X8279801Y-20172650D02*
X8317896Y-20172650D01*
X8317896Y-20172650D02*
X8336944Y-20182174D01*
X8336944Y-20182174D02*
X8346468Y-20201222D01*
X8346468Y-20201222D02*
X8346468Y-20220270D01*
X8346468Y-20220270D02*
X8251230Y-20239317D01*
X8422658Y-20296460D02*
X8441706Y-20305984D01*
X8441706Y-20305984D02*
X8479801Y-20305984D01*
X8479801Y-20305984D02*
X8498849Y-20296460D01*
X8498849Y-20296460D02*
X8508373Y-20277412D01*
X8508373Y-20277412D02*
X8508373Y-20267889D01*
X8508373Y-20267889D02*
X8498849Y-20248841D01*
X8498849Y-20248841D02*
X8479801Y-20239317D01*
X8479801Y-20239317D02*
X8451230Y-20239317D01*
X8451230Y-20239317D02*
X8432182Y-20229793D01*
X8432182Y-20229793D02*
X8422658Y-20210746D01*
X8422658Y-20210746D02*
X8422658Y-20201222D01*
X8422658Y-20201222D02*
X8432182Y-20182174D01*
X8432182Y-20182174D02*
X8451230Y-20172650D01*
X8451230Y-20172650D02*
X8479801Y-20172650D01*
X8479801Y-20172650D02*
X8498849Y-20182174D01*
X8575039Y-20382174D02*
X8584563Y-20372650D01*
X8584563Y-20372650D02*
X8603611Y-20344079D01*
X8603611Y-20344079D02*
X8613134Y-20325031D01*
X8613134Y-20325031D02*
X8622658Y-20296460D01*
X8622658Y-20296460D02*
X8632182Y-20248841D01*
X8632182Y-20248841D02*
X8632182Y-20210746D01*
X8632182Y-20210746D02*
X8622658Y-20163127D01*
X8622658Y-20163127D02*
X8613134Y-20134555D01*
X8613134Y-20134555D02*
X8603611Y-20115508D01*
X8603611Y-20115508D02*
X8584563Y-20086936D01*
X8584563Y-20086936D02*
X8575039Y-20077412D01*
X3409500Y-20384500D02*
X3609500Y-20584500D01*
X3609500Y-20384500D02*
X3409500Y-20584500D01*
X3509500Y-20584500D02*
X3609500Y-20484500D01*
X3509500Y-20384500D01*
X3409500Y-20484500D01*
X3509500Y-20584500D01*
X3955991Y-20442650D02*
X3955991Y-20575984D01*
X3908372Y-20366460D02*
X3860753Y-20509317D01*
X3860753Y-20509317D02*
X3984562Y-20509317D01*
X4060753Y-20556936D02*
X4070277Y-20566460D01*
X4070277Y-20566460D02*
X4060753Y-20575984D01*
X4060753Y-20575984D02*
X4051229Y-20566460D01*
X4051229Y-20566460D02*
X4060753Y-20556936D01*
X4060753Y-20556936D02*
X4060753Y-20575984D01*
X4241705Y-20375984D02*
X4203610Y-20375984D01*
X4203610Y-20375984D02*
X4184562Y-20385508D01*
X4184562Y-20385508D02*
X4175039Y-20395031D01*
X4175039Y-20395031D02*
X4155991Y-20423603D01*
X4155991Y-20423603D02*
X4146467Y-20461698D01*
X4146467Y-20461698D02*
X4146467Y-20537889D01*
X4146467Y-20537889D02*
X4155991Y-20556936D01*
X4155991Y-20556936D02*
X4165515Y-20566460D01*
X4165515Y-20566460D02*
X4184562Y-20575984D01*
X4184562Y-20575984D02*
X4222658Y-20575984D01*
X4222658Y-20575984D02*
X4241705Y-20566460D01*
X4241705Y-20566460D02*
X4251229Y-20556936D01*
X4251229Y-20556936D02*
X4260753Y-20537889D01*
X4260753Y-20537889D02*
X4260753Y-20490270D01*
X4260753Y-20490270D02*
X4251229Y-20471222D01*
X4251229Y-20471222D02*
X4241705Y-20461698D01*
X4241705Y-20461698D02*
X4222658Y-20452174D01*
X4222658Y-20452174D02*
X4184562Y-20452174D01*
X4184562Y-20452174D02*
X4165515Y-20461698D01*
X4165515Y-20461698D02*
X4155991Y-20471222D01*
X4155991Y-20471222D02*
X4146467Y-20490270D01*
X4355991Y-20575984D02*
X4394086Y-20575984D01*
X4394086Y-20575984D02*
X4413134Y-20566460D01*
X4413134Y-20566460D02*
X4422658Y-20556936D01*
X4422658Y-20556936D02*
X4441705Y-20528365D01*
X4441705Y-20528365D02*
X4451229Y-20490270D01*
X4451229Y-20490270D02*
X4451229Y-20414079D01*
X4451229Y-20414079D02*
X4441705Y-20395031D01*
X4441705Y-20395031D02*
X4432182Y-20385508D01*
X4432182Y-20385508D02*
X4413134Y-20375984D01*
X4413134Y-20375984D02*
X4375039Y-20375984D01*
X4375039Y-20375984D02*
X4355991Y-20385508D01*
X4355991Y-20385508D02*
X4346467Y-20395031D01*
X4346467Y-20395031D02*
X4336944Y-20414079D01*
X4336944Y-20414079D02*
X4336944Y-20461698D01*
X4336944Y-20461698D02*
X4346467Y-20480746D01*
X4346467Y-20480746D02*
X4355991Y-20490270D01*
X4355991Y-20490270D02*
X4375039Y-20499793D01*
X4375039Y-20499793D02*
X4413134Y-20499793D01*
X4413134Y-20499793D02*
X4432182Y-20490270D01*
X4432182Y-20490270D02*
X4441705Y-20480746D01*
X4441705Y-20480746D02*
X4451229Y-20461698D01*
X4546467Y-20575984D02*
X4584563Y-20575984D01*
X4584563Y-20575984D02*
X4603610Y-20566460D01*
X4603610Y-20566460D02*
X4613134Y-20556936D01*
X4613134Y-20556936D02*
X4632182Y-20528365D01*
X4632182Y-20528365D02*
X4641705Y-20490270D01*
X4641705Y-20490270D02*
X4641705Y-20414079D01*
X4641705Y-20414079D02*
X4632182Y-20395031D01*
X4632182Y-20395031D02*
X4622658Y-20385508D01*
X4622658Y-20385508D02*
X4603610Y-20375984D01*
X4603610Y-20375984D02*
X4565515Y-20375984D01*
X4565515Y-20375984D02*
X4546467Y-20385508D01*
X4546467Y-20385508D02*
X4536944Y-20395031D01*
X4536944Y-20395031D02*
X4527420Y-20414079D01*
X4527420Y-20414079D02*
X4527420Y-20461698D01*
X4527420Y-20461698D02*
X4536944Y-20480746D01*
X4536944Y-20480746D02*
X4546467Y-20490270D01*
X4546467Y-20490270D02*
X4565515Y-20499793D01*
X4565515Y-20499793D02*
X4603610Y-20499793D01*
X4603610Y-20499793D02*
X4622658Y-20490270D01*
X4622658Y-20490270D02*
X4632182Y-20480746D01*
X4632182Y-20480746D02*
X4641705Y-20461698D01*
X4727420Y-20575984D02*
X4727420Y-20442650D01*
X4727420Y-20461698D02*
X4736944Y-20452174D01*
X4736944Y-20452174D02*
X4755991Y-20442650D01*
X4755991Y-20442650D02*
X4784563Y-20442650D01*
X4784563Y-20442650D02*
X4803610Y-20452174D01*
X4803610Y-20452174D02*
X4813134Y-20471222D01*
X4813134Y-20471222D02*
X4813134Y-20575984D01*
X4813134Y-20471222D02*
X4822658Y-20452174D01*
X4822658Y-20452174D02*
X4841705Y-20442650D01*
X4841705Y-20442650D02*
X4870277Y-20442650D01*
X4870277Y-20442650D02*
X4889325Y-20452174D01*
X4889325Y-20452174D02*
X4898848Y-20471222D01*
X4898848Y-20471222D02*
X4898848Y-20575984D01*
X4994086Y-20575984D02*
X4994086Y-20442650D01*
X4994086Y-20461698D02*
X5003610Y-20452174D01*
X5003610Y-20452174D02*
X5022658Y-20442650D01*
X5022658Y-20442650D02*
X5051229Y-20442650D01*
X5051229Y-20442650D02*
X5070277Y-20452174D01*
X5070277Y-20452174D02*
X5079801Y-20471222D01*
X5079801Y-20471222D02*
X5079801Y-20575984D01*
X5079801Y-20471222D02*
X5089325Y-20452174D01*
X5089325Y-20452174D02*
X5108372Y-20442650D01*
X5108372Y-20442650D02*
X5136944Y-20442650D01*
X5136944Y-20442650D02*
X5155991Y-20452174D01*
X5155991Y-20452174D02*
X5165515Y-20471222D01*
X5165515Y-20471222D02*
X5165515Y-20575984D01*
X5555991Y-20366460D02*
X5384563Y-20623603D01*
X5813134Y-20375984D02*
X5832182Y-20375984D01*
X5832182Y-20375984D02*
X5851229Y-20385508D01*
X5851229Y-20385508D02*
X5860753Y-20395031D01*
X5860753Y-20395031D02*
X5870277Y-20414079D01*
X5870277Y-20414079D02*
X5879801Y-20452174D01*
X5879801Y-20452174D02*
X5879801Y-20499793D01*
X5879801Y-20499793D02*
X5870277Y-20537889D01*
X5870277Y-20537889D02*
X5860753Y-20556936D01*
X5860753Y-20556936D02*
X5851229Y-20566460D01*
X5851229Y-20566460D02*
X5832182Y-20575984D01*
X5832182Y-20575984D02*
X5813134Y-20575984D01*
X5813134Y-20575984D02*
X5794086Y-20566460D01*
X5794086Y-20566460D02*
X5784563Y-20556936D01*
X5784563Y-20556936D02*
X5775039Y-20537889D01*
X5775039Y-20537889D02*
X5765515Y-20499793D01*
X5765515Y-20499793D02*
X5765515Y-20452174D01*
X5765515Y-20452174D02*
X5775039Y-20414079D01*
X5775039Y-20414079D02*
X5784563Y-20395031D01*
X5784563Y-20395031D02*
X5794086Y-20385508D01*
X5794086Y-20385508D02*
X5813134Y-20375984D01*
X5965515Y-20556936D02*
X5975039Y-20566460D01*
X5975039Y-20566460D02*
X5965515Y-20575984D01*
X5965515Y-20575984D02*
X5955991Y-20566460D01*
X5955991Y-20566460D02*
X5965515Y-20556936D01*
X5965515Y-20556936D02*
X5965515Y-20575984D01*
X6165515Y-20575984D02*
X6051229Y-20575984D01*
X6108372Y-20575984D02*
X6108372Y-20375984D01*
X6108372Y-20375984D02*
X6089325Y-20404555D01*
X6089325Y-20404555D02*
X6070277Y-20423603D01*
X6070277Y-20423603D02*
X6051229Y-20433127D01*
X6279801Y-20461698D02*
X6260753Y-20452174D01*
X6260753Y-20452174D02*
X6251229Y-20442650D01*
X6251229Y-20442650D02*
X6241706Y-20423603D01*
X6241706Y-20423603D02*
X6241706Y-20414079D01*
X6241706Y-20414079D02*
X6251229Y-20395031D01*
X6251229Y-20395031D02*
X6260753Y-20385508D01*
X6260753Y-20385508D02*
X6279801Y-20375984D01*
X6279801Y-20375984D02*
X6317896Y-20375984D01*
X6317896Y-20375984D02*
X6336944Y-20385508D01*
X6336944Y-20385508D02*
X6346467Y-20395031D01*
X6346467Y-20395031D02*
X6355991Y-20414079D01*
X6355991Y-20414079D02*
X6355991Y-20423603D01*
X6355991Y-20423603D02*
X6346467Y-20442650D01*
X6346467Y-20442650D02*
X6336944Y-20452174D01*
X6336944Y-20452174D02*
X6317896Y-20461698D01*
X6317896Y-20461698D02*
X6279801Y-20461698D01*
X6279801Y-20461698D02*
X6260753Y-20471222D01*
X6260753Y-20471222D02*
X6251229Y-20480746D01*
X6251229Y-20480746D02*
X6241706Y-20499793D01*
X6241706Y-20499793D02*
X6241706Y-20537889D01*
X6241706Y-20537889D02*
X6251229Y-20556936D01*
X6251229Y-20556936D02*
X6260753Y-20566460D01*
X6260753Y-20566460D02*
X6279801Y-20575984D01*
X6279801Y-20575984D02*
X6317896Y-20575984D01*
X6317896Y-20575984D02*
X6336944Y-20566460D01*
X6336944Y-20566460D02*
X6346467Y-20556936D01*
X6346467Y-20556936D02*
X6355991Y-20537889D01*
X6355991Y-20537889D02*
X6355991Y-20499793D01*
X6355991Y-20499793D02*
X6346467Y-20480746D01*
X6346467Y-20480746D02*
X6336944Y-20471222D01*
X6336944Y-20471222D02*
X6317896Y-20461698D01*
X6536944Y-20375984D02*
X6441706Y-20375984D01*
X6441706Y-20375984D02*
X6432182Y-20471222D01*
X6432182Y-20471222D02*
X6441706Y-20461698D01*
X6441706Y-20461698D02*
X6460753Y-20452174D01*
X6460753Y-20452174D02*
X6508372Y-20452174D01*
X6508372Y-20452174D02*
X6527420Y-20461698D01*
X6527420Y-20461698D02*
X6536944Y-20471222D01*
X6536944Y-20471222D02*
X6546467Y-20490270D01*
X6546467Y-20490270D02*
X6546467Y-20537889D01*
X6546467Y-20537889D02*
X6536944Y-20556936D01*
X6536944Y-20556936D02*
X6527420Y-20566460D01*
X6527420Y-20566460D02*
X6508372Y-20575984D01*
X6508372Y-20575984D02*
X6460753Y-20575984D01*
X6460753Y-20575984D02*
X6441706Y-20566460D01*
X6441706Y-20566460D02*
X6432182Y-20556936D01*
X6670277Y-20375984D02*
X6689325Y-20375984D01*
X6689325Y-20375984D02*
X6708372Y-20385508D01*
X6708372Y-20385508D02*
X6717896Y-20395031D01*
X6717896Y-20395031D02*
X6727420Y-20414079D01*
X6727420Y-20414079D02*
X6736944Y-20452174D01*
X6736944Y-20452174D02*
X6736944Y-20499793D01*
X6736944Y-20499793D02*
X6727420Y-20537889D01*
X6727420Y-20537889D02*
X6717896Y-20556936D01*
X6717896Y-20556936D02*
X6708372Y-20566460D01*
X6708372Y-20566460D02*
X6689325Y-20575984D01*
X6689325Y-20575984D02*
X6670277Y-20575984D01*
X6670277Y-20575984D02*
X6651229Y-20566460D01*
X6651229Y-20566460D02*
X6641706Y-20556936D01*
X6641706Y-20556936D02*
X6632182Y-20537889D01*
X6632182Y-20537889D02*
X6622658Y-20499793D01*
X6622658Y-20499793D02*
X6622658Y-20452174D01*
X6622658Y-20452174D02*
X6632182Y-20414079D01*
X6632182Y-20414079D02*
X6641706Y-20395031D01*
X6641706Y-20395031D02*
X6651229Y-20385508D01*
X6651229Y-20385508D02*
X6670277Y-20375984D01*
X6813134Y-20375984D02*
X6813134Y-20414079D01*
X6889325Y-20375984D02*
X6889325Y-20414079D01*
X7184563Y-20652174D02*
X7175039Y-20642650D01*
X7175039Y-20642650D02*
X7155991Y-20614079D01*
X7155991Y-20614079D02*
X7146468Y-20595031D01*
X7146468Y-20595031D02*
X7136944Y-20566460D01*
X7136944Y-20566460D02*
X7127420Y-20518841D01*
X7127420Y-20518841D02*
X7127420Y-20480746D01*
X7127420Y-20480746D02*
X7136944Y-20433127D01*
X7136944Y-20433127D02*
X7146468Y-20404555D01*
X7146468Y-20404555D02*
X7155991Y-20385508D01*
X7155991Y-20385508D02*
X7175039Y-20356936D01*
X7175039Y-20356936D02*
X7184563Y-20347412D01*
X7365515Y-20575984D02*
X7251229Y-20575984D01*
X7308372Y-20575984D02*
X7308372Y-20375984D01*
X7308372Y-20375984D02*
X7289325Y-20404555D01*
X7289325Y-20404555D02*
X7270277Y-20423603D01*
X7270277Y-20423603D02*
X7251229Y-20433127D01*
X7441706Y-20395031D02*
X7451229Y-20385508D01*
X7451229Y-20385508D02*
X7470277Y-20375984D01*
X7470277Y-20375984D02*
X7517896Y-20375984D01*
X7517896Y-20375984D02*
X7536944Y-20385508D01*
X7536944Y-20385508D02*
X7546468Y-20395031D01*
X7546468Y-20395031D02*
X7555991Y-20414079D01*
X7555991Y-20414079D02*
X7555991Y-20433127D01*
X7555991Y-20433127D02*
X7546468Y-20461698D01*
X7546468Y-20461698D02*
X7432182Y-20575984D01*
X7432182Y-20575984D02*
X7555991Y-20575984D01*
X7794087Y-20575984D02*
X7794087Y-20375984D01*
X7879801Y-20575984D02*
X7879801Y-20471222D01*
X7879801Y-20471222D02*
X7870277Y-20452174D01*
X7870277Y-20452174D02*
X7851230Y-20442650D01*
X7851230Y-20442650D02*
X7822658Y-20442650D01*
X7822658Y-20442650D02*
X7803610Y-20452174D01*
X7803610Y-20452174D02*
X7794087Y-20461698D01*
X8003610Y-20575984D02*
X7984563Y-20566460D01*
X7984563Y-20566460D02*
X7975039Y-20556936D01*
X7975039Y-20556936D02*
X7965515Y-20537889D01*
X7965515Y-20537889D02*
X7965515Y-20480746D01*
X7965515Y-20480746D02*
X7975039Y-20461698D01*
X7975039Y-20461698D02*
X7984563Y-20452174D01*
X7984563Y-20452174D02*
X8003610Y-20442650D01*
X8003610Y-20442650D02*
X8032182Y-20442650D01*
X8032182Y-20442650D02*
X8051230Y-20452174D01*
X8051230Y-20452174D02*
X8060753Y-20461698D01*
X8060753Y-20461698D02*
X8070277Y-20480746D01*
X8070277Y-20480746D02*
X8070277Y-20537889D01*
X8070277Y-20537889D02*
X8060753Y-20556936D01*
X8060753Y-20556936D02*
X8051230Y-20566460D01*
X8051230Y-20566460D02*
X8032182Y-20575984D01*
X8032182Y-20575984D02*
X8003610Y-20575984D01*
X8184563Y-20575984D02*
X8165515Y-20566460D01*
X8165515Y-20566460D02*
X8155991Y-20547412D01*
X8155991Y-20547412D02*
X8155991Y-20375984D01*
X8336944Y-20566460D02*
X8317896Y-20575984D01*
X8317896Y-20575984D02*
X8279801Y-20575984D01*
X8279801Y-20575984D02*
X8260753Y-20566460D01*
X8260753Y-20566460D02*
X8251230Y-20547412D01*
X8251230Y-20547412D02*
X8251230Y-20471222D01*
X8251230Y-20471222D02*
X8260753Y-20452174D01*
X8260753Y-20452174D02*
X8279801Y-20442650D01*
X8279801Y-20442650D02*
X8317896Y-20442650D01*
X8317896Y-20442650D02*
X8336944Y-20452174D01*
X8336944Y-20452174D02*
X8346468Y-20471222D01*
X8346468Y-20471222D02*
X8346468Y-20490270D01*
X8346468Y-20490270D02*
X8251230Y-20509317D01*
X8422658Y-20566460D02*
X8441706Y-20575984D01*
X8441706Y-20575984D02*
X8479801Y-20575984D01*
X8479801Y-20575984D02*
X8498849Y-20566460D01*
X8498849Y-20566460D02*
X8508373Y-20547412D01*
X8508373Y-20547412D02*
X8508373Y-20537889D01*
X8508373Y-20537889D02*
X8498849Y-20518841D01*
X8498849Y-20518841D02*
X8479801Y-20509317D01*
X8479801Y-20509317D02*
X8451230Y-20509317D01*
X8451230Y-20509317D02*
X8432182Y-20499793D01*
X8432182Y-20499793D02*
X8422658Y-20480746D01*
X8422658Y-20480746D02*
X8422658Y-20471222D01*
X8422658Y-20471222D02*
X8432182Y-20452174D01*
X8432182Y-20452174D02*
X8451230Y-20442650D01*
X8451230Y-20442650D02*
X8479801Y-20442650D01*
X8479801Y-20442650D02*
X8498849Y-20452174D01*
X8575039Y-20652174D02*
X8584563Y-20642650D01*
X8584563Y-20642650D02*
X8603611Y-20614079D01*
X8603611Y-20614079D02*
X8613134Y-20595031D01*
X8613134Y-20595031D02*
X8622658Y-20566460D01*
X8622658Y-20566460D02*
X8632182Y-20518841D01*
X8632182Y-20518841D02*
X8632182Y-20480746D01*
X8632182Y-20480746D02*
X8622658Y-20433127D01*
X8622658Y-20433127D02*
X8613134Y-20404555D01*
X8613134Y-20404555D02*
X8603611Y-20385508D01*
X8603611Y-20385508D02*
X8584563Y-20356936D01*
X8584563Y-20356936D02*
X8575039Y-20347412D01*
M02*
