%TF.GenerationSoftware,KiCad,Pcbnew,8.0.6*%
%TF.CreationDate,2025-04-05T08:59:43-04:00*%
%TF.ProjectId,Blinds4U,426c696e-6473-4345-952e-6b696361645f,rev?*%
%TF.SameCoordinates,Original*%
%TF.FileFunction,Soldermask,Bot*%
%TF.FilePolarity,Negative*%
%FSLAX46Y46*%
G04 Gerber Fmt 4.6, Leading zero omitted, Abs format (unit mm)*
G04 Created by KiCad (PCBNEW 8.0.6) date 2025-04-05 08:59:43*
%MOMM*%
%LPD*%
G01*
G04 APERTURE LIST*
G04 Aperture macros list*
%AMRoundRect*
0 Rectangle with rounded corners*
0 $1 Rounding radius*
0 $2 $3 $4 $5 $6 $7 $8 $9 X,Y pos of 4 corners*
0 Add a 4 corners polygon primitive as box body*
4,1,4,$2,$3,$4,$5,$6,$7,$8,$9,$2,$3,0*
0 Add four circle primitives for the rounded corners*
1,1,$1+$1,$2,$3*
1,1,$1+$1,$4,$5*
1,1,$1+$1,$6,$7*
1,1,$1+$1,$8,$9*
0 Add four rect primitives between the rounded corners*
20,1,$1+$1,$2,$3,$4,$5,0*
20,1,$1+$1,$4,$5,$6,$7,0*
20,1,$1+$1,$6,$7,$8,$9,0*
20,1,$1+$1,$8,$9,$2,$3,0*%
%AMOutline5P*
0 Free polygon, 5 corners , with rotation*
0 The origin of the aperture is its center*
0 number of corners: always 5*
0 $1 to $10 corner X, Y*
0 $11 Rotation angle, in degrees counterclockwise*
0 create outline with 5 corners*
4,1,5,$1,$2,$3,$4,$5,$6,$7,$8,$9,$10,$1,$2,$11*%
%AMOutline6P*
0 Free polygon, 6 corners , with rotation*
0 The origin of the aperture is its center*
0 number of corners: always 6*
0 $1 to $12 corner X, Y*
0 $13 Rotation angle, in degrees counterclockwise*
0 create outline with 6 corners*
4,1,6,$1,$2,$3,$4,$5,$6,$7,$8,$9,$10,$11,$12,$1,$2,$13*%
%AMOutline7P*
0 Free polygon, 7 corners , with rotation*
0 The origin of the aperture is its center*
0 number of corners: always 7*
0 $1 to $14 corner X, Y*
0 $15 Rotation angle, in degrees counterclockwise*
0 create outline with 7 corners*
4,1,7,$1,$2,$3,$4,$5,$6,$7,$8,$9,$10,$11,$12,$13,$14,$1,$2,$15*%
%AMOutline8P*
0 Free polygon, 8 corners , with rotation*
0 The origin of the aperture is its center*
0 number of corners: always 8*
0 $1 to $16 corner X, Y*
0 $17 Rotation angle, in degrees counterclockwise*
0 create outline with 8 corners*
4,1,8,$1,$2,$3,$4,$5,$6,$7,$8,$9,$10,$11,$12,$13,$14,$15,$16,$1,$2,$17*%
%AMFreePoly0*
4,1,21,0.422360,0.947373,0.427262,0.942882,0.942882,0.427262,0.964910,0.380021,0.965200,0.373380,0.965200,-0.889000,0.947373,-0.937980,0.902232,-0.964042,0.889000,-0.965200,-0.889000,-0.965200,-0.937980,-0.947373,-0.964042,-0.902232,-0.965200,-0.889000,-0.965200,0.373380,-0.947373,0.422360,-0.942882,0.427262,-0.427262,0.942882,-0.380021,0.964910,-0.373380,0.965200,0.373380,0.965200,
0.422360,0.947373,0.422360,0.947373,$1*%
%AMFreePoly1*
4,1,25,0.301485,0.667973,0.306387,0.663482,0.663482,0.306387,0.685510,0.259146,0.685800,0.252505,0.685800,-0.252505,0.667973,-0.301485,0.663482,-0.306387,0.306387,-0.663482,0.259146,-0.685510,0.252505,-0.685800,-0.252505,-0.685800,-0.301485,-0.667973,-0.306387,-0.663482,-0.663482,-0.306387,-0.685510,-0.259146,-0.685800,-0.252505,-0.685800,0.252505,-0.667973,0.301485,-0.663482,0.306387,
-0.306387,0.663482,-0.259146,0.685510,-0.252505,0.685800,0.252505,0.685800,0.301485,0.667973,0.301485,0.667973,$1*%
%AMFreePoly2*
4,1,25,0.575031,1.328373,0.579933,1.323882,1.323882,0.579933,1.345910,0.532692,1.346200,0.526051,1.346200,-0.526051,1.328373,-0.575031,1.323882,-0.579933,0.579933,-1.323882,0.532692,-1.345910,0.526051,-1.346200,-0.526051,-1.346200,-0.575031,-1.328373,-0.579933,-1.323882,-1.323882,-0.579933,-1.345910,-0.532692,-1.346200,-0.526051,-1.346200,0.526051,-1.328373,0.575031,-1.323882,0.579933,
-0.579933,1.323882,-0.532692,1.345910,-0.526051,1.346200,0.526051,1.346200,0.575031,1.328373,0.575031,1.328373,$1*%
G04 Aperture macros list end*
%ADD10R,1.600000X1.600000*%
%ADD11C,1.600000*%
%ADD12Outline8P,-2.750000X1.210000X-1.210000X2.750000X1.210000X2.750000X2.750000X1.210000X2.750000X-1.210000X1.210000X-2.750000X-1.210000X-2.750000X-2.750000X-1.210000X0.000000*%
%ADD13FreePoly0,180.000000*%
%ADD14RoundRect,0.250000X-0.620000X-0.845000X0.620000X-0.845000X0.620000X0.845000X-0.620000X0.845000X0*%
%ADD15O,1.740000X2.190000*%
%ADD16O,2.804000X1.804000*%
%ADD17FreePoly1,180.000000*%
%ADD18FreePoly1,0.000000*%
%ADD19RoundRect,0.076200X0.939800X-0.939800X0.939800X0.939800X-0.939800X0.939800X-0.939800X-0.939800X0*%
%ADD20FreePoly2,90.000000*%
G04 APERTURE END LIST*
D10*
%TO.C,C1*%
X59754888Y-40640000D03*
D11*
X62254888Y-40640000D03*
%TD*%
D12*
%TO.C,REF\u002A\u002A*%
X73660000Y-149225000D03*
D13*
X73660000Y-152835000D03*
%TD*%
D12*
%TO.C,REF\u002A\u002A*%
X48260000Y-149225000D03*
D13*
X48260000Y-152835000D03*
%TD*%
D10*
%TO.C,C2*%
X53404887Y-40640000D03*
D11*
X55904887Y-40640000D03*
%TD*%
D12*
%TO.C,REF\u002A\u002A*%
X73660000Y-34925000D03*
D13*
X73660000Y-38535000D03*
%TD*%
D12*
%TO.C,REF\u002A\u002A*%
X99060000Y-73025000D03*
D13*
X99060000Y-76635000D03*
%TD*%
D12*
%TO.C,REF\u002A\u002A*%
X99060000Y-111125000D03*
D13*
X99060000Y-114735000D03*
%TD*%
D12*
%TO.C,REF\u002A\u002A*%
X99060000Y-149225000D03*
D13*
X99060000Y-152835000D03*
%TD*%
D12*
%TO.C,REF\u002A\u002A*%
X48260000Y-34925000D03*
D13*
X48260000Y-38535000D03*
%TD*%
D12*
%TO.C,REF\u002A\u002A*%
X99060000Y-34925000D03*
D13*
X99060000Y-38535000D03*
%TD*%
D12*
%TO.C,REF\u002A\u002A*%
X73660000Y-111125000D03*
D13*
X73660000Y-114735000D03*
%TD*%
D14*
%TO.C,REF\u002A\u002A*%
X57150000Y-30500000D03*
D15*
X59690000Y-30500000D03*
X62230000Y-30500000D03*
X64770000Y-30500000D03*
%TD*%
D12*
%TO.C,REF\u002A\u002A*%
X48260000Y-73025000D03*
D13*
X48260000Y-76635000D03*
%TD*%
D12*
%TO.C,REF\u002A\u002A*%
X73660000Y-73025000D03*
D13*
X73660000Y-76635000D03*
%TD*%
D12*
%TO.C,REF\u002A\u002A*%
X48260000Y-111125000D03*
D13*
X48260000Y-114735000D03*
%TD*%
D16*
%TO.C,Out3SW*%
X48260000Y-127635000D03*
X48260000Y-130175000D03*
X48260000Y-132715000D03*
%TD*%
D17*
%TO.C,LED7*%
X43180000Y-155575000D03*
X40640000Y-155575000D03*
%TD*%
%TO.C,LED5*%
X43180000Y-117475000D03*
X40640000Y-117475000D03*
%TD*%
D18*
%TO.C,LED4*%
X66040000Y-79375000D03*
X68580000Y-79375000D03*
%TD*%
D17*
%TO.C,LED3*%
X43180000Y-79375000D03*
X40640000Y-79375000D03*
%TD*%
D16*
%TO.C,In3SW*%
X86360000Y-108585000D03*
X86360000Y-111125000D03*
X86360000Y-113665000D03*
%TD*%
D19*
%TO.C,R64*%
X96560000Y-137175000D03*
X99060000Y-137175000D03*
X101560000Y-137175000D03*
D20*
X94360000Y-130175000D03*
X103760000Y-130175000D03*
%TD*%
D19*
%TO.C,R65*%
X71160000Y-137175000D03*
X73660000Y-137175000D03*
X76160000Y-137175000D03*
D20*
X68960000Y-130175000D03*
X78360000Y-130175000D03*
%TD*%
D18*
%TO.C,LED6*%
X66040000Y-117475000D03*
X68580000Y-117475000D03*
%TD*%
%TO.C,LED8*%
X66040000Y-155575000D03*
X68580000Y-155575000D03*
%TD*%
D19*
%TO.C,R98*%
X71160000Y-175275000D03*
X73660000Y-175275000D03*
X76160000Y-175275000D03*
D20*
X68960000Y-168275000D03*
X78360000Y-168275000D03*
%TD*%
D19*
%TO.C,R4*%
X96560000Y-60975000D03*
X99060000Y-60975000D03*
X101560000Y-60975000D03*
D20*
X94360000Y-53975000D03*
X103760000Y-53975000D03*
%TD*%
D17*
%TO.C,LED1*%
X43180000Y-41275000D03*
X40640000Y-41275000D03*
%TD*%
D16*
%TO.C,In2SW*%
X86360000Y-70485000D03*
X86360000Y-73025000D03*
X86360000Y-75565000D03*
%TD*%
%TO.C,Out1SW*%
X48260000Y-51435000D03*
X48260000Y-53975000D03*
X48260000Y-56515000D03*
%TD*%
%TO.C,Out2SW*%
X48260000Y-89535000D03*
X48260000Y-92075000D03*
X48260000Y-94615000D03*
%TD*%
D19*
%TO.C,R5*%
X71160000Y-60975000D03*
X73660000Y-60975000D03*
X76160000Y-60975000D03*
D20*
X68960000Y-53975000D03*
X78360000Y-53975000D03*
%TD*%
D16*
%TO.C,In1SW*%
X86360000Y-32385000D03*
X86360000Y-34925000D03*
X86360000Y-37465000D03*
%TD*%
%TO.C,In4SW*%
X86360000Y-146685000D03*
X86360000Y-149225000D03*
X86360000Y-151765000D03*
%TD*%
D19*
%TO.C,R36*%
X96560000Y-99075000D03*
X99060000Y-99075000D03*
X101560000Y-99075000D03*
D20*
X94360000Y-92075000D03*
X103760000Y-92075000D03*
%TD*%
D19*
%TO.C,R97*%
X96560000Y-175275000D03*
X99060000Y-175275000D03*
X101560000Y-175275000D03*
D20*
X94360000Y-168275000D03*
X103760000Y-168275000D03*
%TD*%
D18*
%TO.C,LED2*%
X66040000Y-41275000D03*
X68580000Y-41275000D03*
%TD*%
D19*
%TO.C,R37*%
X71160000Y-99075000D03*
X73660000Y-99075000D03*
X76160000Y-99075000D03*
D20*
X68960000Y-92075000D03*
X78360000Y-92075000D03*
%TD*%
M02*
