%TF.GenerationSoftware,KiCad,Pcbnew,8.0.6*%
%TF.CreationDate,2025-04-05T08:59:43-04:00*%
%TF.ProjectId,Blinds4U,426c696e-6473-4345-952e-6b696361645f,rev?*%
%TF.SameCoordinates,Original*%
%TF.FileFunction,Legend,Bot*%
%TF.FilePolarity,Positive*%
%FSLAX46Y46*%
G04 Gerber Fmt 4.6, Leading zero omitted, Abs format (unit mm)*
G04 Created by KiCad (PCBNEW 8.0.6) date 2025-04-05 08:59:43*
%MOMM*%
%LPD*%
G01*
G04 APERTURE LIST*
%ADD10C,0.150000*%
%ADD11C,0.127000*%
%ADD12C,0.114300*%
%ADD13C,0.093472*%
%ADD14C,0.101600*%
%ADD15C,0.100000*%
%ADD16C,0.200000*%
%ADD17C,0.254000*%
%ADD18C,0.152400*%
%ADD19C,0.203200*%
G04 APERTURE END LIST*
D10*
X43904819Y-125912857D02*
X43904819Y-126103333D01*
X43904819Y-126103333D02*
X43952438Y-126198571D01*
X43952438Y-126198571D02*
X44047676Y-126293809D01*
X44047676Y-126293809D02*
X44238152Y-126341428D01*
X44238152Y-126341428D02*
X44571485Y-126341428D01*
X44571485Y-126341428D02*
X44761961Y-126293809D01*
X44761961Y-126293809D02*
X44857200Y-126198571D01*
X44857200Y-126198571D02*
X44904819Y-126103333D01*
X44904819Y-126103333D02*
X44904819Y-125912857D01*
X44904819Y-125912857D02*
X44857200Y-125817619D01*
X44857200Y-125817619D02*
X44761961Y-125722381D01*
X44761961Y-125722381D02*
X44571485Y-125674762D01*
X44571485Y-125674762D02*
X44238152Y-125674762D01*
X44238152Y-125674762D02*
X44047676Y-125722381D01*
X44047676Y-125722381D02*
X43952438Y-125817619D01*
X43952438Y-125817619D02*
X43904819Y-125912857D01*
X44238152Y-127198571D02*
X44904819Y-127198571D01*
X44238152Y-126770000D02*
X44761961Y-126770000D01*
X44761961Y-126770000D02*
X44857200Y-126817619D01*
X44857200Y-126817619D02*
X44904819Y-126912857D01*
X44904819Y-126912857D02*
X44904819Y-127055714D01*
X44904819Y-127055714D02*
X44857200Y-127150952D01*
X44857200Y-127150952D02*
X44809580Y-127198571D01*
X44238152Y-127531905D02*
X44238152Y-127912857D01*
X43904819Y-127674762D02*
X44761961Y-127674762D01*
X44761961Y-127674762D02*
X44857200Y-127722381D01*
X44857200Y-127722381D02*
X44904819Y-127817619D01*
X44904819Y-127817619D02*
X44904819Y-127912857D01*
X43904819Y-128150953D02*
X43904819Y-128770000D01*
X43904819Y-128770000D02*
X44285771Y-128436667D01*
X44285771Y-128436667D02*
X44285771Y-128579524D01*
X44285771Y-128579524D02*
X44333390Y-128674762D01*
X44333390Y-128674762D02*
X44381009Y-128722381D01*
X44381009Y-128722381D02*
X44476247Y-128770000D01*
X44476247Y-128770000D02*
X44714342Y-128770000D01*
X44714342Y-128770000D02*
X44809580Y-128722381D01*
X44809580Y-128722381D02*
X44857200Y-128674762D01*
X44857200Y-128674762D02*
X44904819Y-128579524D01*
X44904819Y-128579524D02*
X44904819Y-128293810D01*
X44904819Y-128293810D02*
X44857200Y-128198572D01*
X44857200Y-128198572D02*
X44809580Y-128150953D01*
X44857200Y-129150953D02*
X44904819Y-129293810D01*
X44904819Y-129293810D02*
X44904819Y-129531905D01*
X44904819Y-129531905D02*
X44857200Y-129627143D01*
X44857200Y-129627143D02*
X44809580Y-129674762D01*
X44809580Y-129674762D02*
X44714342Y-129722381D01*
X44714342Y-129722381D02*
X44619104Y-129722381D01*
X44619104Y-129722381D02*
X44523866Y-129674762D01*
X44523866Y-129674762D02*
X44476247Y-129627143D01*
X44476247Y-129627143D02*
X44428628Y-129531905D01*
X44428628Y-129531905D02*
X44381009Y-129341429D01*
X44381009Y-129341429D02*
X44333390Y-129246191D01*
X44333390Y-129246191D02*
X44285771Y-129198572D01*
X44285771Y-129198572D02*
X44190533Y-129150953D01*
X44190533Y-129150953D02*
X44095295Y-129150953D01*
X44095295Y-129150953D02*
X44000057Y-129198572D01*
X44000057Y-129198572D02*
X43952438Y-129246191D01*
X43952438Y-129246191D02*
X43904819Y-129341429D01*
X43904819Y-129341429D02*
X43904819Y-129579524D01*
X43904819Y-129579524D02*
X43952438Y-129722381D01*
X43904819Y-130055715D02*
X44904819Y-130293810D01*
X44904819Y-130293810D02*
X44190533Y-130484286D01*
X44190533Y-130484286D02*
X44904819Y-130674762D01*
X44904819Y-130674762D02*
X43904819Y-130912858D01*
D11*
X41645019Y-152888514D02*
X42189305Y-152888514D01*
X42189305Y-152888514D02*
X42189305Y-151745514D01*
X41264019Y-152289800D02*
X40883019Y-152289800D01*
X40719733Y-152888514D02*
X41264019Y-152888514D01*
X41264019Y-152888514D02*
X41264019Y-151745514D01*
X41264019Y-151745514D02*
X40719733Y-151745514D01*
X40229876Y-152888514D02*
X40229876Y-151745514D01*
X40229876Y-151745514D02*
X39957733Y-151745514D01*
X39957733Y-151745514D02*
X39794447Y-151799943D01*
X39794447Y-151799943D02*
X39685590Y-151908800D01*
X39685590Y-151908800D02*
X39631161Y-152017657D01*
X39631161Y-152017657D02*
X39576733Y-152235371D01*
X39576733Y-152235371D02*
X39576733Y-152398657D01*
X39576733Y-152398657D02*
X39631161Y-152616371D01*
X39631161Y-152616371D02*
X39685590Y-152725228D01*
X39685590Y-152725228D02*
X39794447Y-152834086D01*
X39794447Y-152834086D02*
X39957733Y-152888514D01*
X39957733Y-152888514D02*
X40229876Y-152888514D01*
X39195733Y-151745514D02*
X38433733Y-151745514D01*
X38433733Y-151745514D02*
X38923590Y-152888514D01*
X42280019Y-114788514D02*
X42824305Y-114788514D01*
X42824305Y-114788514D02*
X42824305Y-113645514D01*
X41899019Y-114189800D02*
X41518019Y-114189800D01*
X41354733Y-114788514D02*
X41899019Y-114788514D01*
X41899019Y-114788514D02*
X41899019Y-113645514D01*
X41899019Y-113645514D02*
X41354733Y-113645514D01*
X40864876Y-114788514D02*
X40864876Y-113645514D01*
X40864876Y-113645514D02*
X40592733Y-113645514D01*
X40592733Y-113645514D02*
X40429447Y-113699943D01*
X40429447Y-113699943D02*
X40320590Y-113808800D01*
X40320590Y-113808800D02*
X40266161Y-113917657D01*
X40266161Y-113917657D02*
X40211733Y-114135371D01*
X40211733Y-114135371D02*
X40211733Y-114298657D01*
X40211733Y-114298657D02*
X40266161Y-114516371D01*
X40266161Y-114516371D02*
X40320590Y-114625228D01*
X40320590Y-114625228D02*
X40429447Y-114734086D01*
X40429447Y-114734086D02*
X40592733Y-114788514D01*
X40592733Y-114788514D02*
X40864876Y-114788514D01*
X39177590Y-113645514D02*
X39721876Y-113645514D01*
X39721876Y-113645514D02*
X39776304Y-114189800D01*
X39776304Y-114189800D02*
X39721876Y-114135371D01*
X39721876Y-114135371D02*
X39613019Y-114080943D01*
X39613019Y-114080943D02*
X39340876Y-114080943D01*
X39340876Y-114080943D02*
X39232019Y-114135371D01*
X39232019Y-114135371D02*
X39177590Y-114189800D01*
X39177590Y-114189800D02*
X39123161Y-114298657D01*
X39123161Y-114298657D02*
X39123161Y-114570800D01*
X39123161Y-114570800D02*
X39177590Y-114679657D01*
X39177590Y-114679657D02*
X39232019Y-114734086D01*
X39232019Y-114734086D02*
X39340876Y-114788514D01*
X39340876Y-114788514D02*
X39613019Y-114788514D01*
X39613019Y-114788514D02*
X39721876Y-114734086D01*
X39721876Y-114734086D02*
X39776304Y-114679657D01*
D12*
X68309617Y-82261140D02*
X68545474Y-82261140D01*
X68545474Y-82261140D02*
X68545474Y-81765840D01*
X68144517Y-82001697D02*
X67979417Y-82001697D01*
X67908660Y-82261140D02*
X68144517Y-82261140D01*
X68144517Y-82261140D02*
X68144517Y-81765840D01*
X68144517Y-81765840D02*
X67908660Y-81765840D01*
X67696388Y-82261140D02*
X67696388Y-81765840D01*
X67696388Y-81765840D02*
X67578459Y-81765840D01*
X67578459Y-81765840D02*
X67507702Y-81789426D01*
X67507702Y-81789426D02*
X67460531Y-81836597D01*
X67460531Y-81836597D02*
X67436945Y-81883769D01*
X67436945Y-81883769D02*
X67413359Y-81978112D01*
X67413359Y-81978112D02*
X67413359Y-82048869D01*
X67413359Y-82048869D02*
X67436945Y-82143212D01*
X67436945Y-82143212D02*
X67460531Y-82190383D01*
X67460531Y-82190383D02*
X67507702Y-82237555D01*
X67507702Y-82237555D02*
X67578459Y-82261140D01*
X67578459Y-82261140D02*
X67696388Y-82261140D01*
X66988817Y-81930940D02*
X66988817Y-82261140D01*
X67106745Y-81742255D02*
X67224674Y-82096040D01*
X67224674Y-82096040D02*
X66918059Y-82096040D01*
D11*
X42280019Y-76688514D02*
X42824305Y-76688514D01*
X42824305Y-76688514D02*
X42824305Y-75545514D01*
X41899019Y-76089800D02*
X41518019Y-76089800D01*
X41354733Y-76688514D02*
X41899019Y-76688514D01*
X41899019Y-76688514D02*
X41899019Y-75545514D01*
X41899019Y-75545514D02*
X41354733Y-75545514D01*
X40864876Y-76688514D02*
X40864876Y-75545514D01*
X40864876Y-75545514D02*
X40592733Y-75545514D01*
X40592733Y-75545514D02*
X40429447Y-75599943D01*
X40429447Y-75599943D02*
X40320590Y-75708800D01*
X40320590Y-75708800D02*
X40266161Y-75817657D01*
X40266161Y-75817657D02*
X40211733Y-76035371D01*
X40211733Y-76035371D02*
X40211733Y-76198657D01*
X40211733Y-76198657D02*
X40266161Y-76416371D01*
X40266161Y-76416371D02*
X40320590Y-76525228D01*
X40320590Y-76525228D02*
X40429447Y-76634086D01*
X40429447Y-76634086D02*
X40592733Y-76688514D01*
X40592733Y-76688514D02*
X40864876Y-76688514D01*
X39830733Y-75545514D02*
X39123161Y-75545514D01*
X39123161Y-75545514D02*
X39504161Y-75980943D01*
X39504161Y-75980943D02*
X39340876Y-75980943D01*
X39340876Y-75980943D02*
X39232019Y-76035371D01*
X39232019Y-76035371D02*
X39177590Y-76089800D01*
X39177590Y-76089800D02*
X39123161Y-76198657D01*
X39123161Y-76198657D02*
X39123161Y-76470800D01*
X39123161Y-76470800D02*
X39177590Y-76579657D01*
X39177590Y-76579657D02*
X39232019Y-76634086D01*
X39232019Y-76634086D02*
X39340876Y-76688514D01*
X39340876Y-76688514D02*
X39667447Y-76688514D01*
X39667447Y-76688514D02*
X39776304Y-76634086D01*
X39776304Y-76634086D02*
X39830733Y-76579657D01*
D10*
X83004819Y-107243810D02*
X82004819Y-107243810D01*
X82338152Y-107720000D02*
X83004819Y-107720000D01*
X82433390Y-107720000D02*
X82385771Y-107767619D01*
X82385771Y-107767619D02*
X82338152Y-107862857D01*
X82338152Y-107862857D02*
X82338152Y-108005714D01*
X82338152Y-108005714D02*
X82385771Y-108100952D01*
X82385771Y-108100952D02*
X82481009Y-108148571D01*
X82481009Y-108148571D02*
X83004819Y-108148571D01*
X82004819Y-108529524D02*
X82004819Y-109148571D01*
X82004819Y-109148571D02*
X82385771Y-108815238D01*
X82385771Y-108815238D02*
X82385771Y-108958095D01*
X82385771Y-108958095D02*
X82433390Y-109053333D01*
X82433390Y-109053333D02*
X82481009Y-109100952D01*
X82481009Y-109100952D02*
X82576247Y-109148571D01*
X82576247Y-109148571D02*
X82814342Y-109148571D01*
X82814342Y-109148571D02*
X82909580Y-109100952D01*
X82909580Y-109100952D02*
X82957200Y-109053333D01*
X82957200Y-109053333D02*
X83004819Y-108958095D01*
X83004819Y-108958095D02*
X83004819Y-108672381D01*
X83004819Y-108672381D02*
X82957200Y-108577143D01*
X82957200Y-108577143D02*
X82909580Y-108529524D01*
X82957200Y-109529524D02*
X83004819Y-109672381D01*
X83004819Y-109672381D02*
X83004819Y-109910476D01*
X83004819Y-109910476D02*
X82957200Y-110005714D01*
X82957200Y-110005714D02*
X82909580Y-110053333D01*
X82909580Y-110053333D02*
X82814342Y-110100952D01*
X82814342Y-110100952D02*
X82719104Y-110100952D01*
X82719104Y-110100952D02*
X82623866Y-110053333D01*
X82623866Y-110053333D02*
X82576247Y-110005714D01*
X82576247Y-110005714D02*
X82528628Y-109910476D01*
X82528628Y-109910476D02*
X82481009Y-109720000D01*
X82481009Y-109720000D02*
X82433390Y-109624762D01*
X82433390Y-109624762D02*
X82385771Y-109577143D01*
X82385771Y-109577143D02*
X82290533Y-109529524D01*
X82290533Y-109529524D02*
X82195295Y-109529524D01*
X82195295Y-109529524D02*
X82100057Y-109577143D01*
X82100057Y-109577143D02*
X82052438Y-109624762D01*
X82052438Y-109624762D02*
X82004819Y-109720000D01*
X82004819Y-109720000D02*
X82004819Y-109958095D01*
X82004819Y-109958095D02*
X82052438Y-110100952D01*
X82004819Y-110434286D02*
X83004819Y-110672381D01*
X83004819Y-110672381D02*
X82290533Y-110862857D01*
X82290533Y-110862857D02*
X83004819Y-111053333D01*
X83004819Y-111053333D02*
X82004819Y-111291429D01*
D13*
X101856078Y-126216155D02*
X102248254Y-125655903D01*
X102528380Y-126216155D02*
X102528380Y-125039627D01*
X102528380Y-125039627D02*
X102080179Y-125039627D01*
X102080179Y-125039627D02*
X101968128Y-125095652D01*
X101968128Y-125095652D02*
X101912103Y-125151677D01*
X101912103Y-125151677D02*
X101856078Y-125263727D01*
X101856078Y-125263727D02*
X101856078Y-125431803D01*
X101856078Y-125431803D02*
X101912103Y-125543853D01*
X101912103Y-125543853D02*
X101968128Y-125599878D01*
X101968128Y-125599878D02*
X102080179Y-125655903D01*
X102080179Y-125655903D02*
X102528380Y-125655903D01*
X100847626Y-125039627D02*
X101071726Y-125039627D01*
X101071726Y-125039627D02*
X101183776Y-125095652D01*
X101183776Y-125095652D02*
X101239802Y-125151677D01*
X101239802Y-125151677D02*
X101351852Y-125319752D01*
X101351852Y-125319752D02*
X101407877Y-125543853D01*
X101407877Y-125543853D02*
X101407877Y-125992054D01*
X101407877Y-125992054D02*
X101351852Y-126104104D01*
X101351852Y-126104104D02*
X101295827Y-126160130D01*
X101295827Y-126160130D02*
X101183776Y-126216155D01*
X101183776Y-126216155D02*
X100959676Y-126216155D01*
X100959676Y-126216155D02*
X100847626Y-126160130D01*
X100847626Y-126160130D02*
X100791600Y-126104104D01*
X100791600Y-126104104D02*
X100735575Y-125992054D01*
X100735575Y-125992054D02*
X100735575Y-125711928D01*
X100735575Y-125711928D02*
X100791600Y-125599878D01*
X100791600Y-125599878D02*
X100847626Y-125543853D01*
X100847626Y-125543853D02*
X100959676Y-125487828D01*
X100959676Y-125487828D02*
X101183776Y-125487828D01*
X101183776Y-125487828D02*
X101295827Y-125543853D01*
X101295827Y-125543853D02*
X101351852Y-125599878D01*
X101351852Y-125599878D02*
X101407877Y-125711928D01*
X99727123Y-125431803D02*
X99727123Y-126216155D01*
X100007248Y-124983602D02*
X100287374Y-125823979D01*
X100287374Y-125823979D02*
X99559047Y-125823979D01*
D14*
X76174918Y-127583754D02*
X76564385Y-127027373D01*
X76842575Y-127583754D02*
X76842575Y-126415354D01*
X76842575Y-126415354D02*
X76397470Y-126415354D01*
X76397470Y-126415354D02*
X76286194Y-126470992D01*
X76286194Y-126470992D02*
X76230556Y-126526630D01*
X76230556Y-126526630D02*
X76174918Y-126637906D01*
X76174918Y-126637906D02*
X76174918Y-126804820D01*
X76174918Y-126804820D02*
X76230556Y-126916096D01*
X76230556Y-126916096D02*
X76286194Y-126971735D01*
X76286194Y-126971735D02*
X76397470Y-127027373D01*
X76397470Y-127027373D02*
X76842575Y-127027373D01*
X75173432Y-126415354D02*
X75395985Y-126415354D01*
X75395985Y-126415354D02*
X75507261Y-126470992D01*
X75507261Y-126470992D02*
X75562899Y-126526630D01*
X75562899Y-126526630D02*
X75674175Y-126693544D01*
X75674175Y-126693544D02*
X75729813Y-126916096D01*
X75729813Y-126916096D02*
X75729813Y-127361201D01*
X75729813Y-127361201D02*
X75674175Y-127472477D01*
X75674175Y-127472477D02*
X75618537Y-127528116D01*
X75618537Y-127528116D02*
X75507261Y-127583754D01*
X75507261Y-127583754D02*
X75284708Y-127583754D01*
X75284708Y-127583754D02*
X75173432Y-127528116D01*
X75173432Y-127528116D02*
X75117794Y-127472477D01*
X75117794Y-127472477D02*
X75062156Y-127361201D01*
X75062156Y-127361201D02*
X75062156Y-127083011D01*
X75062156Y-127083011D02*
X75117794Y-126971735D01*
X75117794Y-126971735D02*
X75173432Y-126916096D01*
X75173432Y-126916096D02*
X75284708Y-126860458D01*
X75284708Y-126860458D02*
X75507261Y-126860458D01*
X75507261Y-126860458D02*
X75618537Y-126916096D01*
X75618537Y-126916096D02*
X75674175Y-126971735D01*
X75674175Y-126971735D02*
X75729813Y-127083011D01*
X74005032Y-126415354D02*
X74561413Y-126415354D01*
X74561413Y-126415354D02*
X74617051Y-126971735D01*
X74617051Y-126971735D02*
X74561413Y-126916096D01*
X74561413Y-126916096D02*
X74450137Y-126860458D01*
X74450137Y-126860458D02*
X74171946Y-126860458D01*
X74171946Y-126860458D02*
X74060670Y-126916096D01*
X74060670Y-126916096D02*
X74005032Y-126971735D01*
X74005032Y-126971735D02*
X73949394Y-127083011D01*
X73949394Y-127083011D02*
X73949394Y-127361201D01*
X73949394Y-127361201D02*
X74005032Y-127472477D01*
X74005032Y-127472477D02*
X74060670Y-127528116D01*
X74060670Y-127528116D02*
X74171946Y-127583754D01*
X74171946Y-127583754D02*
X74450137Y-127583754D01*
X74450137Y-127583754D02*
X74561413Y-127528116D01*
X74561413Y-127528116D02*
X74617051Y-127472477D01*
D12*
X64975917Y-116074740D02*
X65211774Y-116074740D01*
X65211774Y-116074740D02*
X65211774Y-115579440D01*
X64810817Y-115815297D02*
X64645717Y-115815297D01*
X64574960Y-116074740D02*
X64810817Y-116074740D01*
X64810817Y-116074740D02*
X64810817Y-115579440D01*
X64810817Y-115579440D02*
X64574960Y-115579440D01*
X64362688Y-116074740D02*
X64362688Y-115579440D01*
X64362688Y-115579440D02*
X64244759Y-115579440D01*
X64244759Y-115579440D02*
X64174002Y-115603026D01*
X64174002Y-115603026D02*
X64126831Y-115650197D01*
X64126831Y-115650197D02*
X64103245Y-115697369D01*
X64103245Y-115697369D02*
X64079659Y-115791712D01*
X64079659Y-115791712D02*
X64079659Y-115862469D01*
X64079659Y-115862469D02*
X64103245Y-115956812D01*
X64103245Y-115956812D02*
X64126831Y-116003983D01*
X64126831Y-116003983D02*
X64174002Y-116051155D01*
X64174002Y-116051155D02*
X64244759Y-116074740D01*
X64244759Y-116074740D02*
X64362688Y-116074740D01*
X63655117Y-115579440D02*
X63749459Y-115579440D01*
X63749459Y-115579440D02*
X63796631Y-115603026D01*
X63796631Y-115603026D02*
X63820217Y-115626612D01*
X63820217Y-115626612D02*
X63867388Y-115697369D01*
X63867388Y-115697369D02*
X63890974Y-115791712D01*
X63890974Y-115791712D02*
X63890974Y-115980397D01*
X63890974Y-115980397D02*
X63867388Y-116027569D01*
X63867388Y-116027569D02*
X63843802Y-116051155D01*
X63843802Y-116051155D02*
X63796631Y-116074740D01*
X63796631Y-116074740D02*
X63702288Y-116074740D01*
X63702288Y-116074740D02*
X63655117Y-116051155D01*
X63655117Y-116051155D02*
X63631531Y-116027569D01*
X63631531Y-116027569D02*
X63607945Y-115980397D01*
X63607945Y-115980397D02*
X63607945Y-115862469D01*
X63607945Y-115862469D02*
X63631531Y-115815297D01*
X63631531Y-115815297D02*
X63655117Y-115791712D01*
X63655117Y-115791712D02*
X63702288Y-115768126D01*
X63702288Y-115768126D02*
X63796631Y-115768126D01*
X63796631Y-115768126D02*
X63843802Y-115791712D01*
X63843802Y-115791712D02*
X63867388Y-115815297D01*
X63867388Y-115815297D02*
X63890974Y-115862469D01*
X67736311Y-158532741D02*
X67972168Y-158532741D01*
X67972168Y-158532741D02*
X67972168Y-158037441D01*
X67571211Y-158273298D02*
X67406111Y-158273298D01*
X67335354Y-158532741D02*
X67571211Y-158532741D01*
X67571211Y-158532741D02*
X67571211Y-158037441D01*
X67571211Y-158037441D02*
X67335354Y-158037441D01*
X67123082Y-158532741D02*
X67123082Y-158037441D01*
X67123082Y-158037441D02*
X67005153Y-158037441D01*
X67005153Y-158037441D02*
X66934396Y-158061027D01*
X66934396Y-158061027D02*
X66887225Y-158108198D01*
X66887225Y-158108198D02*
X66863639Y-158155370D01*
X66863639Y-158155370D02*
X66840053Y-158249713D01*
X66840053Y-158249713D02*
X66840053Y-158320470D01*
X66840053Y-158320470D02*
X66863639Y-158414813D01*
X66863639Y-158414813D02*
X66887225Y-158461984D01*
X66887225Y-158461984D02*
X66934396Y-158509156D01*
X66934396Y-158509156D02*
X67005153Y-158532741D01*
X67005153Y-158532741D02*
X67123082Y-158532741D01*
X66557025Y-158249713D02*
X66604196Y-158226127D01*
X66604196Y-158226127D02*
X66627782Y-158202541D01*
X66627782Y-158202541D02*
X66651368Y-158155370D01*
X66651368Y-158155370D02*
X66651368Y-158131784D01*
X66651368Y-158131784D02*
X66627782Y-158084613D01*
X66627782Y-158084613D02*
X66604196Y-158061027D01*
X66604196Y-158061027D02*
X66557025Y-158037441D01*
X66557025Y-158037441D02*
X66462682Y-158037441D01*
X66462682Y-158037441D02*
X66415511Y-158061027D01*
X66415511Y-158061027D02*
X66391925Y-158084613D01*
X66391925Y-158084613D02*
X66368339Y-158131784D01*
X66368339Y-158131784D02*
X66368339Y-158155370D01*
X66368339Y-158155370D02*
X66391925Y-158202541D01*
X66391925Y-158202541D02*
X66415511Y-158226127D01*
X66415511Y-158226127D02*
X66462682Y-158249713D01*
X66462682Y-158249713D02*
X66557025Y-158249713D01*
X66557025Y-158249713D02*
X66604196Y-158273298D01*
X66604196Y-158273298D02*
X66627782Y-158296884D01*
X66627782Y-158296884D02*
X66651368Y-158344056D01*
X66651368Y-158344056D02*
X66651368Y-158438398D01*
X66651368Y-158438398D02*
X66627782Y-158485570D01*
X66627782Y-158485570D02*
X66604196Y-158509156D01*
X66604196Y-158509156D02*
X66557025Y-158532741D01*
X66557025Y-158532741D02*
X66462682Y-158532741D01*
X66462682Y-158532741D02*
X66415511Y-158509156D01*
X66415511Y-158509156D02*
X66391925Y-158485570D01*
X66391925Y-158485570D02*
X66368339Y-158438398D01*
X66368339Y-158438398D02*
X66368339Y-158344056D01*
X66368339Y-158344056D02*
X66391925Y-158296884D01*
X66391925Y-158296884D02*
X66415511Y-158273298D01*
X66415511Y-158273298D02*
X66462682Y-158249713D01*
D14*
X76174918Y-165683754D02*
X76564385Y-165127373D01*
X76842575Y-165683754D02*
X76842575Y-164515354D01*
X76842575Y-164515354D02*
X76397470Y-164515354D01*
X76397470Y-164515354D02*
X76286194Y-164570992D01*
X76286194Y-164570992D02*
X76230556Y-164626630D01*
X76230556Y-164626630D02*
X76174918Y-164737906D01*
X76174918Y-164737906D02*
X76174918Y-164904820D01*
X76174918Y-164904820D02*
X76230556Y-165016096D01*
X76230556Y-165016096D02*
X76286194Y-165071735D01*
X76286194Y-165071735D02*
X76397470Y-165127373D01*
X76397470Y-165127373D02*
X76842575Y-165127373D01*
X75618537Y-165683754D02*
X75395985Y-165683754D01*
X75395985Y-165683754D02*
X75284708Y-165628116D01*
X75284708Y-165628116D02*
X75229070Y-165572477D01*
X75229070Y-165572477D02*
X75117794Y-165405563D01*
X75117794Y-165405563D02*
X75062156Y-165183011D01*
X75062156Y-165183011D02*
X75062156Y-164737906D01*
X75062156Y-164737906D02*
X75117794Y-164626630D01*
X75117794Y-164626630D02*
X75173432Y-164570992D01*
X75173432Y-164570992D02*
X75284708Y-164515354D01*
X75284708Y-164515354D02*
X75507261Y-164515354D01*
X75507261Y-164515354D02*
X75618537Y-164570992D01*
X75618537Y-164570992D02*
X75674175Y-164626630D01*
X75674175Y-164626630D02*
X75729813Y-164737906D01*
X75729813Y-164737906D02*
X75729813Y-165016096D01*
X75729813Y-165016096D02*
X75674175Y-165127373D01*
X75674175Y-165127373D02*
X75618537Y-165183011D01*
X75618537Y-165183011D02*
X75507261Y-165238649D01*
X75507261Y-165238649D02*
X75284708Y-165238649D01*
X75284708Y-165238649D02*
X75173432Y-165183011D01*
X75173432Y-165183011D02*
X75117794Y-165127373D01*
X75117794Y-165127373D02*
X75062156Y-165016096D01*
X74394499Y-165016096D02*
X74505775Y-164960458D01*
X74505775Y-164960458D02*
X74561413Y-164904820D01*
X74561413Y-164904820D02*
X74617051Y-164793544D01*
X74617051Y-164793544D02*
X74617051Y-164737906D01*
X74617051Y-164737906D02*
X74561413Y-164626630D01*
X74561413Y-164626630D02*
X74505775Y-164570992D01*
X74505775Y-164570992D02*
X74394499Y-164515354D01*
X74394499Y-164515354D02*
X74171946Y-164515354D01*
X74171946Y-164515354D02*
X74060670Y-164570992D01*
X74060670Y-164570992D02*
X74005032Y-164626630D01*
X74005032Y-164626630D02*
X73949394Y-164737906D01*
X73949394Y-164737906D02*
X73949394Y-164793544D01*
X73949394Y-164793544D02*
X74005032Y-164904820D01*
X74005032Y-164904820D02*
X74060670Y-164960458D01*
X74060670Y-164960458D02*
X74171946Y-165016096D01*
X74171946Y-165016096D02*
X74394499Y-165016096D01*
X74394499Y-165016096D02*
X74505775Y-165071735D01*
X74505775Y-165071735D02*
X74561413Y-165127373D01*
X74561413Y-165127373D02*
X74617051Y-165238649D01*
X74617051Y-165238649D02*
X74617051Y-165461201D01*
X74617051Y-165461201D02*
X74561413Y-165572477D01*
X74561413Y-165572477D02*
X74505775Y-165628116D01*
X74505775Y-165628116D02*
X74394499Y-165683754D01*
X74394499Y-165683754D02*
X74171946Y-165683754D01*
X74171946Y-165683754D02*
X74060670Y-165628116D01*
X74060670Y-165628116D02*
X74005032Y-165572477D01*
X74005032Y-165572477D02*
X73949394Y-165461201D01*
X73949394Y-165461201D02*
X73949394Y-165238649D01*
X73949394Y-165238649D02*
X74005032Y-165127373D01*
X74005032Y-165127373D02*
X74060670Y-165071735D01*
X74060670Y-165071735D02*
X74171946Y-165016096D01*
D13*
X101856078Y-50016155D02*
X102248254Y-49455903D01*
X102528380Y-50016155D02*
X102528380Y-48839627D01*
X102528380Y-48839627D02*
X102080179Y-48839627D01*
X102080179Y-48839627D02*
X101968128Y-48895652D01*
X101968128Y-48895652D02*
X101912103Y-48951677D01*
X101912103Y-48951677D02*
X101856078Y-49063727D01*
X101856078Y-49063727D02*
X101856078Y-49231803D01*
X101856078Y-49231803D02*
X101912103Y-49343853D01*
X101912103Y-49343853D02*
X101968128Y-49399878D01*
X101968128Y-49399878D02*
X102080179Y-49455903D01*
X102080179Y-49455903D02*
X102528380Y-49455903D01*
X100847626Y-49231803D02*
X100847626Y-50016155D01*
X101127751Y-48783602D02*
X101407877Y-49623979D01*
X101407877Y-49623979D02*
X100679550Y-49623979D01*
D11*
X41645019Y-38588514D02*
X42189305Y-38588514D01*
X42189305Y-38588514D02*
X42189305Y-37445514D01*
X41264019Y-37989800D02*
X40883019Y-37989800D01*
X40719733Y-38588514D02*
X41264019Y-38588514D01*
X41264019Y-38588514D02*
X41264019Y-37445514D01*
X41264019Y-37445514D02*
X40719733Y-37445514D01*
X40229876Y-38588514D02*
X40229876Y-37445514D01*
X40229876Y-37445514D02*
X39957733Y-37445514D01*
X39957733Y-37445514D02*
X39794447Y-37499943D01*
X39794447Y-37499943D02*
X39685590Y-37608800D01*
X39685590Y-37608800D02*
X39631161Y-37717657D01*
X39631161Y-37717657D02*
X39576733Y-37935371D01*
X39576733Y-37935371D02*
X39576733Y-38098657D01*
X39576733Y-38098657D02*
X39631161Y-38316371D01*
X39631161Y-38316371D02*
X39685590Y-38425228D01*
X39685590Y-38425228D02*
X39794447Y-38534086D01*
X39794447Y-38534086D02*
X39957733Y-38588514D01*
X39957733Y-38588514D02*
X40229876Y-38588514D01*
X38488161Y-38588514D02*
X39141304Y-38588514D01*
X38814733Y-38588514D02*
X38814733Y-37445514D01*
X38814733Y-37445514D02*
X38923590Y-37608800D01*
X38923590Y-37608800D02*
X39032447Y-37717657D01*
X39032447Y-37717657D02*
X39141304Y-37772086D01*
D10*
X83004819Y-69143810D02*
X82004819Y-69143810D01*
X82338152Y-69620000D02*
X83004819Y-69620000D01*
X82433390Y-69620000D02*
X82385771Y-69667619D01*
X82385771Y-69667619D02*
X82338152Y-69762857D01*
X82338152Y-69762857D02*
X82338152Y-69905714D01*
X82338152Y-69905714D02*
X82385771Y-70000952D01*
X82385771Y-70000952D02*
X82481009Y-70048571D01*
X82481009Y-70048571D02*
X83004819Y-70048571D01*
X82100057Y-70477143D02*
X82052438Y-70524762D01*
X82052438Y-70524762D02*
X82004819Y-70620000D01*
X82004819Y-70620000D02*
X82004819Y-70858095D01*
X82004819Y-70858095D02*
X82052438Y-70953333D01*
X82052438Y-70953333D02*
X82100057Y-71000952D01*
X82100057Y-71000952D02*
X82195295Y-71048571D01*
X82195295Y-71048571D02*
X82290533Y-71048571D01*
X82290533Y-71048571D02*
X82433390Y-71000952D01*
X82433390Y-71000952D02*
X83004819Y-70429524D01*
X83004819Y-70429524D02*
X83004819Y-71048571D01*
X82957200Y-71429524D02*
X83004819Y-71572381D01*
X83004819Y-71572381D02*
X83004819Y-71810476D01*
X83004819Y-71810476D02*
X82957200Y-71905714D01*
X82957200Y-71905714D02*
X82909580Y-71953333D01*
X82909580Y-71953333D02*
X82814342Y-72000952D01*
X82814342Y-72000952D02*
X82719104Y-72000952D01*
X82719104Y-72000952D02*
X82623866Y-71953333D01*
X82623866Y-71953333D02*
X82576247Y-71905714D01*
X82576247Y-71905714D02*
X82528628Y-71810476D01*
X82528628Y-71810476D02*
X82481009Y-71620000D01*
X82481009Y-71620000D02*
X82433390Y-71524762D01*
X82433390Y-71524762D02*
X82385771Y-71477143D01*
X82385771Y-71477143D02*
X82290533Y-71429524D01*
X82290533Y-71429524D02*
X82195295Y-71429524D01*
X82195295Y-71429524D02*
X82100057Y-71477143D01*
X82100057Y-71477143D02*
X82052438Y-71524762D01*
X82052438Y-71524762D02*
X82004819Y-71620000D01*
X82004819Y-71620000D02*
X82004819Y-71858095D01*
X82004819Y-71858095D02*
X82052438Y-72000952D01*
X82004819Y-72334286D02*
X83004819Y-72572381D01*
X83004819Y-72572381D02*
X82290533Y-72762857D01*
X82290533Y-72762857D02*
X83004819Y-72953333D01*
X83004819Y-72953333D02*
X82004819Y-73191429D01*
X43904819Y-49712857D02*
X43904819Y-49903333D01*
X43904819Y-49903333D02*
X43952438Y-49998571D01*
X43952438Y-49998571D02*
X44047676Y-50093809D01*
X44047676Y-50093809D02*
X44238152Y-50141428D01*
X44238152Y-50141428D02*
X44571485Y-50141428D01*
X44571485Y-50141428D02*
X44761961Y-50093809D01*
X44761961Y-50093809D02*
X44857200Y-49998571D01*
X44857200Y-49998571D02*
X44904819Y-49903333D01*
X44904819Y-49903333D02*
X44904819Y-49712857D01*
X44904819Y-49712857D02*
X44857200Y-49617619D01*
X44857200Y-49617619D02*
X44761961Y-49522381D01*
X44761961Y-49522381D02*
X44571485Y-49474762D01*
X44571485Y-49474762D02*
X44238152Y-49474762D01*
X44238152Y-49474762D02*
X44047676Y-49522381D01*
X44047676Y-49522381D02*
X43952438Y-49617619D01*
X43952438Y-49617619D02*
X43904819Y-49712857D01*
X44238152Y-50998571D02*
X44904819Y-50998571D01*
X44238152Y-50570000D02*
X44761961Y-50570000D01*
X44761961Y-50570000D02*
X44857200Y-50617619D01*
X44857200Y-50617619D02*
X44904819Y-50712857D01*
X44904819Y-50712857D02*
X44904819Y-50855714D01*
X44904819Y-50855714D02*
X44857200Y-50950952D01*
X44857200Y-50950952D02*
X44809580Y-50998571D01*
X44238152Y-51331905D02*
X44238152Y-51712857D01*
X43904819Y-51474762D02*
X44761961Y-51474762D01*
X44761961Y-51474762D02*
X44857200Y-51522381D01*
X44857200Y-51522381D02*
X44904819Y-51617619D01*
X44904819Y-51617619D02*
X44904819Y-51712857D01*
X44904819Y-52570000D02*
X44904819Y-51998572D01*
X44904819Y-52284286D02*
X43904819Y-52284286D01*
X43904819Y-52284286D02*
X44047676Y-52189048D01*
X44047676Y-52189048D02*
X44142914Y-52093810D01*
X44142914Y-52093810D02*
X44190533Y-51998572D01*
X44857200Y-52950953D02*
X44904819Y-53093810D01*
X44904819Y-53093810D02*
X44904819Y-53331905D01*
X44904819Y-53331905D02*
X44857200Y-53427143D01*
X44857200Y-53427143D02*
X44809580Y-53474762D01*
X44809580Y-53474762D02*
X44714342Y-53522381D01*
X44714342Y-53522381D02*
X44619104Y-53522381D01*
X44619104Y-53522381D02*
X44523866Y-53474762D01*
X44523866Y-53474762D02*
X44476247Y-53427143D01*
X44476247Y-53427143D02*
X44428628Y-53331905D01*
X44428628Y-53331905D02*
X44381009Y-53141429D01*
X44381009Y-53141429D02*
X44333390Y-53046191D01*
X44333390Y-53046191D02*
X44285771Y-52998572D01*
X44285771Y-52998572D02*
X44190533Y-52950953D01*
X44190533Y-52950953D02*
X44095295Y-52950953D01*
X44095295Y-52950953D02*
X44000057Y-52998572D01*
X44000057Y-52998572D02*
X43952438Y-53046191D01*
X43952438Y-53046191D02*
X43904819Y-53141429D01*
X43904819Y-53141429D02*
X43904819Y-53379524D01*
X43904819Y-53379524D02*
X43952438Y-53522381D01*
X43904819Y-53855715D02*
X44904819Y-54093810D01*
X44904819Y-54093810D02*
X44190533Y-54284286D01*
X44190533Y-54284286D02*
X44904819Y-54474762D01*
X44904819Y-54474762D02*
X43904819Y-54712858D01*
X43904819Y-87812857D02*
X43904819Y-88003333D01*
X43904819Y-88003333D02*
X43952438Y-88098571D01*
X43952438Y-88098571D02*
X44047676Y-88193809D01*
X44047676Y-88193809D02*
X44238152Y-88241428D01*
X44238152Y-88241428D02*
X44571485Y-88241428D01*
X44571485Y-88241428D02*
X44761961Y-88193809D01*
X44761961Y-88193809D02*
X44857200Y-88098571D01*
X44857200Y-88098571D02*
X44904819Y-88003333D01*
X44904819Y-88003333D02*
X44904819Y-87812857D01*
X44904819Y-87812857D02*
X44857200Y-87717619D01*
X44857200Y-87717619D02*
X44761961Y-87622381D01*
X44761961Y-87622381D02*
X44571485Y-87574762D01*
X44571485Y-87574762D02*
X44238152Y-87574762D01*
X44238152Y-87574762D02*
X44047676Y-87622381D01*
X44047676Y-87622381D02*
X43952438Y-87717619D01*
X43952438Y-87717619D02*
X43904819Y-87812857D01*
X44238152Y-89098571D02*
X44904819Y-89098571D01*
X44238152Y-88670000D02*
X44761961Y-88670000D01*
X44761961Y-88670000D02*
X44857200Y-88717619D01*
X44857200Y-88717619D02*
X44904819Y-88812857D01*
X44904819Y-88812857D02*
X44904819Y-88955714D01*
X44904819Y-88955714D02*
X44857200Y-89050952D01*
X44857200Y-89050952D02*
X44809580Y-89098571D01*
X44238152Y-89431905D02*
X44238152Y-89812857D01*
X43904819Y-89574762D02*
X44761961Y-89574762D01*
X44761961Y-89574762D02*
X44857200Y-89622381D01*
X44857200Y-89622381D02*
X44904819Y-89717619D01*
X44904819Y-89717619D02*
X44904819Y-89812857D01*
X44000057Y-90098572D02*
X43952438Y-90146191D01*
X43952438Y-90146191D02*
X43904819Y-90241429D01*
X43904819Y-90241429D02*
X43904819Y-90479524D01*
X43904819Y-90479524D02*
X43952438Y-90574762D01*
X43952438Y-90574762D02*
X44000057Y-90622381D01*
X44000057Y-90622381D02*
X44095295Y-90670000D01*
X44095295Y-90670000D02*
X44190533Y-90670000D01*
X44190533Y-90670000D02*
X44333390Y-90622381D01*
X44333390Y-90622381D02*
X44904819Y-90050953D01*
X44904819Y-90050953D02*
X44904819Y-90670000D01*
X44857200Y-91050953D02*
X44904819Y-91193810D01*
X44904819Y-91193810D02*
X44904819Y-91431905D01*
X44904819Y-91431905D02*
X44857200Y-91527143D01*
X44857200Y-91527143D02*
X44809580Y-91574762D01*
X44809580Y-91574762D02*
X44714342Y-91622381D01*
X44714342Y-91622381D02*
X44619104Y-91622381D01*
X44619104Y-91622381D02*
X44523866Y-91574762D01*
X44523866Y-91574762D02*
X44476247Y-91527143D01*
X44476247Y-91527143D02*
X44428628Y-91431905D01*
X44428628Y-91431905D02*
X44381009Y-91241429D01*
X44381009Y-91241429D02*
X44333390Y-91146191D01*
X44333390Y-91146191D02*
X44285771Y-91098572D01*
X44285771Y-91098572D02*
X44190533Y-91050953D01*
X44190533Y-91050953D02*
X44095295Y-91050953D01*
X44095295Y-91050953D02*
X44000057Y-91098572D01*
X44000057Y-91098572D02*
X43952438Y-91146191D01*
X43952438Y-91146191D02*
X43904819Y-91241429D01*
X43904819Y-91241429D02*
X43904819Y-91479524D01*
X43904819Y-91479524D02*
X43952438Y-91622381D01*
X43904819Y-91955715D02*
X44904819Y-92193810D01*
X44904819Y-92193810D02*
X44190533Y-92384286D01*
X44190533Y-92384286D02*
X44904819Y-92574762D01*
X44904819Y-92574762D02*
X43904819Y-92812858D01*
D14*
X75062156Y-51383754D02*
X75451623Y-50827373D01*
X75729813Y-51383754D02*
X75729813Y-50215354D01*
X75729813Y-50215354D02*
X75284708Y-50215354D01*
X75284708Y-50215354D02*
X75173432Y-50270992D01*
X75173432Y-50270992D02*
X75117794Y-50326630D01*
X75117794Y-50326630D02*
X75062156Y-50437906D01*
X75062156Y-50437906D02*
X75062156Y-50604820D01*
X75062156Y-50604820D02*
X75117794Y-50716096D01*
X75117794Y-50716096D02*
X75173432Y-50771735D01*
X75173432Y-50771735D02*
X75284708Y-50827373D01*
X75284708Y-50827373D02*
X75729813Y-50827373D01*
X74005032Y-50215354D02*
X74561413Y-50215354D01*
X74561413Y-50215354D02*
X74617051Y-50771735D01*
X74617051Y-50771735D02*
X74561413Y-50716096D01*
X74561413Y-50716096D02*
X74450137Y-50660458D01*
X74450137Y-50660458D02*
X74171946Y-50660458D01*
X74171946Y-50660458D02*
X74060670Y-50716096D01*
X74060670Y-50716096D02*
X74005032Y-50771735D01*
X74005032Y-50771735D02*
X73949394Y-50883011D01*
X73949394Y-50883011D02*
X73949394Y-51161201D01*
X73949394Y-51161201D02*
X74005032Y-51272477D01*
X74005032Y-51272477D02*
X74060670Y-51328116D01*
X74060670Y-51328116D02*
X74171946Y-51383754D01*
X74171946Y-51383754D02*
X74450137Y-51383754D01*
X74450137Y-51383754D02*
X74561413Y-51328116D01*
X74561413Y-51328116D02*
X74617051Y-51272477D01*
D10*
X83004819Y-31043810D02*
X82004819Y-31043810D01*
X82338152Y-31520000D02*
X83004819Y-31520000D01*
X82433390Y-31520000D02*
X82385771Y-31567619D01*
X82385771Y-31567619D02*
X82338152Y-31662857D01*
X82338152Y-31662857D02*
X82338152Y-31805714D01*
X82338152Y-31805714D02*
X82385771Y-31900952D01*
X82385771Y-31900952D02*
X82481009Y-31948571D01*
X82481009Y-31948571D02*
X83004819Y-31948571D01*
X83004819Y-32948571D02*
X83004819Y-32377143D01*
X83004819Y-32662857D02*
X82004819Y-32662857D01*
X82004819Y-32662857D02*
X82147676Y-32567619D01*
X82147676Y-32567619D02*
X82242914Y-32472381D01*
X82242914Y-32472381D02*
X82290533Y-32377143D01*
X82957200Y-33329524D02*
X83004819Y-33472381D01*
X83004819Y-33472381D02*
X83004819Y-33710476D01*
X83004819Y-33710476D02*
X82957200Y-33805714D01*
X82957200Y-33805714D02*
X82909580Y-33853333D01*
X82909580Y-33853333D02*
X82814342Y-33900952D01*
X82814342Y-33900952D02*
X82719104Y-33900952D01*
X82719104Y-33900952D02*
X82623866Y-33853333D01*
X82623866Y-33853333D02*
X82576247Y-33805714D01*
X82576247Y-33805714D02*
X82528628Y-33710476D01*
X82528628Y-33710476D02*
X82481009Y-33520000D01*
X82481009Y-33520000D02*
X82433390Y-33424762D01*
X82433390Y-33424762D02*
X82385771Y-33377143D01*
X82385771Y-33377143D02*
X82290533Y-33329524D01*
X82290533Y-33329524D02*
X82195295Y-33329524D01*
X82195295Y-33329524D02*
X82100057Y-33377143D01*
X82100057Y-33377143D02*
X82052438Y-33424762D01*
X82052438Y-33424762D02*
X82004819Y-33520000D01*
X82004819Y-33520000D02*
X82004819Y-33758095D01*
X82004819Y-33758095D02*
X82052438Y-33900952D01*
X82004819Y-34234286D02*
X83004819Y-34472381D01*
X83004819Y-34472381D02*
X82290533Y-34662857D01*
X82290533Y-34662857D02*
X83004819Y-34853333D01*
X83004819Y-34853333D02*
X82004819Y-35091429D01*
X83004819Y-145343810D02*
X82004819Y-145343810D01*
X82338152Y-145820000D02*
X83004819Y-145820000D01*
X82433390Y-145820000D02*
X82385771Y-145867619D01*
X82385771Y-145867619D02*
X82338152Y-145962857D01*
X82338152Y-145962857D02*
X82338152Y-146105714D01*
X82338152Y-146105714D02*
X82385771Y-146200952D01*
X82385771Y-146200952D02*
X82481009Y-146248571D01*
X82481009Y-146248571D02*
X83004819Y-146248571D01*
X82338152Y-147153333D02*
X83004819Y-147153333D01*
X81957200Y-146915238D02*
X82671485Y-146677143D01*
X82671485Y-146677143D02*
X82671485Y-147296190D01*
X82957200Y-147629524D02*
X83004819Y-147772381D01*
X83004819Y-147772381D02*
X83004819Y-148010476D01*
X83004819Y-148010476D02*
X82957200Y-148105714D01*
X82957200Y-148105714D02*
X82909580Y-148153333D01*
X82909580Y-148153333D02*
X82814342Y-148200952D01*
X82814342Y-148200952D02*
X82719104Y-148200952D01*
X82719104Y-148200952D02*
X82623866Y-148153333D01*
X82623866Y-148153333D02*
X82576247Y-148105714D01*
X82576247Y-148105714D02*
X82528628Y-148010476D01*
X82528628Y-148010476D02*
X82481009Y-147820000D01*
X82481009Y-147820000D02*
X82433390Y-147724762D01*
X82433390Y-147724762D02*
X82385771Y-147677143D01*
X82385771Y-147677143D02*
X82290533Y-147629524D01*
X82290533Y-147629524D02*
X82195295Y-147629524D01*
X82195295Y-147629524D02*
X82100057Y-147677143D01*
X82100057Y-147677143D02*
X82052438Y-147724762D01*
X82052438Y-147724762D02*
X82004819Y-147820000D01*
X82004819Y-147820000D02*
X82004819Y-148058095D01*
X82004819Y-148058095D02*
X82052438Y-148200952D01*
X82004819Y-148534286D02*
X83004819Y-148772381D01*
X83004819Y-148772381D02*
X82290533Y-148962857D01*
X82290533Y-148962857D02*
X83004819Y-149153333D01*
X83004819Y-149153333D02*
X82004819Y-149391429D01*
D13*
X101856078Y-88116155D02*
X102248254Y-87555903D01*
X102528380Y-88116155D02*
X102528380Y-86939627D01*
X102528380Y-86939627D02*
X102080179Y-86939627D01*
X102080179Y-86939627D02*
X101968128Y-86995652D01*
X101968128Y-86995652D02*
X101912103Y-87051677D01*
X101912103Y-87051677D02*
X101856078Y-87163727D01*
X101856078Y-87163727D02*
X101856078Y-87331803D01*
X101856078Y-87331803D02*
X101912103Y-87443853D01*
X101912103Y-87443853D02*
X101968128Y-87499878D01*
X101968128Y-87499878D02*
X102080179Y-87555903D01*
X102080179Y-87555903D02*
X102528380Y-87555903D01*
X101463902Y-86939627D02*
X100735575Y-86939627D01*
X100735575Y-86939627D02*
X101127751Y-87387828D01*
X101127751Y-87387828D02*
X100959676Y-87387828D01*
X100959676Y-87387828D02*
X100847626Y-87443853D01*
X100847626Y-87443853D02*
X100791600Y-87499878D01*
X100791600Y-87499878D02*
X100735575Y-87611928D01*
X100735575Y-87611928D02*
X100735575Y-87892054D01*
X100735575Y-87892054D02*
X100791600Y-88004104D01*
X100791600Y-88004104D02*
X100847626Y-88060130D01*
X100847626Y-88060130D02*
X100959676Y-88116155D01*
X100959676Y-88116155D02*
X101295827Y-88116155D01*
X101295827Y-88116155D02*
X101407877Y-88060130D01*
X101407877Y-88060130D02*
X101463902Y-88004104D01*
X99727123Y-86939627D02*
X99951223Y-86939627D01*
X99951223Y-86939627D02*
X100063273Y-86995652D01*
X100063273Y-86995652D02*
X100119299Y-87051677D01*
X100119299Y-87051677D02*
X100231349Y-87219752D01*
X100231349Y-87219752D02*
X100287374Y-87443853D01*
X100287374Y-87443853D02*
X100287374Y-87892054D01*
X100287374Y-87892054D02*
X100231349Y-88004104D01*
X100231349Y-88004104D02*
X100175324Y-88060130D01*
X100175324Y-88060130D02*
X100063273Y-88116155D01*
X100063273Y-88116155D02*
X99839173Y-88116155D01*
X99839173Y-88116155D02*
X99727123Y-88060130D01*
X99727123Y-88060130D02*
X99671097Y-88004104D01*
X99671097Y-88004104D02*
X99615072Y-87892054D01*
X99615072Y-87892054D02*
X99615072Y-87611928D01*
X99615072Y-87611928D02*
X99671097Y-87499878D01*
X99671097Y-87499878D02*
X99727123Y-87443853D01*
X99727123Y-87443853D02*
X99839173Y-87387828D01*
X99839173Y-87387828D02*
X100063273Y-87387828D01*
X100063273Y-87387828D02*
X100175324Y-87443853D01*
X100175324Y-87443853D02*
X100231349Y-87499878D01*
X100231349Y-87499878D02*
X100287374Y-87611928D01*
X101856078Y-164316155D02*
X102248254Y-163755903D01*
X102528380Y-164316155D02*
X102528380Y-163139627D01*
X102528380Y-163139627D02*
X102080179Y-163139627D01*
X102080179Y-163139627D02*
X101968128Y-163195652D01*
X101968128Y-163195652D02*
X101912103Y-163251677D01*
X101912103Y-163251677D02*
X101856078Y-163363727D01*
X101856078Y-163363727D02*
X101856078Y-163531803D01*
X101856078Y-163531803D02*
X101912103Y-163643853D01*
X101912103Y-163643853D02*
X101968128Y-163699878D01*
X101968128Y-163699878D02*
X102080179Y-163755903D01*
X102080179Y-163755903D02*
X102528380Y-163755903D01*
X101295827Y-164316155D02*
X101071726Y-164316155D01*
X101071726Y-164316155D02*
X100959676Y-164260130D01*
X100959676Y-164260130D02*
X100903651Y-164204104D01*
X100903651Y-164204104D02*
X100791600Y-164036029D01*
X100791600Y-164036029D02*
X100735575Y-163811928D01*
X100735575Y-163811928D02*
X100735575Y-163363727D01*
X100735575Y-163363727D02*
X100791600Y-163251677D01*
X100791600Y-163251677D02*
X100847626Y-163195652D01*
X100847626Y-163195652D02*
X100959676Y-163139627D01*
X100959676Y-163139627D02*
X101183776Y-163139627D01*
X101183776Y-163139627D02*
X101295827Y-163195652D01*
X101295827Y-163195652D02*
X101351852Y-163251677D01*
X101351852Y-163251677D02*
X101407877Y-163363727D01*
X101407877Y-163363727D02*
X101407877Y-163643853D01*
X101407877Y-163643853D02*
X101351852Y-163755903D01*
X101351852Y-163755903D02*
X101295827Y-163811928D01*
X101295827Y-163811928D02*
X101183776Y-163867954D01*
X101183776Y-163867954D02*
X100959676Y-163867954D01*
X100959676Y-163867954D02*
X100847626Y-163811928D01*
X100847626Y-163811928D02*
X100791600Y-163755903D01*
X100791600Y-163755903D02*
X100735575Y-163643853D01*
X100343399Y-163139627D02*
X99559047Y-163139627D01*
X99559047Y-163139627D02*
X100063273Y-164316155D01*
D12*
X64975917Y-39874840D02*
X65211774Y-39874840D01*
X65211774Y-39874840D02*
X65211774Y-39379540D01*
X64810817Y-39615397D02*
X64645717Y-39615397D01*
X64574960Y-39874840D02*
X64810817Y-39874840D01*
X64810817Y-39874840D02*
X64810817Y-39379540D01*
X64810817Y-39379540D02*
X64574960Y-39379540D01*
X64362688Y-39874840D02*
X64362688Y-39379540D01*
X64362688Y-39379540D02*
X64244759Y-39379540D01*
X64244759Y-39379540D02*
X64174002Y-39403126D01*
X64174002Y-39403126D02*
X64126831Y-39450297D01*
X64126831Y-39450297D02*
X64103245Y-39497469D01*
X64103245Y-39497469D02*
X64079659Y-39591812D01*
X64079659Y-39591812D02*
X64079659Y-39662569D01*
X64079659Y-39662569D02*
X64103245Y-39756912D01*
X64103245Y-39756912D02*
X64126831Y-39804083D01*
X64126831Y-39804083D02*
X64174002Y-39851255D01*
X64174002Y-39851255D02*
X64244759Y-39874840D01*
X64244759Y-39874840D02*
X64362688Y-39874840D01*
X63890974Y-39426712D02*
X63867388Y-39403126D01*
X63867388Y-39403126D02*
X63820217Y-39379540D01*
X63820217Y-39379540D02*
X63702288Y-39379540D01*
X63702288Y-39379540D02*
X63655117Y-39403126D01*
X63655117Y-39403126D02*
X63631531Y-39426712D01*
X63631531Y-39426712D02*
X63607945Y-39473883D01*
X63607945Y-39473883D02*
X63607945Y-39521055D01*
X63607945Y-39521055D02*
X63631531Y-39591812D01*
X63631531Y-39591812D02*
X63914559Y-39874840D01*
X63914559Y-39874840D02*
X63607945Y-39874840D01*
D14*
X76174918Y-89483754D02*
X76564385Y-88927373D01*
X76842575Y-89483754D02*
X76842575Y-88315354D01*
X76842575Y-88315354D02*
X76397470Y-88315354D01*
X76397470Y-88315354D02*
X76286194Y-88370992D01*
X76286194Y-88370992D02*
X76230556Y-88426630D01*
X76230556Y-88426630D02*
X76174918Y-88537906D01*
X76174918Y-88537906D02*
X76174918Y-88704820D01*
X76174918Y-88704820D02*
X76230556Y-88816096D01*
X76230556Y-88816096D02*
X76286194Y-88871735D01*
X76286194Y-88871735D02*
X76397470Y-88927373D01*
X76397470Y-88927373D02*
X76842575Y-88927373D01*
X75785451Y-88315354D02*
X75062156Y-88315354D01*
X75062156Y-88315354D02*
X75451623Y-88760458D01*
X75451623Y-88760458D02*
X75284708Y-88760458D01*
X75284708Y-88760458D02*
X75173432Y-88816096D01*
X75173432Y-88816096D02*
X75117794Y-88871735D01*
X75117794Y-88871735D02*
X75062156Y-88983011D01*
X75062156Y-88983011D02*
X75062156Y-89261201D01*
X75062156Y-89261201D02*
X75117794Y-89372477D01*
X75117794Y-89372477D02*
X75173432Y-89428116D01*
X75173432Y-89428116D02*
X75284708Y-89483754D01*
X75284708Y-89483754D02*
X75618537Y-89483754D01*
X75618537Y-89483754D02*
X75729813Y-89428116D01*
X75729813Y-89428116D02*
X75785451Y-89372477D01*
X74672689Y-88315354D02*
X73893756Y-88315354D01*
X73893756Y-88315354D02*
X74394499Y-89483754D01*
%TO.C,Out3SW*%
D15*
X45720000Y-126110000D02*
X50800000Y-126110000D01*
X50800000Y-134240000D01*
X45720000Y-134240000D01*
X45720000Y-126110000D01*
D16*
X51435000Y-126365000D02*
G75*
G02*
X51235000Y-126365000I-100000J0D01*
G01*
X51235000Y-126365000D02*
G75*
G02*
X51435000Y-126365000I100000J0D01*
G01*
D17*
%TO.C,LED7*%
X40349000Y-154274100D02*
G75*
G02*
X41910000Y-153543000I1560986J-1300897D01*
G01*
D18*
X40669900Y-154689199D02*
G75*
G02*
X41910000Y-154051000I1240133J-885800D01*
G01*
D17*
X41910000Y-153543000D02*
G75*
G02*
X43702900Y-154618800I-60J-2032000D01*
G01*
D18*
X41910000Y-154051000D02*
G75*
G02*
X43129200Y-154660600I1J-1523998D01*
G01*
X41910000Y-157099000D02*
G75*
G02*
X40707000Y-156510600I8J1524000D01*
G01*
D17*
X41910000Y-157607000D02*
G75*
G02*
X40358800Y-156887600I-36J2032003D01*
G01*
D18*
X43113000Y-156510600D02*
G75*
G02*
X41910000Y-157099000I-1203008J935600D01*
G01*
D17*
X43674300Y-156583200D02*
G75*
G02*
X41910000Y-157607000I-1764243J1008199D01*
G01*
%TO.C,LED5*%
X40349000Y-116174100D02*
G75*
G02*
X41910000Y-115443000I1560986J-1300897D01*
G01*
D18*
X40669900Y-116589199D02*
G75*
G02*
X41910000Y-115951000I1240133J-885800D01*
G01*
D17*
X41910000Y-115443000D02*
G75*
G02*
X43702900Y-116518800I-60J-2032000D01*
G01*
D18*
X41910000Y-115951000D02*
G75*
G02*
X43129200Y-116560600I1J-1523998D01*
G01*
X41910000Y-118999000D02*
G75*
G02*
X40707000Y-118410600I8J1524000D01*
G01*
D17*
X41910000Y-119507000D02*
G75*
G02*
X40358800Y-118787600I-36J2032003D01*
G01*
D18*
X43113000Y-118410600D02*
G75*
G02*
X41910000Y-118999000I-1203008J935600D01*
G01*
D17*
X43674300Y-118483200D02*
G75*
G02*
X41910000Y-119507000I-1764243J1008199D01*
G01*
%TO.C,LED4*%
X65545700Y-78366800D02*
G75*
G02*
X67310000Y-77343000I1764243J-1008199D01*
G01*
D18*
X66107000Y-78439400D02*
G75*
G02*
X67310000Y-77851000I1203008J-935600D01*
G01*
D17*
X67310000Y-77343000D02*
G75*
G02*
X68861200Y-78062400I36J-2032003D01*
G01*
D18*
X67310000Y-77851000D02*
G75*
G02*
X68513000Y-78439400I-8J-1524000D01*
G01*
X67310000Y-80899000D02*
G75*
G02*
X66090800Y-80289400I-1J1523998D01*
G01*
D17*
X67310000Y-81407000D02*
G75*
G02*
X65517100Y-80331200I60J2032000D01*
G01*
D18*
X68550100Y-80260801D02*
G75*
G02*
X67310000Y-80899000I-1240133J885800D01*
G01*
D17*
X68871000Y-80675900D02*
G75*
G02*
X67310000Y-81407000I-1560986J1300897D01*
G01*
%TO.C,LED3*%
X40349000Y-78074100D02*
G75*
G02*
X41910000Y-77343000I1560986J-1300897D01*
G01*
D18*
X40669900Y-78489199D02*
G75*
G02*
X41910000Y-77851000I1240133J-885800D01*
G01*
D17*
X41910000Y-77343000D02*
G75*
G02*
X43702900Y-78418800I-60J-2032000D01*
G01*
D18*
X41910000Y-77851000D02*
G75*
G02*
X43129200Y-78460600I1J-1523998D01*
G01*
X41910000Y-80899000D02*
G75*
G02*
X40707000Y-80310600I8J1524000D01*
G01*
D17*
X41910000Y-81407000D02*
G75*
G02*
X40358800Y-80687600I-36J2032003D01*
G01*
D18*
X43113000Y-80310600D02*
G75*
G02*
X41910000Y-80899000I-1203008J935600D01*
G01*
D17*
X43674300Y-80383200D02*
G75*
G02*
X41910000Y-81407000I-1764243J1008199D01*
G01*
%TO.C,In3SW*%
D15*
X83820000Y-107060000D02*
X88900000Y-107060000D01*
X88900000Y-115190000D01*
X83820000Y-115190000D01*
X83820000Y-107060000D01*
D16*
X89535000Y-107315000D02*
G75*
G02*
X89335000Y-107315000I-100000J0D01*
G01*
X89335000Y-107315000D02*
G75*
G02*
X89535000Y-107315000I100000J0D01*
G01*
D11*
%TO.C,R64*%
X94765000Y-124715000D02*
X103355000Y-124715000D01*
X94765000Y-134505000D02*
X94765000Y-124715000D01*
D19*
X100160000Y-130800000D02*
X97960000Y-130800000D01*
X101485000Y-130800000D02*
X96610000Y-130800000D01*
D11*
X103355000Y-124715000D02*
X103355000Y-134505000D01*
X103355000Y-134505000D02*
X94765000Y-134505000D01*
D19*
X97960000Y-130800000D02*
G75*
G02*
X100160000Y-130800000I1100000J625000D01*
G01*
X101600000Y-130175000D02*
G75*
G02*
X96520000Y-130175000I-2540000J0D01*
G01*
X96520000Y-130175000D02*
G75*
G02*
X101600000Y-130175000I2540000J0D01*
G01*
D11*
%TO.C,R65*%
X69365000Y-124715000D02*
X77955000Y-124715000D01*
X69365000Y-134505000D02*
X69365000Y-124715000D01*
D19*
X74760000Y-130800000D02*
X72560000Y-130800000D01*
X76085000Y-130800000D02*
X71210000Y-130800000D01*
D11*
X77955000Y-124715000D02*
X77955000Y-134505000D01*
X77955000Y-134505000D02*
X69365000Y-134505000D01*
D19*
X72560000Y-130800000D02*
G75*
G02*
X74760000Y-130800000I1100000J625000D01*
G01*
X76200000Y-130175000D02*
G75*
G02*
X71120000Y-130175000I-2540000J0D01*
G01*
X71120000Y-130175000D02*
G75*
G02*
X76200000Y-130175000I2540000J0D01*
G01*
D17*
%TO.C,LED6*%
X65545700Y-116466800D02*
G75*
G02*
X67310000Y-115443000I1764243J-1008199D01*
G01*
D18*
X66107000Y-116539400D02*
G75*
G02*
X67310000Y-115951000I1203008J-935600D01*
G01*
D17*
X67310000Y-115443000D02*
G75*
G02*
X68861200Y-116162400I36J-2032003D01*
G01*
D18*
X67310000Y-115951000D02*
G75*
G02*
X68513000Y-116539400I-8J-1524000D01*
G01*
X67310000Y-118999000D02*
G75*
G02*
X66090800Y-118389400I-1J1523998D01*
G01*
D17*
X67310000Y-119507000D02*
G75*
G02*
X65517100Y-118431200I60J2032000D01*
G01*
D18*
X68550100Y-118360801D02*
G75*
G02*
X67310000Y-118999000I-1240133J885800D01*
G01*
D17*
X68871000Y-118775900D02*
G75*
G02*
X67310000Y-119507000I-1560986J1300897D01*
G01*
%TO.C,LED8*%
X65545700Y-154566800D02*
G75*
G02*
X67310000Y-153543000I1764243J-1008199D01*
G01*
D18*
X66107000Y-154639400D02*
G75*
G02*
X67310000Y-154051000I1203008J-935600D01*
G01*
D17*
X67310000Y-153543000D02*
G75*
G02*
X68861200Y-154262400I36J-2032003D01*
G01*
D18*
X67310000Y-154051000D02*
G75*
G02*
X68513000Y-154639400I-8J-1524000D01*
G01*
X67310000Y-157099000D02*
G75*
G02*
X66090800Y-156489400I-1J1523998D01*
G01*
D17*
X67310000Y-157607000D02*
G75*
G02*
X65517100Y-156531200I60J2032000D01*
G01*
D18*
X68550100Y-156460801D02*
G75*
G02*
X67310000Y-157099000I-1240133J885800D01*
G01*
D17*
X68871000Y-156875900D02*
G75*
G02*
X67310000Y-157607000I-1560986J1300897D01*
G01*
D11*
%TO.C,R98*%
X69365000Y-162815000D02*
X77955000Y-162815000D01*
X69365000Y-172605000D02*
X69365000Y-162815000D01*
D19*
X74760000Y-168900000D02*
X72560000Y-168900000D01*
X76085000Y-168900000D02*
X71210000Y-168900000D01*
D11*
X77955000Y-162815000D02*
X77955000Y-172605000D01*
X77955000Y-172605000D02*
X69365000Y-172605000D01*
D19*
X72560000Y-168900000D02*
G75*
G02*
X74760000Y-168900000I1100000J625000D01*
G01*
X76200000Y-168275000D02*
G75*
G02*
X71120000Y-168275000I-2540000J0D01*
G01*
X71120000Y-168275000D02*
G75*
G02*
X76200000Y-168275000I2540000J0D01*
G01*
D11*
%TO.C,R4*%
X94765000Y-48515000D02*
X103355000Y-48515000D01*
X94765000Y-58305000D02*
X94765000Y-48515000D01*
D19*
X100160000Y-54600000D02*
X97960000Y-54600000D01*
X101485000Y-54600000D02*
X96610000Y-54600000D01*
D11*
X103355000Y-48515000D02*
X103355000Y-58305000D01*
X103355000Y-58305000D02*
X94765000Y-58305000D01*
D19*
X97960000Y-54600000D02*
G75*
G02*
X100160000Y-54600000I1100000J625000D01*
G01*
X101600000Y-53975000D02*
G75*
G02*
X96520000Y-53975000I-2540000J0D01*
G01*
X96520000Y-53975000D02*
G75*
G02*
X101600000Y-53975000I2540000J0D01*
G01*
D17*
%TO.C,LED1*%
X40349000Y-39974100D02*
G75*
G02*
X41910000Y-39243000I1560986J-1300897D01*
G01*
D18*
X40669900Y-40389199D02*
G75*
G02*
X41910000Y-39751000I1240133J-885800D01*
G01*
D17*
X41910000Y-39243000D02*
G75*
G02*
X43702900Y-40318800I-60J-2032000D01*
G01*
D18*
X41910000Y-39751000D02*
G75*
G02*
X43129200Y-40360600I1J-1523998D01*
G01*
X41910000Y-42799000D02*
G75*
G02*
X40707000Y-42210600I8J1524000D01*
G01*
D17*
X41910000Y-43307000D02*
G75*
G02*
X40358800Y-42587600I-36J2032003D01*
G01*
D18*
X43113000Y-42210600D02*
G75*
G02*
X41910000Y-42799000I-1203008J935600D01*
G01*
D17*
X43674300Y-42283200D02*
G75*
G02*
X41910000Y-43307000I-1764243J1008199D01*
G01*
%TO.C,In2SW*%
D15*
X83820000Y-68960000D02*
X88900000Y-68960000D01*
X88900000Y-77090000D01*
X83820000Y-77090000D01*
X83820000Y-68960000D01*
D16*
X89535000Y-69215000D02*
G75*
G02*
X89335000Y-69215000I-100000J0D01*
G01*
X89335000Y-69215000D02*
G75*
G02*
X89535000Y-69215000I100000J0D01*
G01*
%TO.C,Out1SW*%
D15*
X45720000Y-49910000D02*
X50800000Y-49910000D01*
X50800000Y-58040000D01*
X45720000Y-58040000D01*
X45720000Y-49910000D01*
D16*
X51435000Y-50165000D02*
G75*
G02*
X51235000Y-50165000I-100000J0D01*
G01*
X51235000Y-50165000D02*
G75*
G02*
X51435000Y-50165000I100000J0D01*
G01*
%TO.C,Out2SW*%
D15*
X45720000Y-88010000D02*
X50800000Y-88010000D01*
X50800000Y-96140000D01*
X45720000Y-96140000D01*
X45720000Y-88010000D01*
D16*
X51435000Y-88265000D02*
G75*
G02*
X51235000Y-88265000I-100000J0D01*
G01*
X51235000Y-88265000D02*
G75*
G02*
X51435000Y-88265000I100000J0D01*
G01*
D11*
%TO.C,R5*%
X69365000Y-48515000D02*
X77955000Y-48515000D01*
X69365000Y-58305000D02*
X69365000Y-48515000D01*
D19*
X74760000Y-54600000D02*
X72560000Y-54600000D01*
X76085000Y-54600000D02*
X71210000Y-54600000D01*
D11*
X77955000Y-48515000D02*
X77955000Y-58305000D01*
X77955000Y-58305000D02*
X69365000Y-58305000D01*
D19*
X72560000Y-54600000D02*
G75*
G02*
X74760000Y-54600000I1100000J625000D01*
G01*
X76200000Y-53975000D02*
G75*
G02*
X71120000Y-53975000I-2540000J0D01*
G01*
X71120000Y-53975000D02*
G75*
G02*
X76200000Y-53975000I2540000J0D01*
G01*
%TO.C,In1SW*%
D15*
X83820000Y-30860000D02*
X88900000Y-30860000D01*
X88900000Y-38990000D01*
X83820000Y-38990000D01*
X83820000Y-30860000D01*
D16*
X89535000Y-31115000D02*
G75*
G02*
X89335000Y-31115000I-100000J0D01*
G01*
X89335000Y-31115000D02*
G75*
G02*
X89535000Y-31115000I100000J0D01*
G01*
%TO.C,In4SW*%
D15*
X83820000Y-145160000D02*
X88900000Y-145160000D01*
X88900000Y-153290000D01*
X83820000Y-153290000D01*
X83820000Y-145160000D01*
D16*
X89535000Y-145415000D02*
G75*
G02*
X89335000Y-145415000I-100000J0D01*
G01*
X89335000Y-145415000D02*
G75*
G02*
X89535000Y-145415000I100000J0D01*
G01*
D11*
%TO.C,R36*%
X94765000Y-86615000D02*
X103355000Y-86615000D01*
X94765000Y-96405000D02*
X94765000Y-86615000D01*
D19*
X100160000Y-92700000D02*
X97960000Y-92700000D01*
X101485000Y-92700000D02*
X96610000Y-92700000D01*
D11*
X103355000Y-86615000D02*
X103355000Y-96405000D01*
X103355000Y-96405000D02*
X94765000Y-96405000D01*
D19*
X97960000Y-92700000D02*
G75*
G02*
X100160000Y-92700000I1100000J625000D01*
G01*
X101600000Y-92075000D02*
G75*
G02*
X96520000Y-92075000I-2540000J0D01*
G01*
X96520000Y-92075000D02*
G75*
G02*
X101600000Y-92075000I2540000J0D01*
G01*
D11*
%TO.C,R97*%
X94765000Y-162815000D02*
X103355000Y-162815000D01*
X94765000Y-172605000D02*
X94765000Y-162815000D01*
D19*
X100160000Y-168900000D02*
X97960000Y-168900000D01*
X101485000Y-168900000D02*
X96610000Y-168900000D01*
D11*
X103355000Y-162815000D02*
X103355000Y-172605000D01*
X103355000Y-172605000D02*
X94765000Y-172605000D01*
D19*
X97960000Y-168900000D02*
G75*
G02*
X100160000Y-168900000I1100000J625000D01*
G01*
X101600000Y-168275000D02*
G75*
G02*
X96520000Y-168275000I-2540000J0D01*
G01*
X96520000Y-168275000D02*
G75*
G02*
X101600000Y-168275000I2540000J0D01*
G01*
D17*
%TO.C,LED2*%
X65545700Y-40266800D02*
G75*
G02*
X67310000Y-39243000I1764243J-1008199D01*
G01*
D18*
X66107000Y-40339400D02*
G75*
G02*
X67310000Y-39751000I1203008J-935600D01*
G01*
D17*
X67310000Y-39243000D02*
G75*
G02*
X68861200Y-39962400I36J-2032003D01*
G01*
D18*
X67310000Y-39751000D02*
G75*
G02*
X68513000Y-40339400I-8J-1524000D01*
G01*
X67310000Y-42799000D02*
G75*
G02*
X66090800Y-42189400I-1J1523998D01*
G01*
D17*
X67310000Y-43307000D02*
G75*
G02*
X65517100Y-42231200I60J2032000D01*
G01*
D18*
X68550100Y-42160801D02*
G75*
G02*
X67310000Y-42799000I-1240133J885800D01*
G01*
D17*
X68871000Y-42575900D02*
G75*
G02*
X67310000Y-43307000I-1560986J1300897D01*
G01*
D11*
%TO.C,R37*%
X69365000Y-86615000D02*
X77955000Y-86615000D01*
X69365000Y-96405000D02*
X69365000Y-86615000D01*
D19*
X74760000Y-92700000D02*
X72560000Y-92700000D01*
X76085000Y-92700000D02*
X71210000Y-92700000D01*
D11*
X77955000Y-86615000D02*
X77955000Y-96405000D01*
X77955000Y-96405000D02*
X69365000Y-96405000D01*
D19*
X72560000Y-92700000D02*
G75*
G02*
X74760000Y-92700000I1100000J625000D01*
G01*
X76200000Y-92075000D02*
G75*
G02*
X71120000Y-92075000I-2540000J0D01*
G01*
X71120000Y-92075000D02*
G75*
G02*
X76200000Y-92075000I2540000J0D01*
G01*
%TD*%
M02*
