M48
; DRILL file {KiCad 8.0.6} date 2025-04-05T08:59:41-0400
; FORMAT={-:-/ absolute / inch / decimal}
; #@! TF.CreationDate,2025-04-05T08:59:41-04:00
; #@! TF.GenerationSoftware,Kicad,Pcbnew,8.0.6
; #@! TF.FileFunction,Plated,1,2,PTH
FMAT,2
INCH
; #@! TA.AperFunction,Plated,PTH,ViaDrill
T1C0.0118
; #@! TA.AperFunction,Plated,PTH,ComponentDrill
T2C0.0236
; #@! TA.AperFunction,Plated,PTH,ComponentDrill
T3C0.0315
; #@! TA.AperFunction,Plated,PTH,ComponentDrill
T4C0.0320
; #@! TA.AperFunction,Plated,PTH,ComponentDrill
T5C0.0394
; #@! TA.AperFunction,Plated,PTH,ComponentDrill
T6C0.0400
; #@! TA.AperFunction,Plated,PTH,ComponentDrill
T7C0.0469
; #@! TA.AperFunction,Plated,PTH,ComponentDrill
T8C0.0591
; #@! TA.AperFunction,Plated,PTH,ComponentDrill
T9C0.1850
%
G90
G05
T1
X1.636Y-6.564
X1.675Y-6.875
X1.7215Y-6.6795
X1.791Y-6.548
X1.8197Y-6.5217
X1.825Y-6.85
X1.827Y-6.659
X1.85Y-6.45
X1.875Y-6.325
X1.906Y-6.535
X1.9976Y-6.4274
X2.0Y-6.325
X2.025Y-6.525
X2.03Y-6.37
X2.05Y-5.6237
X2.0659Y-4.0487
X2.1Y-2.6237
X2.125Y-5.65
X2.15Y-2.075
X2.15Y-2.65
X2.15Y-5.125
X2.175Y-2.15
X2.175Y-5.525
X2.2Y-6.4
X2.225Y-3.925
X2.275Y-3.25
X2.275Y-6.45
X2.275Y-6.5012
X2.292Y-5.152
X2.3Y-4.825
X2.3Y-6.6
X2.325Y-2.7
X2.325Y-3.275
X2.325Y-4.1
X2.325Y-5.7
X2.3625Y-2.6875
X2.3721Y-5.6721
X2.375Y-1.75
X2.375Y-1.85
X2.375Y-4.1
X2.3751Y-6.5252
X2.4Y-6.488
X2.4Y-6.725
X2.4Y-6.9
X2.4027Y-3.9413
X2.407Y-5.095
X2.4223Y-6.2148
X2.425Y-3.275
X2.425Y-4.125
X2.425Y-4.825
X2.425Y-5.525
X2.4375Y-2.6375
X2.4457Y-2.4957
X2.45Y-1.9
X2.4533Y-5.6277
X2.466Y-6.531
X2.475Y-2.0
X2.475Y-2.35
X2.5Y-6.375
X2.516Y-5.139
X2.55Y-6.825
X2.552Y-2.204
X2.6Y-1.7223
X2.6Y-6.65
X2.6207Y-6.4707
X2.622Y-6.426
X2.625Y-6.525
X2.625Y-6.8
X2.6688Y-6.4226
X2.9Y-1.9
X2.9Y-3.375
X2.9Y-4.875
X2.9Y-6.375
X2.925Y-3.175
X2.9457Y-3.3543
X2.95Y-5.65
X2.953Y-3.272
X2.975Y-2.65
X2.975Y-3.575
X2.975Y-6.125
X2.975Y-6.2
X2.975Y-6.6
X3.025Y-3.3434
X3.025Y-3.375
X3.025Y-5.6
X3.025Y-6.125
X3.0446Y-3.9804
X3.075Y-2.575
X3.075Y-3.175
X3.075Y-3.825
X3.0782Y-3.9468
X3.1Y-2.85
X3.1244Y-5.4256
X3.125Y-4.075
X3.125Y-5.9
X3.125Y-6.35
X3.1293Y-6.2117
X3.147Y-5.297
X3.1488Y-1.6262
X3.15Y-2.575
X3.15Y-3.7
X3.175Y-3.95
X3.185Y-1.42
X3.186Y-2.479
X3.2013Y-5.3099
X3.224Y-3.627
X3.225Y-3.275
X3.225Y-3.375
X3.225Y-4.9
X3.225Y-5.175
X3.225Y-5.35
X3.225Y-5.45
X3.241Y-1.591
X3.25Y-1.924
X3.25Y-2.1
X3.25Y-3.025
X3.25Y-3.575
X3.25Y-4.125
X3.25Y-5.15
X3.2723Y-2.25
X3.275Y-1.55
X3.275Y-1.7876
X3.2873Y-3.7322
X3.294Y-2.39
X3.3Y-2.3
X3.3Y-3.55
X3.3Y-4.1
X3.3Y-5.25
X3.325Y-3.1
X3.336Y-5.422
X3.35Y-2.3
X3.35Y-2.575
X3.35Y-5.25
X3.3698Y-3.9052
X3.3741Y-3.7991
X3.375Y-3.375
X3.3767Y-2.2015
X3.4Y-2.525
X3.4Y-3.575
X3.4Y-3.972
X3.418Y-3.811
X3.4207Y-6.0457
X3.425Y-2.3
X3.425Y-2.65
X3.425Y-3.3
X3.425Y-3.35
X3.425Y-4.1
X3.425Y-6.25
X3.425Y-6.325
X3.4404Y-2.6154
X3.441Y-1.874
X3.45Y-5.5
X3.4543Y-6.0793
X3.457Y-2.426
X3.475Y-3.675
X3.475Y-3.95
X3.475Y-3.9816
X3.5Y-5.2
X3.5Y-5.25
X3.5Y-6.625
X3.509Y-2.293
X3.5244Y-2.2506
X3.531Y-5.227
X3.55Y-4.1
X3.568Y-3.874
X3.575Y-2.5
X3.575Y-2.65
X3.575Y-5.3656
X3.575Y-5.425
X3.575Y-5.525
X3.6195Y-3.05
X3.625Y-2.25
X3.625Y-5.625
X3.65Y-3.4
X3.65Y-5.2
X3.65Y-6.3
X3.7Y-2.325
X3.725Y-2.65
X3.725Y-3.075
X3.725Y-3.95
X3.825Y-6.075
X3.85Y-6.225
X3.8743Y-6.375
X3.9Y-5.525
X4.075Y-3.35
X4.125Y-6.775
T3
X2.1026Y-1.6
X2.201Y-1.6
X2.3526Y-1.6
X2.451Y-1.6
T4
X1.6Y-1.625
X1.6Y-3.125
X1.6Y-4.625
X1.6Y-6.125
X1.7Y-1.625
X1.7Y-3.125
X1.7Y-4.625
X1.7Y-6.125
X2.6Y-1.625
X2.6Y-3.125
X2.6Y-4.625
X2.6Y-6.125
X2.7Y-1.625
X2.7Y-3.125
X2.7Y-4.625
X2.7Y-6.125
T5
X2.8016Y-2.4006
X2.8016Y-3.9006
X2.8016Y-5.4006
X2.8016Y-6.9006
X2.9Y-2.4006
X2.9Y-3.9006
X2.9Y-5.4006
X2.9Y-6.9006
X2.9984Y-2.4006
X2.9984Y-3.9006
X2.9984Y-5.4006
X2.9984Y-6.9006
X3.8016Y-2.4006
X3.8016Y-3.9006
X3.8016Y-5.4006
X3.8016Y-6.9006
X3.9Y-2.4006
X3.9Y-3.9006
X3.9Y-5.4006
X3.9Y-6.9006
X3.9984Y-2.4006
X3.9984Y-3.9006
X3.9984Y-5.4006
X3.9984Y-6.9006
T6
X1.9Y-1.5171
X1.9Y-3.0171
X1.9Y-4.5171
X1.9Y-6.0171
X2.9Y-1.5171
X2.9Y-3.0171
X2.9Y-4.5171
X2.9Y-6.0171
X3.9Y-1.5171
X3.9Y-3.0171
X3.9Y-4.5171
X3.9Y-6.0171
T7
X2.25Y-1.2008
X2.35Y-1.2008
X2.45Y-1.2008
X2.55Y-1.2008
T8
X2.715Y-2.125
X2.715Y-3.625
X2.715Y-5.125
X2.715Y-6.625
X3.085Y-2.125
X3.085Y-3.625
X3.085Y-5.125
X3.085Y-6.625
X3.715Y-2.125
X3.715Y-3.625
X3.715Y-5.125
X3.715Y-6.625
X4.085Y-2.125
X4.085Y-3.625
X4.085Y-5.125
X4.085Y-6.625
T9
X1.9Y-1.375
X1.9Y-2.875
X1.9Y-4.375
X1.9Y-5.875
X2.9Y-1.375
X2.9Y-2.875
X2.9Y-4.375
X2.9Y-5.875
X3.9Y-1.375
X3.9Y-2.875
X3.9Y-4.375
X3.9Y-5.875
T2
G00X1.9197Y-2.025
M15
G01X1.8803Y-2.025
M16
G05
G00X1.9197Y-2.125
M15
G01X1.8803Y-2.125
M16
G05
G00X1.9197Y-2.225
M15
G01X1.8803Y-2.225
M16
G05
G00X1.9197Y-3.525
M15
G01X1.8803Y-3.525
M16
G05
G00X1.9197Y-3.625
M15
G01X1.8803Y-3.625
M16
G05
G00X1.9197Y-3.725
M15
G01X1.8803Y-3.725
M16
G05
G00X1.9197Y-5.025
M15
G01X1.8803Y-5.025
M16
G05
G00X1.9197Y-5.125
M15
G01X1.8803Y-5.125
M16
G05
G00X1.9197Y-5.225
M15
G01X1.8803Y-5.225
M16
G05
G00X3.4197Y-1.275
M15
G01X3.3803Y-1.275
M16
G05
G00X3.4197Y-1.375
M15
G01X3.3803Y-1.375
M16
G05
G00X3.4197Y-1.475
M15
G01X3.3803Y-1.475
M16
G05
G00X3.4197Y-2.775
M15
G01X3.3803Y-2.775
M16
G05
G00X3.4197Y-2.875
M15
G01X3.3803Y-2.875
M16
G05
G00X3.4197Y-2.975
M15
G01X3.3803Y-2.975
M16
G05
G00X3.4197Y-4.275
M15
G01X3.3803Y-4.275
M16
G05
G00X3.4197Y-4.375
M15
G01X3.3803Y-4.375
M16
G05
G00X3.4197Y-4.475
M15
G01X3.3803Y-4.475
M16
G05
G00X3.4197Y-5.775
M15
G01X3.3803Y-5.775
M16
G05
G00X3.4197Y-5.875
M15
G01X3.3803Y-5.875
M16
G05
G00X3.4197Y-5.975
M15
G01X3.3803Y-5.975
M16
G05
M30
